<?xml version="1.0" encoding="utf-8"?>
<svg width="108px" height="144px" viewBox="0 0 108 144" version="1.1" xmlns="http://www.w3.org/2000/svg">
  <desc>Created with Lunacy</desc>
  <defs>
    <path d="M0 0L108 0L108 144L0 144L0 0Z" id="path_1" />
    <clipPath id="mask_1">
      <use href="#path_1" />
    </clipPath>
  </defs>
  <g id="la-angels-logo@logotyp.us">
    <path d="M0 0L108 0L108 144L0 144L0 0Z" id="Background" fill="none" stroke="none" />
    <g clip-path="url(#mask_1)">
      <path d="M95.2176 137.027L56.1676 137.027C59.3496 134.577 61.0923 130.287 59.6648 125.375L58.7178 122.117L36.506 122.117L35.5463 125.375C34.1131 130.286 35.8554 134.577 39.0506 137.027L0 137.027C3.59259 134.577 6.75533 130.287 8.2017 125.375L19.1241 87.9183C20.3051 83.8842 18.3725 79.8526 15.3108 77.1253C19.6671 75.7835 23.5439 72.7659 24.7498 68.5891L30.8616 47.6213C22.161 44.7107 16.4851 39.5622 16.4851 33.5767C16.4851 25.7632 26.1642 19.3677 39.6312 17.5367L44.7387 0L50.4592 0L55.5733 17.5331C69.0337 19.3642 78.7005 25.7632 78.7005 33.5767C78.7005 39.5617 73.0378 44.7107 64.3434 47.6213L70.4618 68.5891C71.6742 72.7654 75.5378 75.7829 79.8942 77.1253C76.8258 79.8526 74.907 83.8842 76.0869 87.9183L87.0032 125.375C88.4247 130.286 91.6129 134.577 95.2176 137.027ZM47.6116 83.9938L44.2403 95.5831L50.9769 95.5831L47.6116 83.9938Z" transform="translate(6.150574 4.987488)" id="Shape" fill="#FFFFFF" fill-rule="evenodd" stroke="none" />
      <path d="M77.8804 123.469C78.7523 126.439 80.2302 129.274 82.0983 131.708L55.0551 131.708C57.1593 127.053 56.1576 123.619 55.2218 120.41C55.1891 120.298 55.1565 120.187 55.1242 120.075L54.1589 116.786L27.944 116.786L26.9843 120.075C26.9576 120.165 26.9308 120.255 26.904 120.346C25.9465 123.572 24.9228 127.022 27.0416 131.708L0 131.708C1.86912 129.274 3.35306 126.439 4.21783 123.469L15.0591 86.2582C16.6819 80.7186 13.9808 76.6808 13.2918 75.6508C13.2465 75.5831 13.2099 75.5284 13.1838 75.4871C16.9525 73.4479 19.6991 70.3385 20.7664 66.6667L27.3644 44.0195C18.0579 41.5414 11.706 36.6075 11.706 30.9123C11.706 23.7084 21.9088 17.697 35.4265 16.3714L40.1935 0L41.9236 0L46.6905 16.3714C60.1956 17.7006 70.3923 23.7114 70.3923 30.9123C70.3923 36.6075 64.0475 41.5414 54.741 44.0195L61.3385 66.6667C62.387 70.3375 65.1458 73.4474 68.9149 75.4871C68.8878 75.5306 68.849 75.5892 68.8006 75.6622C68.1055 76.7103 65.4338 80.7388 67.0336 86.2582L77.8804 123.469ZM41.0578 71.7813L34.1066 95.5836L47.9842 95.5836L41.0578 71.7813Z" transform="translate(12.70288 7.650879)" id="Shape" fill="#003263" fill-rule="evenodd" stroke="none" />
      <path d="M32.9322 24.6777L32.9383 24.6777L29.4594 12.7225L30.141 15.1027C28.7205 15.024 27.2492 14.9702 25.7526 14.9702L25.7526 22.7264L46.5814 94.1286L51.3671 110.507L59.6008 115.434C59.0258 114.184 58.5087 112.903 58.1169 111.59L47.7497 76.1068C46.1201 70.5598 47.0173 68.1669 48.1978 64.8205C45.0848 62.4306 43.0142 59.3212 42.0038 55.8174L34.137 28.791L34.1182 28.7945M28.1911 8.36005L25.7536 0L25.7536 8.30575C26.5747 8.30625 27.3887 8.32858 28.1911 8.36005M0 110.94L6.65485 115.435C6.29503 113.197 6.63607 110.252 7.27299 108.161L9.48315 100.522L4.91209 94.1291M13.196 87.7275L25.7541 44.7306L25.7541 22.7269L4.91209 94.1291L46.5834 94.1291L38.2746 87.7275" transform="translate(28.008 19.71265)" id="Shape" fill="#CD1141" stroke="none" />
      <path d="M33.8792 44.7295L46.3997 87.7264L54.7085 94.1281L33.8792 22.7258M67.7269 115.434L59.4932 110.506L54.7075 94.1281L13.0367 94.1281L33.8787 22.7258L33.8787 14.9697C35.3753 14.9697 36.846 15.0235 38.267 15.1022L37.585 12.722C37.4017 12.7093 37.2124 12.7032 37.0232 12.6966C36 12.6428 34.9526 12.6114 33.8792 12.6114C32.6099 12.6114 31.3726 12.6525 30.1668 12.7215L26.6818 24.6767L25.4948 28.793L25.4821 28.7895L17.6087 55.8159C16.5983 59.3196 14.547 62.4291 11.4152 64.8189C12.5896 68.1654 13.4924 70.5587 11.8699 76.1052L1.49002 111.588C1.09823 112.902 0.605955 114.183 0 115.433L14.7809 115.433L8.12609 110.938L13.0387 94.1275L17.6097 100.521L50.1314 100.521L52.373 108.16C52.9668 110.25 53.3078 113.195 52.9668 115.433M33.8792 0L31.4416 8.36005C32.2435 8.32858 33.058 8.30625 33.8792 8.30625" transform="translate(19.883 19.71362)" id="Shape" fill="#8F0028" stroke="none" />
      <path d="M17.8818 16.3719C10.3368 15.4691 4.97606 13.193 4.97606 10.5443C4.97606 7.49475 12.0349 4.95623 21.3668 4.41676C22.5726 4.34724 23.8104 4.30664 25.0792 4.30664C26.1525 4.30664 27.2 4.3381 28.2231 4.3919C28.4129 4.39799 28.6022 4.40458 28.7849 4.41727C38.1102 4.95725 45.1756 7.48917 45.1756 10.5448C45.1756 13.1935 39.8088 15.4691 32.2638 16.3724L32.2577 16.3724L33.4448 20.4888L33.4636 20.4852C43.1807 19.0272 50.1512 15.1407 50.1512 10.5443C50.1512 5.07348 40.2133 0.568908 27.5161 0.0537964C26.7143 0.0223332 25.8998 0 25.0786 0C24.2575 0 23.4435 0.0223293 22.6411 0.0537964C9.91858 0.568401 0 5.07348 0 10.5443C0 15.1402 6.95732 19.0297 16.681 20.4852L16.6937 20.4888" transform="translate(28.68304 28.01837)" id="Shape" fill="#C4CDD3" fill-rule="evenodd" stroke="none" />
      <path d="M7.55055 3.8357L8.33465 3.8357L8.33465 0L6.98369 0L6.06206 2.50351L6.0367 2.50351L5.14603 0L3.79507 0L3.79507 3.8357L4.57763 3.8357L4.57763 0.783074L4.5964 0.783074L5.66316 3.8357L6.42087 3.8357L7.53178 0.783074L7.55055 0.783074L7.55055 3.8357ZM1.93763 0.685155L3.09321 0.685155L3.09372 0.000536113L0 0.000536113L0 0.685155L1.15507 0.685155L1.15507 3.83624L1.93763 3.83624L1.93763 0.685155Z" transform="translate(99.31635 135.3688)" id="Shape" fill="#003263" fill-rule="evenodd" stroke="none" />
    </g>
  </g>
</svg>