<?xml version="1.0" encoding="utf-8"?>
<svg width="129px" height="149px" viewBox="0 0 129 149" version="1.1" xmlns:xlink="http://www.w3.org/1999/xlink" xmlns="http://www.w3.org/2000/svg">
  <desc>Created with Lunacy</desc>
  <defs>
    <path d="M0 0L128.6 0L128.6 149L0 149L0 0Z" id="path_1" />
    <clipPath id="mask_1">
      <use href="#path_1" />
    </clipPath>
  </defs>
  <g id="houston-astros-logo@logotyp.us">
    <path d="M0 0L128.6 0L128.6 149L0 149L0 0Z" id="Background" fill="none" stroke="none" />
    <g clip-path="url(#mask_1)">
      <path d="M55.7606 0C24.9657 0 0 25.0171 0 55.8798C0 86.7262 24.9657 111.75 55.7606 111.75C86.5593 111.75 111.526 86.7284 111.526 55.8798C111.526 25.0167 86.5619 0 55.7606 0" transform="translate(6.537109 18.625)" id="Shape" fill="#002D62" fill-rule="evenodd" stroke="none" />
      <path d="M53.2966 0C23.8616 0 0 23.8616 0 53.2966C0 82.7326 23.8616 106.588 53.2966 106.588C82.7304 106.588 106.593 82.7326 106.593 53.2966C106.593 23.8594 82.7293 0 53.2966 0" transform="translate(9.001221 21.20197)" id="Shape" fill="#EB6E1F" fill-rule="evenodd" stroke="none" />
      <path d="M102.373 51.1867L102.373 51.1916C102.373 79.4565 79.4535 102.378 51.1867 102.378C22.9184 102.378 0 79.4565 0 51.1867C0 22.9158 22.9166 0 51.1822 0C76.3584 0 97.2866 18.1802 101.56 42.1238C102.091 45.0643 102.365 48.0935 102.365 51.1882" transform="translate(11.11066 23.31329)" id="Shape" fill="#002D62" fill-rule="evenodd" stroke="none" />
      <path d="M34.1936 0.000747433C15.3079 0.000747433 0 15.3112 0 34.2C0 53.082 15.3079 68.3832 34.1936 68.3832C53.0839 68.3832 68.3869 53.082 68.3869 34.2C68.3869 15.312 53.0842 0 34.1936 0" transform="translate(28.10413 40.3045)" id="Shape" fill="#EB6E1F" fill-rule="evenodd" stroke="none" />
      <path d="M51.0489 59.0148L48.7442 51.9265L39.9089 51.9265L50.3583 59.5132C45.1437 63.239 38.7661 65.4315 31.8707 65.4315C24.9825 65.4315 18.6 63.239 13.3932 59.5132L23.8434 51.9265L18.3486 51.9265L12.2739 60.3338L12.7022 59.0148C4.98814 53.1938 0 43.9662 0 33.5626C0 30.2202 0.512188 27.0081 1.46765 23.9842L18.1739 36.1329L18.1739 34.0186L5.41689 24.7388L0.160917 23.0455L1.78055 23.0455C6.07175 10.7723 17.6476 1.92918 31.3239 1.69785L31.8707 0L31.8707 31.2364L38.5556 31.2364L38.5556 24.5902L34.2316 23.0455L34.2316 17.5649L37.5834 17.5649L32.425 1.7001C46.1036 1.93514 57.6779 10.7742 61.9609 23.0462L63.5902 23.0462L58.3398 24.7441L45.5851 24.7441L45.5851 36.1239L62.2824 23.995C63.2345 27.0137 63.7496 30.2221 63.7496 33.5638C63.7496 43.9613 58.7596 53.1949 51.0485 59.0156" transform="translate(30.42407 40.94263)" id="Shape" fill="#002D62" fill-rule="evenodd" stroke="none" />
      <path d="M13.3634 6.64689L13.3634 0L3.03066 0L0 4.19882L0 6.64652L4.31616 8.19649L4.31616 9.54568L6.67967 7.82697L9.03797 9.54606L9.03797 8.19687" transform="translate(55.61774 79.19647)" id="Shape" fill="#EB6E1F" fill-rule="evenodd" stroke="none" />
      <path d="M31.7188 0L31.1701 1.69934L26.0109 17.5652L29.3571 17.5667L29.3571 23.0488L25.0376 24.5936L25.0376 31.2371L31.7191 31.2371L31.7191 0L31.7188 0ZM5.253 24.7426L0 23.0492L0.000375137 23.0492L0.000375137 23.0484L13.6942 23.0484L18.0171 24.5932L18.0171 34.0242L5.253 24.7426ZM49.7485 23.0492L45.4316 24.5932L45.4316 24.747L58.189 24.747L63.4401 23.0488L49.7489 23.0488L49.7485 23.0492ZM25.0364 42.4579L25.0364 38.2636L28.0652 38.2636L25.0364 42.4579ZM18.0175 44.9071L17.9393 44.9357L18.0175 44.9067L18.0175 44.9071ZM17.9393 44.9357L17.0132 45.2792L17.0132 45.2745L17.9393 44.9357ZM12.5487 59.0241L14.8504 51.934L18.1958 51.934L12.114 60.3424L12.5487 59.0241Z" transform="translate(30.60547 40.94446)" id="Shape" fill="#F4871E" fill-rule="evenodd" stroke="none" />
      <path d="M38.4383 0.000372295L37.1528 1.27879L37.1528 4.97995L38.4383 6.25241L41.2935 6.25241L41.5617 6.52508L41.5617 8.79435L41.2935 9.06069L38.8462 9.06069L38.4663 8.05941L37.1524 8.05941L37.1524 10.7861L42.0113 10.7861L43.289 9.50247L43.289 5.81137L42.0098 4.52364L39.1528 4.52364L38.8883 4.26065L38.8883 1.9966L39.1528 1.73026L41.5993 1.73026L41.9838 2.7267L43.2905 2.7267L43.2905 0L38.4383 0L38.4383 0.000372295ZM26.4915 2.00257L29.5281 1.05306L29.5285 1.05344L29.9363 2.35198L29.3456 2.88465L31.68 10.3447L30.8434 11.9554L27.3668 13.0349L25.764 12.2035L23.4303 4.74454L22.6283 4.63503L22.223 3.34618L25.2563 2.39258L25.6701 3.69633L25.0741 4.22491L27.1944 11.0003L27.5382 11.1642L29.635 10.5134L29.8145 10.1741L27.6909 3.3987L26.9001 3.29998L26.4915 2.00257ZM51.0474 1.1052L50.1623 3.95371L51.3927 4.33366L52.1485 3.25602L53.1606 3.57525L50.9692 10.6125L50.1691 10.7183L49.7697 12.0079L52.8056 12.9529L53.2094 11.6544L52.6183 11.1191L54.813 4.09303L55.8225 4.41002L55.8344 5.72458L57.0659 6.10974L57.9573 3.25602L51.0474 1.10557L51.0474 1.1052ZM64.2622 7.81877L66.0472 7.48911L69.0421 9.5684L69.3625 11.3508L64.6839 18.1054L62.8951 18.4335L62.8951 18.435L59.9081 16.3654L59.5791 14.5748L64.2622 7.81877ZM14.3461 7.52639L11.3598 9.59451L11.0301 11.3814L15.7243 18.1419L17.5112 18.4716L20.5035 16.3863L20.8194 14.6166L16.133 7.85084L14.3461 7.52639ZM67.4705 10.5797L65.6505 9.32813L65.6509 9.32776L65.284 9.39444L61.4159 14.9797L61.4804 15.3485L63.2952 16.6068L63.6658 16.5401L67.5331 10.9556L67.4705 10.5797ZM14.7443 9.35868L15.1235 9.42536L18.9897 15.0002L18.9252 15.3801L17.1134 16.6343L16.7413 16.5762L12.8654 11.0029L12.9347 10.6174L12.9347 10.6159L14.7443 9.35905L14.7443 9.35868ZM74.6069 16.2425L75.6763 15.4107L77.3724 17.5776L73.6526 23.7733L77.6361 20.6734L77.4573 19.8975L78.5193 19.0564L80.4831 21.5644L79.4081 22.407L78.6992 22.0323L71.5275 27.6283L70.2837 26.0326L73.9946 19.8353L70.0103 22.936L70.2014 23.7212L69.1286 24.5578L67.1655 22.0434L68.2405 21.2061L68.9487 21.5707L74.7909 17.0173L74.6069 16.2425ZM4.66333 15.5389L2.71069 18.0495L3.7779 18.8809L4.48975 18.5174L6.73294 20.2506L5.09022 22.3716L2.84702 20.6254L3.03104 19.8513L1.96382 19.0139L0 21.5298L1.07504 22.3619L1.78577 22.0017L7.63402 26.5395L7.45112 27.3162L8.52094 28.1465L10.4769 25.6321L9.40712 24.8059L8.69528 25.1695L6.45469 23.4288L8.09741 21.3145L10.3358 23.0604L10.151 23.8404L11.2264 24.6726L13.1824 22.1567L12.1159 21.3245L11.3966 21.6959L5.55175 17.1525L5.7339 16.3722L4.66371 15.5407L4.66296 15.54L4.66333 15.5389ZM22.1992 31.9955L22.1992 31.9951L22.1988 31.994L22.1988 31.9955L22.1992 31.9955ZM22.1992 31.9955L22.1992 37.4779L23.586 36.4878L27.9137 38.0363L26.5235 39.0219L26.5235 59.3347L22.1992 60.8866L22.1992 66.3634L23.586 64.9621L36.4674 64.9621L36.4674 61.8554L37.8635 60.8862L33.544 59.3355L32.1479 60.3111L32.1479 51.2914L48.3047 51.2914L46.9082 52.6886L46.9082 59.3355L42.5872 60.8862L42.5872 66.3631L43.9819 64.9617L56.8599 64.9617L56.8599 61.8551L58.252 60.8858L53.9354 59.3351L52.5374 60.3107L52.5374 38.0367L56.8596 36.4875L56.8596 33.3909L58.2516 31.9962L42.5853 31.9962L42.5853 37.4783L43.9807 36.4875L48.3036 38.0367L46.9063 39.0227L46.9063 45.6651L33.5422 45.6651L32.146 47.0612L32.146 38.0374L36.4655 36.4875L36.4655 33.3916L37.8617 31.9955L22.1992 31.9955ZM90.6088 38.9259C91.007 41.13 91.2607 43.3873 91.3627 45.683C91.261 43.3869 91.0077 41.1311 90.6088 38.9259ZM65.0698 75.727L68.524 72.3283L68.5236 72.329L70.4424 74.2686L69.5137 75.1876L68.5415 74.7469L66.7926 76.456L66.7874 76.8396L68.3765 78.4574L68.7594 78.4574L70.7948 76.4459L72.6051 76.4727L75.2007 79.0903L75.1877 80.9129L71.7282 84.3202L69.8136 82.3694L70.7463 81.4616L71.7238 81.8971L73.4671 80.178L73.4671 79.798L71.8746 78.1959L71.4995 78.1959L69.4672 80.1929L67.6497 80.178L65.0575 77.5485L65.0698 75.727ZM12.8829 73.2562L12.8829 73.2577L5.43516 78.6928L4.68867 78.4265L3.73768 79.3909L6.01664 81.63L6.96241 80.6596L6.68304 79.915L7.63143 79.2277L9.60568 81.1666L8.93332 82.1258L8.18869 81.8654L7.24515 82.8298L9.51814 85.0573L10.4676 84.0929L10.1883 83.3528L15.4848 75.8018L12.8829 73.2558L12.8829 73.2562ZM13.2234 76.0127L12.7157 75.511L12.7153 75.511L9.04841 78.1945L10.6114 79.7403L13.2234 76.0127ZM58.6107 80.3769L55.358 82.0137L54.7966 83.7439L58.497 91.084L60.2213 91.6439L63.474 90.0064L64.038 88.2873L60.335 80.9461L58.6107 80.3769ZM20.2216 81.0083L21.9328 80.4388L21.9332 80.438L26.2769 82.61L25.0506 85.0533L23.8914 84.4673L23.9927 83.4001L21.8032 82.3064L21.4456 82.4201L20.4302 84.4464L20.5501 84.8059L23.0999 86.0888L23.6728 87.8038L22.0151 91.1153L20.2901 91.6905L15.9527 89.5076L17.1797 87.0596L18.3419 87.6503L18.2447 88.7123L20.4309 89.8112L20.793 89.6939L21.8039 87.6753L21.687 87.3065L19.132 86.0385L18.5625 84.3131L20.2216 81.0083ZM58.7518 82.2454L59.1109 82.3627L62.1729 88.43L62.0496 88.7895L60.082 89.7796L59.7252 89.6626L56.6632 83.6043L56.7806 83.2407L58.7522 82.2443L58.7522 82.245L58.7518 82.2454ZM30.4646 87.1382L30.922 84.1958L38.0695 85.3047L37.6166 88.2571L36.3341 88.0508L36.1326 86.7523L35.0843 86.5932L33.9553 93.8838L34.6198 94.3196L34.415 95.6587L31.2629 95.1666L31.4756 93.8312L32.2403 93.6066L33.372 86.3317L32.326 86.1566L31.7352 87.3423L30.4646 87.1382ZM47.8469 84.4472L42.3302 85.3196L42.541 86.6595L43.3117 86.8789L44.4661 94.1896L43.8016 94.6373L44.0143 95.9765L47.1567 95.474L46.9477 94.1393L46.1804 93.9247L45.7371 91.1206L47.293 90.8799L48.5141 93.426L47.9594 93.8115L48.1747 95.1447L51.319 94.6474L51.1082 93.312L50.2604 93.0654L48.9846 90.4072L49.8804 89.1646L49.3086 85.51L47.8462 84.4476L47.8469 84.4472ZM47.7091 86.4956L47.4044 86.2699L45.0274 86.6457L45.464 89.4011L47.8454 89.0368L48.0633 88.7287L47.7091 86.4956Z" transform="translate(22.10095 26.51416)" id="Shape" fill="#FFFFFF" fill-rule="evenodd" stroke="none" />
      <path d="M36.0509 5.48169L36.0509 0.000353665L34.6574 1.40058L34.6574 4.49085L30.336 6.04007L30.336 28.3104L31.7366 27.3355L31.7366 7.02607M36.0506 28.8862L34.657 29.8562L34.657 32.961L21.7819 32.961L20.3836 34.3627L36.0513 34.3627M11.3449 20.6942L24.7072 20.6942L26.1041 19.2925L9.94874 19.2925L9.94874 28.3156L11.3449 27.3355L11.3449 24.8878M15.664 30.2355L15.664 28.8866L14.2712 29.8559L14.2712 32.9607L1.39017 32.9607L0 34.3624L15.6644 34.3624M5.71712 6.04012L1.3909 4.48978L0.00520393 5.48137L4.32695 7.02576M21.7827 4.49013L20.3843 5.48061L24.7061 7.02537L26.1052 6.04048M15.6647 5.48134L15.6647 0L14.2719 1.40023L14.2719 4.49049L9.94945 6.03972L9.94945 15.0628L11.3456 13.6722L11.3456 7.02498" transform="translate(44.27399 58.50635)" id="Shape" fill="#E7E9EA" stroke="none" />
    </g>
  </g>
</svg>