<?xml version="1.0" encoding="utf-8"?>
<svg width="138px" height="158px" viewBox="0 0 138 158" version="1.1" xmlns:xlink="http://www.w3.org/1999/xlink" xmlns="http://www.w3.org/2000/svg">
  <desc>Created with Lunacy</desc>
  <defs>
    <path d="M0 0L138 0L138 158L0 158L0 0Z" id="path_1" />
    <clipPath id="mask_1">
      <use href="#path_1" />
    </clipPath>
  </defs>
  <g id="toronto-blue-jays-logo@logotyp.us">
    <path d="M0 0L138 0L138 158L0 158L0 0Z" id="Background" fill="none" stroke="none" />
    <g clip-path="url(#mask_1)">
      <path d="M73.3108 0.928848C64.9542 -0.515285 56.5453 -0.275222 48.326 1.64737C39.8161 3.63842 31.9383 7.34039 24.9038 12.6518C11.5572 22.7282 2.92869 37.3954 0.614484 53.961C-1.7018 70.524 2.57757 86.9981 12.6523 100.346C22.2648 113.085 36.2189 121.601 51.9407 124.321C60.2999 125.765 68.7004 125.523 76.9205 123.597C85.4342 121.615 93.3162 117.914 100.344 112.602C113.692 102.531 122.322 87.8603 124.637 71.291C126.951 54.7279 122.67 38.255 112.599 24.9059C102.984 12.1663 89.0297 3.65388 73.3104 0.933866" transform="translate(7.274719 11.87677)" id="Shape" fill="#134A8E" fill-rule="evenodd" stroke="none" />
      <path d="M120.067 68.6733C117.837 84.6302 109.528 98.7651 96.6702 108.465C89.8891 113.586 82.2965 117.149 74.0985 119.068C73.1081 119.299 72.1145 119.504 71.1221 119.686C64.1582 120.956 57.0795 120.982 50.0379 119.765C38.6807 117.796 28.2837 112.692 19.8827 105.086C17.0859 102.547 14.5091 99.7362 12.1941 96.6688C4.30374 86.2238 0.106611 73.7827 0.00140152 60.927C-0.0186402 57.9578 0.175916 54.9714 0.596754 51.9817C2.4158 38.9448 8.29253 27.1275 17.4007 17.9429C19.4373 15.8863 21.6417 13.9608 23.9914 12.1856C28.5509 8.74039 33.4807 6.00743 38.7153 3.99759C41.26 3.02189 43.8773 2.21319 46.5585 1.58903C54.4835 -0.264255 62.5788 -0.497221 70.6278 0.894307C85.7726 3.51078 99.2115 11.7096 108.477 23.985C118.181 36.8448 122.303 52.7111 120.073 68.6742" transform="translate(9.566467 14.17499)" id="Shape" fill="#FFFFFF" fill-rule="evenodd" stroke="none" />
      <path d="M114.314 81.2609C116.061 76.8713 117.294 72.245 117.962 67.4492C118.643 62.5515 118.726 57.6671 118.218 52.8746L118.218 52.8613C118.202 52.7653 118.188 52.663 118.176 52.5598C117.01 42.1186 113.062 32.1466 106.571 23.5419C99.3693 14.0046 89.5986 6.96802 78.4622 3.17837C75.5276 2.17512 72.494 1.39397 69.3857 0.85874C68.8847 0.773988 68.3816 0.691322 67.8777 0.613667C64.8546 0.173621 61.8068 -0.0246906 58.7821 0.00244629C57.1208 0.0158069 55.4625 0.106821 53.8055 0.260879C53.0974 0.328096 52.3801 0.409508 51.6791 0.499688C51.3885 0.53768 51.0934 0.574838 50.8036 0.62285C40.9974 2.04193 31.5857 5.90047 23.5684 11.9521C19.4356 15.0721 15.7841 18.6555 12.6621 22.6197C6.23175 30.763 2.05716 40.5008 0.582554 51.0506C-0.100476 55.9495 -0.18272 60.8401 0.334976 65.6385C0.9057 71.0192 2.22082 76.2851 4.24152 81.2989C6.17747 86.1093 8.76054 90.701 11.972 94.9503C15.6718 99.8517 20.0468 104.087 24.9362 107.57C26.7181 108.837 28.5759 110.009 30.4868 111.069C36.2408 114.261 42.5342 116.493 49.1616 117.636L49.1616 117.643C50.6696 117.905 52.1835 118.1 53.7015 118.241C56.2032 118.477 58.7127 118.553 61.2056 118.465C61.8528 118.443 62.4936 118.412 63.1416 118.365C74.5815 117.603 85.7108 113.543 94.971 106.544C95.8878 105.847 96.7858 105.129 97.6613 104.394C105.1 98.0807 110.772 90.1708 114.312 81.2605" transform="translate(10.62616 15.25104)" id="Shape" fill="#134A8E" fill-rule="evenodd" stroke="none" />
      <path d="M91.2963 102.456C78.5892 112.05 62.9488 115.839 47.2546 113.12C32.9569 110.647 20.257 102.902 11.5116 91.3108C2.34246 79.1645 -1.54363 64.175 0.556397 49.1074C2.66561 34.034 10.5134 20.6886 22.6551 11.5182C35.3621 1.93073 51.0096 -1.86058 66.7026 0.858176C79.4418 3.05965 90.9022 9.44364 99.4338 19.0069L99.5064 19.0871C100.529 20.2323 101.509 21.4272 102.445 22.6659C111.616 34.8072 115.505 49.8042 113.4 64.8714C111.292 79.9435 103.443 93.2889 91.3017 102.456" transform="translate(12.9201 17.5144)" id="Shape" fill="#FFFFFF" fill-rule="evenodd" stroke="none" />
      <path d="M25.4666 0.000558647L25.4669 0.000407715L25.4665 0L25.4666 0.000558647ZM25.4666 0.000558647C23.6569 0.767056 22.7247 1.66929 21.3629 3.82805C6.52871 6.28211 1.44941 8.65226 0.110064 10.1269C-0.0828234 10.3962 0.000261192 10.5277 0.186466 10.5815C5.11839 10.3749 12.0284 10.1256 24.1242 10.5339C25.1242 10.5473 26.0994 10.5719 27.0576 10.589C27.6676 9.78244 28.7681 9.07102 30.8765 9.07102L31.4952 9.07102C35.4155 9.12112 36.137 13.1437 40.2994 13.1437C44.4197 13.1437 45.1679 9.19168 48.9989 9.07353L49.3796 9.07102L63.7345 9.07102L63.535 6.69002L49.173 6.69002C45.1854 6.69002 44.4794 2.61271 40.2923 2.61271C36.1503 2.61271 35.4297 6.66998 31.5445 6.66998L31.5061 6.66998C27.4161 6.3861 25.7982 2.92837 25.4666 0.000558647ZM0.419875 11.7676C-0.124545 11.3405 0.0094717 11.1389 0.505043 11.1451L0.506272 11.1451L0.505438 11.143C1.02064 11.1455 1.59303 11.1572 2.2126 11.1681C10.8294 11.442 18.4417 12.2486 25.3847 13.2406C24.8979 16.4115 28.6821 18.5921 32.6868 20.2337C46.5127 25.9092 54.1684 36.2335 57.4324 44.2625C60.7052 38.5369 65.5624 33.3753 68.082 30.2503L63.1768 30.2708C64.3007 27.1709 66.6625 23.1541 69.0873 19.4467L73.5475 23.2977L72.3944 24.6905L70.2672 27.2473L73.5801 26.978L80.483 26.4131C79.4292 27.2393 65.9419 38.0338 54.3321 60.5813C48.2094 42.6096 38.1715 28.0756 30.8084 22.9286C27.4254 20.5639 25.2774 19.2701 20.5638 18.3921C10.7626 16.5668 2.77583 13.4752 0.419875 11.7676Z" transform="translate(16.60046 59.60822)" id="Shape" fill="#1D2D5C" fill-rule="evenodd" stroke="none" />
      <path d="M1.45879 0C0.594154 0.580744 -0.0325152 1.65998 0.00130596 2.70456L1.39825 2.70456C1.33104 2.19062 1.17322 1.1786 1.45837 0" transform="translate(53.86414 64.08508)" id="Shape" fill="#FFFFFF" fill-rule="evenodd" stroke="none" />
      <path d="M52.7867 -4.37432e-06L50.0249 0.166553C50.2366 0.413297 50.3051 0.723915 50.3481 1.20362L50.6103 5.64916L43.9808 0.467153L44.5327 9.83669C44.5532 10.2759 44.5206 10.7255 44.1954 11.0954L47.1112 10.9255C46.8323 10.6349 46.806 10.306 46.7584 9.72688L46.7584 9.70768L46.5117 5.4258L53.1228 10.6157L52.5654 1.1172C52.5466 0.737697 52.5654 0.323953 52.7867 -4.37432e-06ZM56.9868 2.77674L57.9057 0.477145L57.9052 0.477142L57.9061 0.477142L65.4073 1.99642L65.3656 4.51145C65.0746 4.23256 64.6295 3.89187 64.0221 3.76746L62.3132 3.42302L60.862 10.5861C60.7576 11.0975 60.8812 11.5492 61.1012 11.8832L57.9412 11.242C58.3127 11.0286 58.5106 10.6821 58.6229 10.1327L60.0729 2.96711L58.5311 2.65733C57.952 2.55546 57.5312 2.5421 56.9868 2.77674ZM35.1347 2.98214C33.3885 2.9113 31.6335 3.68325 30.5109 5.19323C28.7094 7.62058 29.1995 11.0428 31.6081 12.8272C34.0121 14.6124 37.431 14.0956 39.2296 11.6699C41.0277 9.24382 40.5376 5.82282 38.1328 4.04302C37.2293 3.37084 36.1835 3.02474 35.1356 2.98215L35.1351 2.98215L35.1347 2.98214ZM67.744 7.11497C68.8687 5.60111 70.626 4.83166 72.3728 4.90264L72.3728 4.90222L72.3736 4.90222C73.4224 4.94438 74.4669 5.29007 75.3704 5.95891C77.7706 7.74372 78.2658 11.1655 76.4689 13.5833C74.6711 16.0106 71.2459 16.5338 68.8432 14.7473C66.4384 12.9646 65.947 9.54231 67.744 7.11497ZM35.0299 5.20197C35.6591 5.22702 36.2837 5.42909 36.8152 5.82196C38.2292 6.87447 38.5323 8.95446 37.4848 10.3673C36.439 11.7884 34.3515 12.0961 32.9374 11.0436C31.5254 9.99445 31.2157 7.91363 32.2636 6.49705C32.922 5.61321 33.982 5.16064 35.0299 5.20155L35.0299 5.20197ZM74.0403 7.7433C73.5092 7.35043 72.8859 7.14836 72.2576 7.12331L72.2576 7.12289C71.2109 7.08114 70.1521 7.53288 69.4937 8.41839C68.4445 9.82871 68.751 11.9108 70.1638 12.9645C71.5816 14.0125 73.6625 13.7027 74.7137 12.2899C75.7629 10.8787 75.4531 8.78997 74.0403 7.7433ZM22.2991 9.91307L22.2983 9.91309C21.8689 9.92364 21.41 10.0222 20.9493 10.2037C20.8262 10.2492 20.2279 10.5122 19.7565 10.8566L19.7231 10.8854L16.8495 12.9733C17.2165 13.0568 17.6344 13.2046 17.9266 13.5992L17.9266 13.6004L22.9254 20.5572C23.0498 20.8194 23.1308 21.148 23.0702 21.5083L25.6295 19.6517C25.1364 19.6074 24.8605 19.3177 24.5394 18.924L22.3738 15.9422L27.9901 17.932L30.3924 16.1827C29.9991 16.1614 29.5198 16.0737 28.9833 15.9276L25.2801 14.6617L25.3494 14.4801C25.7965 13.3424 25.5823 12.512 25.5347 12.358C25.4237 11.9855 25.2454 11.6302 24.9987 11.3029C24.6743 10.8504 24.2751 10.5034 23.8213 10.2767L23.7566 10.2429C23.393 10.073 23.0686 9.97737 22.7183 9.93186C22.5824 9.91602 22.4424 9.90934 22.2991 9.91307ZM22.2181 12.125L22.2177 12.1249C21.8646 12.1213 21.4915 12.2791 21.0395 12.6047L20.316 13.1382L21.8236 15.1948L22.5989 14.6304C23.509 13.9632 23.4151 13.2021 23.4005 13.1182C23.38 12.9988 23.2234 12.5166 22.8444 12.3057C22.6353 12.1885 22.43 12.1275 22.2181 12.125ZM84.0357 14.8425L84.0348 14.8422L84.0348 14.8417L84.0357 14.8425ZM84.0348 14.8422C84.0338 14.8851 83.9673 17.4736 83.0858 19.5699C85.4142 18.2439 87.7852 17.5308 90.2714 17.153C87.7138 20.0896 85.8222 22.6573 84.5421 26.1163C86.7999 24.5385 88.252 23.9532 90.3174 23.8768C88.2578 25.8482 87.551 30.0904 86.5653 34.0964L83.7417 29.4796L82.5498 27.5353L81.357 29.4796L77.865 35.2044L75.5299 34.2617L73.3932 33.4L73.6165 35.6933C73.6232 35.7543 74.1735 41.4373 74.3868 43.6701C73.1673 42.4835 70.8368 40.2161 70.8034 40.1839L69.2996 38.7185L68.5293 40.6724L67.8329 42.4501L63.0918 41.6356L61.3178 41.3337L61.4197 42.5937C58.2229 42.4096 56.0957 42.0067 52.8776 41.2239C50.2674 40.5914 46.4151 39.0671 42.8125 37.952C44.9368 37.6676 47.4535 37.6125 50.5142 37.8889C50.5142 37.8889 37.509 33.6667 31.4398 37.8267C30.6466 38.3085 30.0533 38.8972 29.7302 39.5351C28.906 41.1892 29.5506 42.8154 29.5506 42.8154C27.0928 42.8154 25.0116 40.0791 25.1919 37.2134C27.0227 34.4295 29.6751 31.6156 34.8437 29.9213C42.7169 27.3362 73.1289 27.4932 84.0344 14.8421L84.0348 14.8422ZM9.124 21.2586C10.2496 19.7452 12.0085 18.9749 13.7566 19.0454L13.7574 19.0446C14.8062 19.0868 15.852 19.4325 16.7542 20.1013C19.1557 21.8823 19.6454 25.3008 17.8481 27.7269C16.0499 30.1509 12.6339 30.6749 10.2291 28.8909C7.82724 27.0986 7.32833 23.6834 9.124 21.2586ZM13.6418 21.2611C14.2702 21.2853 14.8923 21.4882 15.4212 21.8819C16.8416 22.9349 17.1443 25.0144 16.0976 26.426C15.0484 27.8451 12.9638 28.1561 11.5523 27.0986C10.1369 26.0557 9.8284 23.9686 10.8742 22.5545C11.5326 21.6719 12.5943 21.2202 13.6414 21.2611L13.6418 21.2611ZM4.25469 29.1878L4.25472 29.1877L4.2543 29.1877L4.25469 29.1878ZM4.25469 29.1878L1.36145 36.2631L3.4431 37.6087C3.31994 37.0271 3.40929 36.6159 3.61553 36.0619L4.20671 34.6098L10.9769 37.3774C11.5238 37.5999 11.7998 37.9047 11.9296 38.2821L13.1646 35.2707C12.7934 35.4273 12.3304 35.4632 11.8461 35.2636L5.07469 32.4889L5.73851 30.8761C5.97064 30.3054 6.3919 29.9271 6.7163 29.6987L4.25469 29.1878ZM12.8319 64.9679C12.8319 65.6021 12.5363 66.2108 11.743 66.5649L2.18019 71.0972C1.28548 71.5056 0.577821 71.4158 0 70.8184L2.33508 75.7478C4.22093 79.7082 7.32922 79.5174 8.71907 78.8632L8.71907 78.8569C9.78871 78.353 10.5711 77.4921 10.8416 76.2054C10.8416 76.2054 11.8537 76.678 13.337 75.977L13.3433 75.977L13.3433 75.9745C15.5122 74.9433 16.2904 72.2228 15.1114 69.77L12.8323 64.9675L12.8323 64.9683L12.8319 64.9679ZM13.9228 70.3424L12.639 67.642L12.639 67.6416L2.2854 72.5506L3.53205 75.1804C4.62966 77.4863 6.32721 78.3605 8.08113 77.528C9.38916 76.9068 10.0563 75.6714 9.87096 74.2736L9.85551 74.1421L9.96072 74.2273C10.9377 74.9508 11.8399 75.1015 12.7229 74.6807C14.2096 73.9738 14.739 72.0709 13.9228 70.3424ZM12.3446 68.4607L8.32202 70.3699L9.33989 72.5105C10.0446 73.9984 11.3309 74.6606 12.4603 74.1283C13.6468 73.5663 14.0443 72.0153 13.3633 70.6038L12.3451 68.4607L12.3446 68.4607ZM90.0924 69.0244L90.4205 68.9839L90.4201 68.9851L90.4331 68.9851L90.4331 68.9914L90.9065 70.3015L90.8936 70.3015C88.8883 70.2535 87.8082 71.8362 87.521 72.321C86.9824 73.2365 86.8317 74.2076 87.0709 75.0623C87.2926 75.8125 87.8091 76.425 88.5593 76.8333C90.1183 77.6862 91.2501 76.8588 92.5686 75.6994C92.5744 75.6873 93.3748 75.0063 94.0302 74.5771C94.7938 74.0728 95.6117 74.087 96.5415 74.6122C97.7234 75.2865 98.0332 76.8325 97.2721 78.2156L97.2471 78.2591L97.197 78.3534C96.7085 79.2277 95.9858 79.7725 95.054 79.9792L95.0489 79.9792C95.0476 79.9792 95.036 79.9817 95.0158 79.9861C94.8588 80.0201 94.1837 80.1662 93.7714 80.1207L93.7497 80.1207L93.2391 78.3455L93.2604 78.3609C93.2617 78.3609 93.2712 78.3646 93.288 78.371C93.4702 78.4403 94.5082 78.8351 95.1805 78.477C95.3195 78.4127 95.762 78.1868 96.066 77.6003C96.4346 76.8847 96.2284 76.0801 95.7954 75.8405C95.0932 75.4426 94.3609 75.9065 93.3213 76.8337L93.2186 76.9285C91.9448 78.0699 90.3592 79.4886 87.8517 78.0783C87.6796 77.9814 87.5206 77.8762 87.3707 77.7731C86.3036 77.0016 85.7032 75.914 85.6335 74.6264C85.5784 73.6691 85.8405 72.6675 86.4063 71.6496C87.1611 70.314 88.7067 69.2098 90.0924 69.0244ZM11.7289 70.2593L12.1635 71.1744C12.4879 71.8621 12.3994 72.525 11.8312 72.7943C11.1289 73.1254 10.5845 72.4641 10.3712 72.0228L9.93781 71.103L11.7289 70.2593ZM3.10535 72.842L7.76047 70.6301L8.74744 72.7051C9.20127 73.6678 10.0204 75.929 7.81558 76.9723C5.85834 77.9046 4.64049 76.0801 4.09106 74.9145L3.10535 72.842ZM91.1207 70.9056C90.5236 70.8923 89.034 71.0276 88.022 72.6825C87.159 74.0933 87.5206 75.5265 88.8966 76.3039C90.2063 77.0387 91.172 76.1733 92.0266 75.4042L92.073 75.3683L92.4592 75.0502L92.6742 74.8661L92.6837 74.8579C93.4709 74.1846 94.2125 73.5503 95.3048 73.5881C95.3875 73.5881 96.1169 73.6323 96.7991 74.0519C97.4934 74.4673 97.9476 75.0368 98.1405 75.7315C98.4035 76.6626 98.2587 77.6892 97.7372 78.6277C97.1782 79.6139 96.2935 80.2881 95.2418 80.5361C94.7934 80.6393 94.5333 80.6643 93.9392 80.6919L93.9271 80.6919L94.3492 82.1598L94.3613 82.1598C97.0901 82.0291 98.4173 80.0326 98.7542 79.4201C98.824 79.302 98.8582 79.2252 98.8582 79.2252C99.3968 78.262 99.6502 77.2329 99.5988 76.2488C99.5124 74.7905 98.7421 73.5401 97.4821 72.8332C94.5382 71.173 92.4755 73.1221 91.4825 74.0604L91.4822 74.0607L91.44 74.1004C90.4735 75.0105 90.0151 75.2372 89.5584 75.0214C89.4565 74.9733 89.4018 74.9354 89.3241 74.8848C88.824 74.5321 88.7651 73.9004 89.2018 73.2253C89.2949 73.0791 90.1579 71.8337 91.7369 72.6274L91.7632 72.6404L91.1365 70.9056L91.1211 70.9056L91.1207 70.9056ZM7.71869 73.1873L7.31162 72.3369L4.88678 73.4817L5.29385 74.3371C5.95308 75.77 6.5071 75.7274 7.08492 75.6589C7.2991 75.6372 7.56839 75.4711 7.71159 75.3345C8.07774 74.9805 8.25601 74.3334 7.71869 73.1873ZM18.17 75.7611C18.3495 76.344 18.238 76.9627 17.5492 77.5986L17.4715 77.6691C17.4544 77.6883 10.4483 83.9312 9.62878 84.6589C8.91193 85.2572 8.27107 85.2664 7.487 84.9904L13.4389 91.6737L14.5728 90.9615L10.159 86.0037L19.7139 77.495L18.1708 75.7603L18.17 75.7611ZM83.9843 76.7944L83.9846 76.794L83.9846 76.7932L83.9843 76.7944ZM83.9843 76.7944L82.2629 78.4473L85.2935 87.5405L89.0752 91.4721L89.0873 91.465L90.9035 89.7173C90.119 89.9929 89.5345 89.8538 88.9763 89.3846L88.9738 89.3846L86.5197 86.8616L83.8469 78.9166C83.8401 78.8882 83.8318 78.8579 83.8229 78.8252C83.7408 78.523 83.6013 78.0098 83.9843 76.7944ZM20.1197 77.9568L11.0341 86.0567L15.0997 90.6196L17.026 89.4289C17.026 89.4289 15.7723 89.3629 14.7615 88.2528L14.7193 88.2027C14.7193 88.2027 13.5971 86.9427 12.9283 86.1962C13.8372 85.3817 18.8743 80.8852 19.7118 80.1491L19.7202 80.1428L19.7765 80.0952C19.7765 80.0952 20.9276 79.239 21.6678 79.6932L20.1326 77.9668L20.1197 77.9572L20.1197 77.9568ZM79.6189 80.9978L81.7677 78.9295L81.7677 78.9304L84.5562 87.2181L76.3653 84.1299L76.4087 84.0836L78.5279 82.0508C78.5177 82.0807 78.5066 82.1116 78.4953 82.1434C78.3943 82.426 78.269 82.7771 78.4536 83.1062C78.4536 83.1062 78.664 83.4406 79.1763 83.7024L82.4691 85.0534L81.2296 81.6917C80.9686 80.969 80.7603 80.893 80.6505 80.83C80.4994 80.787 80.1633 80.7498 79.6189 80.9978ZM24.5148 83.1183C24.8872 83.7784 24.9219 84.2539 24.4263 85.053C24.42 85.0543 20.045 91.9597 20.045 91.9597C18.5642 94.3307 19.2869 96.8002 21.9676 98.5116C24.5929 100.188 27.3325 99.8902 28.8338 97.5296L33.2076 90.6254C33.6848 89.9015 34.2714 89.6322 34.916 89.7086L32.9696 88.4761L27.8168 96.5986L27.6197 96.9021C26.72 98.3295 24.5365 98.5592 22.7525 97.4236C22.1367 97.0336 21.6507 96.5314 21.3122 95.9819L21.275 95.9231C20.6575 94.8964 20.5556 93.6978 21.1318 92.7839L21.3184 92.4825L26.4725 84.3587L24.5148 83.1183ZM74.1965 86.2108L75.8773 84.5984L75.8782 84.5984L84.8573 87.9701L88.6382 91.8954L86.8125 93.6577C87.0396 93.0452 87.0684 92.2173 86.3662 91.5234L84.1242 89.1712L76.2568 86.192C75.4849 85.9632 75.1333 85.8997 74.1965 86.2108ZM26.9889 84.6877L21.7584 92.9392C20.9472 94.2155 21.5464 95.9706 23.0485 96.9221C24.5486 97.8724 26.3685 97.7121 27.2022 96.4199L32.4448 88.1475L30.4888 86.8996C30.9222 87.6031 30.8395 88.1463 30.3982 88.8414C30.3982 88.8414 27.6151 93.2302 26.1405 95.5498C25.6784 96.2232 24.6116 96.3439 23.7645 95.8074C22.9249 95.2751 22.5788 94.2485 22.9855 93.5458C23.4593 92.7956 27.1392 86.9898 27.1588 86.9677L27.234 86.8383C27.6423 86.2041 28.1579 85.8935 28.9524 85.9352L26.9889 84.6877ZM69.5325 87.1589L69.5325 87.1585L69.5329 87.1585L69.5325 87.1589ZM69.5326 87.1605L69.5317 87.1598L69.5325 87.1589L69.5326 87.1605ZM69.5326 87.1605L80.972 95.9452C81.7853 96.4897 82.5631 96.9777 83.3743 96.9994L81.4041 98.0415L70.9124 89.765L71.8016 103.095L69.7346 104.183C70.0974 103.685 70.3082 102.902 70.327 101.533L69.5326 87.1605ZM37.0548 90.5435C37.5514 90.9994 37.8526 91.6748 37.6798 92.4227C35.2427 102.679 35.2282 102.736 35.2155 102.793L35.2149 102.796C35.063 103.348 34.6367 104.11 33.6309 104.23L42.957 106.446L43.4894 105.209L36.4328 103.542L39.0805 92.3839L45.7539 93.9741L45.8449 92.6327L37.0548 90.5435ZM72.0155 97.328L71.5847 91.0555L76.5212 94.9591L72.0155 97.328ZM64.1431 91.103L64.1427 91.1031L61.8999 91.6591L64.2224 101.019C64.2224 101.019 64.6821 102.378 63.9677 103.487C63.4559 104.273 62.6589 104.865 61.5704 105.14C60.5547 105.39 59.3377 105.277 58.43 104.67C58.0305 104.397 57.8363 104.231 57.4096 103.818L56.6164 105.145C58.9845 107.436 61.907 106.435 61.907 106.435C62.9895 106.166 63.9277 105.643 64.6153 104.917C65.5292 103.957 65.8895 102.717 65.71 101.449C65.71 101.423 65.6319 101.034 65.601 100.927L63.6233 92.9621C63.397 91.9814 64.1435 91.103 64.1435 91.103L64.1431 91.103ZM59.057 92.3643L61.3024 91.8116L61.3099 91.8418C61.456 92.4299 63.6854 101.401 63.6854 101.414C64.0658 102.971 62.8596 104.222 61.4576 104.569C61.1011 104.657 59.9622 104.917 58.8888 104.259C58.8888 104.259 58.0851 103.735 57.7139 103.309L58.6629 101.704C58.6629 101.704 59.0645 102.965 59.877 103.244C59.878 103.245 59.8807 103.246 59.8851 103.247C59.9597 103.273 60.513 103.467 61.2046 103.269C61.9361 103.068 62.5281 102.409 62.3498 101.669L60.3934 93.7654C60.2006 92.9676 59.5438 92.4436 59.057 92.3643ZM39.5372 93.1279L38.4926 97.5141L43.8596 98.7862L44.313 96.8875C44.313 96.8875 43.6884 97.5742 42.5695 97.3146L40.0808 96.7213L40.5546 94.7294L43.5506 95.4404C45.1822 95.8354 45.5747 96.7146 45.5747 96.7146L45.7195 94.5937L39.5376 93.127L39.5372 93.1279ZM74.3985 94.7862L72.923 93.5997L73.0679 95.4826L74.3985 94.7862ZM77.0299 95.3849L72.0838 97.9897L72.3923 102.786L72.4358 102.763L74.7433 101.546C74.1993 101.466 73.7171 100.982 73.5872 100.228L73.4732 98.545L76.6926 96.852L78.0975 97.9442C78.4528 98.2352 79.0064 98.8042 78.4348 99.6025L80.7653 98.3763L80.8133 98.3558L77.0303 95.3853L77.0299 95.3849ZM37.2343 103.094L38.4116 98.1307L43.7223 99.3908L43.2726 101.267C43.2726 101.267 43.0263 100.437 41.9049 100.13L41.8681 100.121L39.4801 99.5548L38.8722 102.119C38.8722 102.119 42.2485 102.92 42.274 102.92C43.5323 103.182 44.1235 102.845 44.6474 102.534L43.7419 104.63L37.2343 103.094Z" transform="translate(18.55878 21.78275)" id="Shape" fill="#134A8E" fill-rule="evenodd" stroke="none" />
      <path d="M9.76571 11.8236C17.0415 4.06185 26.8519 0.0951855 36.7141 0.00333498L36.7124 0.0016436C43.4594 -0.0612535 50.2313 1.68891 56.2339 5.27926C55.3868 5.58863 54.5317 5.87002 53.6571 6.14641C51.8409 5.18365 49.958 4.38331 48.0363 3.75622L47.8496 3.69652L47.754 3.66521C40.6916 1.43743 33.081 1.47876 26.0674 3.76541C25.8511 4.56952 25.3769 5.74102 25.0804 6.25037C25.4115 6.53344 25.6524 6.88789 25.8136 7.27784C25.9292 7.57927 25.9985 7.8974 26.024 8.21345C26.0616 8.58586 26.0449 8.95744 25.9835 9.29394L25.8674 9.30313C25.4725 9.32442 25.0825 9.34279 24.7022 9.37953C24.7306 9.1879 24.7381 8.9232 24.7022 8.61717L24.7022 8.56582C24.6124 7.89782 24.3231 7.06491 23.6755 6.36894C23.7223 6.32468 23.7728 6.26498 23.8204 6.2036C24.1649 5.76105 24.5093 4.9486 24.7573 4.22591C24.564 4.29438 24.364 4.37537 24.1724 4.45344C23.5799 4.68724 22.9804 4.92772 22.3917 5.19534C22.2323 5.74101 22.0352 6.28627 21.877 6.63446L21.8444 6.70961L21.8097 6.78226C22.5399 7.66402 22.8138 8.73115 22.6823 9.65341C22.2423 9.72981 21.8102 9.81456 21.376 9.91392L21.376 9.89514L21.3868 9.84629C21.5321 9.25427 21.5041 8.33911 20.4299 7.1196C20.6499 6.87745 20.8704 6.38939 21.0628 5.83912C20.3556 6.19483 19.6584 6.57601 18.9774 6.98057L18.9282 7.16093C18.8797 7.3605 18.8238 7.52666 18.777 7.65107C18.8597 7.73332 18.9348 7.8164 19.0041 7.89865C19.3089 8.26313 19.5352 8.66978 19.6918 9.08394C19.8354 9.48349 19.9264 9.89597 19.9419 10.2968C19.5139 10.4133 19.1006 10.5448 18.6869 10.6859C18.7161 10.0697 18.5228 9.12319 17.441 8.12996C17.4961 8.05606 17.5508 7.95461 17.6001 7.84898C17.3375 8.02432 17.0745 8.19717 16.8185 8.38004L16.09 8.89774L16.09 8.904C16.6774 9.43632 17.0703 10.1319 17.2557 10.8316C17.2903 10.9564 17.3158 11.0763 17.3371 11.1957L17.2949 11.2182C16.9455 11.3576 16.5998 11.5054 16.2624 11.6666L16.2215 11.6883L16.2011 11.5505C16.1593 11.3092 16.0837 11.0337 15.938 10.7372C15.8228 10.4955 15.6508 10.2417 15.4283 9.987C15.3314 9.87427 15.2283 9.76573 15.1051 9.65425C14.7189 9.95736 14.334 10.2747 13.9616 10.6057C14.0455 10.6897 14.1257 10.7853 14.2008 10.875C14.3624 11.0629 14.5052 11.2549 14.6304 11.4587C14.7828 11.728 14.9118 11.9964 15.0099 12.272C14.6789 12.4465 14.3549 12.6185 14.0363 12.803C13.9061 12.3617 13.6597 11.8232 13.1487 11.3222L12.9082 11.5505C12.5843 11.852 12.2682 12.1576 11.9547 12.4732L12.1663 12.7413C12.3659 13.0239 12.5312 13.322 12.6628 13.6293L12.5225 13.7211C12.2949 13.8648 12.0686 14.0184 11.8403 14.1695C11.7184 13.8735 11.533 13.532 11.2491 13.2038L11.2441 13.2089L11.2403 13.2089C11.0545 13.4101 10.8738 13.6243 10.6896 13.8288C10.5444 13.995 10.3928 14.1532 10.2538 14.3181C10.4212 14.5323 10.5656 14.7611 10.6809 15.0024C10.4262 15.1999 10.164 15.4007 9.91058 15.6007C9.86007 15.5051 9.79911 15.4024 9.72981 15.2968C9.68806 15.2287 9.64756 15.164 9.59245 15.0985C9.30313 15.4537 9.02215 15.822 8.7395 16.1848L8.83302 16.3522L8.88312 16.4491C8.71111 16.6048 8.54077 16.763 8.365 16.9171L8.17462 17.0891L8.14456 17.0461L8.1383 17.021C6.55597 19.2559 5.27341 21.629 4.2735 24.0868C3.479 24.2183 2.7037 24.3574 1.94135 24.4939C3.6222 19.9281 6.23032 15.6082 9.76571 11.8236ZM28.8784 3.73291C28.4521 4.61342 27.7766 5.84129 27.2618 6.20451C28.1628 7.47121 28.1966 8.70283 27.9758 9.29151C28.3912 9.31029 28.8087 9.33493 29.2429 9.36457C29.5268 8.40265 29.4654 7.15474 28.7486 6.27173C29.1122 5.81833 29.718 4.63889 30.0499 3.85733C29.6566 3.80681 29.2638 3.76506 28.8788 3.73292L28.8784 3.73291ZM30.8353 6.45367C31.3501 6.08836 32.1722 5.06715 32.6936 4.2952L32.694 4.29561C33.0877 4.37452 33.4877 4.44883 33.8726 4.52273C33.4472 5.25753 32.5312 6.2445 32.1655 6.70041C32.9091 7.5684 33.0811 8.89856 32.8118 9.88803C32.4122 9.81538 32.006 9.74607 31.6002 9.67886C31.758 9.09728 31.71 7.98631 31.1192 6.91167C31.0336 6.75552 30.9385 6.60439 30.8353 6.45367ZM36.0444 5.00458C35.5793 5.76318 34.8441 6.74806 34.3494 7.1547C35.0357 7.9872 35.3267 9.0848 35.394 9.89684C35.8081 9.83547 36.2361 9.77368 36.6632 9.71147C36.6126 8.86436 36.3446 7.97342 35.7789 7.41689C36.1045 6.93343 36.8005 6.01075 37.1738 5.28096C36.8005 5.19036 36.4281 5.10019 36.0444 5.00458ZM39.5347 5.91523L39.5347 5.91514L39.5343 5.91513L39.5347 5.91523ZM39.5347 5.91523C39.1313 6.61745 38.4475 7.49122 37.9653 7.93918C38.3503 8.35209 38.5895 8.86854 38.7481 9.39918L39.9126 9.21255C39.7702 8.87605 39.576 8.56626 39.3276 8.34123C39.6241 7.83856 40.2933 6.96807 40.6377 6.23201C40.2717 6.12893 39.9057 6.01708 39.5347 5.91523ZM43.0472 6.98972C42.7445 7.48738 42.2886 8.06855 41.8556 8.51401C41.7133 8.66264 41.565 8.8 41.436 8.9123L41.4636 8.95322C42.0773 8.84592 42.6948 8.73988 43.3098 8.62632C43.6033 8.22677 43.921 7.78046 44.1218 7.34751C43.7699 7.22435 43.4062 7.10912 43.0472 6.98972ZM65.54 19.425L68.2842 14.9385L68.2847 14.9377L68.2855 14.9369L72.4025 21.6599L75.8268 20.2784C75.8268 20.2972 75.3137 25.5877 75.0816 27.9842C75.0323 28.4802 74.9926 28.8618 74.9784 29.0392C74.8962 29.9698 75.1592 30.4311 75.5575 30.5284C75.6126 30.5476 75.6698 30.5497 75.7312 30.5497C76.0414 30.5497 76.4013 30.3689 76.7282 30.0637L76.7833 30.0111C77.4584 29.3569 81.0055 25.9121 81.0055 25.9121L82.1227 28.744L87.9731 27.7366L87.4487 34.1769L87.4462 34.1769L88.5818 34.5669L89.7254 34.9585L77.2876 45.6828L79.3242 48.1365L73.0546 47.6255L70.9942 47.4555L69.1781 47.3086L68.5694 48.4759L68.2826 49.0262L67.3866 47.309L57.9528 48.0747L57.2443 48.1369L59.2767 45.6833L46.8414 34.9589L47.815 34.6274L49.1239 34.1774L48.5903 27.737L54.4495 28.7444L55.5626 25.9125C55.5626 25.9125 59.1051 29.3573 59.781 30.0115L59.8424 30.0642C59.9802 30.1982 60.1234 30.3013 60.2732 30.3848C60.406 30.4528 60.5321 30.508 60.6624 30.5292C60.7179 30.5414 60.7784 30.5505 60.8331 30.5505C61.0799 30.5505 61.294 30.4357 61.4314 30.1973C61.5166 30.0462 61.5713 29.8395 61.593 29.5799C61.6063 29.4199 61.6076 29.2404 61.593 29.0404C61.4898 28.0213 60.7504 20.2984 60.7375 20.2805L64.1618 21.662L65.54 19.425ZM0.000834541 42.4381L0.000831585 42.4383L0 42.4381L0.000834541 42.4381ZM0.000831585 42.4383C0.690693 42.5973 1.3939 42.7517 2.10921 42.8952C2.63318 46.2482 3.63601 49.5356 5.11939 52.6547L5.19454 52.5374L5.2509 52.4618C5.46591 52.7386 5.68468 53.0071 5.91222 53.2826C5.8237 53.4141 5.7352 53.5599 5.65044 53.7168C5.7473 53.9018 5.84876 54.0913 5.95188 54.2755C6.04164 54.4404 6.12306 54.6032 6.21532 54.7656L6.27753 54.6053C6.37272 54.3773 6.46916 54.1519 6.58606 53.9427C6.83405 54.1886 7.08289 54.4333 7.34466 54.6758C7.23569 54.8946 7.13633 55.1351 7.04782 55.391C6.98561 55.5559 6.92966 55.7258 6.8875 55.9008C7.14342 56.3275 7.41271 56.7487 7.69536 57.1604C7.76466 56.5704 7.97132 55.9951 8.24437 55.495C8.5099 55.7258 8.77794 55.9559 9.05307 56.1772C9.00422 56.2845 8.95495 56.4022 8.90694 56.5216C8.70445 57.0581 8.54538 57.7081 8.55123 58.3745C8.689 58.5607 8.83221 58.7452 8.97123 58.9235C9.26473 59.3109 9.57536 59.6996 9.89265 60.0766L9.90017 60.0632L9.90727 60.0557L9.90727 60.0532C9.7983 59.7877 9.72231 59.5247 9.6885 59.2554C9.58663 58.4563 9.80247 57.6843 10.1682 57.0585L10.4721 57.2714L11.0834 57.7127C11.0308 57.8271 10.9748 57.9674 10.9255 58.111C10.7005 58.8145 10.5698 59.8349 10.9397 60.8127L10.8646 60.7934C10.8166 60.7985 10.7636 60.8273 10.7076 60.8736L10.6379 60.9429C10.8592 61.1926 11.0842 61.4406 11.3197 61.6831C11.5468 61.9278 11.7823 62.1695 12.0206 62.4108C12.0699 62.2915 12.1179 62.1816 12.1751 62.0785L12.206 62.0126C12.2503 61.9215 12.2974 61.8301 12.3463 61.7508C11.7426 60.6774 11.8628 59.4328 12.325 58.5227C12.6348 58.7168 12.9563 58.9047 13.2832 59.0901C13.2218 59.2362 13.1671 59.4286 13.1228 59.6428C13.0009 60.229 12.9684 61.0122 13.1992 61.7817C13.2556 61.9959 13.3366 62.2042 13.441 62.4108L13.3671 62.4046L13.317 62.4246L13.2969 62.4376L13.2619 62.4676L13.2214 62.5073C13.0961 62.6442 12.9654 62.9089 12.8494 63.2116L12.8636 63.2225L12.8698 63.2329L13.0828 63.4245C13.438 63.7556 13.7988 64.0729 14.1712 64.384L14.5077 64.6758C14.6062 64.1677 14.7695 63.7393 15.0893 63.2225C14.5294 62.2255 14.4313 60.831 14.7519 59.8712C15.0053 59.9919 15.2617 60.1083 15.5222 60.229L15.7568 60.338C15.5711 61.087 15.523 62.6463 16.2315 63.7347C16.1626 63.7251 16.0992 63.7427 16.0361 63.8028C15.7965 63.9982 15.6028 64.6453 15.4579 65.4361C19.9999 68.951 25.1944 71.1975 30.5581 72.1945C30.9042 72.9444 31.2482 73.6796 31.5738 74.4127C24.2997 73.3435 17.2628 70.1179 11.4837 64.7042C4.95528 58.5857 1.1122 50.6649 0.000809059 42.4397L0.000831585 42.4383ZM70.567 48.8287L70.5672 48.8282L70.5672 48.8279L70.5664 48.8287L70.567 48.8287ZM70.567 48.8287C70.2322 49.7976 69.867 50.7568 69.4474 51.7069C68.9306 52.8851 68.3381 54.0386 67.6839 55.1696C67.3933 54.5584 67.3132 53.9539 67.2756 53.4901C66.9458 53.5022 66.6093 53.5209 66.2728 53.5439C66.3412 54.0825 66.4523 54.5797 66.6331 55.0469C66.7683 55.3913 66.9349 55.7266 67.1466 56.0602C65.9338 58.0078 64.5159 59.8711 62.8839 61.6113C58.6885 66.0894 53.6033 69.2231 48.1608 71.0163C47.6101 71.8563 47.0532 72.7188 46.4941 73.6102C53.1128 71.8947 59.3402 68.3497 64.3581 62.9882C68.2425 58.8495 70.9947 54.0566 72.6409 48.9915L70.567 48.8287ZM64.8327 53.6729C64.5012 53.7101 64.163 53.7519 63.8257 53.7994C63.9906 54.8127 64.3835 55.4736 64.8794 56.3287C64.4953 57.0025 64.0524 57.9891 63.7622 58.7585C64.1284 58.6905 64.4862 58.6295 64.8439 58.5823C65.1763 57.7636 65.5955 56.8451 65.9411 56.1963C65.1479 55.2741 64.9287 54.3084 64.8323 53.6734L64.8327 53.6729ZM60.7458 55.1989C61.1022 54.8342 61.4357 54.5007 61.7453 54.2007C61.8685 54.839 62.1775 55.8569 63.2684 56.5508C62.9916 57.1286 62.5716 58.1573 62.2201 59.0691C61.8071 59.1652 61.3859 59.2629 60.965 59.366C61.173 58.718 61.4606 57.9411 61.7115 57.3407C61.7988 57.1386 61.8781 56.9545 61.952 56.8034C61.3571 56.3166 60.9813 55.8185 60.7458 55.1989ZM59.2396 56.7758C59.0329 56.9971 58.8195 57.2363 58.597 57.4784C58.668 57.5202 58.7431 57.5607 58.8195 57.5945C58.559 58.3235 58.2271 59.2478 58.0071 60.1726C58.3987 60.0615 58.8037 59.945 59.2045 59.8294C59.4925 58.8712 59.8529 57.8095 60.1547 57.2317C59.7911 57.1286 59.493 56.9699 59.2396 56.7758ZM18.3324 64.5463C17.3968 63.8036 17.335 62.1716 17.6302 61.0807L17.6306 61.0811C18.0118 61.2201 18.3946 61.3441 18.785 61.4593C18.6288 62.3357 18.6647 64.2303 19.6217 64.9196C19.182 64.8498 18.9804 65.7704 18.8426 67.2597C18.4765 67.1661 18.1132 67.0609 17.7542 66.9461C17.8105 65.8001 17.9462 65.1413 18.3324 64.5463ZM20.6274 61.9424C20.4612 62.921 20.6228 64.3217 21.3785 65.0911C21.4883 65.2009 21.6081 65.2957 21.7371 65.3805C21.4407 65.9729 21.3889 66.7853 21.4616 67.8391C21.8407 67.9022 22.2331 67.9589 22.6189 67.9982C22.5842 66.7098 22.6736 65.555 23.1132 65.5671C21.9505 64.7467 21.7647 63.0103 21.8473 62.1832C21.4357 62.1081 21.0257 62.0275 20.6278 61.9428L20.6274 61.9424ZM25.6211 65.7111C24.4902 65.2214 24.0356 63.596 24.0513 62.4513C24.465 62.4876 24.885 62.5076 25.305 62.521C25.3497 63.356 25.7852 64.9725 27.0114 65.6618C26.5859 65.7044 26.6269 67.1298 26.7634 68.2687C26.3709 68.2871 25.9868 68.295 25.5994 68.3025C25.4357 67.3164 25.4353 66.4597 25.6211 65.7111Z" transform="translate(32.82349 37.0578)" id="Shape" fill="#E8291C" fill-rule="evenodd" stroke="none" />
    </g>
  </g>
</svg>