<?xml version="1.0" encoding="utf-8"?>
<svg width="161px" height="115px" viewBox="0 0 161 115" version="1.1" xmlns="http://www.w3.org/2000/svg">
  <desc>Created with Lunacy</desc>
  <defs>
    <path d="M21.999 0L138.801 0Q139.341 0 139.88 0.0264988Q140.42 0.0529975 140.957 0.105931Q141.495 0.158865 142.029 0.238106Q142.563 0.317347 143.093 0.422705Q143.622 0.528062 144.146 0.659282Q144.67 0.790503 145.187 0.947269Q145.704 1.10404 146.212 1.28597Q146.721 1.46791 147.22 1.67457Q147.719 1.88124 148.207 2.11214Q148.695 2.34304 149.171 2.59761Q149.647 2.85219 150.111 3.12983Q150.574 3.40747 151.023 3.7075Q151.472 4.00753 151.906 4.32924Q152.34 4.65094 152.757 4.99354Q153.174 5.33614 153.575 5.69882Q153.975 6.06149 154.357 6.44336Q154.738 6.82523 155.101 7.22537Q155.464 7.62552 155.806 8.04298Q156.149 8.46044 156.471 8.89421Q156.792 9.32798 157.092 9.77701Q157.393 10.226 157.67 10.6893Q157.948 11.1525 158.202 11.6287Q158.457 12.105 158.688 12.5932Q158.919 13.0814 159.125 13.5803Q159.332 14.0793 159.514 14.5878Q159.696 15.0962 159.853 15.613Q160.009 16.1298 160.141 16.6537Q160.272 17.1775 160.377 17.7072Q160.483 18.2369 160.562 18.7711Q160.641 19.3053 160.694 19.8427Q160.747 20.3802 160.773 20.9196Q160.8 21.459 160.8 21.999L160.8 92.8581Q160.8 93.3982 160.773 93.9376Q160.747 94.477 160.694 95.0144Q160.641 95.5519 160.562 96.0861Q160.483 96.6203 160.377 97.1499Q160.272 97.6796 160.141 98.2035Q160.009 98.7273 159.853 99.2441Q159.696 99.7609 159.514 100.269Q159.332 100.778 159.125 101.277Q158.919 101.776 158.688 102.264Q158.457 102.752 158.202 103.228Q157.948 103.705 157.67 104.168Q157.393 104.631 157.092 105.08Q156.792 105.529 156.471 105.963Q156.149 106.397 155.806 106.814Q155.464 107.232 155.101 107.632Q154.739 108.032 154.357 108.414Q153.975 108.796 153.575 109.158Q153.174 109.521 152.757 109.864Q152.34 110.206 151.906 110.528Q151.472 110.85 151.023 111.15Q150.574 111.45 150.111 111.727Q149.647 112.005 149.171 112.26Q148.695 112.514 148.207 112.745Q147.719 112.976 147.22 113.183Q146.721 113.389 146.212 113.571Q145.704 113.753 145.187 113.91Q144.67 114.067 144.146 114.198Q143.622 114.329 143.093 114.434Q142.563 114.54 142.029 114.619Q141.495 114.698 140.957 114.751Q140.42 114.804 139.88 114.831Q139.341 114.857 138.801 114.857L21.999 114.857Q21.459 114.857 20.9196 114.831Q20.3802 114.804 19.8427 114.751Q19.3053 114.698 18.7711 114.619Q18.2369 114.54 17.7072 114.434Q17.1775 114.329 16.6537 114.198Q16.1298 114.067 15.613 113.91Q15.0962 113.753 14.5878 113.571Q14.0793 113.389 13.5803 113.183Q13.0814 112.976 12.5932 112.745Q12.105 112.514 11.6287 112.26Q11.1525 112.005 10.6893 111.727Q10.226 111.45 9.77701 111.15Q9.32798 110.85 8.89421 110.528Q8.46044 110.206 8.04298 109.864Q7.62552 109.521 7.22537 109.158Q6.82523 108.796 6.44336 108.414Q6.06149 108.032 5.69882 107.632Q5.33614 107.232 4.99354 106.814Q4.65094 106.397 4.32924 105.963Q4.00753 105.529 3.7075 105.08Q3.40747 104.631 3.12983 104.168Q2.85219 103.705 2.59761 103.228Q2.34304 102.752 2.11214 102.264Q1.88124 101.776 1.67457 101.277Q1.46791 100.778 1.28597 100.269Q1.10404 99.7609 0.947269 99.2441Q0.790503 98.7273 0.659282 98.2035Q0.528062 97.6796 0.422705 97.1499Q0.317347 96.6203 0.238106 96.0861Q0.158865 95.5519 0.105931 95.0144Q0.0529975 94.477 0.0264988 93.9376Q0 93.3982 0 92.8581L0 21.999Q0 21.459 0.0264988 20.9196Q0.0529975 20.3802 0.105931 19.8427Q0.158865 19.3053 0.238106 18.7711Q0.317347 18.2369 0.422705 17.7072Q0.528062 17.1775 0.659282 16.6537Q0.790503 16.1298 0.94727 15.613Q1.10404 15.0962 1.28597 14.5878Q1.46791 14.0793 1.67457 13.5803Q1.88124 13.0814 2.11214 12.5932Q2.34304 12.105 2.59761 11.6287Q2.85219 11.1525 3.12983 10.6893Q3.40747 10.226 3.7075 9.77701Q4.00753 9.32798 4.32924 8.89421Q4.65094 8.46044 4.99354 8.04298Q5.33614 7.62552 5.69882 7.22537Q6.06149 6.82523 6.44336 6.44336Q6.82523 6.06149 7.22538 5.69882Q7.62552 5.33614 8.04298 4.99354Q8.46044 4.65094 8.89421 4.32924Q9.32798 4.00753 9.77701 3.7075Q10.226 3.40747 10.6893 3.12983Q11.1525 2.85219 11.6287 2.59761Q12.105 2.34304 12.5932 2.11214Q13.0814 1.88124 13.5803 1.67457Q14.0793 1.46791 14.5878 1.28597Q15.0962 1.10404 15.613 0.947269Q16.1298 0.790503 16.6537 0.659282Q17.1775 0.528062 17.7072 0.422705Q18.2369 0.317347 18.7711 0.238106Q19.3053 0.158865 19.8427 0.105931Q20.3802 0.0529975 20.9196 0.0264988Q21.459 0 21.999 0L21.999 0Z" id="path_1" />
    <clipPath id="mask_1">
      <use href="#path_1" />
    </clipPath>
  </defs>
  <g id="atlanta-braves-logo@logotyp.us">
    <path d="M21.999 0L138.801 0Q139.341 0 139.88 0.0264988Q140.42 0.0529975 140.957 0.105931Q141.495 0.158865 142.029 0.238106Q142.563 0.317347 143.093 0.422705Q143.622 0.528062 144.146 0.659282Q144.67 0.790503 145.187 0.947269Q145.704 1.10404 146.212 1.28597Q146.721 1.46791 147.22 1.67457Q147.719 1.88124 148.207 2.11214Q148.695 2.34304 149.171 2.59761Q149.647 2.85219 150.111 3.12983Q150.574 3.40747 151.023 3.7075Q151.472 4.00753 151.906 4.32924Q152.34 4.65094 152.757 4.99354Q153.174 5.33614 153.575 5.69882Q153.975 6.06149 154.357 6.44336Q154.738 6.82523 155.101 7.22537Q155.464 7.62552 155.806 8.04298Q156.149 8.46044 156.471 8.89421Q156.792 9.32798 157.092 9.77701Q157.393 10.226 157.67 10.6893Q157.948 11.1525 158.202 11.6287Q158.457 12.105 158.688 12.5932Q158.919 13.0814 159.125 13.5803Q159.332 14.0793 159.514 14.5878Q159.696 15.0962 159.853 15.613Q160.009 16.1298 160.141 16.6537Q160.272 17.1775 160.377 17.7072Q160.483 18.2369 160.562 18.7711Q160.641 19.3053 160.694 19.8427Q160.747 20.3802 160.773 20.9196Q160.8 21.459 160.8 21.999L160.8 92.8581Q160.8 93.3982 160.773 93.9376Q160.747 94.477 160.694 95.0144Q160.641 95.5519 160.562 96.0861Q160.483 96.6203 160.377 97.1499Q160.272 97.6796 160.141 98.2035Q160.009 98.7273 159.853 99.2441Q159.696 99.7609 159.514 100.269Q159.332 100.778 159.125 101.277Q158.919 101.776 158.688 102.264Q158.457 102.752 158.202 103.228Q157.948 103.705 157.67 104.168Q157.393 104.631 157.092 105.08Q156.792 105.529 156.471 105.963Q156.149 106.397 155.806 106.814Q155.464 107.232 155.101 107.632Q154.739 108.032 154.357 108.414Q153.975 108.796 153.575 109.158Q153.174 109.521 152.757 109.864Q152.34 110.206 151.906 110.528Q151.472 110.85 151.023 111.15Q150.574 111.45 150.111 111.727Q149.647 112.005 149.171 112.26Q148.695 112.514 148.207 112.745Q147.719 112.976 147.22 113.183Q146.721 113.389 146.212 113.571Q145.704 113.753 145.187 113.91Q144.67 114.067 144.146 114.198Q143.622 114.329 143.093 114.434Q142.563 114.54 142.029 114.619Q141.495 114.698 140.957 114.751Q140.42 114.804 139.88 114.831Q139.341 114.857 138.801 114.857L21.999 114.857Q21.459 114.857 20.9196 114.831Q20.3802 114.804 19.8427 114.751Q19.3053 114.698 18.7711 114.619Q18.2369 114.54 17.7072 114.434Q17.1775 114.329 16.6537 114.198Q16.1298 114.067 15.613 113.91Q15.0962 113.753 14.5878 113.571Q14.0793 113.389 13.5803 113.183Q13.0814 112.976 12.5932 112.745Q12.105 112.514 11.6287 112.26Q11.1525 112.005 10.6893 111.727Q10.226 111.45 9.77701 111.15Q9.32798 110.85 8.89421 110.528Q8.46044 110.206 8.04298 109.864Q7.62552 109.521 7.22537 109.158Q6.82523 108.796 6.44336 108.414Q6.06149 108.032 5.69882 107.632Q5.33614 107.232 4.99354 106.814Q4.65094 106.397 4.32924 105.963Q4.00753 105.529 3.7075 105.08Q3.40747 104.631 3.12983 104.168Q2.85219 103.705 2.59761 103.228Q2.34304 102.752 2.11214 102.264Q1.88124 101.776 1.67457 101.277Q1.46791 100.778 1.28597 100.269Q1.10404 99.7609 0.947269 99.2441Q0.790503 98.7273 0.659282 98.2035Q0.528062 97.6796 0.422705 97.1499Q0.317347 96.6203 0.238106 96.0861Q0.158865 95.5519 0.105931 95.0144Q0.0529975 94.477 0.0264988 93.9376Q0 93.3982 0 92.8581L0 21.999Q0 21.459 0.0264988 20.9196Q0.0529975 20.3802 0.105931 19.8427Q0.158865 19.3053 0.238106 18.7711Q0.317347 18.2369 0.422705 17.7072Q0.528062 17.1775 0.659282 16.6537Q0.790503 16.1298 0.94727 15.613Q1.10404 15.0962 1.28597 14.5878Q1.46791 14.0793 1.67457 13.5803Q1.88124 13.0814 2.11214 12.5932Q2.34304 12.105 2.59761 11.6287Q2.85219 11.1525 3.12983 10.6893Q3.40747 10.226 3.7075 9.77701Q4.00753 9.32798 4.32924 8.89421Q4.65094 8.46044 4.99354 8.04298Q5.33614 7.62552 5.69882 7.22537Q6.06149 6.82523 6.44336 6.44336Q6.82523 6.06149 7.22538 5.69882Q7.62552 5.33614 8.04298 4.99354Q8.46044 4.65094 8.89421 4.32924Q9.32798 4.00753 9.77701 3.7075Q10.226 3.40747 10.6893 3.12983Q11.1525 2.85219 11.6287 2.59761Q12.105 2.34304 12.5932 2.11214Q13.0814 1.88124 13.5803 1.67457Q14.0793 1.46791 14.5878 1.28597Q15.0962 1.10404 15.613 0.947269Q16.1298 0.790503 16.6537 0.659282Q17.1775 0.528062 17.7072 0.422705Q18.2369 0.317347 18.7711 0.238106Q19.3053 0.158865 19.8427 0.105931Q20.3802 0.0529975 20.9196 0.0264988Q21.459 0 21.999 0L21.999 0Z" id="Background" fill="none" stroke="none" />
    <g clip-path="url(#mask_1)">
      <path d="M8.25607 4.98977C9.88443 2.77262 12.8688 0.116937 17.873 0.00155116L17.8718 0.000798223L17.8722 5.66115e-05C22.5432 -0.0118148 25.6148 1.86698 27.3923 4.27334C28.2375 4.19284 29.0949 4.13384 29.9808 4.119C31.7732 4.096 32.0099 5.58672 32.0348 5.75924C32.054 5.92508 32.1924 7.43769 30.5103 7.86954L29.1516 8.30065C29.29 9.0282 29.3754 9.74017 29.3754 10.4636C29.3754 14.0932 27.537 17.5577 24.514 19.9507C26.477 22.33 27.5548 25.232 27.5548 28.2691C27.5548 29.7246 27.324 31.199 26.8365 32.6615L26.651 33.1731C26.7241 33.0729 26.792 32.9735 26.8881 32.873C29.1995 30.4325 30.8894 28.1152 32.7263 24.8748C33.3537 23.7781 33.9829 22.5578 34.5313 21.4225C34.0386 20.8875 33.6186 20.3136 33.3819 19.7055C33.1352 19.0588 33.009 18.4084 33.009 17.777C33.009 16.776 33.3247 15.8251 33.9403 15.0211C34.8796 13.8083 36.3514 13.1924 37.7872 13.4195C39.2171 13.6502 40.3661 14.6664 40.9419 16.2095C41.0614 16.5371 41.1148 16.9181 41.1148 17.3336C41.1148 17.4794 41.0748 17.6494 41.0614 17.7959C42.0194 17.5763 43.04 17.2116 44.0681 16.5994C44.9859 16.1334 45.804 16.4176 46.27 16.8495C46.4848 17.0494 46.8788 17.5265 46.8788 18.312C46.8788 18.6084 46.8232 18.9509 46.6841 19.3356C45.784 21.5646 44.9718 24.9211 44.9718 26.5729C44.9718 26.8381 45.0156 27.004 45.0602 27.1732C45.6489 27.1157 47.1471 26.2534 48.8964 23.1396C49.3308 22.366 49.7961 21.4299 49.8766 21.1799C51.19 16.4688 54.5057 11.6839 59.8924 12.3695C60.591 12.4578 61.1879 12.6923 61.7389 12.9654C61.7808 12.8422 61.8539 12.6693 61.8539 12.6693L67.8898 12.0646C67.8898 12.0646 63.5208 22.4313 63.496 22.4888C63.2608 23.0012 63.178 23.4093 63.1513 23.7443C63.2281 23.6671 63.2782 23.6519 63.3724 23.5365C64.533 22.2272 65.7476 20.2984 67.031 18.2589L67.0387 18.2467C70.2534 13.1457 73.8977 7.36317 78.684 9.28272C79.337 9.54057 79.83 10.0604 80.1918 10.684C80.2211 10.6065 80.2322 10.5375 80.263 10.4718C81.0121 8.78593 82.8612 7.79275 84.6669 8.11218C86.3316 8.40862 87.4598 9.72088 87.6869 11.5418C88.5792 11.1033 89.4915 10.4562 90.294 9.54057C91.2868 6.98432 93.708 5.11332 95.9363 5.40938C97.1031 5.56372 98.1193 6.18739 98.7352 7.1227C99.1218 7.70778 99.3225 8.3897 99.3225 9.08572C99.3225 9.39031 99.2824 9.69788 99.2071 10.0062C99.0899 10.4674 98.7103 11.5425 97.6615 11.8189C97.6615 11.8189 97.2808 11.9184 96.9744 11.9955C97.1306 12.1766 97.3116 12.3539 97.3892 12.5773C97.4085 12.643 97.4044 12.6967 97.4174 12.7583C97.446 12.7555 97.4746 12.7526 97.5032 12.7497C97.8231 12.7175 98.1426 12.6854 98.4814 12.7201C98.5835 12.732 98.6877 12.7698 98.7897 12.7891C99.0558 12.2857 99.3314 11.7652 99.5622 11.2843C101.789 6.57287 103.9 2.12225 107.705 1.7453L107.777 1.74159L107.847 1.74159C109.079 1.71785 109.574 2.58415 109.693 2.84571C109.813 3.10801 110.147 4.04741 109.429 4.91706C107.559 7.51524 108.77 10.5638 109.193 11.6186L109.194 11.6186C110.379 14.5941 110.073 17.9083 108.377 20.4772C106.659 23.0791 103.833 24.5449 100.629 24.4911C99.1445 24.4759 97.7513 24.06 96.5619 23.3826C93.7904 25.3923 90.0625 25.5081 87.9396 23.4519C87.1089 22.6517 86.5027 21.4541 86.5027 19.9756C86.5027 19.0989 86.8206 18.0979 87.3096 17.0353C86.8889 17.213 86.4637 17.3633 86.0289 17.4824C82.5878 24.9965 78.0841 28.649 73.8275 27.2362C72.7883 26.8897 72.0166 26.154 71.6642 25.1686C71.5084 24.7412 71.439 24.2904 71.439 23.8178C71.439 21.8121 72.7015 19.487 74.0353 17.2353C74.2969 16.8012 74.4293 16.4547 74.5447 16.1464C72.9568 17.8096 70.9236 20.981 69.565 23.1173L68.2086 25.1923C65.9013 28.4828 63.7071 30.1891 61.5015 30.4236C59.997 30.5846 58.8669 30.0151 58.0433 29.4222C56.9251 30.2151 55.4511 30.8925 54.0691 30.8469C52.6737 30.7119 51.5614 30.0155 50.7552 28.9492C47.3293 32.6289 43.7108 33.4681 41.4878 32.4593C39.5077 31.5667 38.8825 29.9149 38.8825 28.1248C38.8825 26.5198 39.3815 24.8302 39.8579 23.4334L39.8208 23.4353C39.6173 23.4459 39.4124 23.4565 39.2183 23.4523C38.27 25.435 37.2968 27.0129 37.2063 27.1591C35.2967 30.2388 33.609 32.4011 31.896 33.979C30.8832 34.9028 29.9479 35.5227 29.2519 35.9575C28.0053 36.7307 27.0061 36.2807 26.5305 35.6537C26.4003 35.4916 26.132 35.0757 26.132 34.5136L26.1502 34.3641C24.3085 38.1829 20.9264 40.7343 17.3161 40.8883C13.0078 41.0577 10.829 39.1021 9.89781 38.2663L9.88999 38.2593L9.83434 38.2062C8.87157 37.4709 8.8315 36.3501 9.29118 35.6155C9.73602 34.9031 10.7248 34.4375 11.8122 35.076C11.9988 35.1766 12.9579 35.581 13.8798 35.6084C18.1409 35.7042 19.8902 32.039 20.4463 30.461C20.873 29.2445 21.0815 27.9478 21.0815 26.7354C21.0815 25.1757 20.735 23.7591 20.095 22.7778L19.6698 22.9748C17.5832 23.3904 15.8169 22.2851 15.2607 20.1681C15.1394 19.6254 15.1453 19.0866 15.2548 18.5665C14.3866 20.518 13.4454 23.351 12.4618 26.3184C10.0948 33.4896 7.41017 41.6199 3.43629 44.5913C2.82004 45.0528 2.06355 45.1226 1.42282 44.7761C0.781715 44.4296 0.401059 43.7443 0.415899 42.8977C0.519411 40.469 0.373605 38.056 0.177341 36.9281L0 35.926L0.730889 35.2367C3.08531 33.0507 4.54969 28.9555 6.09939 24.6177C7.58269 20.4761 9.1183 16.2106 11.653 12.7891L11.4334 12.8043C11.2175 12.8277 10.3219 13.1553 8.83967 14.3522C8.3492 14.8059 7.68657 14.9599 7.06699 14.7588L6.04894 14.3934L5.80259 13.4006C5.33437 11.511 6.02556 8.01573 8.25607 4.98977ZM17.4367 5.81193C17.636 5.80637 17.8411 5.80785 18.0537 5.81713C18.4574 5.84013 19.091 5.96702 19.7659 6.25269C17.1993 7.41024 14.9632 9.04268 13.0751 11.0947L13.0636 10.8751C13.0421 10.4674 12.9853 8.32663 14.2564 6.991C14.9736 6.24342 16.0421 5.84978 17.4367 5.81193ZM117.001 7.50048L117.001 7.49966L117 7.50004L117 7.50004L117.001 7.50048ZM117.001 7.50048L115.336 10.0934C114.414 11.514 114.299 12.8964 114.222 13.8083L114.168 14.3233C114.092 14.4053 113.964 14.5321 113.964 14.5321L113.177 15.3903L113.09 15.506C111.969 16.9029 111.782 18.089 111.782 20.9369L111.767 21.2059L111.589 21.4288C110.648 22.645 110.614 24.1042 110.588 25.1738C110.588 25.1738 110.546 26.0401 110.544 26.0557C107.819 26.4527 53.9485 34.2168 52.739 34.39C49.2849 34.8516 47.6873 37.5926 47.9418 39.9203C48.3811 43.9502 51.2226 45.1519 53.7385 44.9326C55.3301 44.8017 94.4708 38.9579 108.372 36.8795C108.262 37.4342 108.178 38.0152 108.178 38.6351C108.178 39.3976 108.31 40.209 108.593 41.0445C108.375 41.549 108.196 42.107 108.119 42.7463C108.073 43.1195 108.053 43.4772 108.053 43.8011C108.053 46.0409 109.004 47.2811 109.865 47.9423C111.233 48.9967 113.064 49.0779 115.266 48.3007C117.555 48.7281 120.073 48.4891 122.344 47.6232C124.474 48.0272 126.649 46.7688 127.723 46.1184L127.755 46.0987L127.856 46.0987L129.349 46.0605L129.595 46.0104C130.574 45.8216 132.405 45.478 133.233 43.6274C133.475 43.0884 133.562 42.55 133.562 42.0495C133.562 40.771 132.963 39.6973 132.715 39.2581C132.721 39.1664 132.728 39.0937 132.728 38.9906C132.728 38.6322 132.703 38.1866 132.588 37.6816C132.288 36.2807 131.536 35.2567 130.989 34.5143L130.555 33.8829L130.361 33.4054C130.287 33.1969 130.195 32.9509 130.078 32.6856C131.26 31.708 131.741 30.6262 131.932 29.8942C132.333 28.3244 131.892 26.6998 130.735 25.5485C129.588 24.4132 127.886 23.8901 125.967 24.0285C125.909 21.5379 124.758 20.1251 124.113 19.3935L124.106 19.1397C124.095 17.6846 124.077 14.9863 121.912 12.8155C121.444 12.3421 121.389 12.2033 121.199 11.7295C121.199 11.7295 120.979 11.2072 120.913 11.0643C120.796 10.772 120.478 10.0945 119.447 9.32466L117.001 7.50048ZM95.4737 10.1902C95.5271 10.7289 95.7687 11.1252 95.9145 11.2907L95.9145 11.2914L96.0821 11.4684C95.7085 11.3693 95.3182 11.2999 94.8274 11.4624L94.7632 11.445L94.7543 11.3797C94.7543 10.9798 94.9754 10.5676 95.2429 10.3487C95.3372 10.2678 95.398 10.2329 95.4733 10.1902L95.4737 10.1902ZM20.9524 15.9568C22.5952 13.9209 22.8381 11.8271 22.8523 10.8644C19.051 12.8192 17.7402 14.6331 16.622 16.1839L16.2714 16.6721L16.2087 16.7753C16.3111 16.668 16.4187 16.5645 16.5337 16.4684C17.6979 15.5368 19.2495 15.4567 20.7216 16.1839C20.7951 16.1215 20.8715 16.057 20.9312 15.9802L20.9524 15.9568ZM104.392 12.4923C104.457 12.8494 104.541 13.1918 104.541 13.6161C104.541 13.7775 104.532 13.9441 104.523 14.1203C104.382 17.1114 102.623 18.1123 101.003 18.4355C102.104 16.7533 103.044 14.9944 103.879 13.4313C104.048 13.1234 104.22 12.8002 104.392 12.4923ZM80.299 15.6834C80.2508 15.5906 80.2315 15.483 80.187 15.3832L80.1866 15.3829L80.1866 15.3825C80.089 15.6596 80.0427 15.8867 79.9039 16.1831L79.2654 17.531C78.7901 18.5205 78.0247 20.1244 77.7532 21.122C78.5423 20.6174 79.8223 19.0521 81.1553 16.6306C80.8503 16.3427 80.5127 16.0759 80.299 15.6834ZM93.3311 17.196L93.331 17.1965C93.0481 17.4931 92.8056 17.8006 92.6443 18.1235C92.4154 18.5591 92.3 18.959 92.3 19.2636C92.3 19.4944 92.3572 19.6669 92.4826 19.7786C92.6766 19.9482 93.0539 19.8869 93.452 19.7482C93.2695 19.1824 93.1574 18.6088 93.1574 18.0196C93.1574 17.7512 93.2864 17.4772 93.331 17.1965L93.3315 17.196L93.3311 17.196ZM58.8035 17.6924C58.792 17.6772 58.7749 17.6505 58.6633 17.6505L58.6633 17.6501C57.7851 17.6501 55.9846 19.9021 55.4262 22.6777C55.1376 24.1368 55.4069 24.8176 55.5011 24.8599C55.6863 24.9404 55.7519 24.9137 55.8191 24.8751C56.0825 24.7676 57.0442 24.1213 58.4214 20.5295C58.8061 19.5207 58.9248 18.801 58.9248 18.3313C58.9248 17.9929 58.8669 17.7855 58.8035 17.6924Z" transform="translate(19.20978 31.90082)" id="Shape" fill="#13274F" fill-rule="evenodd" stroke="none" />
      <path d="M15.9586 0.000475537C7.71773 0.177817 4.97004 8.58786 5.59593 11.1096C5.60706 11.1556 5.67088 11.2217 5.73766 11.156C7.27586 9.90531 8.56512 9.21931 9.37169 9.15402C9.24666 6.92908 10.0169 1.87556 16.2098 2.16086C17.6036 2.22208 19.9781 2.99118 21.4488 5.03544C18.0155 5.99784 14.3391 7.91522 11.3967 11.7029C6.09865 18.5157 5.12921 29.994 0 34.7711C0.238187 36.1483 0.370638 38.7379 0.264899 41.1402C0.258964 41.4018 0.399946 41.3294 0.477487 41.2715C6.26004 36.9356 9.61879 18.2612 12.9386 13.7304C14.4282 11.6984 15.9304 9.13435 22.2012 6.42042C22.4171 6.9632 22.5863 7.56053 22.6727 8.23391C22.8252 9.47345 22.606 12.5487 20.3907 15.2931C19.8846 15.9439 19.0101 16.49 18.7527 16.4403C18.4295 16.1746 18.4703 16.2633 18.1104 16.0129C16.1901 14.9855 14.7369 16.4981 15.0622 17.915C15.3123 18.8578 16.0888 19.6046 17.4137 19.3464C17.6106 19.3073 17.873 19.1429 18.1062 18.9969C18.3533 18.8421 18.5675 18.7079 18.6358 18.7654C23.2315 22.5679 20.9138 35.7977 11.9228 35.601C10.5586 35.5628 9.25557 34.9818 9.03445 34.8431C8.81481 34.7121 8.8111 34.7815 8.95505 34.8817C9.0067 34.9271 9.06346 34.9787 9.12574 35.0353C9.94015 35.7755 11.6982 37.3733 15.3257 37.2268C22.6056 36.9141 27.8179 24.7468 19.9039 17.8453C24.9585 15.1039 26.7349 9.50351 25.0454 5.29255C25.9833 4.96495 26.9757 4.61843 28.0847 4.27598C28.3384 4.21402 28.5332 4.11459 28.0847 4.11459C27.0584 4.13389 25.8768 4.20772 24.612 4.37652C23.1925 1.82435 20.3243 -0.0151153 15.9578 9.62396e-05L15.9586 0.000475537ZM99.2309 10.2593C101.392 5.6899 103.184 2.00244 105.954 1.74087L105.955 1.74013L105.955 1.74013C106.218 1.72863 106.23 1.82064 106.083 1.9939C103.618 5.42759 105.152 9.27238 105.611 10.4222L105.633 10.477L105.633 10.4755C107.648 15.5372 104.265 20.918 98.7408 20.8267C97.1031 20.807 95.6206 20.2338 94.5773 19.3404C94.41 19.4985 94.2456 19.6677 94.0679 19.8139C90.0844 23.236 83.5383 20.5459 87.6491 14.7099C88.3228 13.8284 89.526 12.9083 90.6631 12.0579C90.0844 11.7726 89.7382 10.9104 89.6725 10.2834C88.7933 11.1842 85.5606 13.6592 82.8764 14.0751C80.4993 19.5798 76.541 25.0147 72.4529 23.656C69.9742 22.8324 71.9988 19.1023 73.629 16.3542C75.8747 12.5818 73.9848 10.3416 71.4961 12.8671C69.1272 15.276 66.0515 20.5804 64.8524 22.2859C60.1245 29.013 57.4683 26.505 56.2902 25.3925C56.2267 25.3326 56.1675 25.2767 56.1125 25.2265C55.5415 26.0116 53.6531 27.2277 52.316 27.1854C50.5147 27.0122 49.5731 25.596 49.3386 23.6794C46.0456 28.514 42.2795 29.8526 40.2834 28.9481C37.6081 27.7378 39.0121 23.8457 39.9668 21.1989C40.2873 20.3106 40.5571 19.5626 40.6051 19.1034C40.6051 19.1034 40.5739 18.9683 40.4719 19.0102C40.0886 19.1913 39.1377 19.615 38.6343 19.7033C37.7313 19.865 36.9269 19.8183 36.219 19.6647C35.4429 21.427 34.4667 23.2483 33.7919 24.3301C32.0418 27.1595 30.4153 29.2798 28.797 30.7735C27.9518 31.547 27.1653 32.0902 26.4199 32.5517C26.1717 32.7061 25.708 32.886 26.2389 32.3202C28.3904 30.0415 30.2209 27.7011 32.3379 23.9673C33.1445 22.5478 34.0813 20.7121 34.8144 19.1182C33.9829 18.6255 33.3942 17.9291 33.1133 17.1901C31.7988 13.8035 36.1482 11.7433 37.3651 15.0267C37.5869 15.6155 37.3346 16.7623 36.8612 18.0749C38.7259 18.1677 41.0848 17.5177 42.9406 16.4046C43.1951 16.2737 43.2741 16.4046 43.132 16.7931C42.3414 18.7524 40.0486 25.9581 42.1811 26.9862C43.8247 27.7865 46.2656 26.223 48.5135 22.2202C48.7424 21.8088 49.5141 20.3926 49.6622 19.8536C50.7611 15.9119 53.471 11.8008 57.7609 12.3517C59.2813 12.5439 60.2927 13.5249 60.5483 14.1838L61.1827 12.548L63.1439 12.3517L59.9781 19.8695C58.5219 23.0064 60.1246 25.9162 62.7647 22.937C64.0252 21.5131 65.2981 19.4925 66.5991 17.4273C69.5673 12.7157 72.6816 7.77211 76.127 9.1529C77.0809 9.52984 77.5765 10.9924 76.3908 13.5568C76.192 13.9861 75.9778 14.4291 75.7618 14.8759C74.3513 17.7938 72.8626 20.8735 75.0488 21.3706C77.1681 21.8514 79.9744 17.537 81.6313 14.0999C79.4238 13.7761 79.1778 11.1475 79.9588 9.40037C80.7579 7.5954 83.8199 7.39877 84.0455 10.0622C84.0833 10.5049 83.8915 11.3367 83.5772 12.2794C85.5425 12.0802 88.0197 10.9252 89.8113 8.83086C90.3523 6.83335 92.2515 5.19349 93.7971 5.38975C94.9576 5.5441 95.8755 6.51057 95.5716 7.70782C95.4655 8.13485 95.2002 8.41163 95.3178 8.03876C95.5393 7.03407 94.3128 5.33262 92.2092 7.09158C91.3777 7.78463 90.8142 9.07054 91.1696 10.3294C91.4159 11.1994 92.6106 11.6691 93.448 11.3727C94.1429 11.1337 93.685 11.7225 93.2595 11.9006C92.3794 12.2468 90.0918 13.6399 89.1639 15.4141C87.2684 19.044 90.6205 21.1962 93.1786 19.1286C93.3923 18.9594 93.609 18.7476 93.8249 18.5354C93.0087 17.4301 92.7434 16.0374 93.3537 14.5778C94.4044 12.0572 96.9217 12.5651 97.6897 13.2155C98.2518 12.2148 98.7786 11.2102 99.2309 10.2593ZM103.171 6.37182L103.171 6.3722C101.433 7.85468 99.2547 13.9979 95.7267 18.1313C96.5971 18.5124 97.6975 18.6815 98.8677 18.5316C100.698 18.2923 104.159 17.1033 104.372 12.4226C104.517 10.4905 103.985 9.08349 103.581 8.01641C103.329 7.35119 103.127 6.8181 103.171 6.3722L103.171 6.37182L103.171 6.37182ZM114.462 8.97668L115.442 7.4522L115.442 7.45219L115.443 7.45182L116.841 8.58377C117.585 9.18517 117.754 9.55433 117.826 9.7005L118.116 10.3932C118.328 10.9315 118.459 11.255 119.116 11.9177C120.898 13.707 120.916 15.9631 120.924 17.3181C120.924 17.3181 120.951 17.8954 120.957 18.0649C121.019 18.1451 121.194 18.3536 121.194 18.3536C121.808 19.0462 122.813 20.1852 122.813 22.3675C122.813 22.4484 122.807 22.5445 122.799 22.6254C122.875 22.7448 123.208 23.2383 123.208 23.2383C123.289 23.3492 123.371 23.4616 123.453 23.5807C125.303 23.2728 126.925 23.6453 127.94 24.654C128.764 25.4658 129.08 26.6133 128.794 27.7223C128.611 28.4257 128.069 29.5425 126.477 30.4433C126.905 31.0517 127.103 31.5975 127.26 32.0331L127.542 32.6994L128.063 33.4655C128.571 34.1582 129.199 35.0089 129.44 36.1257C129.526 36.5263 129.551 36.8684 129.551 37.1571C129.551 37.3882 129.532 37.5923 129.519 37.7503L129.517 37.8115C129.567 37.8497 129.608 37.9076 129.608 37.9076L129.702 38.0731L129.702 38.0731C130.023 38.6389 130.387 39.4046 130.388 40.2168C130.388 40.5562 130.322 40.902 130.166 41.2519C129.615 42.4877 128.365 42.7229 127.451 42.8884L127.192 42.9418L126.039 42.9678C125.624 42.9366 125.53 42.9407 125.412 43.0142L125.166 43.1567C124.076 43.823 121.987 45.0855 120.196 44.4266C117.988 45.3196 115.539 45.6042 113.33 45.139C112.249 45.5853 110.21 46.232 108.701 45.0655C108.075 44.5876 107.393 43.6683 107.393 41.955C107.393 41.6815 107.415 41.394 107.449 41.0738C107.527 40.4238 107.762 39.8692 108.059 39.3108C107.658 38.4378 107.512 37.5982 107.512 36.7972C107.512 35.5502 107.868 34.4305 108.189 33.4718C97.269 35.1076 53.3415 41.6634 51.7131 41.8055C50.5162 41.9049 47.6869 41.7398 47.2766 37.9484C47.1267 36.5705 48.0019 34.2502 50.9774 33.8458C51.5098 33.7731 108.378 25.5738 109.612 25.3931C109.706 25.1968 109.799 24.9004 109.867 24.427L109.926 23.373C109.951 22.395 109.974 21.2782 110.655 20.4086L110.887 20.1203C110.887 20.1203 111.05 19.9088 111.058 19.9044C111.058 19.8933 111.121 19.7319 111.121 19.1045C111.121 16.2147 111.35 15.4901 112.139 14.5003L112.24 14.3741L112.909 13.6392C113.28 13.2848 113.399 13.1498 113.455 12.9153L113.56 12.0917C113.628 11.2602 113.72 10.1205 114.462 8.97668ZM82.0918 9.2238C82.17 9.23085 82.2494 9.24978 82.3318 9.28094C83.1495 9.59667 83.1502 10.4775 82.4309 12.2943C82.1188 12.2601 81.8239 12.1986 81.576 12.0984C80.2753 11.5612 80.9242 9.11473 82.0918 9.22344L82.0918 9.2238ZM96.7815 14.7273C96.5541 14.3114 96.0269 13.8258 95.447 13.8135L95.4466 13.8135C94.9962 13.8039 94.5132 14.0806 94.1143 14.9009L94.1136 14.9009C93.6227 15.9056 93.957 16.8491 94.761 17.5377C95.4555 16.7107 96.1307 15.7517 96.7815 14.7273ZM56.7466 13.9887L56.747 13.9887C58.3247 13.9889 59.584 15.6318 58.1542 19.3702C56.6513 23.2888 54.9791 25.6365 52.8848 24.7053C49.6553 23.2621 53.1365 13.9893 56.7466 13.9887ZM36.1018 15.7513C36.1277 14.8676 35.6699 14.4984 35.1546 14.4921C34.2957 14.4813 33.2773 15.4805 34.076 16.7938C34.3606 17.268 34.8266 17.5915 35.3998 17.8026C35.8213 16.8176 36.0925 16.0552 36.1018 15.7513Z" transform="translate(21.13235 33.73395)" id="Shape" fill="#CE1141" fill-rule="evenodd" stroke="none" />
      <path d="M79.8552 29.2452C79.4377 28.799 79.4578 28.5448 79.4941 28.091C79.5193 27.7827 79.5498 27.3979 79.4407 26.89C79.2696 26.0775 78.7818 25.4197 78.3147 24.7882L77.6969 23.8604L77.3174 22.9907C77.1178 22.4361 76.9156 21.8628 76.2556 21.1857L76.0979 21.0084L75.5377 20.3076C77.3426 19.7804 78.5339 18.8796 78.8111 17.814C78.9673 17.2056 78.7936 16.5934 78.3358 16.1393C77.6795 15.4889 76.2366 15.0426 74.1386 15.6466L74.1267 15.6158C73.9594 15.2696 73.7127 14.9116 73.4567 14.5536L73.3702 14.4345C73.2278 14.226 73.0333 13.9262 72.895 13.6914C72.8167 13.5225 72.7558 13.376 72.7636 13.2565C72.8998 11.3362 72.1032 10.4272 71.5241 9.77276C71.2636 9.47632 71.041 9.22997 70.9768 8.96433C70.9023 8.68347 70.896 8.26016 70.8922 7.78267C70.8848 6.5127 70.8711 4.77266 69.5084 3.39474C68.6406 2.53733 68.4291 2.0016 68.1902 1.39352L67.9323 0.785428C67.8436 0.553921 67.4819 0.269726 67.3294 0.15768L67.118 0L66.9729 0.227058C66.4305 1.06962 66.3596 1.91663 66.2954 2.66348L66.1615 3.7216C65.9979 4.37606 65.6217 4.74521 65.2221 5.13774L64.6793 5.71911L64.5658 5.86121C64.0653 6.4923 63.8635 6.85403 63.8635 9.56017C63.8635 10.8227 63.6587 11.065 63.2995 11.5039L63.0918 11.7621C62.7092 12.2548 62.69 13.0362 62.6721 13.8561L62.595 15.0993C62.572 15.2574 62.5449 15.4076 62.5197 15.5386L62.3753 16.1237L62.3716 16.1311L62.3679 16.1311C62.208 16.6468 62.0043 16.9358 61.7672 17.1436L61.6927 17.19C61.5365 17.2171 59.9523 17.4441 57.389 17.8133L56.9601 17.8671L56.9467 17.8745C55.3376 18.106 53.3743 18.3902 51.1768 18.71L51.1705 18.7063L50.0177 18.8714C37.6461 20.6615 18.5951 23.41 8.80158 24.8183L8.74184 24.8064L7.47744 25.0112L2.51259 25.7232C0.517678 25.9922 -0.0815036 27.4128 0.0086559 28.2442C0.0832303 28.9373 0.314737 31.0617 2.94891 30.8383C3.22642 30.8116 4.80247 30.592 7.25632 30.2421L7.29083 30.2458L8.60346 30.0417C17.1081 28.8059 33.4462 26.3773 45.7827 24.5371L45.8962 24.5297L46.5603 24.4291C51.622 23.6634 55.9483 23.0208 58.6856 22.6127L58.7472 22.6127L60.6546 22.3203L60.6657 22.3166C60.9685 22.2702 61.2189 22.2309 61.4051 22.2049C61.3417 22.8241 61.1473 23.4905 60.9147 24.2021C60.5934 25.1493 60.2557 26.1614 60.2557 27.2392C60.2557 28.0402 60.468 28.8675 60.9877 29.7253L60.9187 29.8948C60.449 30.661 60.2487 31.1492 60.1797 31.7158C60.1485 31.9662 60.1352 32.2044 60.1352 32.424C60.1352 33.3397 60.3845 33.9937 60.8876 34.3751C61.6185 34.9409 62.8446 34.8486 64.5209 34.1136C66.7748 34.7091 69.4271 34.4097 71.6687 33.3356C72.8634 34.1514 74.7711 33.0161 75.8159 32.3851L76.0756 32.2311C76.5839 31.9269 77.0499 31.9658 77.4999 32.004L78.2853 31.9966L78.551 31.9428C79.3056 31.8041 80.0098 31.6698 80.2624 31.1077C80.4575 30.6697 80.3267 30.0846 79.8557 29.2463L79.8559 29.2459L79.8552 29.2452ZM79.8552 29.2452L79.8551 29.2474L79.8557 29.2463L79.8552 29.2452ZM63.1771 13.8717C63.1942 13.1326 63.2076 12.4403 63.4888 12.0815L63.6814 11.8434C64.1336 11.2961 64.3662 10.95 64.3662 9.56054C64.3662 6.93156 64.5629 6.68484 64.9573 6.19956L65.0763 6.04633L65.5728 5.51097C65.982 5.10694 66.4561 4.64912 66.6502 3.84439L66.7982 2.71653C66.8539 2.07728 66.9518 1.43061 67.2809 0.788023C67.3755 0.880401 67.4519 0.953493 67.4697 1.00024C67.4757 1.01137 67.7179 1.58829 67.7179 1.58829C67.9736 2.22383 68.2106 2.82858 69.1497 3.77502C70.3703 4.99119 70.3818 6.54276 70.3892 7.78601C70.3955 8.30134 70.3955 8.74803 70.486 9.09864C70.5858 9.48337 70.8593 9.79094 71.1498 10.1223C71.6521 10.6918 72.2721 11.3963 72.2721 12.828C72.2721 12.9508 72.2721 13.0818 72.2602 13.2128L72.2639 13.2792L69.9202 13.6795C70.5072 12.2556 70.095 10.4851 69.4947 9.30343C69.4313 9.18063 69.2825 9.12572 69.1541 9.19918C69.0313 9.26077 68.9868 9.42253 69.0499 9.54904C69.6349 10.7081 70.039 12.4893 69.3021 13.7834L68.8822 13.8565C66.9039 14.1496 64.8738 14.4575 63.1085 15.0426L63.1831 13.8724L63.1775 13.8717L63.1771 13.8717ZM68.2251 4.34638C68.2793 4.21616 68.2251 4.06182 68.0967 4.00394L68.0967 4.00431L68.0956 4.00431C67.9691 3.94643 67.8185 4.00431 67.7606 4.13899C67.4701 4.82053 67.4875 5.73989 67.8088 6.53274C68.0763 7.18349 68.4945 7.64132 68.9905 7.83387C69.1192 7.8847 69.2643 7.81458 69.3144 7.6799C69.3582 7.54893 69.2947 7.39867 69.1619 7.34859C68.8072 7.20983 68.4822 6.83697 68.2748 6.33239C68.0036 5.66272 67.9847 4.90846 68.2251 4.34638ZM66.3196 10.0573C66.4505 9.99942 66.5017 9.84508 66.4461 9.71115L66.4464 9.71115L66.4464 9.71078C66.3852 9.58427 66.2331 9.52602 66.1077 9.58798C65.4429 9.91075 64.9068 10.6539 64.7469 11.4738C64.5873 12.2822 64.7929 13.0562 65.3264 13.6724C65.4247 13.7796 65.5824 13.7841 65.6866 13.691C65.7883 13.5949 65.7942 13.4298 65.7 13.3218C65.28 12.8287 65.1168 12.2169 65.244 11.5781C65.3728 10.9195 65.8039 10.3114 66.3196 10.0573ZM73.2367 15.1502C72.7113 15.8963 72.0969 16.6813 71.372 17.4593C70.804 17.1514 69.8705 16.4283 69.2528 15.835C69.465 15.8042 69.6783 15.7694 69.8842 15.7419L73.2367 15.1502ZM77.9882 16.5195C78.229 16.754 78.3603 17.0545 78.3603 17.3699C78.3603 17.4704 78.3484 17.5702 78.3232 17.6819C78.0906 18.5753 76.9397 19.3715 75.252 19.8416C75.1058 19.6453 74.9712 19.3719 74.8576 19.0873C74.8038 18.9719 74.7593 18.8484 74.7267 18.7367L74.7074 18.71C74.6039 18.4176 74.5248 18.1553 74.4788 17.9865C74.408 17.6819 74.3653 17.4011 74.3367 17.1473C74.3193 16.9239 74.3193 16.708 74.3193 16.5351L74.2907 16.3578L74.2907 16.2535L74.2889 16.2313L74.2889 16.2079L74.2792 16.1459C76.1662 15.6035 77.4328 15.9653 77.989 16.5195L77.9882 16.5195ZM64.6993 18.3709C64.6548 17.8939 64.5454 17.4592 64.3777 17.1317C64.3406 17.0431 64.2872 16.9818 64.243 16.9084C64.9613 16.6739 65.7178 16.4773 66.4984 16.3155C67.4883 17.3243 68.9048 18.4399 69.7403 18.9983C69.4954 19.1945 69.2417 19.3867 68.9812 19.5715L68.3364 19.3563C67.2972 18.9908 65.8985 18.5171 64.6993 18.3709ZM73.9642 18.017C73.9174 17.8437 73.8889 17.682 73.8681 17.5209L73.8681 17.5206C73.6503 17.8129 73.427 18.0982 73.2092 18.3787C73.4812 18.4945 73.7861 18.5601 74.1063 18.5638C74.0566 18.3906 74.008 18.2207 73.9716 18.0593L73.9698 18.0437L73.9698 18.0289L73.9642 18.017ZM61.2882 21.697L61.288 21.697L61.288 21.6971C61.1764 21.7164 61.039 21.739 60.8765 21.7586C60.9025 20.1881 60.6884 19.0528 60.4168 17.9057L61.5213 17.7446L61.5733 17.7632C61.8719 17.7632 62.0682 17.8867 62.1888 18.1487C62.5416 18.9266 62.1069 20.6196 61.2882 21.697ZM54.9715 20.6808L53.0994 18.9597L56.4715 18.4711C56.0074 19.1608 55.1663 20.3962 54.9715 20.6812L54.9715 20.6808ZM45.6607 20.03C45.8224 20.7 45.9686 21.4196 46.0513 22.259L47.8826 19.7106L45.6607 20.03ZM56.525 22.4123C57.2329 22.3051 57.8821 22.2049 58.465 22.1241L58.465 22.1237C58.4783 21.2852 58.4305 20.5881 58.3422 19.98L56.525 22.4123ZM71.5008 20.4319C71.7471 20.4715 72.0261 20.4823 72.3263 20.4823C72.1185 20.3816 71.9185 20.2581 71.7219 20.1113L71.5008 20.4319ZM43.6939 24.3263C32.2327 26.0356 18.0331 28.1407 9.75547 29.3457C10.056 28.6107 10.0578 27.6213 9.93653 26.89C9.82486 26.2163 9.61115 25.662 9.32844 25.2731L43.2517 20.3769C43.5032 21.4514 43.7266 22.652 43.6947 24.3267L43.6943 24.3263L43.6939 24.3263ZM63.8368 21.7163C64.7105 21.5627 65.5153 21.3275 66.2736 21.0314C66.0903 20.9654 65.9171 20.8971 65.746 20.824C65.3231 20.6507 64.8901 20.4812 64.4434 20.4118C64.3028 20.8348 64.1047 21.2696 63.8368 21.7163ZM51.8866 21.231C51.9485 21.7931 51.979 22.4012 51.9715 23.0861C52.5261 23.0055 53.0687 22.925 53.594 22.8479L51.8866 21.231ZM49.4773 21.5853L47.9882 23.6822L47.988 23.6823L47.988 23.6825L47.9877 23.683L47.988 23.683L47.988 23.6825L47.9882 23.6822L49.5585 23.4478C49.5719 22.7588 49.5392 22.1392 49.4773 21.5853ZM79.805 30.8891C79.6592 31.2049 79.0819 31.321 78.4653 31.4319L78.1945 31.4857L77.5419 31.4857C77.0607 31.4434 76.4719 31.397 75.8248 31.7781L75.5592 31.932C74.6528 32.4867 72.7592 33.6331 71.8506 32.8551L71.7255 32.7434L71.5794 32.821C70.7594 33.2254 67.8262 34.4883 64.5662 33.5879L64.4812 33.5682L64.4022 33.6027C62.8799 34.2876 61.7695 34.4067 61.1866 33.9607C60.7184 33.599 60.5511 32.8714 60.6817 31.7781C60.7374 31.301 60.9184 30.8699 61.3421 30.1805L61.5506 29.611L61.4694 29.565C60.2747 27.7137 60.8368 26.02 61.3885 24.3805C64.9335 24.2225 67.4122 23.4411 69.4639 22.0357C71.5771 22.5756 74.3241 22.4906 76.1446 21.8399C76.5234 22.317 76.6893 22.737 76.8443 23.1677L77.2569 24.1264L77.9158 25.1003C78.3488 25.6891 78.7925 26.3046 78.9491 27.0058C78.9988 27.2328 79.0125 27.4328 79.0125 27.6135C79.0125 27.7712 79.0014 27.9136 78.9917 28.0528C78.9825 28.1756 78.971 28.291 78.971 28.4182C78.971 28.7762 79.0537 29.138 79.4637 29.5572C79.71 30.0195 79.8462 30.3968 79.8462 30.6662C79.8462 30.7537 79.8351 30.8224 79.8065 30.8884L79.8057 30.8884L79.805 30.8891ZM74.5011 22.6902C74.6394 22.6976 74.7474 22.813 74.7393 22.9596C74.7207 23.2827 75.1284 23.614 75.5981 23.9906C76.4281 24.6643 77.5615 25.5885 77.0878 27.2781C77.0458 27.4202 76.9067 27.5015 76.7742 27.4592C76.6396 27.4202 76.562 27.27 76.601 27.139C76.982 25.7841 76.1198 25.0758 75.2884 24.4065L75.2713 24.3925C74.7194 23.94 74.2057 23.5189 74.2351 22.9288C74.2436 22.79 74.3605 22.6746 74.5011 22.6898L74.5011 22.6902ZM69.9629 23.6923C70.5116 24.5857 70.5535 25.7317 70.0764 26.841C69.9759 27.0755 70.0779 27.3148 70.4456 27.7155C70.4456 27.7155 70.5765 27.8301 70.5572 27.9463C70.532 28.0616 70.5287 28.1585 70.411 28.1696C70.3279 28.177 70.1929 28.1807 70.089 28.0765C69.8445 27.8186 69.3388 27.2718 69.6137 26.6333C70.0219 25.6787 69.997 24.7166 69.5347 23.9735C69.4616 23.8544 69.4946 23.6893 69.6137 23.6162C69.7313 23.5387 69.8872 23.5773 69.9621 23.6926L69.9629 23.6923ZM64.6163 26.2096C65.034 25.7328 65.1973 25.0012 64.7086 24.5048L64.709 24.5055L64.7083 24.5052C64.6107 24.4054 64.4508 24.4054 64.354 24.5096C64.2519 24.6094 64.2556 24.7749 64.354 24.8706C64.6845 25.2053 64.3885 25.695 64.2478 25.8567L63.6917 26.3257L63.6871 26.3292C63.1644 26.7211 62.513 27.2095 62.7627 28.1084C62.8031 28.2505 62.9438 28.3232 63.0747 28.2813C63.209 28.246 63.2884 28.104 63.2476 27.9693C63.0992 27.4417 63.4357 27.1571 63.9904 26.742L64.6163 26.2096ZM2.90964 30.3155C3.17528 30.2963 4.71311 30.0803 7.11911 29.7267L7.11874 29.7267C7.4456 29.2296 7.56099 28.2791 7.40739 27.3092C7.27865 26.5279 6.99371 25.9042 6.65721 25.6542L2.57684 26.243C0.857954 26.47 0.50253 27.5671 0.50253 28.0787L0.509952 28.1867C0.627562 29.2686 1.00488 30.481 2.90964 30.3155ZM76.8629 28.8104C76.9493 28.7837 77.0624 28.7062 77.1392 28.3641L77.1397 28.3644C77.1694 28.2294 77.3081 28.1407 77.4421 28.1719C77.5752 28.2071 77.6598 28.3414 77.6272 28.4839C77.5927 28.6523 77.4769 29.165 77.0072 29.3075L76.263 29.3149L75.8222 29.2919C75.5681 29.3194 75.295 29.4311 75.0965 29.5999L74.2069 30.304L73.8051 30.4855C73.3398 30.5927 72.8775 30.5582 72.4019 30.3775C72.2694 30.327 72.2023 30.1809 72.252 30.0425C72.3021 29.9074 72.4442 29.8429 72.5752 29.8926C72.9584 30.0347 73.3261 30.0696 73.6971 29.9809L73.8993 29.8963L74.7867 29.188C75.0554 28.9647 75.4115 28.8107 75.7699 28.7721L76.3376 28.7992L76.8629 28.8104ZM77.1392 28.3641L77.1393 28.3637L77.1386 28.3637L77.1392 28.3641ZM63.4966 30.5014C63.7218 31.1099 64.3414 31.4598 64.9053 31.3024L65.6251 30.9711L66.379 30.6361C66.6776 30.5319 66.9484 30.625 67.1855 30.7096C67.2098 30.7168 67.2337 30.7242 67.2571 30.7314C67.42 30.7816 67.5626 30.8256 67.6819 30.7786L67.8897 30.7129L67.8786 30.7203C67.8897 30.7129 68.2247 30.589 68.3149 30.674C68.5439 30.8918 68.2394 31.0448 68.2938 31.0067L67.9094 31.2553L67.8537 31.2665C67.5492 31.3818 67.2743 31.2862 67.0301 31.2012C66.8372 31.1355 66.6702 31.0821 66.524 31.1281L65.8636 31.436L65.0359 31.8052C64.2219 32.0322 63.3404 31.5362 63.0262 30.6884C62.9772 30.5582 63.0403 30.4005 63.1712 30.3497C63.3022 30.3044 63.4465 30.3697 63.4966 30.5007L63.497 30.5011L63.4966 30.5014Z" transform="translate(69.77188 43.27716)" id="Shape" fill="#13274F" fill-rule="evenodd" stroke="none" />
      <path d="M62.3025 0.48862L62.2914 0.493069L62.2914 0.492707L62.2906 0.491592C61.9556 0.545384 61.7345 0.58397 61.7345 0.58397C59.6847 0.891535 57.5796 1.21135 55.8054 1.83093L55.7264 2.18933C56.0836 2.24721 56.4112 2.42047 56.6902 2.6939C57.5161 2.40489 58.3973 2.18933 59.3003 2.00085C59.4736 1.94706 59.9433 1.85876 60.8051 1.72742C61.3998 1.62391 61.9968 1.53524 62.593 1.44286L65.7054 0.90378C65.4939 0.611795 65.3103 0.330566 65.1875 0.0534243L65.1571 0C64.907 0.0419265 63.207 0.33094 62.3025 0.48862ZM54.505 9.51861C54.5899 9.22663 54.6552 8.93798 54.6935 8.64191L54.6972 8.63004C55.0519 8.63004 55.7289 8.60333 56.1545 8.51837L56.1905 8.49537C57.5669 8.31803 58.8024 7.94516 59.9013 7.44096C60.2519 7.34042 61.3509 6.74012 61.9456 6.29009L61.9493 6.27822C62.3496 6.00144 62.7251 5.70872 63.0835 5.40857L63.1332 5.38631L63.4178 5.11659L63.44 5.09804C64.6068 4.03955 65.5459 2.88831 66.3098 1.8339C66.3929 1.94928 66.4715 2.09509 66.5198 2.23793C66.545 2.31102 66.5661 2.38744 66.5695 2.45756L66.5695 2.97957L66.5472 3.01445C63.371 7.41387 60.5632 9.71561 54.3581 10.051C54.4063 9.88888 54.4605 9.70782 54.5046 9.51861L54.505 9.51861ZM62.9302 4.86504C62.2242 4.41092 60.9056 3.37989 59.8931 2.40933C60.1573 2.35924 60.4285 2.31249 60.6882 2.2702C60.9097 2.23198 61.1483 2.19711 61.4232 2.15481C61.9608 2.74027 63.0252 3.59878 63.7754 4.04473L63.0794 4.73333L62.964 4.83387L62.9306 4.86466L62.9302 4.86504ZM56.4814 3.22186C56.237 2.91402 55.9177 2.74819 55.5613 2.7099L55.5609 2.70986C55.4147 3.09793 55.2303 3.39846 54.9995 3.64035C55.1769 3.75981 55.3231 3.92491 55.4251 4.14455C55.5427 4.40277 55.5961 4.72221 55.5961 5.06465C55.5961 5.94988 55.2229 7.00058 54.7224 7.81346L54.7306 7.81346L54.7324 8.10581C55.0114 8.09839 55.2945 8.08652 55.5616 8.05943L55.6154 8.05573C55.7308 8.05165 55.8388 8.02864 55.9486 8.01751C56.4891 7.2358 56.7993 6.44666 56.9258 5.7269L56.9392 5.63823C56.9755 5.41563 56.993 5.20045 56.9948 4.99565L56.9934 4.95372C56.9893 4.41502 56.8898 3.94903 56.7088 3.57542C56.6446 3.44891 56.5741 3.33724 56.4951 3.23669L56.4814 3.22186ZM51.7595 8.0216L51.7521 8.2609L51.7525 8.26015C52.2986 8.17891 52.7705 8.11361 53.1575 8.05165L53.1649 7.74371C53.1649 6.32719 52.9534 5.27279 52.6952 4.21022C52.3951 4.24917 51.6404 4.36456 51.2861 4.41056C51.3455 4.62166 51.423 4.95298 51.5325 5.50393C51.5417 5.52693 51.5399 5.5503 51.5325 5.56589C51.6634 6.25114 51.7595 7.0362 51.7595 8.0216ZM50.7738 4.4766C50.6294 4.50034 50.4295 4.52298 50.2547 4.54264L50.2547 4.54339L49.9423 4.58791C49.8381 4.73817 48.0067 7.43652 48.0067 7.43652C47.9656 7.49068 47.8962 7.54077 47.829 7.54819C47.7556 7.5519 47.6847 7.52853 47.6328 7.48289L45.239 5.27391C45.0888 5.29617 44.6079 5.37705 44.3056 5.41526C44.3942 5.81224 44.4825 6.21218 44.5578 6.63588C44.7233 6.79727 46.854 8.81482 47.0132 8.96433C47.2098 8.93019 48.4264 8.75323 48.5937 8.72985C48.7091 8.57589 50.8342 5.73914 51.0067 5.50764L50.9607 5.25461L50.7738 4.4766ZM65.0572 5.73135L65.1492 5.62378C65.3399 5.40785 65.5766 5.13107 65.6842 5.00827C66.1042 5.20936 66.5717 5.31658 67.0703 5.29692C67.1301 5.44309 67.1968 5.59743 67.264 5.75474C67.3237 5.87458 67.3838 5.99404 67.4495 6.10163L67.4781 6.15543L67.4929 6.19736C66.7349 6.33204 65.7633 6.30532 64.8969 5.91279C64.92 5.88608 64.9778 5.81299 65.0568 5.73211L65.0572 5.73135ZM58.71 6.56277C59.0929 6.71971 59.4546 6.86292 59.8089 6.92451L59.8093 6.92451L59.8101 6.92525L59.8345 6.91412C60.3191 6.68335 60.7795 6.4281 61.2125 6.15095L60.9546 6.06599C59.9581 5.71613 58.6258 5.26573 57.4942 5.11584C57.4883 5.44269 57.4519 5.78959 57.3655 6.14316C57.8441 6.22775 58.2867 6.38543 58.71 6.56277ZM43.788 5.4776L44.0325 6.62105C44.1612 7.34081 44.2536 8.11473 44.2536 9.05005C44.2536 9.1543 44.2536 9.26597 44.2499 9.3732C43.9746 9.41512 43.2126 9.53088 42.8486 9.59283L42.8545 9.33127C42.8545 8.50355 42.7815 7.79529 42.6776 7.13675L42.6798 7.13675C42.6664 7.0325 42.6379 6.85961 42.5989 6.65518L42.5177 6.25115C42.4717 6.03893 42.429 5.83896 42.3912 5.67794L42.8794 5.60819L43.7877 5.47797L43.788 5.4776ZM38.9029 10.1813C38.9074 9.94678 38.9074 9.71527 38.8992 9.50009L38.8992 9.25337C38.9935 9.12685 41.2433 5.99665 41.3646 5.82784L41.884 5.76217C41.9419 6.04711 42.111 6.87037 42.1533 7.06664C42.0146 7.26291 40.194 9.83845 40.0764 9.99576C39.9841 10.0154 39.6609 10.0655 39.3455 10.1156C39.1995 10.1304 39.0534 10.1575 38.9029 10.1813ZM37.9391 6.33128L36.5377 6.53608L36.5377 6.53645L36.5374 6.53608C36.7759 7.54411 36.9859 8.66456 36.9859 10.1812L36.9822 10.4469C37.3443 10.3968 38.116 10.2888 38.395 10.258L38.395 9.69225C38.3739 8.33362 38.168 7.28626 37.9391 6.33128ZM68.54 7.61766C66.9328 8.12958 64.7102 8.21784 62.83 7.83721C62.8857 7.8027 62.9395 7.75224 62.9914 7.70253C63.0686 7.64873 63.1335 7.59827 63.2074 7.54114C63.4285 7.36009 63.6541 7.17161 63.8303 6.99835C64.8294 7.21354 66.8288 7.05994 67.8142 6.70526C68.0145 7.00207 68.246 7.29108 68.5091 7.58752L68.5399 7.61757L68.5402 7.61757L68.54 7.61766ZM1.47564 11.5552L1.47551 11.5551L1.47624 11.5551L1.47564 11.5552L1.47564 11.5552ZM1.47564 11.5552C1.29929 11.5858 0.494362 11.7129 0 11.7933C0.313871 12.1899 0.571725 12.7134 0.687111 13.4406C0.735706 13.7218 0.76168 14.0449 0.76168 14.3725C0.76168 14.9038 0.644811 15.4232 0.457823 15.8736C0.961281 15.7968 1.743 15.6774 1.91403 15.6503C2.15334 15.3041 2.29358 14.7309 2.29358 14.0609C2.29358 13.7837 2.27021 13.4869 2.22197 13.1987C2.09696 12.4211 1.81061 11.8131 1.47564 11.5552L1.47564 11.5552Z" transform="translate(76.98969 57.06052)" id="Shape" fill="#EAAA00" fill-rule="evenodd" stroke="none" />
    </g>
  </g>
</svg>