<?xml version="1.0" encoding="utf-8"?>
<svg width="155px" height="157px" viewBox="0 0 155 157" version="1.1" xmlns:xlink="http://www.w3.org/1999/xlink" xmlns="http://www.w3.org/2000/svg">
  <desc>Created with Lunacy</desc>
  <defs>
    <path d="M0 0L154.6 0L154.6 156.497L0 156.497L0 0Z" id="path_1" />
    <clipPath id="mask_1">
      <use href="#path_1" />
    </clipPath>
  </defs>
  <g id="milwaukee-brewers-logo@logotyp.us">
    <path d="M0 0L154.6 0L154.6 156.497L0 156.497L0 0Z" id="Background" fill="none" stroke="none" />
    <g clip-path="url(#mask_1)">
      <path d="M67.3596 95.7925L75.0386 82.307C75.6037 87.1599 77.4512 91.5846 80.3491 94.9317C75.9003 94.9694 71.5449 95.257 67.36 95.7925M40.6968 101.674L45.3273 84.7031L46.4219 96.3637L49.2872 99.1768C46.3767 99.9201 43.3458 100.803 40.6973 101.674M28.1127 49.751C25.4241 47.1402 22.4915 45.8056 19.3842 45.8056L19.3225 45.8096C19.7481 40.9794 23.1645 36.7554 27.8161 35.1744C27.2715 38.0347 28.1228 40.5021 30.2051 42.1418L28.1127 49.7505L28.1127 49.751ZM106.883 95.6916L106.407 95.2143L102.336 91.1374C102.336 91.1374 101.322 91.0305 100.241 90.9126C99.1472 87.8575 99.2491 83.8192 99.9572 81.3946L104.271 65.8759L105.148 62.7245L106.195 58.9693L107.067 55.8255L108.265 51.5197L108.795 49.618L117.296 19.0565C117.36 18.8407 117.422 18.6043 117.465 18.3805L117.483 18.3649L117.495 18.3649L117.495 18.3559C117.632 18.2334 117.996 17.9724 118.18 17.8409C119.742 16.7297 122.333 14.8827 123.605 10.2778L124.937 5.45361L119.482 0L94.7044 6.06241L84.3774 24.1859L83.4443 25.8221L67.5347 53.7381L66.8893 46.9876C66.153 39.1379 63.1296 32.3151 58.1287 27.2525C58.1246 27.2455 55.3938 24.5167 54.9085 24.0218L54.8985 24.0218L54.8172 23.933C54.0623 23.1937 53.2598 22.4875 52.4251 21.8335C46.175 16.9024 38.0021 14.6303 29.3991 15.4409C21.5218 16.1812 14.2082 19.8897 8.78069 25.8853C3.39885 31.8383 0.430131 39.422 0.430131 47.238C0.430131 55.0365 2.97425 61.8728 7.5947 66.4943L10.5594 69.4555C13.6461 72.5391 17.4831 74.4242 21.2518 74.7324L19.0907 82.5781L18.5707 84.4722L16.3659 92.478L15.9774 93.9556C15.6241 95.4186 15.4107 95.9386 15.3179 96.1243C13.1728 97.5346 10.464 100.065 9.32374 104.222L7.30863 111.464L13.231 117.387L15.2782 116.169C16.5079 115.444 18.2716 114.428 20.38 113.289L19.5333 116.291L19.2031 116.482C13.3625 119.777 7.70863 123.584 2.38552 127.8L0 129.697L4.51707 135.511L6.95278 133.579C11.9948 129.587 17.344 125.984 22.8639 122.869L23.1851 122.688L29.8955 124.571L30.298 124.382C31.1557 123.976 32.1791 123.495 33.2783 122.987C34.0432 122.637 34.8638 122.273 35.7461 121.885C47.9091 116.566 71.1002 108.691 104.217 113.431C104.858 113.524 105.493 113.609 106.14 113.709C106.818 113.816 107.475 113.883 108.165 114.002L109.245 114.182L110.228 110.401L116.891 110.976L117.797 105.132L111.663 102.623L112.703 98.7366L109.545 98.0565C108.87 97.9085 108.233 97.782 107.603 97.659C107.409 97.6164 107.189 97.5702 106.998 97.5316L106.882 95.6906L106.883 95.6891L106.883 95.6916Z" transform="translate(16.72736 11.28381)" id="Shape" fill="#0A2351" stroke="none" />
      <path d="M114.243 0L113.388 3.10222C112.412 6.65114 110.527 7.98969 109.157 8.97141C108.159 9.67506 107.611 10.0691 107.299 11.1291L89.7492 74.2064C88.5928 78.1744 88.8613 84.4225 91.3001 88.0563C92.0072 89.1032 92.8349 89.8044 93.7774 90.1994C91.7934 86.4999 91.6343 80.8546 92.7034 77.1716L110.264 14.0998C110.571 13.0328 111.124 12.6448 112.116 11.9391C113.492 10.9549 115.377 9.61483 116.353 6.06441L117.202 2.96771L114.243 0.00150103L114.243 0ZM56.5683 40.9202C55.8721 33.5578 53.055 27.3253 48.3593 22.7274L48.3597 22.7274L48.3683 22.7339C48.9304 23.286 51.1096 25.4713 51.6522 26.0158C56.1517 30.5796 58.8594 36.6942 59.5335 43.8864C59.5336 43.8864 59.5593 44.1572 59.6058 44.6467L59.6122 44.7135L59.6146 44.7388C59.8382 47.0915 60.4875 53.9244 61.1009 60.3114L58.7937 64.3562C57.9766 55.7733 56.5683 40.9202 56.5683 40.9202ZM24.7079 25.0497C24.1784 25.0456 23.6464 25.0692 23.1119 25.1204C15.1613 25.8678 8.9283 32.6047 8.9283 40.4544C8.9283 42.6231 9.68466 44.7074 11.0373 46.3507C11.4518 46.17 11.89 46.0581 12.3236 45.9311L12.2423 45.911C12.016 45.109 11.8855 44.2713 11.8855 43.4176C11.8855 35.5709 18.12 28.832 26.0776 28.0826C28.6097 27.8457 31.0916 28.2272 33.3651 29.1406L34.7408 28.8018C31.9523 26.4123 28.4124 25.0748 24.7074 25.0502L24.7079 25.0497ZM56.5623 89.4199L80.5073 47.4287L80.5078 47.4287C78.9619 53.0334 77.2796 59.0898 76.1122 63.3153L59.533 92.3907C56.4202 92.7857 50.6379 93.8487 48.0938 94.5338L45.0759 91.5686C48.0255 90.7846 52.8081 89.8857 56.5623 89.4199ZM41.548 53.8937L30.0611 95.9913C21.5429 98.8907 11.8638 103.933 6.44285 107.178L9.41358 110.143C15.6798 106.432 24.4665 101.839 33.0052 99.0112L42.5107 64.1976L41.548 53.8937ZM8.43593 63.8904C7.93223 63.3907 5.99698 61.4604 5.47889 60.9449C8.2936 63.7423 11.7861 65.3535 15.0785 65.3535C18.1958 65.3535 20.9803 63.9065 22.8012 61.6485L21.1018 67.8253C20.1377 68.143 19.1027 68.3132 18.0337 68.3132C14.7463 68.3132 11.2415 66.7021 8.43593 63.8904ZM75.1495 67.1297C74.9628 67.6642 74.8211 68.08 74.7273 68.3596C74.6949 68.455 74.6682 68.535 74.6476 68.5987C74.6684 68.5356 74.695 68.4556 74.7273 68.3596C74.8227 68.078 74.9672 67.662 75.1495 67.1297ZM78.9442 90.1544C78.933 90.1428 78.9221 90.1317 78.9118 90.1211L78.9117 90.1206C78.9226 90.1319 78.9334 90.1431 78.9442 90.1544ZM79.2401 90.4533C79.1405 90.3553 79.0418 90.2556 78.9442 90.1544C79.0232 90.2352 79.1239 90.3368 79.2401 90.4533ZM79.2401 90.4533C83.2466 94.3955 88.9029 95.741 95.255 94.2421L96.8335 93.8587L96.6307 90.6962L99.6014 93.667L99.7987 96.7692C101.405 97.0598 103.021 97.3393 104.611 97.6791L104.583 97.783C102.802 97.4543 100.988 97.2184 99.1793 96.972L98.2092 97.2023C93.4627 98.3311 89.1003 97.8322 85.5212 95.8703C81.4107 95.7443 77.2725 95.7388 73.1018 95.925L74.1487 94.6808C77.4372 94.5659 80.6819 94.6537 83.9101 94.8344C83.1924 94.3084 82.5073 93.7438 81.877 93.0863C81.53 92.7204 80.0273 91.243 79.2401 90.4533ZM72.5597 94.7466C71.2006 94.8068 69.8359 94.8891 68.4713 94.993C67.6547 95.0588 66.8707 95.1355 66.0652 95.2123L62.0861 100.528C64.1138 100.265 66.1475 100.046 68.2028 99.8765L72.5597 94.7466ZM58.0469 96.2267C60.1679 95.8919 62.3221 95.6073 64.4868 95.3769L64.4868 95.3774L60.4475 100.765C58.4083 101.061 56.3861 101.406 54.3856 101.795L58.0469 96.2267ZM72.5818 96.4786L69.2603 100.392L73.3106 103.801L79.641 100.013L72.5818 96.4786ZM50.0833 97.7394C52.1931 97.2787 54.325 96.8627 56.4678 96.4898L52.7795 102.102C50.7684 102.524 48.7743 102.99 46.7853 103.505L50.0833 97.7394ZM48.5414 98.0904C46.4226 98.5892 44.3243 99.1317 42.2477 99.7344L39.305 105.703C41.2484 105.067 43.2128 104.481 45.1978 103.938L48.5414 98.0904ZM82.003 100.063L80.9505 99.4493L80.951 99.4493C91.0135 99.6079 100.698 101.323 110.076 103.878L110.048 104.004C100.72 101.784 90.9091 100.825 81.0057 100.655L82.003 100.063ZM40.7184 100.189C38.6355 100.814 36.5737 101.488 34.535 102.217L31.9673 108.339C33.8775 107.588 35.7968 106.875 37.7437 106.212L40.7184 100.189ZM62.2889 101.729C64.2785 101.46 66.2845 101.253 68.3067 101.083L68.3067 101.083L73.6338 105.594C72.1923 105.654 70.7509 105.731 69.3205 105.846C68.8603 105.878 68.4106 105.933 67.9558 105.971L62.2889 101.729ZM60.6502 101.959C58.6386 102.25 56.6436 102.584 54.6761 102.968L60.5789 106.853C62.448 106.568 64.3221 106.327 66.2243 106.13L60.6502 101.959ZM33.0494 102.748L33.0493 102.749C31.0118 103.505 28.9884 104.299 26.9985 105.154L24.8067 111.446C26.6648 110.575 28.5393 109.747 30.4375 108.963L33.0493 102.749L33.0499 102.748L33.0494 102.748ZM53.0259 103.285C51.0366 103.702 49.0728 104.162 47.1281 104.667L53.2784 108.185C55.1253 107.796 56.9944 107.44 58.8685 107.127L53.026 103.285L53.0259 103.285ZM73.9575 104.359C75.1962 104.31 76.4238 104.283 77.6514 104.283L77.652 104.283C86.2404 104.272 94.593 105.406 102.737 107.171L102.704 107.275C93.8692 105.664 84.6559 105.253 75.3497 105.527L73.9575 104.359ZM45.5256 105.099C43.5717 105.631 41.6288 106.212 39.7186 106.837L46.0681 109.966C47.891 109.456 49.7305 108.99 51.5794 108.563L45.5256 105.099ZM19.6457 108.569C21.5805 107.599 23.548 106.672 25.538 105.795L23.3241 112.147C21.4741 113.041 19.6452 113.983 17.8535 114.976L19.6457 108.569ZM38.1411 107.357C36.2189 108.009 34.3247 108.711 32.4516 109.451L38.9783 112.185C40.7701 111.561 42.5814 110.985 44.3983 110.448L38.1416 107.357L38.1411 107.357ZM25.3719 112.514C27.1973 111.66 29.0478 110.843 30.9199 110.076L30.9199 110.075L37.3512 112.772C35.5624 113.419 33.7957 114.109 32.0501 114.838L25.3719 112.514ZM23.8657 113.221C22.0534 114.109 20.2515 115.036 18.4829 116.005L25.2931 117.913C26.9985 117.079 28.7165 116.285 30.4616 115.523L23.8657 113.221ZM0 126.836C5.14795 122.747 10.6287 119.042 16.4085 115.781L16.409 115.781L17.0429 116.806C11.3062 120.045 5.85262 123.728 0.734274 127.795L0 126.836Z" transform="translate(21.04016 14.68818)" id="Shape" fill="#B6922E" fill-rule="evenodd" stroke="none" />
      <path d="M34.1597 29.1351L27.76 30.7056L27.4633 31.7746C26.3813 35.6568 29.0197 36.7303 30.0085 37.1318L30.29 37.2458C30.2679 37.3597 25.6982 53.985 25.6982 53.985C25.4056 51.8741 24.4274 49.9262 22.8961 48.3919C21.0225 46.5123 18.5246 45.4864 15.8776 45.4864C14.933 45.4864 14.016 45.6626 13.1226 45.9256C12.6885 46.051 12.2509 46.162 11.8363 46.3432C10.4842 44.7004 9.72732 42.6171 9.72732 40.4499C9.72732 32.6002 15.9589 25.8653 23.9079 25.1169C28.1821 24.7114 32.3488 26.0675 35.5348 28.7978L34.1596 29.1356L34.1597 29.1351ZM92.085 88.0372C89.6438 84.407 89.3718 78.1594 90.5287 74.1924L108.076 11.1281C108.392 10.0665 108.936 9.67306 109.936 8.9684C111.305 7.98819 113.188 6.64963 114.166 3.10022L115.022 0L93.2153 5.34018L61.8889 60.3004L59.5807 64.3432C58.7676 55.7622 57.3568 40.9126 57.3568 40.9126C56.6636 33.5523 53.8455 27.3202 49.1523 22.7244C48.4777 22.0659 47.765 21.4405 47.0132 20.8498C41.3864 16.41 33.9884 14.3678 26.1814 15.0996C19.0791 15.7756 12.4706 19.1258 7.56208 24.5453C2.68565 29.9331 0 36.7815 0 43.8367C0 50.8075 2.22792 56.8785 6.26618 60.9187C9.08082 63.7268 12.5795 65.3414 15.878 65.3414C18.9953 65.3414 21.7798 63.896 23.6002 61.6405L21.9003 67.8168L15.6527 90.5306C15.3575 91.5656 14.6875 94.2392 13.5442 95.0041C12.177 95.921 9.76541 98.0671 8.77668 101.646L7.24288 107.159C12.6629 103.914 22.3409 98.8737 30.8576 95.9747L42.3415 53.8882L43.3037 64.1881L45.8673 91.552C48.817 90.7665 53.5971 89.8706 57.3528 89.4059L81.2942 47.4202C79.7469 53.0224 78.0675 59.0808 76.8981 63.3052C76.4625 64.8772 76.1036 66.1696 75.8406 67.1207C75.6439 67.8304 75.5008 68.3363 75.4366 68.5867L75.3824 68.7724C73.1555 76.6647 74.8434 85.0379 79.6957 90.1075C83.7199 94.3034 89.5153 95.7654 96.0374 94.2276L97.6174 93.8427L97.4167 90.6827L95.7945 90.5131C95.3609 90.4664 94.9519 90.3399 94.5564 90.1803C93.6193 89.7878 92.7887 89.0852 92.0845 88.0382" transform="translate(20.23462 14.68514)" id="Shape" fill="#FFFFFF" stroke="none" />
      <path d="M27.403 91.9053L41.3693 40.8102L45.6666 86.6334C47.2009 86.3122 50.8963 85.5307 54.2992 85.065L85.2722 30.7472L75.3216 66.6835C71.8942 78.7752 78.4896 93.3894 93.7101 89.7883C86.6992 89.045 84.8747 77.7774 86.8166 71.0856L104.371 8.00576C105.468 4.27566 108.994 5.31459 110.461 0L92.5648 4.38055L56.3846 67.8665L53.594 38.496C52.0392 21.9981 39.1771 13.0026 24.4675 14.3849C10.6914 15.6813 0 27.6856 0 41.2378C0 54.3424 8.07552 60.853 13.9884 60.853C18.4276 60.853 22.0318 57.2493 22.0318 52.8096C22.0318 48.3698 18.4266 44.7702 13.9884 44.7702C12.3522 44.7702 10.8405 45.255 9.57167 46.0887C7.34777 44.0515 5.95651 41.1159 5.95651 37.8495C5.95651 29.0026 12.835 21.4857 21.844 20.638C27.9938 20.0598 33.7114 22.7379 37.2714 27.254L27.3985 29.6797C26.1885 34.0396 31.2064 31.5894 30.1831 35.3285L15.1553 89.8169C13.4714 95.9421 10.5017 92.88 8.41129 100.585C13.8137 97.5818 20.6104 94.3711 27.4061 91.9073" transform="translate(22.12128 17.28748)" id="Shape" fill="#0A2351" fill-rule="evenodd" stroke="none" />
    </g>
  </g>
</svg>