<?xml version="1.0" encoding="utf-8"?>
<svg width="165px" height="144px" viewBox="0 0 165 144" version="1.1" xmlns:xlink="http://www.w3.org/1999/xlink" xmlns="http://www.w3.org/2000/svg">
  <desc>Created with Lunacy</desc>
  <defs>
    <path d="M0 0L165 0L165 143.439L0 143.439L0 0Z" id="path_1" />
    <clipPath id="mask_1">
      <use href="#path_1" />
    </clipPath>
  </defs>
  <g id="st-louis-cardinals-logo@logotyp.us">
    <path d="M0 0L165 0L165 143.439L0 143.439L0 0Z" id="Background" fill="none" stroke="none" />
    <g clip-path="url(#mask_1)">
      <path d="M28.9145 126.51C24.2942 127.343 19.5196 128.199 15.4358 126.178C12.5221 124.738 10.1804 120.773 10.1055 117.154C10.0403 113.875 10.4749 110.467 11.6592 106.875C11.9957 107.234 12.4059 107.437 12.815 107.584C13.7261 107.916 15.0426 107.901 16.1389 107.53C17.838 106.96 19.4893 106.401 21.1062 105.851C21.0117 105.946 20.922 106.032 20.8302 106.135C17.3853 110.005 15.951 114.58 16.8213 118.804C16.3241 119.107 15.6342 119.486 14.8972 119.835C14.8972 119.835 12.9959 120.742 12.9041 120.79L12.3889 121.1L12.3889 121.701C12.3878 122.305 12.3878 122.305 14.6881 123.687C14.6955 123.694 15.6443 124.312 16.1654 125.4L16.7788 126.683L18.1993 126.648C19.4989 126.615 20.5299 125.91 21.1688 125.348C23.3661 126.31 25.6898 126.085 27.7258 124.71C29.4488 125.736 31.2376 125.939 32.163 125.966C31.0678 126.126 29.9789 126.321 28.9139 126.51M109.907 102.613L104.093 102.613L104.045 102.8C103.284 102.678 102.451 102.695 101.587 102.855C98.3636 103.461 95.8962 105.411 94.1923 108.66C94.3833 106.967 94.1886 105.649 93.3879 104.628C92.4598 103.442 91.1528 102.781 89.6065 102.714C89.0414 102.688 88.4535 102.751 87.8507 102.888L87.8942 102.704L79.2374 102.704L79.2432 102.687L78.0886 102.687C79.6555 101.918 80.7385 100.315 80.7385 98.4548C80.7385 95.8558 78.6245 93.7417 76.0254 93.7417C74.0419 93.7417 72.3455 94.9733 71.6498 96.7112L72.9568 91.5937L62.8152 95.5931L61.1565 102.855C57.6362 102.347 55.26 104.196 53.7615 106.045C54.0279 105.557 54.4476 104.786 54.4116 104.843L55.4415 103.193L45.4438 103.189L45.7234 102.127L37.6705 102.127C37.6705 102.127 36.164 108.178 35.4753 110.327C35.826 108.773 37.2471 102.694 37.2471 102.694L30.3132 102.694C45.11 97.5708 55.5514 93.6818 61.4335 91.0981C64.1827 89.8904 78.0015 84.8663 82.6276 83.199C86.1187 81.943 90.3282 80.4859 95.1347 78.868C98.317 83.7132 106.466 96.0362 111.349 102.631C111.046 102.614 110.602 102.614 109.908 102.614M77.0936 71.5224L77.7108 71.7888L73.1622 76.1692C71.3437 76.1692 70.7228 77.9818 70.7228 77.9818L67.4679 78.8908C67.3204 78.7433 66.5303 78.6754 66.5303 78.6754L70.6072 75.136C73.948 74.105 77.0942 71.5229 77.0942 71.5229M81.0283 73.0236L84.9598 74.3486L79.5038 75.7266C79.5038 75.7266 79.0607 75.43 78.4728 75.3828L81.0283 73.023L81.0283 73.0236ZM139.865 117.894C138.811 117.367 137.686 117.069 136.505 117C136.398 115.481 135.905 114.005 135.481 112.77C135.301 112.234 135.127 111.728 135.016 111.306C134.485 109.303 134.343 108.488 134.818 107.188C135.829 104.421 132.305 102.83 130.912 102.201L130.482 102.006C130.072 101.819 129.836 101.908 129.212 102.15C128.705 102.348 128.123 102.741 127.353 103.446C127.993 102.396 128.403 101.076 128.51 99.6769C128.923 99.3765 129.307 98.9048 129.618 98.2803C130.67 96.1858 130.714 92.7006 127.7 89.2021C126.478 87.7805 117.891 80.3431 110.337 73.8704L110.31 73.846C112.965 72.988 117.029 71.68 116.995 71.6895C117.565 71.5356 118.483 71.1122 119.323 71.8737C120.07 72.5974 121.528 72.8612 122.79 71.9729C124.978 70.4335 123.765 67.0491 123.317 65.7872C122.529 63.5692 121.418 62.7356 120.623 62.423C119.854 62.1216 119.036 62.1046 118.333 62.4798C117.238 63.063 116.972 64.0022 116.847 64.7668C116.706 65.5983 115.379 65.7931 113.019 66.3869C113.019 66.3869 104.926 68.5954 104.351 68.7588L104.307 68.7227L102.348 67.0587C101.967 66.4256 101.216 65.2991 100.331 64.579C100.175 62.0473 98.2098 59.0344 96.5993 57.8049C96.5144 56.0432 95.1034 53.4924 93.5986 52.5627C86.8393 40.6361 80.8023 32.9817 75.151 29.177L74.9647 29.0513C73.9518 28.3726 73.8658 28.2771 73.8286 27.748C73.48 23.0493 72.2219 18.5431 70.6247 16.1276C71.2561 15.1136 72.2113 13.3068 72.8693 10.8022L73.583 8.10229L72.7663 8.64301C72.9722 7.96167 73.1802 7.14873 73.3808 6.16228L73.3988 6.03015C73.4593 5.2204 72.9122 4.91688 72.7419 4.84206C72.6719 4.80916 72.6039 4.79483 72.5376 4.7805C72.597 3.88373 72.5073 2.80442 72.0425 1.61154L71.4158 0L70.259 1.28626C67.8935 3.92034 64.2936 5.29257 61.1172 6.50507C60.3897 6.78313 59.7015 7.04739 59.0493 7.31589C53.8693 9.45647 50.6648 11.7494 47.6444 18.2295L47.4082 18.4306C46.035 19.5837 43.1764 21.9848 41.5574 26.7435L41.29 27.5326L41.9904 27.9852C43.6577 29.0502 45.4608 29.8016 47.7372 30.5976C39.194 49.6973 55.4585 61.0295 69.0683 67.9703C68.2819 69.42 67.6489 70.7779 67.4833 72.3751L61.3836 78.8027C60.7994 78.9566 59.6909 79.3195 59.0456 80.0057C58.8265 80.2381 58.6222 80.5549 58.4333 80.9433L57.987 81.0377C54.1754 81.8024 48.0837 83.1953 31.9184 87.6861C29.5804 85.5407 25.6904 84.1674 21.8618 84.1674C15.7982 84.1674 11.8811 87.425 7.86734 92.3169C2.0712 99.3776 -4.47526 118.71 4.19958 128.942C5.68165 130.692 11.2602 136.337 20.8212 135.606C23.3778 135.41 25.295 134.986 26.984 134.616C30.3212 133.879 31.8463 133.543 35.1702 135.777L36.4978 136.671L37.7538 135.676C39.6477 134.18 42.8628 134.683 45.4523 135.285L50.4695 136.455L47.8386 132.027C44.3295 126.118 39.3548 125.271 34.3392 125.708C37.1633 124.92 39.038 122.411 40.4054 119.44C40.2229 121.398 40.5604 123.479 42.4107 124.793C45.3924 126.912 49.1291 125.981 51.8927 124.271C53.1996 125.387 54.9539 126.039 56.5708 125.968C57.9743 125.942 59.181 125.664 60.3086 125.115C61.0578 125.644 61.8936 125.959 62.8084 126.048C64.3234 126.195 65.9471 125.705 67.6404 124.599C68.5212 125.481 69.6759 125.964 70.9897 125.97C71.6032 125.973 72.242 125.889 72.8894 125.728L72.8241 125.97L81.9516 125.97L83.1774 121.483C83.2862 122.367 83.5526 123.217 84.0657 123.96C84.6356 124.781 85.7383 125.793 87.7685 125.963C89.9441 126.141 92.5495 125.325 94.6535 123.847C96.9395 126.097 99.8229 126.465 103.25 124.927C103.926 125.51 105.095 126.199 106.852 125.957C108.055 125.878 109.266 125.364 110.529 124.411C111.567 125.441 112.906 125.993 114.405 125.97C116.873 125.932 118.947 124.457 120.576 122.939C122.37 124.773 125.09 126.645 129.268 125.94C129.989 125.816 130.579 125.659 131.102 125.517C132.484 125.148 132.66 125.102 133.763 126.034L137.023 128.796L137.362 124.623C137.426 124.414 137.88 123.148 140.092 121.689L143.272 119.593L139.867 117.893L139.865 117.894Z" transform="translate(12.03799 6.51178)" id="Shape" fill="#FFFFFF" stroke="none" />
      <path d="M75.006 92.8025C77.0171 92.8025 78.6541 94.4422 78.6541 96.4533C78.6541 98.4644 77.0171 100.101 75.006 100.101C72.9938 100.101 71.3552 98.4644 71.3552 96.4533C71.3552 94.4411 72.9938 92.8025 75.006 92.8025ZM138.367 116.843C136.934 116.127 135.536 115.992 134.43 116.058C134.562 114.377 133.963 112.615 133.451 111.111C133.263 110.557 133.085 110.033 132.964 109.574C132.439 107.586 132.191 106.475 132.797 104.821C133.467 102.982 130.7 101.733 129.519 101.197L129.017 100.972C129.014 100.969 128.573 101.141 128.573 101.141C127.031 101.737 123.883 105.483 118.24 112.646C117.578 113.487 116.907 114.341 116.37 115.011C116.718 113.424 117.848 108.284 118.392 105.817C120.567 106.016 122.244 104.638 122.65 102.565C124.455 103.01 126.458 100.355 126.458 96.9791C127.409 97.0423 130.123 92.8301 125.874 87.8925C124.578 86.3897 114.245 77.4846 107.174 71.438L107.149 71.4136L115.696 68.6596C116.225 68.5168 117.196 68.2903 117.673 68.329C117.982 68.3555 118.642 68.8055 118.964 69.1605C119.275 69.464 120.134 69.8439 121.141 69.1111C122.503 68.1199 121.88 65.8005 121.291 64.1412C120.64 62.3031 119.828 61.5103 119.242 61.2795C118.762 61.0922 118.206 61.0375 117.672 61.3134C116.448 61.9476 117.014 63.2763 116.342 63.783C116.342 63.783 116.148 64.3747 112.337 65.3028L103.584 67.7909L103.071 67.9363L103.028 67.9002C101.471 66.5752 100.503 65.7559 100.503 65.7559C99.8885 64.7032 99.0209 63.5586 98.2462 63.1287C98.4229 60.5552 95.809 56.9766 94.4734 56.3562C94.8401 55.226 93.3081 52.0204 91.8006 51.3529C86.9872 42.8282 80.4609 32.7238 73.5334 28.059C72.4276 27.315 71.8285 26.9786 71.7452 25.8266C71.3568 20.5616 69.8646 16.0204 68.3099 14.1542C68.8824 13.3482 70.0572 11.4172 70.8182 8.53369C70.8182 8.53369 69.9336 9.11951 69.256 9.33495C69.62 8.91894 70.5146 7.89852 71.3154 3.95165C71.3504 3.4762 70.946 4.36767 69.9856 4.92112C70.1427 4.23023 70.9583 2.39211 70.0291 0C66.9275 3.44755 61.9629 4.84153 58.4331 6.29972C53.0726 8.51406 50.2687 10.8239 47.4845 16.8891C46.498 17.7784 43.2601 20.039 41.5419 25.0858C43.2553 26.1832 45.1189 26.9335 47.7631 27.8361C47.7631 27.8361 47.7838 28.6846 47.7981 28.7801C39.7643 46.3346 53.01 57.2737 69.5112 65.5187C68.4489 67.4296 67.5765 68.9493 67.4805 70.8431L60.916 77.7637C60.916 77.7637 59.4201 78.0709 58.7982 78.7353C58.5233 79.0282 58.3031 79.5111 58.1651 79.8677C57.7794 79.9536 57.444 80.0263 57.1718 80.0805C53.175 80.8839 46.74 82.3834 30.5832 86.8737L30.4198 86.697C28.3131 84.5941 24.552 83.2303 20.8375 83.2303C15.19 83.2303 11.4872 86.334 7.66501 90.9914C2.06095 97.8212 -4.31729 116.457 3.98663 126.252C5.38804 127.904 10.6599 133.236 19.7136 132.544C22.1981 132.353 24.0749 131.94 25.73 131.574C29.1521 130.819 31.0364 130.406 34.7391 132.894L35.4242 133.352L36.0705 132.84C38.3188 131.062 41.8497 131.59 44.6695 132.248L47.2563 132.85L45.8984 130.567C41.4915 123.149 34.6765 124.373 28.0828 125.558C23.2944 126.418 18.343 127.307 13.9445 125.132C10.653 123.505 8.10701 119.223 8.02264 115.174C7.94146 111.187 8.84301 106.758 10.2274 102.948C11.3152 104.349 12.6986 105.104 13.9483 104.775C14.1175 104.729 14.2714 104.67 14.4216 104.602C14.5415 104.585 14.6636 104.56 14.7798 104.522C37.1939 96.9706 52.404 91.4515 59.9852 88.1239C62.7626 86.9039 76.6138 81.8666 81.2473 80.1977C85.3518 78.7189 90.007 77.1206 94.5556 75.5945C97.2905 79.7716 108.079 96.1545 112.767 102.075C111.843 107.521 110.235 114.004 107.51 115.68L107.133 115.919C107.725 112.741 109.682 104.34 109.989 103.077L110.328 101.677L103.899 101.675L103.79 102.098C102.957 101.764 101.926 101.682 100.763 101.899C95.7867 102.835 92.7663 107.422 91.7889 115.529L91.7369 115.941C90.7653 117.057 90.0028 117.272 89.7741 117.187C89.6908 117.157 89.6759 116.975 89.6823 116.87C89.7136 115.912 90.2363 114.105 90.7446 112.359C92.0309 107.916 92.7823 104.881 91.5326 103.281C90.8019 102.347 89.7661 101.828 88.5404 101.776C87.4647 101.728 86.3584 102.047 85.3528 102.55L85.5343 101.765L78.8658 101.765L78.6785 102.667C77.9207 106.344 75.7101 114.129 74.1941 115.906C73.8937 116.257 73.3037 116.475 72.8935 116.533C73.3111 114.521 75.2012 107.552 76.4222 103.186L76.8229 101.75L70.0599 101.75L69.8615 102.633C69.8397 102.73 67.6349 112.519 65.9156 115.519C65.4184 116.381 64.9573 116.619 64.7833 116.564C64.6671 116.529 64.5556 116.345 64.5726 116.11C64.7419 113.817 68.4377 99.0067 69.845 93.4923L70.3931 91.347L62.7116 94.3769L60.9436 102.124C60.7149 102.047 60.4596 101.98 60.1704 101.933C55.2286 101.1 52.8206 105.608 51.9153 107.304C50.7548 109.476 49.5848 113.049 49.476 115.889C48.7596 116.734 47.8862 117.377 47.5917 117.336C47.3439 117.305 47.2807 117.217 47.224 117.107C46.2884 115.268 49.2191 108.291 51.6006 103.924L52.5096 102.249L43.0468 102.252L43.3264 101.19L37.499 101.19L37.2968 102.065C36.1087 107.169 33.9798 113.858 32.1093 116.486C31.8843 116.802 31.6896 116.969 31.5564 117.049C31.6726 115.84 33.1632 109.095 34.5609 103.146L34.8898 101.755L28.2298 101.755L27.9465 102.838C25.7889 102.04 22.9611 102.196 20.6072 104.842C17.1767 108.698 15.8867 113.198 17.0095 117.281C16.5107 117.656 15.4123 118.286 14.3367 118.796L12.437 119.7L14.2412 120.786C14.246 120.791 15.4404 121.541 16.1085 122.938L16.4253 123.6L17.156 123.581C18.377 123.551 19.3305 122.71 19.9498 122.062C22.1848 123.326 24.6326 123.089 26.6767 121.411C28.5233 122.78 30.6941 122.902 31.3898 122.902C37.1026 122.902 39.2888 115.339 40.8829 109.813C41.0972 109.078 41.2989 108.376 41.4963 107.744L43.6841 107.744L43.2644 108.759C42.6265 110.287 41.9065 112.021 41.3498 113.709C40.7327 115.59 39.283 119.989 42.0057 121.923C44.6886 123.827 48.3319 122.815 50.9941 120.913C52.2597 122.354 54.1148 122.963 55.5295 122.902C57.0153 122.873 58.2511 122.538 59.4031 121.842C60.1195 122.507 60.952 122.894 61.8923 122.985C63.6472 123.156 65.4051 122.236 66.8172 121.158C67.5261 122.27 68.6166 122.896 69.9745 122.902C71.0973 122.908 72.2843 122.588 73.4401 122.008L73.1954 122.902L80.1192 122.902L82.3601 114.699C83.6575 109.475 84.9543 108.87 85.2037 108.799C85.3152 108.768 85.4049 108.796 85.4664 108.832C85.4616 109.174 85.1761 110.045 84.9193 110.829C84.6869 111.538 84.3977 112.419 84.1011 113.474L84.0151 113.777C83.4357 115.826 82.4651 119.255 83.9196 121.351C84.359 121.985 85.2191 122.765 86.8344 122.899C89.0525 123.084 91.8112 122.053 93.7571 120.412C96.5318 123.813 99.8652 122.965 102.443 121.646C103.156 122.435 104.116 123.118 105.758 122.893C107.202 122.797 108.524 121.926 109.639 120.928C110.526 122.221 111.827 122.925 113.366 122.903C115.866 122.867 117.955 121.077 119.599 119.409C121.606 121.743 124.104 123.557 128.067 122.887C128.739 122.773 129.307 122.623 129.806 122.49C131.287 122.092 131.899 121.928 133.427 123.22L135.108 124.643L135.287 122.45C135.284 122.461 135.555 120.729 138.484 118.798L140.122 117.72L138.37 116.843L138.369 116.844L138.367 116.843ZM72.8505 74.8707C72.0662 75.0246 71.6863 75.1344 71.1541 75.6284C70.7789 75.9733 70.5258 76.4573 70.3894 76.8165C68.9121 77.2012 67.3871 77.5907 65.9071 77.9685C65.5707 77.769 64.9233 77.5074 63.9226 77.5775C63.8281 77.57 63.5644 77.5228 63.5851 77.2458C63.6031 77.0038 69.1101 72.0185 69.1101 72.0185C70.6494 71.7038 76.2896 68.4272 76.2896 68.4272L78.0141 69.1313L77.8873 69.4147L77.6416 69.8514L73.1753 74.5937C73.0797 74.7003 72.9879 74.8441 72.851 74.8707M78.0178 74.8128C77.6294 74.5263 77.2182 74.3591 76.8366 74.365C75.4066 74.3894 75.8916 73.8678 76.2184 73.4984L80.047 69.9225C80.047 69.9225 83.0647 71.1774 86.689 72.4478C81.4399 73.8879 78.5899 74.6584 78.0178 74.8123M23.6616 116.765C23.6472 116.765 23.6265 116.765 23.5735 116.7C23.4986 116.604 22.8762 115.683 23.6886 112.449C24.2866 110.064 25.1659 108.465 26.1608 107.947C26.3535 107.848 26.623 107.745 27.0056 107.76C26.4936 112.2 25.0815 116.765 23.6621 116.765M58.9356 112.446C58.6491 113.588 58.3546 114.769 58.0898 115.984C58.0521 116.16 57.5947 116.522 56.9622 116.582C56.7335 116.606 56.3206 116.588 56.2299 116.378C55.6589 115.057 56.4453 110.805 58.2967 108.61C58.8401 107.963 59.3787 107.634 59.9003 107.614C59.921 108.515 59.358 110.757 58.9361 112.446M99.0013 116.804C98.987 116.804 98.9636 116.804 98.9132 116.735C98.8384 116.643 98.2187 115.72 99.0284 112.486C99.6418 110.051 100.453 108.556 101.448 108.044C101.783 107.873 102.165 107.825 102.587 107.876C102.004 112.351 100.51 116.804 99.0019 116.804M128.168 117.02C127.905 117.275 127.403 117.446 126.867 117.456C126.202 117.472 125.585 117.258 125.181 116.868C123.123 114.937 123.123 114.937 124.114 113.649C124.756 112.819 125.317 112.044 125.863 111.294C126.341 110.63 126.796 110.011 127.248 109.428C127.405 110.581 127.735 111.652 128.047 112.655C128.687 114.723 129.008 115.955 128.168 117.02" transform="translate(13.05804 8.51918)" id="Shape" fill="#14264B" fill-rule="evenodd" stroke="none" />
      <path d="M3.43136 2.81728C3.08061 3.38347 2.43164 3.74164 1.71899 3.69336C0.70123 3.62172 -0.0660705 2.73874 0.00450186 1.72098C0.0771956 0.698444 0.96071 -0.0688558 1.98059 0.00490265C2.65344 0.0521276 3.21963 0.454882 3.50299 1.01895C2.22999 0.882044 1.95194 2.11153 1.95194 2.11153C1.12786 1.1012 2.19284 0.51803 2.19284 0.51803C1.48391 0.424636 0.811064 0.966948 0.752693 1.77882C0.695918 2.59441 1.30933 3.29856 2.12226 3.35534C2.67147 3.39408 3.1448 3.21472 3.43134 2.81675" transform="translate(66.07153 27.07116)" id="Shape" fill="#FFFFFF" fill-rule="evenodd" stroke="none" />
      <path d="M68.1122 0.00054437L68.1127 1.61937e-05L68.1122 0L68.1122 0.00054437ZM68.1122 0.00054437C65.407 2.83585 61.1198 3.76126 57.4523 5.30426C52.0785 7.56742 49.2873 11.0601 47.8965 14.4355C48.4182 15.328 51.68 15.4102 52.1687 15.12C53.0013 14.6244 54.1294 14.3755 55.031 14.8966C55.6889 15.277 56.0455 15.6564 56.3453 15.8565C57.1418 16.1961 58.254 16.4768 59.0787 16.2826C55.4491 19.9228 55.031 24.7011 55.3716 25.5093C51.1016 25.5093 46.8167 31.2906 46.0356 32.8496C41.6077 49.5259 65.9807 60.6891 69.8249 62.4498C69.9454 62.505 70.0458 62.5509 70.1244 62.5875C69.9944 62.7953 69.8661 62.9995 69.7403 63.1998C68.4099 65.3178 67.3562 66.9953 67.459 67.8122C67.5492 68.5264 67.9525 68.546 68.784 68.3773C70.689 67.3028 74.0495 65.765 75.235 64.3906C75.954 63.5581 75.2089 62.3477 74.8566 61.9534C74.4783 61.5268 74.6958 61.1532 75.5671 61.6854C76.3939 62.3843 76.543 62.7722 76.804 63.3851C77.1765 64.2718 76.1099 65.2163 76.1099 65.2163C79.0438 66.5424 89.0739 70.4882 92.1797 71.1032L88.8134 65.652C82.6983 63.211 74.0988 59.5252 69.2196 57.1034C61.6554 53.3444 49.135 45.518 55.378 33.5278C57.2013 30.4739 57.8943 30.4129 58.1527 31.1272C58.1702 31.1998 58.1161 31.4047 58.0397 31.4445C57.9235 31.5628 57.101 32.3545 56.3342 33.9815C50.4669 44.8855 62.6079 52.7012 69.7673 56.1732C80.1322 61.1967 89.7271 65.0661 96.0454 67.1866C97.0133 67.5108 97.8942 67.8419 98.5813 68.0372C100.498 68.6007 98.0295 61.9608 95.6098 61.2785C82.7891 57.5104 70.4475 51.891 67.0302 48.5172C64.9793 48.2731 59.5047 46.6058 58.6143 39.1897C58.5788 38.9891 58.5883 38.8171 58.8388 38.7598C59.0712 38.7078 59.1662 38.8771 59.1864 38.9795C60.7544 45.7112 65.3412 47.5058 67.2796 47.552C68.3521 47.5769 70.0411 46.5087 69.5985 46.2503C66.2709 44.3193 64.4009 40.4313 64.2693 40.0286C64.1834 39.7664 64.281 39.6948 64.4455 39.6067C64.5994 39.5266 64.7777 39.5903 64.9448 39.8487C65.8034 41.1806 68.9618 46.384 73.6383 46.5262C74.8752 46.5639 76.2362 46.5204 76.5117 45.4129C76.5117 45.4129 72.5558 43.5897 70.6152 40.382C70.5473 40.2796 70.4921 40.0838 70.7421 39.932C70.9629 39.7995 71.1399 39.979 71.2588 40.0996C71.277 40.1181 71.2939 40.1352 71.3093 40.1496C75.0858 44.0237 78.1184 45.5976 79.9523 45.4034C80.6936 45.3562 81.2126 44.8255 81.2396 44.452C81.3328 43.1234 80.069 42.2814 79.6122 41.9771C79.5851 41.9591 79.5609 41.943 79.54 41.9288C79.4859 41.8932 79.4567 41.7653 79.5188 41.6831C79.575 41.603 79.7193 41.5611 79.9088 41.6528C80.649 42.0052 82.0982 43.0468 81.9783 44.6881C81.956 44.9794 81.9183 45.1731 81.6986 45.4129C83.8413 46.5395 87.4884 47.9892 89.1832 48.515C83.9846 39.7993 78.2383 30.6363 70.75 26.0718C70.6721 26.3238 70.7183 26.7003 70.7608 27.0464C70.828 27.5935 70.8858 28.0642 70.4284 27.8452C69.9105 27.5973 69.4584 25.4398 69.4393 24.4671C69.3417 19.4362 67.9626 15.2404 66.1234 12.8266C65.2471 13.5127 63.7553 13.9074 63.3635 14.0111C63.3072 14.026 63.2736 14.0349 63.2678 14.0378C66.9507 10.7705 67.424 8.47798 67.424 8.47798C66.3494 9.30843 63.77 10.4535 62.428 10.6865C62.428 10.6865 66.6317 8.23124 68.3186 3.8503C68.3186 3.84623 68.2873 3.8738 68.2264 3.92735C67.7241 4.369 65.2126 6.5776 61.7138 7.36842C61.7137 7.3682 61.7228 7.36384 61.7402 7.35541L61.7405 7.35529L61.7408 7.35514C62.195 7.13599 68.2276 4.22535 68.1122 0.00054437ZM77.3686 45.7244C77.2948 46.1988 77.1516 46.6498 76.4044 46.9863C83.2369 51.0478 90.5305 53.2632 92.1304 53.7259C92.4594 53.4897 91.6252 50.3691 89.3361 49.5583C85.9203 48.3436 83.0751 47.1386 81.056 45.8714C80.3439 46.2635 79.2858 46.4949 77.3686 45.7244ZM68.3605 48.3171C69.0387 48.1983 70.5457 47.3482 70.6253 46.7735C72.6608 47.5344 73.9916 47.4936 75.0603 47.3195C81.3961 51.8798 91.3949 54.1923 92.9863 55.2647C95.164 56.7229 96.316 60.2819 95.5222 60.0962C90.5783 58.9378 73.2737 52.4943 68.3605 48.3171ZM100.1 65.4545L100.101 65.4562L100.099 65.4551L100.1 65.4545ZM100.101 65.4562C100.297 65.6198 122.368 83.9884 124.045 86.6651C127.084 90.049 125.197 94.2776 124.084 93.0291C124.084 93.0291 103.885 72.0535 103.836 72.101L103.836 72.1013L102.471 72.0658C102.471 72.0658 112.924 82.8621 119.206 89.5078L114.918 91.1851C108.724 83.4256 100.187 72.3926 100.187 72.3926L98.8514 72.3926L113.834 91.6059L112.682 92.0511L112.566 93.0482C112.43 94.2193 112.208 96.0197 111.898 98.0717C106.401 91.1145 96.6833 76.2371 90.3039 66.1635C92.1023 66.7689 93.6535 67.3542 94.9672 67.8499C99.4661 69.5474 101.181 70.1944 100.506 67.0024C100.41 66.4703 100.304 65.8985 100.101 65.4562ZM7.42755 89.3624C11.4438 84.4658 14.8732 82.0143 19.7219 82.0141L19.7224 82.0141C23.166 82.0142 26.6298 83.2776 28.5044 85.1502C30.0645 86.7511 31.1396 89.2716 29.8225 91.513C28.9666 92.9611 26.8865 93.4642 25.6236 92.2448C24.0073 90.742 24.9916 88.9145 26.1335 87.572C23.6746 85.7806 19.4629 85.8347 17.2602 87.122C16.642 87.486 16.0228 87.9514 15.4099 88.4964C13.6609 88.9952 11.8393 89.4653 9.93374 90.0172C9.81382 90.0485 9.70344 90.0909 9.60103 90.1392C7.71569 90.8651 6.65017 94.084 7.49706 97.2975C7.70348 98.0717 7.99373 98.7976 8.34395 99.446C6.73931 103.608 5.68546 108.476 5.77726 112.851C5.86747 117.177 8.51269 121.91 12.329 123.797C17.0594 126.134 22.2374 125.203 27.1624 124.317C33.704 123.141 39.7993 122.044 43.8064 128.792C41.349 128.221 37.0625 127.379 34.2507 129.595C30.1464 126.842 27.878 127.342 24.3685 128.117C22.7707 128.469 20.9157 128.878 18.5131 129.063C11.489 129.595 6.30579 126.198 3.73909 123.169C-3.92011 114.138 1.64839 96.4066 7.42755 89.3624ZM120.072 90.4258L118.853 96.058C120.12 97.5676 120.973 98.5355 121.176 98.6231C123.131 99.4944 124.534 95.6228 123.78 94.5191C123.528 94.1418 122.086 92.5738 120.073 90.4258L120.072 90.4258ZM62.55 92.8635L67.616 90.8641L67.6192 90.863C67.6192 90.863 62.5309 110.778 62.3149 113.672C62.1987 115.259 64.2029 116.459 65.7662 113.73C67.5927 110.545 69.8362 100.528 69.8362 100.528L74.2033 100.528C74.2033 100.528 70.6799 113.14 70.5563 114.553C70.448 115.773 72.9431 115.434 73.9237 114.292C75.7846 112.114 78.0361 103.548 78.6575 100.548L82.978 100.548L82.4282 102.919C84.2133 101.002 87.7781 99.4152 89.5085 101.632C90.4965 102.897 89.4576 106.48 88.5239 109.7C87.9722 111.603 87.4573 113.379 87.4188 114.475C87.3589 116.189 89.3933 116.895 91.6533 114.108C91.9149 113.711 92.0386 102.125 99.8368 100.664C100.93 100.461 102.643 100.461 103.321 101.709L103.64 100.461L107.754 100.461C107.751 100.477 107.708 100.661 107.634 100.976L107.634 100.977C107.046 103.497 104.508 114.38 104.715 114.776C105.087 115.511 106.257 114.753 106.804 114.398C106.869 114.356 106.925 114.319 106.97 114.292C111.626 111.427 113.146 97.7215 113.726 92.863L118.846 90.8635C118.875 90.8869 114.026 112.879 114.026 112.879C113.358 115.783 114.461 115.144 114.926 114.747C115.933 113.905 125.592 100.723 127.847 99.8514L127.882 99.8667C128.406 100.099 130.917 101.208 130.596 102.087C129.86 104.11 130.208 105.523 130.731 107.517C130.862 108.007 131.045 108.544 131.238 109.107C131.911 111.077 132.694 113.37 131.738 115.125C132.832 114.786 134.787 114.534 136.722 115.502C133.2 117.825 133.015 120.003 133.015 120.003C131.037 118.329 129.967 118.617 128.369 119.046C127.888 119.175 127.359 119.317 126.743 119.422C122.939 120.061 120.723 118.193 118.535 115.357C116.909 117.061 114.703 119.384 112.215 119.422C110.425 119.451 109.341 118.183 108.818 116.693C107.888 117.661 106.194 119.345 104.481 119.422C102.991 119.626 102.391 118.89 101.587 117.854C97.8995 119.974 95.1025 120.08 92.7746 116.335C91.197 118.174 88.1336 119.616 85.7962 119.422C81.8909 119.098 83.2825 114.176 83.9705 111.742C84.0016 111.632 84.0312 111.527 84.0589 111.428C84.3462 110.4 84.6256 109.547 84.8585 108.836C85.3714 107.27 85.659 106.392 85.3101 105.853C85.092 105.495 82.3513 103.123 80.1338 112.057L78.1205 119.423L73.5433 119.423L74.2188 116.926C72.681 118.397 70.7112 119.432 68.8482 119.423C67.2733 119.413 66.4476 118.281 66.1149 116.964C64.2025 118.745 60.7305 121.136 58.4562 118C57.2368 118.968 55.9967 119.394 54.3522 119.423C52.8606 119.481 51.0008 118.649 50.1082 116.926C47.9825 118.813 44.207 120.546 41.5337 118.649C39.7926 117.41 40.3615 114.554 41.2975 111.719C42.1901 109.009 43.5342 106.134 44.2166 104.266L39.5464 104.266C37.9009 109.096 36.1344 119.423 30.2661 119.423C28.7952 119.423 26.8398 118.919 25.5313 117.545C23.3843 119.848 20.7964 119.868 18.6823 118.271C18.6385 118.242 18.5063 118.387 18.3062 118.607C17.8305 119.129 16.9712 120.073 16.0053 120.1C15.1706 118.348 13.6986 117.467 13.6986 117.467C13.6986 117.467 17.2799 115.764 17.126 115.135C16.0164 111.815 16.632 107.401 20.3305 103.249C23.1588 100.065 26.3447 101.333 27.5663 102.117L27.9786 100.539L32.334 100.539C32.334 100.539 29.2531 113.644 29.2929 114.845C29.3317 116.016 30.6991 116.49 31.9031 114.796C34.1244 111.67 36.3138 104.082 37.27 99.9682L40.7313 99.9682L40.4496 101.033L49.4762 101.033C49.4762 101.033 41.5915 115.493 46.3168 116.112C47.6933 116.286 49.4683 113.954 49.4683 113.954C49.4683 111.244 50.6877 107.537 51.7845 105.485C53.2517 102.736 55.2495 100.093 58.851 100.694C60.4885 100.974 60.5071 101.816 60.5071 101.816L62.55 92.8635ZM73.8754 91.5863C72.4846 91.5863 71.3581 92.7187 71.3581 94.1026C71.3581 95.4966 72.4846 96.6189 73.8754 96.6189C75.2641 96.6189 76.3938 95.496 76.3938 94.1026C76.3938 92.7187 75.2641 91.5863 73.8754 91.5863ZM117.527 102.214L118.524 97.626L119.995 99.523C120.808 100.743 119.163 102.166 117.527 102.214ZM127.351 103.995L127.351 103.995C125.493 105.66 124.147 107.915 122.076 110.605C120.634 112.464 120.586 112.822 123.257 115.329C124.573 116.587 126.896 116.441 127.874 115.425C129.177 113.823 128.616 112.012 127.981 109.964C127.423 108.165 126.808 106.181 127.351 103.995L127.351 103.995L127.351 103.995ZM59.3853 104.188C59.145 104.13 58.9088 104.111 58.6785 104.12C55.2252 104.305 52.9885 111.99 54.062 114.467C54.746 116.054 57.7457 115.348 58.0641 113.867C58.3227 112.674 58.6195 111.489 58.8977 110.379C59.7252 107.077 60.3873 104.435 59.3853 104.188ZM25.9553 104.275C26.3134 104.294 26.6955 104.382 27.103 104.536C27.103 104.536 26.167 115.541 22.5358 115.541C21.3976 115.541 20.4143 114.012 21.4682 109.821C22.1304 107.169 23.4506 104.149 25.9553 104.275L25.9553 104.275ZM102.689 104.672C102.234 104.498 101.818 104.401 101.431 104.372L101.431 104.371C98.7113 104.149 97.4527 107.207 96.7947 109.859C95.7393 114.05 96.7268 115.58 97.8591 115.58C101.586 115.58 102.689 104.672 102.689 104.672Z" transform="translate(14.16998 10.84972)" id="Shape" fill="#B72126" fill-rule="evenodd" stroke="none" />
      <path d="M33.6749 6.17979C33.6749 6.17979 35.2621 2.165 38.7919 0L38.7924 0C40.0845 0.571228 39.9452 2.14386 39.9193 2.43509C39.9166 2.46607 39.9151 2.48255 39.9168 2.48179C41.6202 1.77127 42.9452 4.31196 42.5445 6.06783C41.8059 9.30312 39.2509 8.29863 39.2509 8.29863C38.0341 8.11874 34.0756 6.41434 34.0756 6.41434C34.591 6.36311 35.3198 6.17974 36.0793 5.98864C37.0978 5.73235 38.1716 5.46218 38.8598 5.47829C39.7242 5.49899 40.517 5.54993 41.5438 5.78235C40.873 5.28779 40.4745 4.90361 39.6313 4.82986C38.2122 4.70719 37.4696 4.9792 36.4303 5.35986C35.7388 5.61316 34.9159 5.91456 33.6749 6.17979ZM109.48 43.579C109.393 43.5743 109.306 43.5812 109.229 43.5966C108.406 43.7504 108.377 44.6875 108.377 44.6875C108.377 44.6875 108.512 45.5206 107.573 46.2206C107.109 46.575 105.696 47.1964 103.421 47.6474L94.6716 50.1361L97.3333 52.3717L106.315 49.476C106.315 49.476 109.635 48.6466 109.635 47.0823C109.635 44.6743 110.893 49.2574 110.38 50.1658C110.38 50.1658 110.806 50.5734 111.542 50.0411C112.267 49.5089 112.132 48.0465 111.406 45.9865C110.758 44.1813 110.08 43.6125 109.48 43.5796L109.48 43.579ZM69.814 57.0121L78.9733 54.5091C80.9441 55.1676 82.995 55.7906 84.7806 56.1885L84.9546 56.4549L84.8994 56.4703C79.8287 58.1758 75.3941 59.7099 71.7179 61.0327C71.7179 61.0327 70.6142 61.4344 69.7742 61.7364C71.1581 60.3859 70.628 58.3498 69.5969 57.0837L69.814 57.0121ZM67.5948 57.6818C67.2462 57.7677 66.9533 57.825 66.7808 57.8229C66.229 57.9651 59.2209 59.7831 57.6656 60.1874C59.2904 61.6101 59.5626 64.5196 57.6443 66.1826C61.5779 64.7164 66.0417 63.09 68.4873 62.2028L68.9808 62.024C69.5433 60.9961 69.5131 58.9511 68.4746 58.1031C68.2422 57.9131 67.9121 57.7789 67.5948 57.6823L67.5948 57.6818ZM54.7539 60.925L54.9407 60.9213L54.9402 60.9208C55.3583 61.0205 55.8619 61.1781 56.1957 61.4164C57.6241 62.4251 57.4888 65.3017 56.7985 66.4999L56.2631 66.6984C53.2475 67.8286 51.2767 68.5975 50.4075 68.9796C43.0041 72.2286 28.273 77.586 6.62734 84.8933C7.19193 83.7997 7.26463 82.1834 6.79979 80.1702C6.25588 77.8184 5.10228 76.86 5.10228 76.86C5.64247 77.6247 5.87118 78.341 6.14976 79.4055C6.87726 82.1542 6.22405 84.9225 4.54299 85.3677C2.85822 85.8129 0.999931 83.7026 0.272962 80.9443C-0.433312 78.263 0.278799 75.4469 1.85745 74.8776L2.04211 74.8282L14.3508 71.3175C15.091 71.4008 15.8148 71.5664 16.4653 71.845C14.8405 74.4478 15.9533 76.1628 16.8516 76.9953C17.6349 77.7504 18.738 78.0991 19.8646 77.9441C21.0813 77.7796 22.176 77.0537 22.7926 76.0084C24.2211 73.5749 23.3976 70.9811 22.0482 69.1594C34.7527 65.6296 42.795 63.5777 48.0939 62.5132C49.0687 62.3179 50.8814 61.8908 53.4793 61.2445C53.4793 61.2445 54.0514 61.1033 54.7539 60.925Z" transform="translate(22.17303 26.93063)" id="Shape" fill="#FEE60E" fill-rule="evenodd" stroke="none" />
    </g>
  </g>
</svg>