<?xml version="1.0" encoding="utf-8"?>
<svg width="129px" height="138px" viewBox="0 0 129 138" version="1.1" xmlns:xlink="http://www.w3.org/1999/xlink" xmlns="http://www.w3.org/2000/svg">
  <desc>Created with Lunacy</desc>
  <defs>
    <path d="M0 0L129 0L129 137.143L0 137.143L0 0Z" id="path_1" />
    <clipPath id="mask_1">
      <use href="#path_1" />
    </clipPath>
  </defs>
  <g id="chicago-cubs-logo@logotyp.us">
    <path d="M0 0L129 0L129 137.143L0 137.143L0 0Z" id="Background" fill="none" stroke="none" />
    <g clip-path="url(#mask_1)">
      <path d="M0 51.4286C0 23.0181 23.0181 0 51.4286 0C79.8391 0 102.857 23.0181 102.857 51.4286C102.857 79.8384 79.8391 102.86 51.4286 102.86C23.0181 102.86 0 79.8384 0 51.4286L0 51.4286Z" transform="translate(9.571777 17.14148)" id="Shape" fill="#FFFFFF" fill-rule="evenodd" stroke="none" />
      <path d="M5.23158e-06 48.0823C5.23158e-06 21.5517 21.5527 0 48.0833 0C74.6139 0 96.1666 21.5517 96.1666 48.0823C96.1666 74.6129 74.6139 96.1598 48.0833 96.1598C21.4728 96.1598 0 74.6129 0 48.0823L5.23158e-06 48.0823Z" transform="translate(12.91704 20.32623)" id="Shape" fill="#0E3386" fill-rule="evenodd" stroke="none" />
      <path d="M35.51 71.0201C55.1019 71.0201 71.0201 55.1016 71.0201 35.5101C71.0201 15.9182 55.1016 0 35.5101 0C15.9182 0 0 15.9185 0 35.5101C0 55.1019 15.8383 71.0201 35.5101 71.0201L35.51 71.0201Z" transform="translate(25.4903 32.8996)" id="Shape" fill="#FFFFFF" fill-rule="evenodd" stroke="none" />
      <path d="M31.1818 0.000682722C13.9587 0.000682722 0 13.9601 0 31.189C0 48.4131 13.9587 62.3691 31.1818 62.3691C41.3863 62.3691 50.3661 57.4728 56.0805 49.9649L46.7726 41.2275C43.4263 46.3728 37.7129 49.799 31.1012 49.799C20.8162 49.799 12.4862 41.474 12.4862 31.1887C12.5671 20.8985 20.8968 12.5736 31.1822 12.5736C37.9594 12.5736 43.8356 16.1671 47.101 21.5534L56.2416 12.6535C50.5272 4.97897 41.4665 0 31.1822 0L31.1818 0.000682722ZM25.6282 22.9409L25.6282 22.9399L25.6279 22.9402L25.6279 22.9409L25.6282 22.9409ZM25.6282 22.9409L25.6282 34.2096C25.6282 35.7624 23.2649 35.7624 23.2649 34.2096L23.2649 22.9416L17.6304 22.9416L17.6304 34.0471C17.6304 37.7205 18.5283 39.4351 21.2239 39.4351L27.0182 39.4351C30.2835 39.4351 31.2607 38.4514 31.2607 34.3697L31.2607 22.9409L25.6282 22.9409ZM33.3017 22.9399L33.3017 39.4341L42.1207 39.4341C45.2194 39.4341 46.8532 38.8584 46.8532 35.185C46.8532 33.7995 46.8514 32.1669 45.3055 31.2706C46.4434 30.696 46.8532 29.638 46.8532 27.5973C46.8532 23.7573 45.467 22.9399 42.1207 22.9399L33.3017 22.9399ZM48.9796 26.7809C49.0605 23.9235 50.4449 22.9399 52.894 22.9399L52.894 22.9402L58.1212 22.9402C61.9553 22.9402 62.6901 24.1656 62.6901 28.0056L56.735 28.0056L56.735 27.2691C56.735 26.0448 54.4474 26.292 54.4474 27.0219C54.4474 27.0886 54.4429 27.1745 54.4378 27.2731C54.4046 27.9052 54.3439 29.0626 55.2638 29.0626L59.2656 29.0626C61.2254 29.0626 62.6109 30.288 62.6109 32.2481L62.6109 35.9215C62.6109 38.6184 61.0591 39.4341 58.0409 39.4341C58.0409 39.4341 54.694 39.433 51.7509 39.5139C48.7146 39.5139 48.8834 36.1139 48.9611 34.5481C48.9711 34.347 48.9796 34.1762 48.9796 34.0467L54.5266 34.0467C54.5266 34.0467 54.3665 34.9433 54.694 35.4322C55.1023 36.1687 57.0573 36.168 57.0573 35.185L57.0573 34.2888C57.0573 34.2888 57.3038 32.9033 56.1593 32.9033L52.0776 32.9033C48.9571 32.9033 48.9715 30.7398 48.9789 29.6196C48.9792 29.5676 48.9796 29.5178 48.9796 29.4706C48.9796 29.0981 48.9689 29.0087 48.9589 28.9244C48.9404 28.7695 48.924 28.6316 48.9796 26.7809ZM39.1834 26.7809L39.1888 26.7809C40.8984 26.7809 41.5467 26.7809 41.5467 27.43L41.5467 28.3327C41.5467 29.0793 40.388 29.0708 39.442 29.0639C39.3536 29.0633 39.267 29.0626 39.1834 29.0626L39.1834 26.7809ZM41.4658 34.1273C41.2203 33.515 41.0678 33.4529 40.2137 33.4594C39.9295 33.4618 39.5678 33.4725 39.0977 33.4725L39.0977 35.7607C39.1983 35.7607 39.2984 35.7612 39.3973 35.7617C40.5023 35.7677 41.4658 35.7728 41.4658 35.0235C41.4658 34.9462 41.4736 34.8452 41.4819 34.7381C41.5002 34.5029 41.5207 34.2378 41.4658 34.1273Z" transform="translate(29.81989 37.22058)" id="Shape" fill="#CC3433" fill-rule="evenodd" stroke="none" />
    </g>
  </g>
</svg>