<?xml version="1.0" encoding="utf-8"?>
<svg width="134px" height="132px" viewBox="0 0 134 132" version="1.1" xmlns="http://www.w3.org/2000/svg">
  <desc>Created with Lunacy</desc>
  <defs>
    <path d="M0 0L134 0L134 131.312L0 131.312L0 0Z" id="path_1" />
    <clipPath id="mask_1">
      <use href="#path_1" />
    </clipPath>
  </defs>
  <g id="arizona-diamondbacks-logo@logotyp.us">
    <path d="M0 0L134 0L134 131.312L0 131.312L0 0Z" id="Background" fill="none" stroke="none" />
    <g clip-path="url(#mask_1)">
      <path d="M61.0939 0.0217295L91.1738 1.27446e-05L91.1746 0L91.1721 0.0050118L112.79 96.6863L67.5665 96.6863L78.0874 82.2143L72.8234 57.9C71.5981 59.8603 69.6679 62.9448 69.3735 63.4163C69.7623 64.7301 75.5471 84.0435 75.5471 84.0435C75.5471 84.0435 63.2454 69.1276 62.9627 68.7814L45.1954 83.4659C45.1954 83.4659 56.7098 63.5445 57.4715 62.2236C57.3542 61.7571 56.5749 58.7039 56.1865 57.163L41.2978 82.1575L48.2068 96.6842L0 96.6842L61.0939 0.0217295ZM69.0144 40.3473L66.2072 40.3473L56.7144 56.2772L72.4664 56.2772L69.0144 40.3473Z" transform="translate(-3.57547 17.32837)" id="Shape" fill="#E3D4AD" fill-rule="evenodd" stroke="none" />
      <path d="M60.8241 0.00109659L60.8237 0.000433315L60.8233 0.00125215L60.8241 0.00109659ZM60.8241 0.00109659L62.1149 1.97575L84.5145 1.97575L104.354 91.0351L72.1234 91.0351L79.3227 81.298L68.9872 35.0641L60.442 35.0624L32.8674 80.4169L38.0141 90.9988L6.08086 90.9988L2.94542 92.9419L41.4577 92.9419L35.3626 80.3764L61.514 36.7663L67.2094 36.7663L77.0835 80.8148L68.2121 92.9549L106.851 92.9457L86.1883 0.0167049L60.83 0L60.8241 0.00109659ZM0 92.9052L58.7523 0.224272L58.7528 0.223444L58.7528 0.220519L59.9434 1.97324L65.0905 9.53664L51.006 15.7971L56.9073 26.1952L38.6108 35.0273L45.1131 46.6833L26.196 58.5402L32.1345 72.663L28.7974 74.7778L0 92.9052Z" transform="translate(-0.09661865 19.16232)" id="Shape" fill="#000000" fill-rule="evenodd" stroke="none" />
      <path d="M56.0348 0.00042057L56.0345 0L56.0345 0.00042057L56.0348 0.00042057ZM56.0348 0.00042057L61.5545 8.47505L47.6376 14.7363L53.632 25.1153L35.3447 33.8643L41.4636 45.2075L22.5419 57.1312L28.3701 71.4328L0 89.0231L31.9324 89.0231L26.787 78.4408L54.3616 33.0863L62.9068 33.0888L73.2435 79.3227L66.043 89.0598L98.2744 89.0598L78.4345 0.00042057L56.0348 0.00042057ZM50.0209 58.7081C49.8192 57.928 48.9293 54.4292 48.9293 54.4292L48.9297 54.4292L60.7348 54.4292C60.7348 54.4292 58.1685 58.5285 57.6762 59.3174C57.9935 60.3752 61.3169 71.4816 61.3169 71.4816C61.3169 71.4816 54.5988 63.3352 53.6667 62.2072C52.3186 63.3189 42.8091 71.1801 42.8091 71.1801C42.8091 71.1801 49.4801 59.6414 50.0209 58.7081Z" transform="translate(5.982544 21.13873)" id="Shape" fill="#A71930" fill-rule="evenodd" stroke="none" />
    </g>
  </g>
</svg>