<?xml version="1.0" encoding="utf-8"?>
<svg width="155px" height="147px" viewBox="0 0 155 147" version="1.1" xmlns:xlink="http://www.w3.org/1999/xlink" xmlns="http://www.w3.org/2000/svg">
  <desc>Created with Lunacy</desc>
  <defs>
    <path d="M0 0L155 0L155 146.188L0 146.188L0 0Z" id="path_1" />
    <clipPath id="mask_1">
      <use href="#path_1" />
    </clipPath>
  </defs>
  <g id="los-angeles-dodgers-logo@logotyp.us">
    <path d="M0 0L155 0L155 146.188L0 146.188L0 0Z" id="Background" fill="none" stroke="none" />
    <g clip-path="url(#mask_1)">
      <path d="M120.086 16.5722C121.39 15.3568 126.579 14.5864 127.943 18.4704L127.944 18.4693C131.324 28.0755 116.38 35.577 105.973 40.0541C94.7359 44.8574 84.0029 49.0087 77.9842 51.5876C77.0356 56.0053 74.8116 67.6284 68.0518 67.7764C64.1376 67.8358 63.6935 61.016 65.9763 56.3909C56.6366 59.504 50.292 65.1673 49.2538 67.9839C46.0829 67.1751 42.7726 67.0737 39.5581 67.6878C45.9625 58.0812 61.5285 52.3288 69.534 49.4236C69.534 49.4236 73.8329 42.5152 76.1459 39.7278L76.4722 37.7713C75.5528 40.1427 71.4614 43.8494 68.9409 39.8164C68.4072 41.3883 67.518 45.0346 64.6421 45.1535C63.4502 45.1565 62.3787 44.4067 61.9736 43.2855C61.4696 44.9762 59.6016 48.978 56.2514 48.4745C53.1378 48.0294 52.2778 42.8701 52.6635 40.113C52.2496 40.7701 51.7041 41.3351 51.0624 41.7735C51.003 50.8762 45.3699 56.7167 41.0414 54.5819C39.6477 53.6548 38.6202 52.2698 38.1352 50.6687C36.5044 42.0998 41.5448 32.9976 47.6824 34.8656C49.5504 35.4285 50.3801 37.089 50.795 38.8976C51.5315 38.5114 52.2015 38.011 52.7818 37.4153C52.96 34.3903 55.5988 29.6172 58.9783 28.8166C60.2111 28.4171 61.5664 28.6993 62.537 29.5578C62.5954 29.5578 64.0597 15.6 65.3827 15.4454C66.7052 15.2897 67.9846 14.8763 69.1478 14.2289C69.036 14.7941 68.9021 15.461 68.7519 16.2084C67.4291 22.7933 64.85 35.6311 65.1159 40.2907C65.2045 41.3289 67.5467 40.8546 67.9918 36.4662C67.6655 22.235 76.6796 19.507 78.6059 22.4122L78.8728 20.6036C80.2316 20.3936 81.5326 19.9096 82.6983 19.1808C82.3418 21.7899 81.3047 28.8765 80.5635 33.7393C82.1646 31.5451 83.4093 30.0034 84.1212 29.1434C84.0316 28.624 83.9819 28.0985 83.9732 27.5715C84.3287 16.5717 91.5634 13.1026 93.9056 15.03C95.329 16.2162 97.345 19.5665 88.2725 28.2834C89.3102 31.5149 93.8467 28.9949 95.7439 23.6881C97.6118 18.558 98.0861 17.0163 98.6792 13.1917C97.9089 11.65 97.9683 8.56665 99.4204 7.43983C99.9494 6.93891 100.789 6.93891 101.319 7.43983C101.822 8.03294 101.763 9.63405 101.763 9.63405C102.729 10.1695 103.748 9.98861 104.67 9.82506C105.585 9.66255 106.405 9.51714 106.981 10.1083C108.392 11.5609 107.186 14.0153 106.156 16.1125C105.736 16.9689 105.344 17.7658 105.172 18.4104C104.55 20.6339 104.639 22.5018 105.795 22.3538C107.811 22.0567 111.665 10.8787 112.377 7.23239C110.687 -0.594909 116.676 -1.69151 116.202 2.13302C116.106 2.88963 115.761 3.46146 115.425 4.0198C114.931 4.83994 114.455 5.63099 114.808 6.93584C117.506 10.0792 120.086 11.4728 120.086 16.5722ZM78.7841 46.162C109.649 34.9251 120.263 30.8332 124.118 24.9927L124.118 24.9922C125.037 23.5985 126.579 20.0408 124.444 18.5877C123.05 17.5797 120.767 18.9734 120.145 19.5967C118.218 21.6419 116.29 23.6287 113.355 23.1544C111.31 22.7979 110.331 20.4557 111.813 19.0328C112.385 18.4949 112.956 18.7005 113.507 18.8983C113.927 19.0493 114.334 19.1959 114.719 19.0036C116.469 18.1437 117.329 13.9626 113.889 9.99008C113.778 10.3619 113.637 10.8816 113.467 11.5098C112.091 16.5928 108.791 28.7827 103.778 27.3057C98.7759 25.8647 101.523 18.132 102.6 15.1008C102.743 14.7004 102.856 14.3821 102.918 14.1711C102.29 14.1716 101.664 14.102 101.051 13.9626C99.8649 19.5665 96.5147 33.8874 88.8651 34.0948C86.5822 34.1542 85.4846 32.5531 84.7737 31.3669C83.9798 32.235 83.2469 33.156 82.5795 34.124L82.3418 34.4805C81.4527 35.7845 80.6229 37.0896 79.9402 38.305C79.5555 40.677 79.051 44.2055 78.7841 46.162ZM88.0937 25.8234C89.9325 23.8366 93.9644 18.9738 91.6514 17.8178C90.6142 17.2841 88.3908 21.3463 88.0937 25.8234ZM73.5363 36.7638C70.4227 37.3569 71.4306 25.2001 76.0557 24.6372C76.9459 24.5476 77.8643 25.615 77.6871 27.3943C77.5309 29.0497 77.2235 30.6867 76.7677 32.2862C76.1746 34.124 75.1968 36.4662 73.5363 36.7633L73.5363 36.7638ZM3.83066 51.1732C0.451215 49.7795 -0.349333 46.8442 0.124953 42.4859L0.124437 42.4844C1.60672 29.0235 22.8949 19.5654 32.2936 28.8161C38.8461 35.221 37.5415 48.1774 33.4799 55.5899C28.3182 64.9981 20.3213 64.3317 16.2034 63.9885C15.5196 63.9316 14.9428 63.8835 14.5037 63.892C10.2346 70.8004 3.97816 72.4901 2.58449 71.6009C0.74674 70.4152 2.85185 62.8845 12.0728 61.52C12.8088 60.4473 13.0012 57.7517 13.2456 54.3285C13.8182 46.3051 14.6762 34.2847 23.4875 29.7959C21.7973 32.3461 19.9595 33.9764 18.5659 50.995C18.3292 54.5926 17.4764 58.1231 16.0454 61.4319C16.5659 61.4475 17.007 61.4753 17.4135 61.5009C18.5586 61.5731 19.4291 61.6279 21.0269 61.3433C26.8378 60.2759 29.3885 54.6126 30.6331 49.2167C32.2644 41.9825 32.0268 32.6422 26.4531 29.4994C26.4531 29.4994 21.8572 25.408 12.6065 30.4187C3.35585 35.4587 2.5261 42.5751 4.09699 44.9762C5.93797 47.7773 8.76602 45.9428 10.3548 44.9122C11.1207 44.4154 11.5986 44.1054 11.5391 44.5916C11.3563 46.0851 10.8282 47.5162 9.99743 48.7716C9.19688 50.0172 6.32093 52.2104 3.83066 51.1732ZM61.8537 33.8577C61.8245 34.3914 61.2314 39.0165 61.0834 39.521C60.5195 41.8632 59.3343 43.5529 57.6737 43.4643C54.827 43.3757 56.1018 31.3669 60.164 31.7818C61.1141 31.8064 61.8824 32.5946 61.8824 33.5447C61.8824 33.6497 61.8727 33.7547 61.8537 33.8572L61.8537 33.8577ZM48.0082 39.966C47.5242 40.0905 47.0228 40.1304 46.5249 40.0838C45.3689 39.966 44.5089 39.4021 44.4203 38.9278C43.8574 36.2895 47.8894 36.6752 48.0082 39.966ZM42.6409 41.0032C41.0408 43.7311 40.9512 49.9276 43.2642 50.4019C46.1402 50.9653 48.2156 45.5689 48.0968 42.8712C46.4363 43.1088 43.6791 42.9003 42.6409 41.0032ZM75.0478 47.4081C75.0478 47.4081 73.9804 47.8824 73.4769 48.0607C74.1878 47.0225 75.4637 44.6208 75.7295 44.1767C75.6117 44.9763 75.0478 47.4081 75.0478 47.4081ZM70.4524 54.5532C68.8513 57.0445 67.8131 62.2325 69.8593 61.877C72.2901 61.4325 73.2095 58.0525 74.2769 52.9229C74.2769 52.9229 72.5278 53.7527 70.4524 54.5532ZM5.75808 67.9552C5.31299 66.8576 8.30777 64.2485 10.9763 64.1297C9.93808 65.909 6.17296 69.0518 5.75808 67.9552Z" transform="translate(7.829407 41.34381)" id="Shape" fill="#005A9C" fill-rule="evenodd" stroke="none" />
      <path d="M7.70199 21.6442C8.79858 22.0227 9.95153 22.2127 11.1116 22.2071C12.5458 22.204 13.9656 21.9223 15.2916 21.3773C12.6913 15.4738 14.9326 8.48035 20.4807 5.1885C18.4575 1.96835 14.9142 0.00614683 11.1111 0C9.6386 0 8.17885 0.281707 6.81233 0.829751C8.06617 3.67549 8.22495 6.88795 7.2564 9.84329C6.32011 12.8104 4.32513 15.3335 1.65303 16.9289C3.03953 19.1739 5.18663 20.8472 7.70149 21.6437L7.70199 21.6442ZM5.27118 1.63081C6.29557 4.06833 6.41081 6.79472 5.59745 9.31009C4.79843 11.8326 3.11282 13.9818 0.853537 15.3586C-1.24542 10.3411 0.639441 4.48269 5.27118 1.63081ZM21.6674 14.4986C20.8484 17.035 19.1423 19.1939 16.8641 20.5768C14.6924 15.5276 16.5875 9.58822 21.2818 6.73019C22.3584 9.1841 22.4946 11.9504 21.6674 14.4986Z" transform="translate(82.79553 9.439178)" id="Shape" fill="#FFFFFF" fill-rule="evenodd" stroke="none" />
      <path d="M67.4785 0C72.2869 0 76.7087 2.69873 78.908 6.97399L78.9086 6.97399C80.4835 10.0036 80.7724 13.5434 79.7091 16.7881C78.0189 22.0898 73.0609 25.7125 67.4969 25.7125C66.1565 25.7125 64.8248 25.5025 63.55 25.0902C58.2468 23.3877 54.6256 18.423 54.6256 12.8524C54.6256 5.80159 60.4277 0 67.4785 0ZM63.6391 11.6001C64.6072 8.64425 64.4489 5.4323 63.195 2.58656C64.5621 2.03801 66.0213 1.75681 67.4939 1.75681C71.2964 1.76245 74.8397 3.72465 76.8634 6.94531C71.3153 10.2372 69.074 17.2306 71.6744 23.1341C70.3483 23.6791 68.9285 23.9608 67.4944 23.9639C66.3342 23.9695 65.1813 23.779 64.0847 23.401C61.5698 22.6045 59.4227 20.9307 58.0362 18.6863C60.7078 17.0908 62.7028 14.5677 63.6396 11.6006L63.6391 11.6001ZM61.6528 3.38663C59.4048 4.77671 57.7223 6.92126 56.9089 9.43509C56.1068 11.952 56.222 14.6743 57.2352 17.1144C59.4944 15.7376 61.1801 13.5879 61.9791 11.0659C62.7935 8.55054 62.6777 5.82414 61.6528 3.38663ZM78.049 16.2544C77.2295 18.7913 75.5234 20.9496 73.2457 22.3326C71.074 17.2834 72.9691 11.344 77.6633 8.48598C78.7399 10.9399 78.8762 13.7057 78.049 16.2544ZM52.6101 18.359C52.8468 17.9457 53.3805 17.7997 53.7953 18.0338C54.2097 18.2704 54.3557 18.8041 54.1216 19.219L45.0189 35.586C44.8781 35.8631 44.5892 36.0357 44.2778 36.0301C44.1257 36.0296 43.9746 35.9994 43.8337 35.9415C43.4158 35.6941 43.2693 35.1502 43.5075 34.7261L52.6101 18.359ZM76.3286 24.3193L76.1673 24.3045C75.7458 24.3045 75.3837 24.6144 75.3201 25.0308L71.9699 43.2648C71.8741 43.7365 72.1804 44.2036 72.6516 44.303L72.8299 44.303C73.2473 44.2989 73.6079 44.0003 73.6898 43.591L77.0401 25.357C77.123 24.8787 76.8039 24.4141 76.3281 24.3188L76.3286 24.3193ZM50.9787 41.99C50.8553 41.9894 50.7329 41.9582 50.6233 41.9013C50.1971 41.6934 50.0015 41.1853 50.1782 40.7453L56.7014 25.8605C56.8418 25.5456 57.1558 25.3422 57.501 25.3422C57.9819 25.3422 58.3773 25.7376 58.3773 26.2186C58.3773 26.3405 58.3512 26.4608 58.3026 26.5725L51.7793 41.4563C51.6441 41.7784 51.3286 41.9889 50.9787 41.99ZM62.9276 27.9365C62.4646 27.811 61.978 28.0737 61.83 28.5296L54.9215 50.8852C54.8882 50.9769 54.8713 51.0742 54.8713 51.1725C54.8713 51.5485 55.1233 51.8804 55.4855 51.9823C55.5659 52.0304 55.6586 52.0504 55.7523 52.0417C56.1339 52.0366 56.4709 51.7846 56.5821 51.4194L63.4905 29.0638C63.6354 28.6008 63.385 28.0998 62.9276 27.937L62.9276 27.9365ZM67.9977 29.1529C68.0961 28.6817 68.5637 28.3749 69.0349 28.4702C69.4314 28.5655 69.7121 28.9225 69.7121 29.3302C69.7121 29.4003 69.7039 29.47 69.6875 29.5376L65.6253 47.7424C65.5433 48.1516 65.1827 48.4503 64.7653 48.4544L64.5881 48.4241C64.122 48.3186 63.8182 47.8571 63.9053 47.3869L67.9977 29.1529ZM28.9499 64.405L42.3806 40.3888C42.6044 39.9658 42.4446 39.4336 42.0251 39.2036C41.6102 38.9696 41.0755 39.1155 40.8389 39.5299L27.4072 63.5757C27.3349 63.7043 27.2965 63.8497 27.2965 63.9978C27.2965 64.3189 27.4773 64.6144 27.7636 64.7609C27.885 64.8449 28.0315 64.8864 28.1785 64.8798C28.5022 64.8741 28.7983 64.6918 28.9499 64.4055L28.9499 64.405ZM64.9134 87.5913C64.4366 87.5171 63.9786 87.8316 63.8762 88.3033L60.6146 105.233L60.6023 105.382C60.6023 105.804 60.9096 106.17 61.3265 106.241C61.3829 106.265 61.4438 106.276 61.5048 106.27C61.9196 106.25 62.2669 105.94 62.3345 105.529L65.6253 88.6296C65.7083 88.1501 65.3902 87.6866 64.9134 87.5913ZM40.8389 96.4568C40.987 96.0025 41.4807 95.749 41.9355 95.8929C42.3899 96.0409 42.6434 96.5347 42.4995 96.9895L40.8389 102.357C40.735 102.726 40.3933 102.982 40.0092 102.979L39.7423 102.949C39.285 102.787 39.0345 102.286 39.1784 101.823L40.8389 96.4568ZM7.06859 100.281C7.31239 99.8598 7.85122 99.7021 8.28402 99.9249C8.69735 100.163 8.84435 100.696 8.61028 101.111L1.64295 113.653C1.4939 113.937 1.19273 114.112 0.871591 114.098C0.729202 114.097 0.587836 114.067 0.456717 114.009C0.0372326 113.778 -0.122569 113.246 0.101257 112.823L7.06859 100.281ZM23.3753 104.224C23.2621 104.172 23.1391 104.146 23.0157 104.146C22.67 104.146 22.356 104.352 22.2193 104.669L17.5056 115.432C17.4518 115.546 17.4236 115.67 17.4236 115.797C17.4236 116.142 17.6321 116.455 17.9501 116.589C18.0597 116.645 18.1822 116.677 18.3066 116.677C18.6534 116.668 18.9648 116.46 19.1072 116.143L23.8209 105.381C23.8747 105.267 23.9023 105.142 23.9023 105.016C23.9023 104.671 23.6939 104.359 23.3758 104.225L23.3753 104.224ZM51.0377 104.996C51.158 104.525 51.6282 104.225 52.1051 104.314C52.4984 104.397 52.7822 104.747 52.7822 105.149C52.7822 105.217 52.774 105.285 52.7576 105.351L50.1485 116.974C50.0691 117.368 49.7208 117.654 49.3188 117.656L49.1113 117.656C48.7154 117.561 48.4337 117.204 48.4337 116.797C48.4337 116.727 48.4424 116.657 48.4588 116.589L51.0377 104.996ZM38.704 106.359C38.62 106.333 38.5325 106.319 38.4438 106.319C38.0556 106.319 37.7124 106.579 37.6074 106.952L28.2676 137.136C28.1237 137.591 28.3772 138.084 28.8316 138.232C28.9171 138.266 29.0067 138.286 29.0984 138.292C29.4831 138.276 29.8232 138.03 29.9584 137.669L39.2685 107.457C39.4124 107.001 39.1589 106.508 38.7045 106.359L38.704 106.359Z" transform="translate(26.41449 7.682861)" id="Shape" fill="#EF3E42" fill-rule="evenodd" stroke="none" />
      <path d="M0 2.00164C0 0.908628 0.894285 0.00819837 1.98678 0L1.98728 0.000515817L2.00368 0.000515817C3.10079 0.000515817 4.00326 0.902485 4.00326 2.00011L4.00326 2.0165C3.99507 3.109 3.09413 4.00329 2.00163 4.00329C0.902991 4.00329 0 3.09978 0 2.00164ZM1.98683 3.58788C1.13558 3.57149 0.445132 2.86723 0.445132 2.01596C0.445132 1.1647 1.13608 0.460955 1.98683 0.445074C2.84834 0.445074 3.55771 1.15446 3.55771 2.01596C3.55771 2.8785 2.84832 3.58788 1.98683 3.58788ZM2.16455 0.948555C2.63883 0.948555 2.9651 1.03819 2.9651 1.60109L2.96513 1.6016L2.9641 1.6016L2.96972 1.67792C2.96972 1.97806 2.72335 2.22443 2.42372 2.22443L2.40118 2.22341L2.90568 3.05418L2.4314 3.05418L1.95608 2.22341L1.60062 2.22341L1.60062 3.05418L1.15553 3.05418L1.15553 0.948555L2.16455 0.948555ZM2.16452 1.84644L1.60061 1.84644L1.60061 1.33425L2.07489 1.33425C2.28233 1.33425 2.54918 1.33425 2.54918 1.57553C2.54918 1.78612 2.40115 1.84644 2.16452 1.84644Z" transform="translate(137.255 66.33649)" id="Shape" fill="#005A9C" fill-rule="evenodd" stroke="none" />
    </g>
  </g>
</svg>