<?xml version="1.0" encoding="utf-8"?>
<svg width="127px" height="131px" viewBox="0 0 127 131" version="1.1" xmlns:xlink="http://www.w3.org/1999/xlink" xmlns="http://www.w3.org/2000/svg">
  <desc>Created with Lunacy</desc>
  <defs>
    <path d="M0 0L126.483 0L126.483 131L0 131L0 0Z" id="path_1" />
    <clipPath id="mask_1">
      <use href="#path_1" />
    </clipPath>
  </defs>
  <g id="San_Francisco_Giants_Cap_Insignia">
    <path d="M0 0L126.483 0L126.483 131L0 131L0 0Z" id="Background" fill="none" stroke="none" />
    <g clip-path="url(#mask_1)">
      <path d="M0 0L126.483 0L126.483 131L0 131L0 0Z" id="Rectangle" fill="#000000" stroke="none" />
      <path d="M12.2361 0C10.4823 3.13779 5.53531 7.80579 0.889892 10.0277L0.881996 10.0283C2.53418 15.4891 2.40035 36.2492 0.881996 42.025C5.75045 44.4355 10.6087 49.5287 12.2282 52.6773C17.8888 52.2526 24.1768 52.566 24.1768 52.566L24.1768 85.4402L16.9961 85.4402L12.2282 79.8795L12.2282 63.9545L0 63.9545C1.3851 67.26 1.83174 82.9168 0.882556 85.4402C5.00341 87.0264 10.6872 93.2901 12.2287 96.7763C17.3767 95.7254 24.1774 96.0044 24.1774 96.0044L24.1774 102.415C23.6082 105.832 20.5478 108.043 16.829 108.211C16.829 108.211 20.2022 114.531 20.2914 118.082L39.6783 118.082C39.8014 114.452 43.1188 108.211 43.1188 108.211C38.9748 107.864 36.6303 106.793 35.5242 102.415L35.5242 96.0044C35.5242 96.0044 57.0443 95.2223 62.6818 96.7763C65.0048 92.185 69.5503 87.6514 74.0291 85.4402C72.9117 76.7519 72.6547 62.4695 74.0291 54.1064C69.9184 52.4525 64.2578 46.444 62.6818 42.3576C59.5113 43.4293 35.5241 42.7817 35.5241 42.7817L35.5241 32.575L66.36 32.575C70.3126 33.3124 72.8016 36.3497 73.373 40.2808L84.7192 40.2808C82.7869 36.6952 79.9382 27.0701 80.2957 22.0001C78.037 23.2948 26.2683 24.2 21.2666 22.5247C20.7522 27.3931 20.3609 27.8403 18.4179 31.7483C24.182 33.2919 24.1818 34.7799 24.1808 42.4713C24.1808 42.5737 24.1808 42.6771 24.1808 42.7817L17.4913 42.5135L12.2321 37.3988L12.2321 15.9577L17.5139 11.3343L57.9201 11.3343L62.6874 16.6393L74.0347 16.6393C72.7168 13.401 72.5949 11.9718 72.9851 7.93962C68.64 6.52177 65.5598 4.17619 62.688 0C57.9206 1.77584 16.7144 2.11012 12.2361 0ZM35.5225 64.4684L35.5225 52.5643L35.5208 52.5598C42.1216 52.5598 53.8608 52.6049 57.1527 52.955L62.6925 59.3763L62.6925 79.8795L57.9127 85.4402L35.5225 85.4402L35.5225 73.4481C35.5225 73.4481 49.4152 72.2747 55.2549 75.2781C54.6857 73.849 54.4401 65.2617 55.2549 62.6146C50.6439 65.4288 35.5225 64.4684 35.5225 64.4684Z" transform="translate(22.42584 6.713867)" id="Shape" fill="#FD5A1E" fill-rule="evenodd" stroke="none" />
    </g>
  </g>
</svg>