<?xml version="1.0" encoding="utf-8"?>
<svg width="153px" height="143px" viewBox="0 0 153 143" version="1.1" xmlns:xlink="http://www.w3.org/1999/xlink" xmlns="http://www.w3.org/2000/svg">
  <desc>Created with Lunacy</desc>
  <defs>
    <path d="M0 0L153 0L153 143L0 143L0 0Z" id="path_1" />
    <clipPath id="mask_1">
      <use href="#path_1" />
    </clipPath>
  </defs>
  <g id="seattle-mariners-logo@logotyp.us">
    <path d="M0 0L153 0L153 143L0 143L0 0Z" id="Background" fill="none" stroke="none" />
    <g clip-path="url(#mask_1)">
      <path d="M0 62.4789C0 96.9315 28.0455 124.962 62.5197 124.962C96.994 124.962 125.039 96.9315 125.039 62.4789C125.039 28.0276 96.994 0 62.5197 0C28.0455 0 0 28.0268 0 62.4789" transform="translate(14.88965 7.15979)" id="Shape" fill="#C4CED4" fill-rule="evenodd" stroke="none" />
      <path d="M0 59.3825C0 26.6372 26.6238 0 59.3538 0C92.0849 0 118.713 26.6372 118.713 59.3825C118.713 92.1291 92.0849 118.769 59.3538 118.769C26.6238 118.769 0 92.1299 0 59.3825" transform="translate(18.05396 10.25623)" id="Shape" fill="#FFFFFF" fill-rule="evenodd" stroke="none" />
      <path d="M56.1773 6.35984e-06C25.2034 6.35984e-06 0 25.1821 0 56.1502C0 87.115 25.203 112.308 56.1773 112.308C87.1513 112.308 112.353 87.115 112.353 56.1502C112.353 25.1821 87.1517 0 56.1773 0" transform="translate(21.22998 13.49103)" id="Shape" fill="#005C5C" fill-rule="evenodd" stroke="none" />
      <path d="M54.3688 108.77C24.3923 108.77 0 84.375 0 54.3851C0 24.3994 24.3927 0 54.3688 0C84.3466 0 108.738 24.3985 108.738 54.3851C108.738 84.375 84.3462 108.77 54.3688 108.77" transform="translate(23.03845 15.25903)" id="Shape" fill="#002C56" fill-rule="evenodd" stroke="none" />
      <path d="M50.1092 3.17992e-06L44.6191 0.00667147L44.6112 1.64719L46.3271 1.64052L46.2788 12.3431L48.3953 12.3552L48.4399 1.64719L50.1004 1.64177L50.11 0L50.1092 3.17992e-06ZM62.3314 4.00585L62.9345 2.47453L67.9569 4.47558L67.3563 6.00231L65.857 5.38795L61.9233 15.3582L59.9564 14.5775L63.8848 4.61312L62.3314 4.00585ZM30.8531 2.64499L27.5124 3.92748L30.7163 16.008L32.6161 15.2506L31.9101 12.7028L33.6602 11.9954L34.9027 14.3379L36.8049 13.5793L30.8531 2.64499ZM32.8558 10.5417L30.2446 5.518L29.9645 5.66013L31.4846 11.1056L32.8558 10.5417ZM14.5971 11.9825L14.5965 11.9831L14.5963 11.9829L14.5971 11.9825ZM14.5965 11.9831L15.7179 13.1474L13.9773 14.7871L16.1597 17.0562L17.9019 15.4165L19.0302 16.5885L17.2896 18.229L20.2898 21.353L22.0386 19.7091L23.1657 20.8882L19.8996 23.9925L11.3353 15.0918L14.5965 11.9831ZM71.4334 21.2075L79.696 12.0254L79.6965 12.0254L79.6977 12.0254L81.2661 13.443L74.1001 21.4167L75.8219 23.0102L74.7386 24.2155L71.4334 21.2075ZM47.2174 17.0879C29.4927 17.0879 14.9072 31.8942 14.9072 49.8874L14.9072 49.8907C14.9072 67.8843 29.4927 82.6902 47.2174 82.6902C64.9422 82.6902 79.5276 67.8839 79.5276 49.8907L79.5276 49.8874C79.5276 31.8938 64.9422 17.0879 47.2174 17.0879ZM80.0665 31.685L91.1146 26.1703L93.144 30.1591L91.7035 30.8751L90.6153 28.7824L87.8002 30.1907L88.886 32.2847L87.4322 33.0116L86.341 30.9189L82.4639 32.8553L83.5472 34.9468L82.0959 35.6766L80.0665 31.685ZM3.44691 26.9252C2.78378 26.8927 2.39282 27.3282 1.86391 28.4523C1.84099 28.5124 1.39751 29.5719 1.36459 29.644C0.494725 31.5771 0.692287 32.0256 2.60873 32.8812L4.21548 33.6027C5.0099 33.9607 5.74138 33.7744 6.48453 33.2418L7.76327 32.3281C7.89789 32.2318 8.0334 32.0948 8.16745 31.9593C8.44551 31.6782 8.71731 31.4035 8.96198 31.5104L11.3494 32.5832C11.5749 32.6891 11.7029 32.7912 11.7324 32.9071C11.7445 32.9558 11.4365 33.7254 11.3316 33.9877C11.3135 34.0327 11.3015 34.0628 11.2981 34.0716C11.1923 34.3104 10.9876 34.3188 10.6709 34.1712L8.36888 33.1601L7.49777 35.1128L9.52716 36.0014C11.4303 36.8542 11.9012 36.7325 12.7757 34.7877C12.8115 34.721 13.245 33.6648 13.2729 33.5944C14.0707 31.7576 13.8089 31.3891 11.945 30.5572L9.6026 29.4998C8.87029 29.1684 8.26176 29.0609 7.48819 29.631L5.97646 31.209C5.93303 31.2414 5.8911 31.2733 5.85038 31.3043C5.52577 31.5515 5.27811 31.7402 4.95738 31.605L3.20641 30.816C2.90299 30.6805 2.7596 30.5442 2.86047 30.3258C2.88256 30.2767 3.32312 29.2426 3.35437 29.2097C3.46816 29.1 3.62029 29.1121 3.88538 29.228L5.58841 30.0062L6.44535 28.0985L5.02323 27.4416C4.34135 27.1319 3.84536 26.9444 3.44732 26.9248L3.44691 26.9252ZM82.316 62.7794C82.7961 61.6341 83.1683 61.1889 83.8319 61.1977L83.8335 61.1969C84.2312 61.2023 84.7347 61.3715 85.4295 61.6508L86.8257 62.2397L86.038 64.1882L84.3579 63.4876C84.104 63.3801 83.9365 63.3738 83.8294 63.4876C83.801 63.518 83.3901 64.6204 83.3663 64.673C83.2738 64.8972 83.4188 65.0206 83.7343 65.1489L85.5066 65.8671C85.8767 66.018 86.0346 66.0246 86.4185 65.7279L87.8652 64.0828C88.6176 63.4872 89.3386 63.2287 90.083 63.5309L92.4704 64.4866C94.3619 65.2569 94.6411 65.6203 93.9175 67.4788C93.8955 67.5497 93.4766 68.673 93.4524 68.7438C92.6509 70.7174 92.1883 70.8616 90.2551 70.0759L88.4637 69.3394L89.2673 67.363L91.3209 68.2099C91.6477 68.3391 91.8494 68.3249 91.9478 68.0861C91.9711 68.0207 92.3625 66.912 92.3475 66.8582C92.3183 66.7332 92.1791 66.6394 91.9503 66.5452L89.5208 65.5686C89.2922 65.4738 89.0047 65.8505 88.7221 66.2208C88.5553 66.4394 88.3902 66.6558 88.2399 66.7715L87.002 67.7314C86.2864 68.2958 85.6583 68.2249 84.8493 67.8986L83.2154 67.2333C81.2673 66.4498 81.0526 66.023 81.8475 64.0428L82.316 62.7794ZM11.2015 62.0546L0 67.2754L0.800252 68.9859L7.38817 65.8324L7.4386 65.947L1.4813 70.4522L1.94395 71.4634L9.11663 69.5765L9.27626 69.9225L2.62916 72.9347L3.42566 74.6385L14.6259 69.4256L13.4722 66.964L7.56863 68.2882L7.5257 68.1961L12.2397 64.2932L11.201 62.055L11.2019 62.055L11.2015 62.0546ZM75.701 74.1972C76.3545 73.4419 76.893 73.0443 77.4524 72.993L77.4524 72.9939C78.0118 72.9426 78.5911 73.239 79.3297 73.8729L80.5455 74.9278C81.3903 75.6576 81.8009 76.134 81.5329 77.0468C82.2727 76.6617 82.8232 76.9018 83.5947 77.567L86.7708 80.3074L85.397 81.9046L81.9396 78.9045C81.7508 78.7449 81.5933 78.6815 81.4545 78.724C81.3265 78.7661 80.4858 79.6777 80.3566 79.8648L84.2337 83.2138L82.8503 84.8139L73.5078 76.7351L75.701 74.1972ZM77.2706 75.0274C77.4328 75.0086 77.5924 75.1458 77.8637 75.3834L79.6568 76.9364C79.9369 77.1739 80.0303 77.3361 79.9515 77.5228C79.901 77.6224 79.092 78.5289 78.9612 78.6569L76.1124 76.1874C76.2132 76.0569 77.0231 75.1596 77.1018 75.1008C77.161 75.0579 77.2165 75.0337 77.2702 75.0274L77.2706 75.0274ZM9.80515 83.3426L19.6024 75.5877L19.6028 75.5869L22.0753 78.1447L14.432 87.9699L12.9795 86.5241L14.6292 84.4497L13.3117 83.1217L11.2519 84.781L9.80515 83.3426ZM18.9952 78.5206L19.2065 78.7327L15.6395 83.137L14.6063 82.0942L18.9952 78.5206ZM64.5274 83.3288L68.3966 81.0793L68.397 81.0793L69.2056 82.4823L67.1678 83.6643L68.7429 86.3952L70.7831 85.209L71.5942 86.6198L69.5553 87.8052L71.7226 91.5593L73.7637 90.3664L74.5781 91.7814L70.7102 94.0176L64.5274 83.3288ZM28.7783 83.0187L23.602 94.2343L25.526 95.1217L27.6712 90.4665C27.8817 90.5386 29.0546 91.1088 29.125 91.2121C29.2059 91.3422 29.1909 91.5001 29.0888 91.7394L27.1732 95.8911L29.0767 96.7722L30.8335 92.9556C31.2595 92.0295 31.3382 91.4276 30.7593 90.8287C31.7146 90.8366 32.0555 90.3077 32.5249 89.2953L33.1967 87.8344C34.0133 86.0709 33.9716 85.4261 32.1635 84.5955L28.7783 83.0191L28.7783 83.0187ZM31.4033 86.0396C31.3232 85.9763 30.1804 85.4323 30.0228 85.3665L28.4457 88.7955C28.5978 88.8843 29.7552 89.4261 29.8574 89.4369C30.0733 89.4699 30.1958 89.3311 30.3479 88.9939L31.3453 86.8432L31.3503 86.8321C31.5435 86.4011 31.6268 86.2152 31.4033 86.0396ZM57.2448 86.2019L55.4542 86.5632L56.6833 92.6026L56.5958 92.6147L53.5061 86.9509L51.6576 87.3222L54.0659 99.4331L55.8706 99.0772L54.5943 92.8798L54.6798 92.8602L57.8166 98.6867L59.6551 98.3265L57.2448 86.2006L57.2448 86.2015L57.2448 86.2019ZM40.1472 99.4422L41.5869 87.1779L41.5873 87.1775L41.5873 87.1783L43.6908 87.4238L42.2462 99.6877L40.1472 99.4422Z" transform="translate(30.36285 19.80011)" id="Shape" fill="#FFFFFF" fill-rule="evenodd" stroke="none" />
      <path d="M25.2217 0.136711C25.2217 0.136711 25.2997 0.0633503 25.3872 0C25.6248 0.195896 25.859 0.398043 26.0891 0.606023L25.1125 0.230907L25.2217 0.136711ZM1.81432 0.117158L1.55632 0.34056L1.31333 1.22918L1.09785 1.0487C1.06826 1.0412 0.897786 1.08455 0.686048 1.14748C0.447637 1.37297 0.224235 1.61263 0 1.85979C0.317598 1.78727 1.20079 1.51718 1.36043 1.468C1.45463 1.57429 1.59217 1.68682 1.59217 1.68682C1.73638 1.64847 2.08233 0.411415 2.08233 0.411415C2.06065 0.345559 1.89435 0.193845 1.81432 0.117158L1.81432 0.117158ZM24.4402 0.830659C24.3469 0.845662 24.0626 1.09116 24.0626 1.09116L23.9551 1.18661L25.3438 1.72719L25.1217 1.9185C25.0946 2.01603 25.4831 3.0522 25.4831 3.0522C25.6219 3.08846 25.9382 2.82046 25.9382 2.82046C25.9536 2.73918 25.6627 1.93059 25.591 1.73594C25.7094 1.65508 25.8669 1.51837 25.8669 1.51837C25.844 1.36875 24.4419 0.831072 24.4419 0.831072L24.4406 0.830239L24.4402 0.830659ZM2.86176 0.831917L2.83133 0.939449L2.50956 2.10982L2.2028 1.92393C2.12611 1.91518 0.657318 2.36281 0.657318 2.36281C0.636477 2.52161 1.02618 2.75544 1.02618 2.75544C1.09704 2.76211 2.40079 2.36448 2.55833 2.31321C2.67629 2.42158 2.88552 2.54495 2.88552 2.54495C3.01473 2.4891 3.36276 1.1987 3.36276 1.1987C3.32358 1.09908 2.9643 0.888183 2.9643 0.888183L2.86552 0.832331L2.86219 0.831498L2.86176 0.831917ZM26.37 0.875681L26.275 0.965711C26.2487 1.05449 26.6363 2.08982 26.6363 2.08982C26.7755 2.12608 27.0927 1.86224 27.0927 1.86224C27.1002 1.82849 27.0577 1.67761 26.9998 1.50088C26.796 1.28748 26.5863 1.07741 26.3696 0.874848L26.3696 0.875681L26.37 0.875681ZM23.2595 1.61005C23.1728 1.61005 22.8097 1.8247 22.8097 1.8247L22.6705 1.90765L24.0334 2.5937L23.7879 2.73958C23.7396 2.82711 23.8667 3.9137 23.8667 3.9137C24.0001 3.98456 24.3902 3.75365 24.3902 3.75365C24.4315 3.6803 24.3369 2.79835 24.316 2.62288C24.454 2.55953 24.6332 2.45074 24.6332 2.45074C24.6332 2.43115 24.6132 2.40781 24.5782 2.37863L24.5849 2.37196L24.564 2.36238C24.2935 2.1248 23.2594 1.61047 23.2594 1.61047L23.2595 1.61005ZM4.19383 1.66384L4.173 1.78638L3.9771 2.95758L3.63658 2.79211C3.56322 2.7846 2.13068 3.31769 2.13068 3.31769C2.12443 3.47732 2.54539 3.68739 2.54539 3.68739C2.61791 3.68864 3.93416 3.20224 4.04128 3.16431C4.1734 3.25934 4.4039 3.36812 4.4039 3.36812C4.5331 3.30477 4.75651 2.00311 4.75651 2.00311C4.70525 1.90975 4.30136 1.71552 4.30136 1.71552L4.19383 1.66384ZM21.9657 2.27573C21.879 2.27114 21.4884 2.46621 21.4884 2.46621L21.3371 2.53706L22.6705 3.30647L22.4004 3.44985C22.3504 3.52779 22.385 4.62897 22.385 4.62897C22.5163 4.70566 22.9356 4.48976 22.9356 4.48976C22.9785 4.4189 22.9497 3.53612 22.9422 3.34689C23.0935 3.29563 23.2961 3.19601 23.2961 3.19601C23.2961 3.17976 23.2765 3.15475 23.2448 3.12057L23.2536 3.11724L23.2248 3.10224C22.9556 2.84174 21.9653 2.27572 21.9653 2.27572L21.9657 2.27573ZM5.76932 2.44989L5.76266 2.56826L5.66179 3.74488L5.29376 3.59733C5.22041 3.59733 3.83288 4.18751 3.83288 4.18751C3.83288 4.21294 3.84496 4.24211 3.86872 4.26712C3.97584 4.40925 4.28677 4.54054 4.28677 4.54054C4.35221 4.54054 5.64052 3.99121 5.7393 3.94869C5.8781 4.0408 6.12443 4.135 6.12443 4.135C6.25364 4.06831 6.36284 2.75457 6.36284 2.75457C6.30407 2.66996 5.88685 2.49615 5.88685 2.49615L5.76973 2.44989L5.76932 2.44989ZM20.6019 2.8788C20.5152 2.86922 20.0863 3.03635 20.0863 3.03635L19.9288 3.10221L21.2146 3.93956L20.9116 4.06418C20.8528 4.13004 20.6753 5.24872 20.6753 5.24872C20.7958 5.34208 21.2534 5.16327 21.2534 5.16327C21.3092 5.09992 21.4622 4.15879 21.491 4.00624C21.6439 3.96248 21.8661 3.87787 21.8661 3.87787C21.8673 3.8612 21.8477 3.83161 21.8177 3.79784L21.8319 3.78992L21.7969 3.77325C21.5418 3.49983 20.604 2.88005 20.604 2.88005L20.6019 2.87922L20.6019 2.8788ZM7.19978 3.0581L7.20938 3.19356L7.34609 4.3581L6.93262 4.24639C6.86135 4.25764 5.60512 4.98829 5.60512 4.98829C5.6097 5.01872 5.63137 5.03873 5.65347 5.06165C5.7785 5.19085 6.1332 5.2863 6.1332 5.2863C6.19656 5.27838 7.37234 4.59775 7.4532 4.5494C7.61158 4.61859 7.90167 4.70028 7.90167 4.70028C8.01213 4.60525 7.86332 3.29609 7.86332 3.29734C7.79996 3.21857 7.32398 3.09352 7.32398 3.09352L7.19935 3.05851L7.19978 3.0581ZM19.269 3.84828L19.4595 4.90528L19.4953 4.68438C19.6596 4.66354 19.9563 4.58268 19.9563 4.58268C19.9626 4.56934 19.9484 4.53975 19.9225 4.5039L19.9338 4.49723L19.913 4.48306C19.8034 4.33093 19.5158 4.0696 19.2686 3.84745L19.2686 3.84828L19.269 3.84828ZM13.7448 5.40336L14.1616 5.82016L13.7448 5.40336ZM19.6545 22.8939C19.6307 23.0385 19.59 23.1738 19.5503 23.3107L19.9671 23.1182C19.9603 23.0656 19.9048 23.0223 19.8278 22.9836L19.6545 22.8939ZM21.3159 23.3341C21.25 23.3403 20.0476 24.0359 19.9917 24.0693C19.8383 23.9984 19.542 23.9205 19.542 23.9205C19.4274 24.0134 19.5857 25.3293 19.5857 25.3234C19.6512 25.4001 20.1217 25.526 20.1217 25.526L20.251 25.5618L20.0942 24.2585L20.5135 24.3731C20.5844 24.3656 21.8431 23.6308 21.8431 23.6308L21.7985 23.5566L21.7944 23.5566C21.6685 23.4287 21.3159 23.3345 21.3159 23.3345L21.3159 23.3341ZM6.63082 23.3491C6.44909 23.3591 6.18777 23.4595 6.18777 23.4595C6.13858 23.52 5.98729 24.4552 5.96311 24.6124C5.80556 24.6561 5.58133 24.7437 5.58133 24.7437C5.58049 24.7587 5.64718 24.85 5.64718 24.85C5.90643 25.1217 6.84048 25.7411 6.84048 25.7411C6.92009 25.7473 7.35355 25.581 7.35355 25.581L7.51235 25.5185L6.2332 24.6782L6.54205 24.5636C6.59457 24.4949 6.77379 23.3749 6.77379 23.3749C6.74336 23.3512 6.69084 23.3453 6.63041 23.3487L6.63082 23.3491ZM7.9246 23.9354C7.76372 23.9629 7.4903 24.0363 7.4903 24.0363C7.48404 24.0559 7.49697 24.0842 7.52614 24.1192L7.51406 24.1205L7.53407 24.1434C7.62743 24.2651 7.84625 24.4698 8.06133 24.6653C8.01756 24.4123 7.96838 24.1718 7.92461 23.9354L7.9246 23.9354ZM4.91655 23.9838C4.74357 24.0134 4.51267 24.1339 4.51267 24.1339C4.46766 24.2018 4.48975 25.0896 4.49599 25.2721C4.34595 25.3272 4.15006 25.4168 4.15006 25.4168C4.15006 25.4389 4.22259 25.5176 4.22259 25.5176C4.49184 25.7773 5.47549 26.3492 5.47549 26.3492C5.56218 26.3492 5.95813 26.1545 5.95813 26.1545L6.10901 26.0832L4.77068 25.313L5.04534 25.1709C5.08994 25.09 5.06035 23.993 5.06035 23.993C5.02618 23.9742 4.97492 23.9742 4.91698 23.9834L4.91655 23.9838ZM23.1598 24.0842C23.0889 24.0842 21.786 24.6411 21.7073 24.6719C21.5647 24.5836 21.3113 24.4823 21.3113 24.4823C21.1863 24.5481 21.0783 25.8627 21.0783 25.8627C21.1354 25.9511 21.5622 26.1245 21.5622 26.1245L21.6768 26.1745L21.7844 24.8678L22.147 25.0241C22.2212 25.0241 23.6104 24.4323 23.6104 24.4323C23.6104 24.4048 23.5954 24.3764 23.5733 24.351L23.5787 24.351L23.572 24.3468C23.4636 24.2101 23.1594 24.0838 23.1594 24.0838L23.1594 24.0847L23.1598 24.0842ZM3.44188 24.6994C3.27433 24.7369 3.05301 24.8678 3.05301 24.8678C3.0155 24.9387 3.1097 25.8198 3.13054 26.0007C2.99175 26.0653 2.81335 26.1703 2.81335 26.1703L2.86503 26.2403L2.86253 26.2416L2.87254 26.2483C3.1322 26.48 4.18628 27.0143 4.18628 27.0143C4.27381 27.0081 4.63475 26.7922 4.63475 26.7922L4.77271 26.7092L3.40645 26.0232L3.65736 25.8744L3.65736 25.8731C3.70196 25.7902 3.5815 24.7007 3.5815 24.7007C3.54774 24.6844 3.49814 24.6865 3.44229 24.6994L3.44188 24.6994ZM24.9008 24.9371C24.8299 24.9296 23.4858 25.4222 23.4012 25.4539C23.2691 25.3589 23.039 25.2501 23.039 25.2501C22.9139 25.3134 22.6964 26.6159 22.6964 26.6159C22.7422 26.7101 23.1394 26.9002 23.1394 26.9002L23.2486 26.9569L23.4641 25.6631L23.81 25.8303C23.8822 25.8378 25.3097 25.3084 25.3097 25.3084C25.3247 25.1475 24.9012 24.9375 24.9012 24.9375L24.9008 24.9371ZM1.96601 25.5673C1.8218 25.5331 1.51211 25.8007 1.51211 25.8007C1.49127 25.8803 1.78761 26.6893 1.85806 26.8844C1.74219 26.9623 1.58339 27.1078 1.58339 27.1078C1.60506 27.2511 3.00842 27.7905 3.00842 27.7905C3.10179 27.773 3.38521 27.5221 3.38521 27.5221L3.49233 27.4325L2.10231 26.896L2.32863 26.7026C2.35697 26.6076 1.96601 25.5669 1.96601 25.5669L1.96601 25.5673ZM26.4208 25.8736C26.3487 25.8573 25.055 26.25 24.8908 26.3046C24.7711 26.1987 24.5577 26.0749 24.5577 26.0749C24.4252 26.132 24.0784 27.4237 24.0784 27.4237C24.1209 27.522 24.4831 27.7313 24.4831 27.7313L24.5852 27.7892L24.9312 26.5151L25.2442 26.6959C25.3163 26.7034 26.7905 26.2558 26.7905 26.2558C26.8055 26.0991 26.4208 25.8736 26.4208 25.8736L26.4208 25.8736ZM0.810239 26.5279C0.66603 26.4942 0.355097 26.758 0.355097 26.758C0.347179 26.8018 0.411782 27.021 0.491808 27.254C0.672281 27.4337 0.853174 27.6079 1.03489 27.785L1.16869 27.6704C1.19578 27.5716 0.80732 26.533 0.80732 26.533L0.809819 26.5275L0.810239 26.5279ZM27.2736 26.8047C26.8826 26.9131 26.2203 27.1082 26.0807 27.1461C25.9873 27.0452 25.8564 26.9293 25.8564 26.9293C25.7051 26.9731 25.3642 28.2089 25.3642 28.2089C25.3792 28.2589 25.4801 28.3598 25.5626 28.4398C25.6876 28.3377 25.8064 28.2306 25.9294 28.1235L26.132 27.3978L26.3462 27.5708C26.3629 27.5771 26.4504 27.5566 26.5738 27.5262C26.8113 27.2911 27.0443 27.0515 27.2732 26.8047L27.2736 26.8047ZM1.22287 27.9663C1.48337 28.1993 1.75054 28.426 2.02438 28.6503C2.12649 28.5769 2.22819 28.4885 2.22819 28.4885L2.33573 28.3881L1.22246 27.9659L1.22287 27.9663Z" transform="translate(63.73425 55.3175)" id="Shape" fill="#D50032" fill-rule="evenodd" stroke="none" />
      <path d="M54.4477 0.000537406L54.4489 36.9555C53.9642 36.3533 49.8487 32.1115 48.2736 30.6569L48.1644 30.6698C47.0286 30.7673 42.4951 31.3221 36.6237 32.0544L35.8718 32.154C31.7918 32.6671 27.1344 33.2615 22.558 33.8612C21.9428 33.9325 21.3314 34.0154 20.7224 34.0921C10.4321 35.4359 1.00577 36.7046 0.0788111 36.9322C0.0287973 36.943 -0.00121473 36.9564 3.8159e-05 36.9664L54.4477 36.9568C53.9617 37.5645 49.8483 41.8087 48.2736 43.2559L48.1644 43.2409C48.3011 44.6355 49.2402 49.5158 50.3547 54.9904C50.403 55.2355 50.4497 55.4731 50.5006 55.7215C51.4551 60.4038 52.5175 65.4233 53.2994 68.9961L53.6883 70.775C54.1217 72.7131 54.4106 73.9193 54.4468 73.9131L54.4535 36.971L54.4385 36.971L54.4506 36.9547L54.4606 36.9435C55.0103 36.277 59.0458 32.0936 60.5996 30.6565L60.7376 30.6644C60.5996 29.2681 59.6718 24.3883 58.5681 18.9232C58.5169 18.6827 58.4685 18.4435 58.4181 18.1955C57.4744 13.5227 56.4195 8.52408 55.6326 4.94545C55.4934 4.30274 55.3571 3.70631 55.2354 3.16572C54.7944 1.20552 54.4964 -0.0148661 54.4464 0.000136737L54.4477 0.000537406ZM33.363 12.8563L33.3627 12.8558L33.3623 12.8558L33.363 12.8563ZM41.8083 22.5456L33.363 12.8563C33.4626 12.9091 43.2456 18.1001 45.9654 19.7555C44.4549 20.5045 43.0582 21.4456 41.8083 22.5456ZM75.541 12.8796L75.5401 12.8806L75.5406 12.8792L75.541 12.8796ZM75.5401 12.8806C75.1898 13.8675 71.6112 22.7698 70.2472 26.08C69.307 24.7217 68.2004 23.4921 66.9491 22.4164L75.5401 12.8806ZM109.314 37.3661L109.035 36.9795L109.042 36.978L109.034 36.978L109.014 36.9493L109.43 37.2638L109.314 37.3661ZM109.034 36.978L109.035 36.9795L108.8 37.028C107.067 37.3181 97.991 38.5322 88.1579 39.8127L86.3298 40.0444C81.7517 40.6433 77.1073 41.2377 73.0327 41.752L72.2796 41.8491C66.3881 42.5898 61.8509 43.1458 60.7313 43.2479L60.6284 43.2558C59.0621 41.8099 54.9912 37.6136 54.4627 36.9713L109.034 36.978ZM33.4448 60.8131C33.9141 59.403 37.2743 51.0262 38.6118 47.7752C39.5521 49.1477 40.6662 50.3877 41.9183 51.4693L33.4448 60.8131ZM67.225 51.2592C65.9809 52.3725 64.595 53.3136 63.0966 54.073C65.8287 55.7631 75.3839 61.1949 75.3839 61.1949L67.225 51.2596L67.225 51.2592ZM33.4096 61.1091L33.8074 60.8623L33.8066 60.8634L33.3906 61.2791L33.4096 61.1091Z" transform="translate(22.95337 32.65692)" id="Shape" fill="#C4CED4" fill-rule="evenodd" stroke="none" />
      <path d="M87.9957 32.5428C88.062 33.0557 88.119 33.5765 88.1628 34.092L88.1616 34.092L88.1616 34.0966C98.0172 35.3778 107.101 36.599 108.813 36.9166L109.027 36.9529L109.091 36.9767L109.111 36.9829L109.054 36.9829L54.4668 36.9767C54.9945 37.6185 59.0674 41.8144 60.6342 43.2607L60.7351 43.2532C60.5996 44.6332 59.6605 49.5219 58.5444 55.0053C61.469 54.3401 64.1357 52.9809 66.3518 51.1078C66.4777 51.0057 66.5952 50.8985 66.7186 50.7902C66.9353 50.6014 67.1512 50.3992 67.3621 50.1946C67.5993 49.9583 67.8335 49.7182 68.0624 49.4723C70.0288 47.3374 71.4972 44.7354 72.2862 41.8553L73.041 41.7577C72.4908 43.8913 71.5847 45.8795 70.3844 47.6567C71.7665 51.0699 75.506 61.1585 75.3914 61.2022L67.2313 51.2666C65.9884 52.3794 64.6 53.3214 63.1029 54.08C61.6353 54.8256 60.0557 55.38 58.3956 55.7292C57.4398 60.4124 56.3837 65.4319 55.6001 69.0055C71.7069 68.4333 84.8227 55.9155 86.3394 40.0489L88.1679 39.818C88.1241 40.3406 88.067 40.8608 88.0003 41.386L87.9941 41.4235C87.9236 41.9336 87.844 42.4425 87.7565 42.9489L87.7477 42.9973C87.6556 43.5045 87.5535 44.0051 87.4389 44.5049L87.4326 44.5324C85.9134 51.1578 82.4481 57.0438 77.6675 61.5565L77.66 61.564C77.2978 61.9041 76.9243 62.243 76.5471 62.5693L76.5229 62.5889C76.1424 62.9107 75.7648 63.2295 75.3742 63.5367L75.3488 63.555C69.777 67.941 62.7986 70.6177 55.2058 70.7848C54.7773 72.7233 54.4885 73.9312 54.4526 73.925L54.4601 36.9771L54.4451 36.9771L54.4572 36.9608L54.4672 36.9487C55.0165 36.2822 59.0532 32.0988 60.6062 30.6609L60.7437 30.6684C61.9233 30.778 66.4435 31.3265 72.2816 32.0584C71.455 29.0562 69.8916 26.352 67.7885 24.1647C67.5851 23.9525 67.3771 23.742 67.1595 23.5399C67.0662 23.4499 66.9724 23.3569 66.8761 23.2694C66.6473 23.0614 66.4114 22.8601 66.1738 22.6642C63.9994 20.8782 61.4094 19.5757 58.5752 18.9259C58.5239 18.6863 58.4755 18.4462 58.4255 18.199C60.0277 18.535 61.5598 19.0702 62.9865 19.7866C66.0096 18.0198 75.5338 12.8724 75.5417 12.8799C70.1821 8.17339 63.2462 5.22746 55.6388 4.94737C55.5 4.30383 55.3633 3.70781 55.2416 3.16722C62.8202 3.34686 69.7853 6.01771 75.3483 10.3991L75.3754 10.4199C75.7656 10.7242 76.1432 11.0397 76.5187 11.3677L76.5525 11.3886C76.9284 11.7137 77.2927 12.0475 77.6541 12.3876L77.6674 12.3943C82.0734 16.5544 85.3628 21.8823 87.0404 27.8713L87.0491 27.9009C87.1846 28.3856 87.3096 28.8778 87.4243 29.3693L87.4376 29.433C87.5472 29.9244 87.6481 30.4167 87.741 30.9102L87.756 30.9823C87.8419 31.4803 87.9223 31.9801 87.9882 32.4902L87.9957 32.5428ZM73.0393 32.159C72.4679 29.9549 71.5151 27.908 70.2568 26.085C69.3156 24.7258 68.2086 23.4962 66.9574 22.4205L75.4421 12.9892L75.543 12.8795C81.5153 18.1087 85.5299 25.5202 86.3389 33.8595C81.7617 33.2651 77.1123 32.6712 73.0393 32.1581M20.7224 39.8022C20.7661 40.3298 20.8232 40.8525 20.8895 41.3727L20.897 41.4043C20.9628 41.922 21.0416 42.4276 21.13 42.9431L21.1367 42.9782C21.2296 43.4912 21.3317 43.9935 21.4476 44.4978L21.4538 44.5111C22.9672 51.1487 26.4379 57.0434 31.2265 61.5574C31.5933 61.9046 31.9638 62.2434 32.3448 62.5698L32.3669 62.5848C32.7445 62.9099 33.1271 63.2304 33.5193 63.5376L33.5389 63.5542C39.1152 67.9419 46.1016 70.619 53.6969 70.7853C53.5786 70.2505 53.4494 69.6508 53.306 69.0068C45.6452 68.7388 38.6605 65.7599 33.2788 61.0093C33.2863 61.0155 33.3238 61.0018 33.4026 60.9655L33.6039 60.8705C35.2682 60.0465 42.9498 55.8055 45.8778 54.1171C47.3287 54.8382 48.8796 55.3842 50.5076 55.7301C50.4563 55.4825 50.4113 55.2441 50.363 54.999C47.5483 54.3613 44.9763 53.0822 42.8114 51.3183C42.5368 51.0941 42.27 50.8673 42.0095 50.6352L41.8203 50.4547C41.639 50.2771 41.4589 50.1037 41.2797 49.922C39.0936 47.7026 37.4731 44.9325 36.6262 41.8495C42.4988 42.5947 47.0336 43.1524 48.1702 43.2491L48.2786 43.2612C49.8541 41.8145 53.9708 37.5669 54.4564 36.9608L0 36.9709L0.0787729 36.9904C1.0024 37.1863 10.4262 38.4513 20.7236 39.798L20.7236 39.8026L20.7236 39.8013L20.7224 39.8022ZM35.8688 41.7553C36.4365 43.9385 37.3722 45.9724 38.6151 47.7813C39.5558 49.1547 40.6691 50.3934 41.922 51.4767L33.4472 60.8225L33.2776 61.0089C27.3344 55.7664 23.3432 48.3661 22.5521 40.0364C27.1306 40.6358 31.7875 41.2368 35.8688 41.7553M54.4534 9.53976e-06C54.4171 -0.0033262 54.1283 1.21373 53.6948 3.16684L53.6873 3.16684C46.6426 3.32523 40.1222 5.64096 34.7688 9.47592L34.7538 9.48801C34.3491 9.77685 33.9519 10.0724 33.5609 10.385L33.5259 10.4125C33.1408 10.7176 32.7599 11.0277 32.3881 11.3482L32.3539 11.3811C31.9788 11.7004 31.6074 12.0342 31.2465 12.3789L31.2377 12.3814C26.8272 16.5461 23.5278 21.8698 21.8514 27.8717L21.8447 27.9001C21.7068 28.3823 21.5834 28.877 21.4692 29.3689L21.4538 29.4335C21.3388 29.9182 21.2391 30.4163 21.1504 30.9093L21.1354 30.9819C21.0491 31.4799 20.9699 31.9851 20.9032 32.4907L20.8969 32.544C20.8269 33.0571 20.769 33.5773 20.7261 34.0978L20.7248 34.0991C21.3329 34.0212 21.946 33.9395 22.5612 33.8661C23.3652 25.5135 27.3869 18.1003 33.3667 12.8653C33.3154 13.0458 37.2217 22.6563 38.6455 26.1003C37.3917 27.9209 36.4452 29.9628 35.875 32.1593L36.6277 32.0589C37.4088 29.218 38.8526 26.6434 40.7849 24.5236C41.0091 24.2777 41.2346 24.0388 41.4722 23.8121C41.7535 23.5308 42.0445 23.2653 42.342 23.0048L42.6 22.7814C44.8082 20.9274 47.4541 19.5849 50.3612 18.9243C49.2476 24.3923 48.3073 29.2751 48.1697 30.6755L48.2793 30.6622C49.8548 32.1185 53.9707 36.3602 54.455 36.9625L54.4538 0.00124971L54.4538 0L54.4534 9.53976e-06ZM50.5063 18.1936C48.9133 18.5337 47.3899 19.0568 45.9699 19.7583C44.459 20.5077 43.0627 21.448 41.8119 22.5483L33.3676 12.8586C38.7393 8.15588 45.6831 5.21453 53.3034 4.94528C52.5199 8.52016 51.4608 13.5163 50.5063 18.194" transform="translate(22.961 32.66492)" id="Shape" fill="#005C5C" fill-rule="evenodd" stroke="none" />
    </g>
  </g>
</svg>