<?xml version="1.0" encoding="utf-8"?>
<svg width="143px" height="147px" viewBox="0 0 143 147" version="1.1" xmlns:xlink="http://www.w3.org/1999/xlink" xmlns="http://www.w3.org/2000/svg">
  <desc>Created with Lunacy</desc>
  <defs>
    <path d="M0 0L143 0L143 147L0 147L0 0Z" id="path_1" />
    <clipPath id="mask_1">
      <use href="#path_1" />
    </clipPath>
  </defs>
  <g id="miami-marlins-logo@logotyp.us">
    <path d="M0 0L143 0L143 147L0 147L0 0Z" id="Background" fill="none" stroke="none" />
    <g clip-path="url(#mask_1)">
      <path d="M6.12928 1.02473C5.56915 1.63897 5.03631 2.27809 4.53175 2.93914C3.83414 3.78495 2.79333 5.46683 2.20881 6.62464L1.99383 7.05169C1.16264 8.77744 0.520602 10.588 0.0794151 12.4517C-0.0419689 13.7441 -0.0244211 15.0457 0.133524 16.3342C0.462097 13.281 1.363 10.3175 2.78894 7.59769L2.99856 7.21403C3.52409 6.26243 4.11981 5.3508 4.7794 4.48696C5.28883 3.82493 5.83093 3.18875 6.40423 2.58083L6.40862 2.57547C6.46517 2.31757 6.52708 2.0592 6.59143 1.80132C6.7411 1.19341 6.91757 0.591827 7.12086 0L7.12037 0.000490952C6.78058 0.332969 6.44956 0.674701 6.12879 1.02473L6.12928 1.02473Z" transform="translate(47.94202 69.69736)" id="Shape" fill="#FFFFFF" fill-rule="evenodd" stroke="none" />
      <path d="M76.5741 26.9705L76.6686 26.9734L76.6696 26.9739L110.279 20.9528L109.091 22.112L104.132 23.3815L81.6343 27.4409L77.8723 28.1185L76.7676 28.3174C72.9003 28.176 69.7793 28.6665 69.7793 28.6665L69.7773 28.666C68.9949 28.2745 67.4622 27.5101 64.4178 26.811C63.8693 26.6848 63.2775 26.5614 62.6257 26.442C61.0131 23.0207 59.2078 19.6931 57.2203 16.4756C57.1058 16.2908 56.901 15.9661 56.6787 15.6166L56.2322 14.9082C55.1172 13.1732 53.9467 11.4753 52.7226 9.81533C51.2913 7.87557 49.723 5.90704 48.0129 3.95851C47.5858 3.47101 47.1495 2.98497 46.704 2.50088C46.0098 4.55472 45.8377 6.39747 45.7982 8.23534C45.7865 8.7867 45.7865 9.33807 45.7875 9.89479L45.7884 10.453C45.8006 13.8197 45.5852 17.5676 43.8828 21.5153C43.6868 21.8741 43.4616 22.5561 42.0951 24.5627C41.7383 25.0853 41.341 25.5796 40.9071 26.0403C38.2727 28.8444 36.093 30.0217 34.7851 30.8076C33.7594 31.414 32.7478 32.0439 31.7504 32.6966L31.7475 32.6996C28.0629 34.9927 25.0161 37.6019 22.5235 40.4566C20.7782 42.4408 19.2533 44.6092 17.977 46.9228L18.055 46.9029C20.1503 46.3944 22.2636 45.9625 24.3906 45.6071C25.5552 45.4111 26.6999 45.2419 27.8216 45.0957C36.1827 44.0086 43.2349 44.2484 47.4333 44.8412C44.4405 45.941 41.4034 47.327 38.5091 49.003C27.8977 48.5399 13.6325 49.0722 0.0199877 53.5002L0 53.5041C5.36835 50.7814 10.8181 48.8114 16.0646 47.4118C18.5567 42.4588 22.3412 37.7515 27.7461 33.714C29.486 32.4139 31.6924 31.0913 33.3123 30.1368C33.5766 29.9822 34.6281 29.3236 34.8913 29.1608L34.9221 29.1408C38.3487 26.8208 40.4957 24.8147 41.8533 22.3855C44.1202 18.33 44.3986 13.2156 44.363 11.289C44.2796 6.81135 44.7042 4.17641 45.3039 2.15963C45.5028 1.43471 45.7187 0.714677 45.9527 0C46.4812 0.457277 46.9711 0.92284 47.813 1.7706C55.5277 10.1619 60.5436 18.9652 63.394 24.8737L63.5822 25.2632C63.5822 25.2632 66.7363 25.7429 69.7612 27.1747L69.9953 27.282L70.2507 27.2513C71.173 27.1386 73.0607 26.9514 75.3417 26.9514C75.7526 26.9514 76.1636 26.9578 76.5741 26.9705ZM14.5299 55.866C14.3188 56.7572 14.1453 57.6547 14.0024 58.5551C13.1673 63.2466 12.0341 74.3168 17.4296 83.8646C12.5516 76.0958 10.1317 63.7362 14.135 52.0089C14.643 51.9836 15.1627 51.9607 15.6911 51.9402L15.7053 51.9397C15.2387 53.2248 14.8463 54.5356 14.5299 55.866Z" transform="translate(20.00433 6.687485)" id="Shape" fill="#00A3E0" fill-rule="evenodd" stroke="none" />
      <path d="M76.185 1.2636C76.1855 1.2636 53.5251 9.5589 48.5399 11.4436C43.5552 13.3283 43.6737 18.018 43.6737 18.018L44.0525 17.9951L53.411 17.4272C54.6254 17.3467 55.8436 17.336 57.059 17.3955L57.117 17.3974C57.3549 17.4106 57.5738 17.4301 57.7961 17.4486L58.1358 17.4744C59.0426 17.5627 59.808 17.6938 60.4583 17.8425L60.5933 17.8713C62.6247 18.3529 63.4208 18.9993 63.4208 18.9993L45.8426 20.8806L40.2904 26.2792L40.2646 26.3045L40.2412 26.3045C28.0737 26.2178 4.69804 33.8803 0.504564 50.5416C0.308593 51.2889 0.16185 52.0484 0.0653263 52.8153C0.0614284 52.8445 0.0307142 53.0361 0 53.3637L0.00389786 53.3486C0.445085 51.4849 1.08712 49.6743 1.91831 47.9486L2.08016 47.6278L2.10697 47.5751L2.08016 47.6278L2.03531 47.7165L2.13379 47.5215C2.71781 46.3637 3.75862 44.6823 4.45672 43.836C4.95982 43.174 5.49315 42.5354 6.05426 41.9216C6.37601 41.5716 6.70653 41.2298 7.04583 40.8969L7.04632 40.8964C10.9805 37.0144 15.9671 34.3795 19.4025 32.7873C23.0753 31.0849 27.0528 29.7336 30.8631 28.8425C34.1547 28.0722 37.3215 27.6442 40.0525 27.6442L40.0579 27.6442L40.8076 27.65L46.7873 21.8039L66.3234 19.7023C64.4933 18.3324 61.0282 16.4541 55.6964 16.3483C54.9905 16.3356 54.2417 16.3698 53.3354 16.4263L45.3658 16.9128L45.7992 15.6322C46.3013 14.1487 47.503 12.9222 49.0147 12.3508C53.7474 10.5622 77.8854 1.68334 80.2371 0.818513L81.0756 0L76.1173 1.26945L76.1845 1.26506L76.185 1.2636Z" transform="translate(48.01801 28.80099)" id="Shape" fill="#41748D" fill-rule="evenodd" stroke="none" />
      <path d="M1.18658 2.69977C1.03302 1.66871 0.879947 0.779512 0.729791 0C0.508461 0.0287579 0.262272 0.0892193 0 0.175493L0.00633773 0.212061L0.0760527 0.662517C0.201334 1.46494 0.481161 3.25504 0.839481 5.67596L1.36208 3.92389C1.30553 3.51585 1.24654 3.10781 1.18609 2.69979L1.18658 2.69977Z" transform="translate(67.94116 111.3338)" id="Shape" fill="#00A3E0" fill-rule="evenodd" stroke="none" />
      <path d="M0.487495 0L0.366185 0.120484L0.149988 0.335783L0 0.487503L0.16325 0.32351L0.366185 0.120467L0.487495 0Z" transform="translate(50.01678 76.37366)" id="Shape" fill="#FFF100" fill-rule="evenodd" stroke="none" />
      <path d="M16.0065 0.00149131C16.0075 0.00115781 16.0085 0.000824352 16.0095 0.000490952L16.009 0C16.009 0 16.0081 0.000489735 16.0065 0.00149131ZM16.0065 0.00149131C10.398 1.86644 9.51599 5.39663 9.51599 5.39663L13.7645 5.13679C14.2342 1.10643 15.9321 0.0461082 16.0065 0.00149131ZM20.9742 43.3519L20.9735 43.3513L21.0049 43.3446C22.0004 43.075 23.283 42.9507 24.2507 42.8586L24.256 42.8605L23.7802 43.0194L20.726 44.3386C20.6866 44.3552 16.3259 46.4081 12.2518 50.932C10.5987 52.768 8.82666 54.813 6.74162 57.1589C5.47362 58.7164 4.00673 60.5558 3.39785 61.3431C3.14483 61.6692 3.08147 61.7677 3.03661 62.0154L3.03368 62.0646C3.01126 62.4468 2.98152 62.867 2.93521 63.2921L1.73791 63.2921C1.77106 62.9372 1.78958 62.6272 1.80031 62.4341C1.81007 62.3181 1.82518 62.2021 1.84516 62.0875C1.9222 61.718 2.03919 61.443 2.33998 61.0262C2.3897 60.957 6.64411 55.5306 10.2063 51.6901C10.3886 51.4927 12.5282 49.1015 14.1862 47.6166C14.4782 47.364 14.7751 47.1179 15.0764 46.877C17.257 45.1445 19.1051 44.1792 19.9338 43.7882L20.1293 43.698L20.3653 43.5947L20.4009 43.5805L20.5803 43.5099L20.6017 43.5006L20.9742 43.3519ZM20.9735 43.3513L20.9727 43.3514L20.9732 43.3509L20.9735 43.3513ZM0.13943 84.8601C0.0692241 84.1718 0.0229111 83.481 0 82.7892L0.000981903 82.7902L0.128704 82.796C0.49287 82.796 0.871171 82.7643 1.25532 82.719C1.54391 88.3379 3.39203 92.0366 3.47588 92.2009L3.98288 93.151L5.82953 96.4797L5.77542 96.4641C4.65758 95.6397 3.59775 94.7812 2.63738 93.8194L2.63055 93.8067C2.63055 93.8067 2.21666 93.0379 1.97876 92.4315C1.56877 91.4336 0.964764 89.7268 0.527475 87.4741C0.36076 86.6088 0.231074 85.7366 0.13943 84.8601Z" transform="translate(75.4458 41.8338)" id="Shape" fill="#41748D" fill-rule="evenodd" stroke="none" />
      <path d="M15.3945 0.65715C15.3867 0.552339 15.3872 0.274951 15.3828 0.000487232L15.3832 0C19.6221 5.74616 22.7201 11.33 24.4332 14.6781C19.0892 14.7132 14.4268 16.0105 10.7296 17.5885C13.1598 14.3125 15.9449 8.541 15.3945 0.65715ZM11.7904 83.3162C11.1157 83.052 2.61852 79.1188 0.405764 67.2404L0.405734 67.2414C-0.0973646 64.3105 -0.0617781 61.5815 0.13371 59.4443C0.167348 58.9987 0.208788 58.577 0.25461 58.1778C0.23494 60.4137 0.586326 62.4323 0.884108 64.143C0.89635 64.2134 0.908502 64.2832 0.920534 64.3525C2.15878 72.1115 4.90487 77.1698 9.68188 80.7573C11.3657 82.0219 13.5409 82.5981 14.8504 82.5981C16.833 82.5864 18.9395 80.6198 20.071 79.5634L20.3299 79.3231C20.3879 79.2685 26.1652 73.8836 27.9982 72.2938C32.6261 68.2812 36.8883 66.2464 40.6679 66.2464C41.7565 66.2464 43.1205 66.5072 44.5094 66.981C44.9813 67.1497 45.4517 67.3213 45.9217 67.4944L46.0967 67.5592C45.129 67.6514 43.8459 67.7757 42.8509 68.0453L42.8183 68.0531C42.8153 68.0511 41.6995 67.41 39.6485 67.6821C38.265 67.8537 36.3296 68.406 33.8873 69.8315C33.7435 69.9153 33.5982 70.0021 33.451 70.0923C32.4691 70.6968 31.5224 71.3578 30.6157 72.0701C30.0867 72.4844 29.568 72.9115 29.06 73.3522L28.3814 73.9406L24.7423 77.102L19.9228 81.3599C19.1224 82.0687 18.2648 82.7448 17.4678 83.2411C16.9311 83.6321 14.7763 84.5793 11.7904 83.3162Z" transform="translate(53.60071 17.13168)" id="Shape" fill="#00A3E0" fill-rule="evenodd" stroke="none" />
      <path d="M36.7419 8.04118L36.8682 8.03143C37.2948 7.99926 37.7223 7.97732 38.1391 7.96757L38.2337 7.96513L38.241 7.87105C38.3853 6.04779 37.6969 4.84075 37.2358 4.25038C38.3814 2.77277 38.32 1.0202 38.1791 0.0983465L38.1659 0.0115746L38.0782 0.00913468C37.6487 -0.00304985 37.2197 -0.00304985 36.7902 0.00913468L36.6659 0.0120581L36.6907 0.133933C36.7975 0.662874 37.0427 2.48466 35.7279 3.7234L35.1829 4.22894L35.0917 4.31328L35.1902 4.38884L35.7801 4.84124C35.8283 4.87975 36.9866 5.8294 36.7565 7.91444L36.7424 8.03973L36.7419 8.04118ZM34.5355 8.24982C34.1512 8.30946 33.1707 8.44594 33.1442 8.44962L33.1481 8.34586C33.2343 6.12871 31.9561 5.48473 31.9439 5.47888L31.1932 5.12788L31.0689 5.06986L31.1576 4.96554L31.6938 4.33373C33.0476 2.7401 32.6298 0.705275 32.5777 0.478098L32.5523 0.369382L32.663 0.351834C33.0969 0.281636 33.5205 0.220207 33.9217 0.169996L34.0182 0.157812L34.0377 0.252878C34.1533 0.826175 34.436 2.81957 33.2816 4.65598C33.9115 5.24682 34.6271 6.3203 34.6237 8.14696L34.6237 8.23617L34.5355 8.24982ZM33.1442 8.44962L33.1437 8.4497L33.1442 8.45068L33.1442 8.44962ZM41.8202 0.460061L41.8309 0.531234L41.8319 0.529776C41.9382 1.21813 42.0435 2.94973 40.7745 4.304C41.164 4.99284 41.7378 6.34272 41.5345 8.06799L41.5219 8.17572L41.4146 8.15915C41.0085 8.09577 40.5883 8.04751 40.1661 8.01485L40.0579 8.00607L40.0706 7.89784C40.2968 5.97124 39.256 4.66231 39.2457 4.64963L38.8323 4.14604L38.7641 4.06317L38.8494 3.99736L39.3652 3.59907C40.7604 2.52218 40.4167 0.826169 40.2787 0.332331L40.2358 0.178284L40.3938 0.200712C40.8491 0.265064 41.3015 0.345989 41.7505 0.444462L41.8202 0.460061ZM29.8101 9.13611L29.8223 9.25896L29.9408 9.22825C30.3571 9.11953 30.7724 9.01569 31.1751 8.91917L31.2663 8.89723L31.2546 8.80461C31.0337 7.03791 30.1792 5.92739 29.6497 5.39455C30.671 3.55667 30.3435 1.67151 30.1524 0.93928L30.1265 0.841291L30.028 0.863718C29.6332 0.952447 29.2183 1.05189 28.7952 1.15768L28.6918 1.18351L28.7191 1.28589C28.8556 1.79241 29.2139 3.56496 28.0907 5.1001L27.6968 5.6383L27.6315 5.72703L27.7236 5.78699L28.2818 6.15164C28.2955 6.16042 29.6083 7.054 29.8086 9.13611L29.8101 9.13611ZM42.5051 8.37316L42.6187 8.40143C43.0375 8.50576 43.4416 8.62909 43.8199 8.76706L43.9189 8.80314L43.9545 8.70417C44.4244 7.38987 44.4347 5.95516 43.9842 4.63403C44.4542 4.0427 45.0411 3.10279 44.9436 1.68271L44.9363 1.59057L44.9339 1.55986L44.9285 1.49795L44.871 1.4726C44.4381 1.28345 43.9862 1.11136 43.5269 0.962668L43.3641 0.910017L43.3909 1.07918C43.4309 1.33024 43.4587 1.57497 43.4738 1.80604C43.525 2.58848 43.1847 3.45428 42.6465 3.91205L42.2702 4.23623L42.2082 4.28936L42.2443 4.362L42.4656 4.80514C42.4978 4.86949 43.2393 6.39098 42.5441 8.26395L42.5042 8.37364L42.5051 8.37316ZM26.4474 10.2437L26.4371 10.1126L26.4376 10.1126C26.2646 7.92761 24.9425 7.2534 24.8893 7.22659L24.24 6.92434L24.1318 6.87413L24.1961 6.77321L24.5817 6.16969C25.6635 4.44247 24.9746 2.41301 24.9673 2.39303L24.9327 2.29504L25.0302 2.25993L26.3323 1.82996L26.365 1.92502C26.4444 2.15951 27.1108 4.25235 26.1661 6.32812C26.7355 6.80684 27.6525 7.84815 27.8767 9.71332L27.8869 9.80107L27.8026 9.82642C27.3946 9.9478 26.9841 10.0741 26.5726 10.2042L26.4474 10.2437ZM44.9904 9.27799L44.8992 9.23072L44.946 9.13857C45.8128 7.42648 45.3107 5.87525 45.2887 5.81041L45.1172 5.30243L45.0889 5.21859L45.1664 5.17666L45.6393 4.9217C46.0941 4.67893 46.3739 4.35279 46.4943 3.92476C46.6001 3.54597 46.5899 3.08968 46.4622 2.56805L46.3993 2.31016L46.6211 2.45495C47.1003 2.76792 47.559 3.11112 47.9953 3.48211L48.0348 3.51525L48.0324 3.56693C48.0192 3.83116 47.9797 4.08368 47.9149 4.31622C47.7404 4.95387 47.3562 5.5145 46.8248 5.9084C47.072 7.26413 46.858 8.66423 46.2184 9.88493L46.1633 9.98974L46.0658 9.92198C45.7275 9.687 45.3658 9.47055 44.9904 9.27799ZM23.0422 11.2207L23.0549 11.3245L23.1587 11.3113C23.1587 11.3113 24.0528 11.0393 24.4004 10.9204L24.4832 10.8916L24.4696 10.8043C24.1746 8.94208 23.2245 7.90517 22.6434 7.43083C23.4219 5.31996 22.6536 3.27587 22.6205 3.18909L22.5825 3.09159L22.485 3.12962L21.3042 3.58348L21.2067 3.62054L21.2438 3.71803C21.2511 3.73705 21.958 5.6383 21.0683 7.35527L20.768 7.93491L20.7183 8.03046L20.8158 8.07677L21.4052 8.35806C21.4188 8.36586 22.7731 9.05664 23.0422 11.2202L23.0422 11.2207ZM19.6672 12.6198L19.6497 12.5164L19.6497 12.5159C19.2816 10.3895 17.9483 9.63384 17.8922 9.60362L17.3872 9.33598L17.3028 9.29113L17.3394 9.2029L17.5583 8.67689C18.2471 6.9799 17.53 5.18638 17.5227 5.16884L17.4832 5.07182L17.5802 5.03234L18.7502 4.55167L18.8472 4.51218L18.8872 4.6092C18.9204 4.6911 19.695 6.61526 19.1163 8.673C19.7004 9.15368 20.6739 10.1984 21.0547 12.0309L21.0732 12.1186L19.6672 12.6198ZM49.667 5.163L49.5763 5.05819L49.4325 4.89147L49.394 5.10792C49.3769 5.20493 49.3525 5.29999 49.3213 5.39262C49.1551 5.87768 48.7909 6.23941 48.2084 6.49925L47.7584 6.70058L47.677 6.73666L47.6999 6.82246L47.8262 7.29875C47.8301 7.31386 48.2133 8.88799 47.0282 10.5679L46.9755 10.643L47.0428 10.7054C47.3192 10.9608 47.5898 11.2456 47.8457 11.5507L47.93 11.6511L48.009 11.5468C49.2429 9.92247 49.3135 8.33029 49.236 7.49228C50.1881 6.67766 50.2281 6.2745 50.2544 6.00589L50.2603 5.95471L50.2647 5.91425L50.2408 5.8811C50.0633 5.63101 49.8717 5.39116 49.667 5.16253L49.667 5.163ZM16.2591 13.8561L16.282 13.958L17.6738 13.4383L17.6514 13.3496C17.1907 11.5175 16.1836 10.4489 15.5908 9.95461C15.9691 7.9544 15.1866 6.14577 15.153 6.06923L15.1106 5.97368L15.015 6.0161L13.8577 6.52603L13.7626 6.56795L13.8041 6.6635C13.8114 6.68057 14.5368 8.38535 14.0541 10.0536L13.9167 10.5274L13.8942 10.6059L13.9649 10.6474L14.3915 10.8955C14.4051 10.9043 15.7838 11.7379 16.2601 13.8556L16.2591 13.8561ZM51.1743 7.25826L51.2548 7.38891C51.4532 7.7131 51.5443 7.86033 51.7593 8.28152L51.773 8.30833L51.77 8.33807C51.6993 9.11613 51.4098 9.65237 50.8867 9.97315C50.9632 10.7268 50.8306 12.1225 49.255 13.47L49.1546 13.5558L49.0937 13.4388C48.9294 13.1214 48.749 12.8114 48.5589 12.5179L48.5106 12.4438L48.5755 12.3843C49.9031 11.1574 49.6589 10.1573 49.5916 9.88159C49.5866 9.86107 49.5825 9.84455 49.5802 9.83226C49.5466 9.6553 49.3867 9.31697 49.3867 9.31697L49.3481 9.21459L49.9755 9.00935C50.7858 8.66225 50.8838 8.24885 50.9808 7.30261L51.0125 6.99403L51.1743 7.25826ZM12.8856 15.401L12.8529 15.2879L12.8525 15.2884C12.2606 13.2423 10.8971 12.3419 10.883 12.3322L10.5295 12.1069L10.471 12.0699L10.4827 12.0016L10.5524 11.5882C10.8305 9.93995 10.1013 8.34559 10.0851 8.31027L10.0849 8.30979L10.0406 8.21571L10.1346 8.17086L11.2764 7.62681L11.3705 7.58197L11.4158 7.67654C11.4504 7.7482 12.2421 9.43398 12.0646 11.385C12.6531 11.8827 13.6739 12.9547 14.2262 14.7404L14.2545 14.8316L14.1663 14.8681L12.8856 15.401ZM9.25131 16.7392L9.283 16.8537L10.6626 16.279L10.6368 16.1897C10.0913 14.2938 9.01827 13.1321 8.54344 12.6914C8.61608 10.9462 8.03158 9.46809 7.91262 9.18729L7.87118 9.09027L7.77417 9.1322L6.5091 9.70744L6.54957 9.79812C6.5564 9.81324 7.22232 11.3196 7.05852 12.9995L7.02634 13.3496L7.02099 13.4081L7.06779 13.4432L7.33591 13.6445C7.34908 13.6538 8.68386 14.6843 9.25033 16.7396L9.25131 16.7392ZM52.4862 9.77718L52.3731 9.53002L52.2079 9.16488L52.1732 9.56366C52.1191 10.1886 51.948 10.9569 51.4381 11.0695L51.0037 11.1651L50.917 11.1841L50.9213 11.2723L50.9433 11.7169C50.9438 11.7291 50.975 13.0488 49.6095 14.4006L49.5603 14.4494L49.5861 14.5142C49.7202 14.8477 49.8479 15.2089 49.9659 15.5882L50.0136 15.7408L50.1345 15.6364C51.6745 14.3051 52.0762 12.8918 52.1762 12.1338C52.4979 11.949 52.8489 11.4722 52.8489 10.6791L52.8489 10.6601L52.8421 10.6425C52.7378 10.3485 52.6183 10.0595 52.4857 9.7772L52.4862 9.77718ZM5.80122 18.0998C5.2133 16.0986 3.9731 15.0271 3.96092 15.0168L3.96142 15.0173L3.75814 14.8447L3.71962 14.8126L3.7206 14.7628L3.72694 14.4791C3.7479 13.49 3.47977 12.1757 3.25113 11.247L3.22919 11.1597L3.31158 11.1251L4.51667 10.6196L4.62977 10.5718L4.65902 10.6903C4.88864 11.6102 5.16553 12.9357 5.19283 14.056C5.63792 14.5049 6.6602 15.6866 7.20913 17.5518L7.23593 17.643L5.83388 18.2104L5.80122 18.0998ZM51.8642 13.7079L52.3263 13.7137C52.4453 13.7123 52.6237 13.6377 52.7149 13.5334C52.9269 13.2891 53.0815 12.7987 53.1624 12.1142L53.2121 11.6901L53.3642 12.0889C53.7557 13.117 53.6109 13.799 53.4208 14.19C53.2784 14.482 53.078 14.6741 52.9284 14.7487C52.7631 15.4512 52.2459 16.7206 50.6259 17.7127L50.4958 17.7922L50.4685 17.642C50.409 17.3173 50.3402 16.9931 50.2583 16.6509L50.2418 16.5822L50.2998 16.5417C51.7628 15.5087 51.8178 14.4245 51.8432 14.2397L51.8607 13.7898L51.8642 13.7079ZM1.77158 15.0432C1.67407 13.1741 1.42447 12.0431 1.42203 12.0328L1.39473 11.9178L1.28408 11.9597L0.0867794 12.4097L0 12.4423L0.021944 12.5325C0.023893 12.5413 0.24619 13.7893 0.300314 15.459L0.307142 15.6525L0.308124 15.6876L0.330068 15.7149L0.445606 15.8583C0.458281 15.8739 1.6663 17.3841 2.27763 19.5116L2.30932 19.6218L3.73379 19.0733L3.70747 18.9812C3.13418 16.9893 2.10458 15.4936 1.7721 15.0437L1.77158 15.0432ZM53.3589 16.7041L53.3457 16.7197L53.3457 16.7201C53.176 16.9195 53.0205 17.0458 52.945 17.1019C52.9303 17.9443 52.4721 18.7676 51.617 19.4877C51.3864 19.6822 51.129 19.8674 50.8526 20.0371L50.664 20.1536L50.6942 19.9342C50.7386 19.614 50.7663 19.3536 50.7819 19.1152L50.7854 19.0626L50.8302 19.0338C52.3741 18.0515 52.1655 16.59 52.1557 16.5281L52.1372 16.4086L52.2581 16.4067C52.321 16.4057 52.3829 16.3965 52.4428 16.3799C52.8211 16.2834 53.1273 15.8997 53.3784 15.206L53.6753 14.385C53.6753 14.385 53.5617 15.4785 53.5548 15.5887C53.5358 15.8987 53.5163 16.22 53.3652 16.6846L53.3589 16.7041ZM52.2347 20.9312L52.2634 20.9112L52.2742 20.878C52.4838 20.2199 52.6564 19.5925 52.8255 18.9568L53.1015 17.9642L52.6846 18.8554C52.3843 19.4482 51.7423 20.4778 51.0452 20.7259L50.9759 20.7508L50.9759 20.8249C50.9759 20.8463 50.9696 21.3514 50.486 21.7429C50.4217 21.7945 50.3646 21.835 50.3046 21.8706L50.2691 21.892L50.2574 21.932C50.154 22.2898 50.0409 22.6442 49.9171 22.9952L49.8235 23.2619L50.0682 23.1205C50.6581 22.7793 51.6473 22.0885 51.7477 21.2461C51.8315 21.1978 52.0138 21.0881 52.2342 20.9317L52.2347 20.9312ZM50.9155 24.5689L50.9003 24.604L50.9009 24.604L50.8672 24.6216C50.136 24.9965 49.2239 25.3372 49.1224 25.3752L48.8802 25.4654L48.9918 25.2319C49.161 24.8794 49.3243 24.5133 49.491 24.1116L49.5081 24.0702L49.55 24.0541C50.8068 23.5681 51.4415 22.8617 51.7101 22.3844C51.4668 23.0737 51.1446 24.0229 50.9155 24.5689ZM49.4661 27.5729L49.4507 27.5989L49.4242 27.6119C48.8217 27.9151 48.1957 28.1691 47.5522 28.3714L47.2973 28.4504L47.4308 28.2188C47.6453 27.8551 47.8359 27.4778 48.0022 27.0893L48.0621 26.9328L48.1284 26.8943L50.2101 25.6931L50.2105 25.6926L50.484 25.5317L50.3602 25.8242C50.1028 26.4272 49.8045 27.0113 49.4661 27.5729ZM49.4507 27.5989L49.4505 27.5992L49.451 27.5987L49.4507 27.5989ZM47.0326 30.7372L47.0121 30.7592L47.0121 30.7606L46.9828 30.7679C46.5324 30.8884 46.0751 30.981 45.613 31.0458L45.34 31.0829L45.5194 30.8742C45.942 30.3833 46.3403 29.8724 46.7123 29.342L46.7362 29.3074L46.7781 29.2986C47.2905 29.1962 47.8311 29.0412 48.3844 28.8365L48.7178 28.7131L48.5048 28.9973C48.0641 29.5848 47.5688 30.1698 47.0326 30.7372ZM44.0076 33.437L44.0364 33.4336L44.0593 33.4161C44.6701 32.9407 45.262 32.4416 45.8328 31.9189L46.0795 31.6927L45.748 31.7386C45.3795 31.7898 45.028 31.8166 44.7028 31.819L44.6594 31.8195L44.6292 31.8512C44.1271 32.3689 43.6025 32.8647 43.058 33.3366L42.8245 33.5389L43.1321 33.5199C43.4026 33.5023 43.6971 33.4746 44.0076 33.4375L44.0076 33.437ZM42.5149 34.2462C42.335 34.2462 42.1664 34.2409 42.0133 34.2301L41.9733 34.2272L41.9416 34.2521L41.9017 34.2828L41.8661 34.3101C40.3158 35.5118 37.7014 37.121 35.7016 38.1526C36.3744 37.881 39.744 36.4785 42.6729 34.4359L42.9508 34.2414L42.6115 34.2448L42.5144 34.2458L42.5149 34.2462Z" transform="translate(55.95453 60.62805)" id="Shape" fill="#EF3340" fill-rule="evenodd" stroke="none" />
      <path d="M15.2249 70.1542C19.4193 53.4934 42.794 45.8308 54.9615 45.9171L54.9849 45.9171L55.0107 45.8918L60.5629 40.4932L78.1412 38.6119C78.1407 38.6115 77.3441 37.9655 75.3137 37.4839L75.1786 37.4551C74.4128 37.283 73.6376 37.1607 72.8562 37.087L72.5164 37.0612C72.2941 37.0427 72.0752 37.0227 71.8373 37.01L71.7793 37.0081C70.5635 36.9486 69.3457 36.9593 68.1313 37.0398L58.7728 37.6077L58.394 37.6306C58.394 37.6306 58.2746 32.9404 63.2602 31.0562C68.2449 29.1715 90.9015 20.8777 90.9059 20.8762L68.339 24.94L64.577 25.6176L63.4723 25.8165C59.6054 25.6752 56.484 26.1656 56.484 26.1656C55.702 25.7741 54.1698 25.0097 51.1234 24.3102C50.575 24.1839 49.9827 24.0601 49.3314 23.9411C47.7187 20.5198 45.9135 17.1922 43.926 13.9747C43.751 13.6919 43.5652 13.4019 43.3844 13.1157C43.2352 12.8788 43.0914 12.6462 42.9378 12.4074C41.8229 10.6723 40.6524 8.97341 39.4283 7.31445C37.9414 5.29717 36.3707 3.3423 34.7186 1.45762C34.291 0.970611 33.8547 0.484573 33.4096 0C32.7149 2.05384 32.5438 3.89561 32.5038 5.73446C32.4917 6.28582 32.4917 6.83719 32.4931 7.39391L32.4941 7.9521C32.5063 11.3188 32.2908 15.0667 30.5885 19.0144C30.3925 19.3732 30.1678 20.0557 28.8008 22.0618C28.444 22.5844 28.0466 23.0787 27.6128 23.5394C24.9783 26.3445 22.7987 27.5213 21.4907 28.3067C20.4646 28.9131 19.453 29.543 18.4561 30.1957L18.4531 30.1987L18.4039 30.2308L18.3937 30.2377C14.7662 32.5026 11.7256 35.1102 9.22963 37.9563C7.48438 39.9404 5.95997 42.1088 4.6832 44.4225L4.7612 44.4025C6.94911 43.8706 9.01513 43.4567 11.0968 43.1067C12.061 41.8061 13.1194 40.5785 14.265 39.4344C15.2103 38.5276 16.2072 37.6769 17.2529 36.8877C23.8054 31.941 32.946 29.2763 42.8145 28.9692L43.4892 28.9551C31.8911 30.4302 21.4483 34.8816 14.5278 42.5948C22.8889 41.5072 29.941 41.7475 34.1394 42.3404C31.1471 43.4401 28.1105 44.8261 25.2152 46.5021C23.4398 47.5264 21.7311 48.6637 20.0999 49.9054C16.6913 49.5846 13.271 49.3994 9.84727 49.3511C6.84622 55.1275 5.39397 62.1519 6.03356 70.4915C5.43735 68.172 5.08197 65.7969 4.97325 63.4043C4.75388 58.4527 5.6031 53.7245 7.49606 49.3355C5.71815 49.3394 4.02068 49.3784 2.41143 49.4403C1.9449 50.7254 1.55246 52.0362 1.23607 53.3666C1.02645 54.2563 0.850462 55.1533 0.708599 56.0557C-0.126487 60.7469 -1.26041 71.8175 4.13572 81.3657C4.99958 82.8901 6.00821 84.3282 7.1475 85.6596C7.45121 85.4627 7.76077 85.2745 8.07813 85.0927L8.07911 85.0922C9.22473 84.4555 10.4435 83.9582 11.7076 83.6136C12.9054 83.2933 13.1749 83.2606 13.1857 83.2592L13.5464 83.2187C14.8329 82.9101 16.1521 82.7526 17.4752 82.7497C19.7577 82.7536 20.7429 82.8809 20.7429 82.8809C19.8249 83.6316 19.3603 83.9889 18.477 84.7992C16.6947 86.3445 15.3224 88.5125 14.38 91.4063C15.4213 92.0317 16.4909 92.6094 17.5854 93.1374C17.1871 91.7509 17.718 90.2558 18.9006 89.4309L18.9684 89.369C19.1434 89.1218 19.3472 88.8932 19.5851 88.6943C20.2188 88.1649 21.0193 87.8743 21.8451 87.8733C23.779 87.8758 25.3693 89.466 25.3717 91.3999C25.3712 92.783 24.5551 94.0431 23.2935 94.6101L23.1121 94.7451C22.9357 94.9031 22.7431 95.0425 22.5374 95.1605C25.1582 96.0439 28.1129 96.7668 31.4201 97.2104L31.5283 97.1407C32.0329 96.836 32.5472 96.5728 33.0586 96.3583C35.46 95.3501 37.8546 95.3175 39.8017 96.2676C40.0386 96.3826 40.2712 96.5157 40.4944 96.662C41.0322 96.2008 41.6981 95.9376 42.3396 95.9366L43.8855 95.9366C43.9186 95.5817 43.9372 95.2716 43.9479 95.0786C43.9571 94.9621 43.9718 94.8465 43.9927 94.732C44.0698 94.3624 44.1863 94.087 44.4876 93.6707C44.5373 93.6014 48.7922 88.1746 52.3539 84.3346C52.5362 84.1381 54.6758 81.7469 56.3338 80.261C56.6536 79.9743 56.9573 79.7184 57.224 79.5215C59.405 77.7889 61.2527 76.8236 62.0814 76.4327L62.2769 76.3425L62.5129 76.2391L62.5484 76.225L62.7488 76.1455L63.1213 75.9968L63.1208 75.9964L63.1203 75.9959C63.1174 75.9939 62.0015 75.3528 59.9506 75.6249C58.5665 75.7965 56.6316 76.3493 54.1893 77.7743C54.0455 77.8581 53.8997 77.9449 53.753 78.0351C52.7711 78.6405 51.8244 79.3006 50.9177 80.0129C50.3887 80.4272 49.87 80.8543 49.3621 81.295L48.6835 81.8834C48.0268 82.4533 45.4401 84.7007 45.0443 85.0448L40.2248 89.3027C39.4244 90.0105 38.5669 90.6872 37.7698 91.1839C37.2326 91.5744 35.0783 92.5221 32.0924 91.259C31.4177 90.9953 22.9205 87.0616 20.7078 75.1832C20.2047 72.2518 20.2403 69.5233 20.4343 67.3871C20.4679 66.941 20.5094 66.5198 20.5552 66.1206C20.7049 64.8082 20.9033 63.7601 21.0481 63.0878C20.4752 63.6957 19.9327 64.3319 19.4232 64.9939C18.7636 65.8583 18.1684 66.7694 17.6424 67.721L17.4328 68.1047C16.0063 70.824 15.105 73.788 14.7774 76.8412C14.5789 75.0808 14.6506 73.6963 14.7189 72.9734C14.7496 72.6453 14.7803 72.4542 14.7842 72.4249C14.8792 71.682 15.0221 70.9239 15.2244 70.1517L15.2249 70.1542ZM31.0336 25.5328C33.4637 22.2568 36.2488 16.4848 35.6985 8.60145C35.6911 8.49664 35.6916 8.21925 35.6868 7.94479C39.9256 13.6905 43.0236 19.2743 44.7372 22.6229C39.3918 22.658 34.7298 23.9562 31.0331 25.5333L31.0336 25.5328ZM58.156 32.6489C58.1577 32.6479 58.1586 32.6474 58.1586 32.6474L58.159 32.6479L58.1561 32.6489L58.156 32.6489ZM58.1561 32.6489C58.0816 32.6935 56.3837 33.7535 55.9141 37.7842L51.6655 38.044C51.666 38.044 52.5481 34.5133 58.156 32.6489L58.1561 32.6489ZM36.9596 102.882L36.0075 106.071C35.9476 105.646 35.889 105.235 35.831 104.847C35.6779 103.816 35.5244 102.926 35.3742 102.147C35.8973 102.08 36.3039 102.156 36.5706 102.307C36.8109 102.443 36.9479 102.647 36.9596 102.882ZM44.1273 125.077C44.3652 125.685 44.7791 126.453 44.7791 126.453L44.7795 126.452L44.7864 126.464C40.3067 125.768 38.2768 119.409 37.1087 113.183L37.2565 113.091C37.7215 113.662 38.2865 114.142 38.9247 114.51C39.8173 115.029 40.92 115.41 42.1485 115.435C42.1987 117.008 42.3747 118.575 42.676 120.12C43.1133 122.373 43.7173 124.079 44.1273 125.077Z" transform="translate(33.29718 9.18692)" id="Shape" fill="#000000" fill-rule="evenodd" stroke="none" />
      <path d="M73.1532 2.06164C73.1551 3.99556 74.7463 5.58578 76.6802 5.58773L76.6803 5.58724C77.1546 5.5882 77.6245 5.49217 78.0609 5.30546L78.0847 5.29278L77.9287 5.40978C77.3082 5.9665 76.5033 6.27412 75.6702 6.27412L75.6692 6.27412C73.8045 6.27365 72.2708 4.73997 72.2708 2.87528L72.2708 2.87479C72.2708 1.76866 72.8119 0.729301 73.7182 0.0950661L73.825 0C73.394 0.595725 73.1532 1.31187 73.1532 2.06164ZM10.8316 5.27477L10.7644 5.30939C10.3285 5.49415 9.86005 5.58921 9.38668 5.58921C7.4518 5.58921 5.85913 3.99948 5.8562 2.06411C5.8562 1.32701 6.08972 0.622087 6.50653 0.033183L6.43876 0.095095C5.5325 0.72933 4.99235 1.76869 4.99235 2.87482C4.99235 3.19657 5.04013 3.50661 5.12349 3.80156C5.53689 5.25918 6.87654 6.27318 8.39169 6.27415C9.22482 6.27415 10.0297 5.96653 10.6503 5.40981L10.8316 5.27477ZM68.891 16.3069L71.1905 8.69309C71.2154 8.61218 71.2436 8.53319 71.2758 8.45519L71.2963 8.40888L71.384 8.22557L71.4157 8.16757L71.5108 8.00816L71.5454 7.95501C71.8272 7.54015 72.2035 7.19745 72.6437 6.95612C71.7575 7.11407 71.1456 7.50992 70.7191 7.97012C70.0907 8.57413 69.8689 9.36193 69.7241 9.84211L67.4241 17.4559C67.2705 17.959 66.9614 18.4616 66.5359 18.9316L66.589 18.9052C67.7137 18.2695 68.5956 17.2741 68.8915 16.3074L68.891 16.3069ZM38.937 8.69214L36.5614 16.4624C36.1655 17.646 35.2149 18.7609 34.082 19.3718L33.9318 19.443C34.4378 18.8911 34.8356 18.253 35.0511 17.6095L37.4725 9.83823C37.6631 9.20888 38.2832 8.23874 39.2183 7.68495C39.403 7.56211 39.5995 7.45779 39.8047 7.3749C39.6171 7.54163 39.4489 7.73078 39.305 7.937L39.2563 8.01012L39.1622 8.16807L39.1286 8.22901L39.0433 8.40842L39.0213 8.45717C38.9882 8.53907 38.9604 8.61609 38.937 8.69214ZM7.99245 24.8328L8.02511 24.8333L8.02413 24.8328C9.68553 24.8328 11.4084 24.4019 13.0108 23.5887C12.3448 24.1757 11.6867 24.6242 11.0008 24.9527C9.88248 25.5475 8.69493 25.8098 7.249 25.8098C5.36774 25.8098 2.71672 24.7933 1.28883 22.8501C-0.0103546 21.0839 -0.343807 18.8365 0.363557 16.5224L2.40521 9.84217C2.53489 9.41464 2.80203 8.91592 3.252 8.46206C3.67222 8.0116 4.17776 7.64842 4.73936 7.39589C4.55459 7.55871 4.39128 7.74347 4.25381 7.94773L4.21675 8.00379L4.11926 8.1671L4.08708 8.22511L3.99835 8.41085L3.97837 8.45521C3.94278 8.5415 3.91499 8.6195 3.89305 8.69214L1.4653 16.6384C0.836916 18.6903 1.11821 20.6724 2.25457 22.2188C3.46406 23.8641 5.55544 24.8172 7.99245 24.8328ZM11.8354 18.1935C12.1981 17.9327 12.5281 17.629 12.8192 17.2892C13.0059 15.4854 13.6888 13.6422 14.794 11.9554C15.7763 10.4525 17.0467 9.15963 18.5317 8.15099C17.9033 8.50589 17.3061 8.91295 16.7469 9.36829C15.0953 10.628 13.9258 12.1578 13.0629 13.7129C12.2244 15.2222 11.6862 16.8456 11.4926 18.4241C11.6092 18.3514 11.7237 18.2749 11.8358 18.1935L11.8354 18.1935ZM44.651 24.4296L47.923 13.6719C48.1419 12.9641 48.1049 12.3893 47.8241 12.1329C47.5365 11.8706 46.9524 11.8653 46.3357 12.1207C45.9906 12.267 45.6664 12.4576 45.3705 12.6882L45.1872 12.8383C45.7332 12.6243 46.2416 12.6229 46.4976 12.8632C46.7555 13.105 46.791 13.6432 46.5926 14.3028L43.2011 25.5133L50.0861 25.5133L51.4213 24.4233L44.6514 24.4296L44.651 24.4296ZM24.1063 12.9709C23.8397 12.8203 23.4326 12.7437 22.91 12.811L22.9105 12.812C22.6623 12.8476 22.4181 12.9066 22.1807 12.9885C21.9087 13.0772 21.6176 13.2015 21.3071 13.3643L21.3602 13.3097C21.4758 13.2034 21.5801 13.1137 21.7 13.0172C21.8102 12.9275 21.9233 12.8422 22.0388 12.7603C22.7866 12.2328 23.5549 11.9423 24.2028 11.9423C24.3622 11.9413 24.5212 11.9608 24.6752 12.0003C25.2865 12.1621 25.6181 12.617 25.6868 13.3906L24.6601 16.7602C24.2877 17.3486 23.8362 17.8834 23.318 18.349C23.2069 18.4484 23.0928 18.5381 22.9787 18.6274L23.0207 18.4874L23.5433 16.7354L24.4953 13.5462C24.4846 13.3107 24.3471 13.1074 24.1063 12.9709ZM70.8868 23.9601C72.0519 24.7533 73.5266 25.1784 75.1514 25.1891L75.1514 25.1877L75.1514 25.1867L79.7305 25.1867L78.6214 26.2363L74.3972 26.2363C72.4336 26.2226 70.5645 25.4753 69.239 24.1805C66.8693 25.4558 64.6677 26.1022 62.6943 26.1022C61.401 26.1022 60.2534 25.8219 59.2842 25.27C58.2327 24.6714 57.7686 24.1191 57.3835 23.6057C56.0224 21.7917 55.7104 19.325 56.504 16.6603L57.2226 14.3008C57.421 13.6417 57.3854 13.1035 57.1276 12.8617C56.8677 12.6179 56.3407 12.6116 55.7855 12.8476L55.6329 12.9158L55.7021 12.8495C56.0312 12.5721 56.3793 12.3533 56.7088 12.2168C57.4059 11.9291 58.1162 11.9369 58.437 12.2363C58.729 12.5093 58.7422 13.1259 58.4721 13.9318L57.6214 16.6584C56.9082 19.053 57.1739 21.2545 58.3683 22.8569C59.5007 24.3755 61.3566 25.2125 63.5943 25.2125C65.8319 25.2125 68.0593 24.5402 70.0439 23.2679C70.3033 23.5238 70.5855 23.7554 70.8868 23.9601ZM19.5179 25.3817C21.0496 25.3812 22.6659 24.9365 24.2065 24.1025L24.0829 24.1961L23.861 24.3458C22.146 25.5289 20.3364 26.1354 18.4766 26.1354L18.4747 26.1354C17.176 26.1354 15.9928 25.8243 14.9573 25.2111C14.2363 24.783 13.6113 24.2112 13.1199 23.5316C13.2955 23.4409 13.4685 23.3464 13.6391 23.2479C13.838 23.1314 14.0311 23.0124 14.2139 22.892C14.696 23.5194 15.2937 24.0484 15.9752 24.4501C17.017 25.0682 18.2094 25.3817 19.5179 25.3817ZM24.2065 24.1025L24.2111 24.0991L24.2111 24.1001L24.2065 24.1025ZM27.1229 24.3072C29.0319 25.3807 31.5499 25.4221 34.4042 24.4276L34.4037 24.4281L40.9123 24.4223L39.4732 25.5123L33.281 25.5123C32.519 25.759 31.7351 25.9311 30.94 26.0276C30.5563 26.0729 30.178 26.1046 29.8134 26.1046L29.6852 26.1002C28.4571 26.0749 27.3544 25.6942 26.4613 25.175C25.8237 24.8074 25.2586 24.3267 24.7931 23.7563C24.9335 23.6691 25.0719 23.5911 25.2133 23.496C25.3713 23.3897 25.5273 23.2805 25.6803 23.1674C26.0981 23.6208 26.5852 24.0059 27.1229 24.3072Z" transform="translate(45.76056 98.52325)" id="Shape" fill="#EF3340" fill-rule="evenodd" stroke="none" />
      <path d="M79.0684 3.52706C79.0664 1.59315 77.4757 0.00194893 75.5418 0C74.716 0.000490951 73.916 0.291528 73.2818 0.821436C73.0575 1.01059 72.8576 1.22704 72.686 1.46542C72.2502 2.06456 72.0152 2.78654 72.0143 3.52706C72.0172 5.46146 73.6099 7.05217 75.5443 7.05217C76.0176 7.05217 76.4866 6.95661 76.9219 6.77185L76.9458 6.75917C78.2309 6.20147 79.0669 4.92812 79.0674 3.52705L79.0684 3.52706ZM4.7183 3.52999C4.72074 5.46488 6.3134 7.05559 8.24829 7.05559C8.72165 7.05559 9.19063 6.96052 9.62694 6.77527L9.69422 6.74065C10.9559 6.17369 11.7719 4.91351 11.7724 3.53047C11.77 1.59656 10.1798 0.00632796 8.24586 0.00389552C7.42003 0.00486998 6.62004 0.295424 5.98581 0.824848C5.75181 1.0218 5.54462 1.24897 5.36912 1.49955C4.94743 2.09283 4.71977 2.80215 4.71879 3.53047L4.7183 3.52999ZM73.1004 3.52657C73.1004 4.87255 74.1953 5.96797 75.5418 5.96797C76.8873 5.96797 77.9827 4.87304 77.9827 3.52657C77.9827 2.18058 76.8878 1.08517 75.5418 1.08517C74.1958 1.08517 73.1004 2.1801 73.1004 3.52657ZM10.6858 3.52998C10.6843 2.19179 9.58307 1.09102 8.24487 1.08907C6.9062 1.09053 5.80542 2.19131 5.80348 3.52998C5.80348 4.87596 6.89889 5.97138 8.24487 5.97138C9.59037 5.97138 10.6858 4.87645 10.6858 3.52998ZM28.7399 8.06765C28.0993 8.06864 27.4324 8.33187 26.8947 8.79306C26.6724 8.64681 26.4408 8.51518 26.2019 8.39867C24.2549 7.44853 21.8603 7.48071 19.4588 8.48935C18.9474 8.70385 18.4326 8.96758 17.9286 9.27179L17.8204 9.34151C17.6765 9.43024 17.5342 9.52139 17.3938 9.61597C15.9089 10.6246 14.6384 11.9179 13.6561 13.4204C12.5505 15.1067 11.868 16.9499 11.6813 18.7542C11.2991 19.1973 10.8516 19.58 10.3543 19.8891C9.57187 20.3756 8.72021 20.65 7.96702 20.65C7.44735 20.65 7.05393 20.5062 6.86088 20.2444C6.67612 19.9958 6.65077 19.6117 6.78825 19.1617L10.1574 8.06814L5.51344 8.06864C4.83825 8.06913 4.14356 8.366 3.60146 8.86033C3.4167 9.02316 3.25339 9.2084 3.11591 9.41218L3.07886 9.46824L2.98136 9.63154L2.94919 9.68955L2.86046 9.87529L2.84047 9.91966C2.80489 10.0055 2.77759 10.0835 2.75516 10.1566L0.327413 18.1028C-0.300001 20.1552 -0.0196901 22.1369 1.11668 23.6832C2.32617 25.3295 4.41754 26.2821 6.85455 26.2972L6.88722 26.2977C8.54764 26.2977 10.271 25.8667 11.8738 25.0526L11.9138 25.0336L11.9816 24.997C12.3575 24.804 12.7226 24.59 13.0755 24.3574C13.5577 24.9844 14.1553 25.5133 14.8369 25.9155C15.8787 26.5332 17.0711 26.8471 18.3795 26.8471C19.9132 26.8466 21.5312 26.4015 23.0727 25.5655L22.9435 25.6625L22.7217 25.8122C23.4466 30.9216 24.5528 34.299 26.298 36.7302C27.8536 38.8967 29.5462 39.6591 29.8699 39.7898C29.887 39.7976 30.2916 39.9916 30.8508 40.1802C32.1992 40.6361 33.6363 41.048 34.3218 41.2401C33.2039 40.4157 32.1451 39.5567 31.1837 38.5954C26.7041 37.8983 24.6736 31.5398 23.5061 25.3139L23.6538 25.2223C23.7942 25.1355 23.9322 25.057 24.074 24.962C24.2408 24.8498 24.3943 24.7421 24.5411 24.6334C24.9588 25.0868 25.4458 25.4719 25.9836 25.7732C27.8926 26.8467 30.4106 26.8881 33.2649 25.8936L39.773 25.8878L42.7599 16.1017C42.9154 15.5186 43.4024 14.8464 44.0484 14.3038L44.2317 14.1536C44.5276 13.923 44.8518 13.7324 45.1969 13.5862C45.8132 13.3312 46.3977 13.3361 46.6853 13.5984C46.9661 13.8548 47.0036 14.4295 46.7843 15.1374L43.5121 25.8951L50.2821 25.8877L53.1988 16.3093L53.208 16.2767C53.3777 15.6415 53.8579 14.9414 54.4941 14.3818L54.5633 14.3155C54.8923 14.0381 55.2404 13.8192 55.57 13.6827C56.2671 13.3951 56.9769 13.4029 57.2982 13.7022C57.5897 13.9752 57.6029 14.5919 57.3333 15.3977L56.4826 18.1243C55.7694 20.5189 56.0351 22.7205 57.2294 24.3229C58.3619 25.8419 60.2178 26.6785 62.4554 26.6785C64.6931 26.6785 66.9205 26.0067 68.9051 24.7338C69.1634 24.9888 69.4467 25.2208 69.748 25.4261C70.9131 26.2192 72.3878 26.6438 74.0126 26.6551L78.5927 26.6551L80.316 21.0074L75.1524 21.0074C74.6327 21.0074 74.2398 20.8631 74.0458 20.6008C73.861 20.3522 73.8356 19.9675 73.9736 19.5176L77.4534 8.06133L72.8109 8.06669C72.3673 8.06718 71.9164 8.19588 71.5039 8.42257C71.0642 8.66437 70.6883 9.00659 70.4056 9.42146L70.371 9.4746L70.2759 9.63401L70.2442 9.69202L70.1565 9.87532L70.136 9.92164C70.1014 10.0055 70.0736 10.0825 70.0507 10.1595L67.7511 17.7733C67.4552 18.74 66.5733 19.736 65.4492 20.3712L65.396 20.3975C64.6857 20.789 63.9345 21.0069 63.2734 21.0069C63.1418 21.0069 62.9059 20.9864 62.804 20.8494C62.6514 20.6432 62.6709 20.124 62.8542 19.5273L63.7375 16.6423C64.7983 13.1421 64.0958 10.1863 61.8573 8.73605C60.5717 7.9029 58.941 7.67232 57.1422 8.06963C55.7533 8.37627 54.2834 9.07437 52.8824 10.0918C52.157 9.14019 51.0777 8.43721 49.8277 8.10327C48.3545 7.71084 46.6863 7.81614 45.098 8.39821L45.1969 8.06817L40.5569 8.06867C39.889 8.06916 39.2041 8.35824 38.6659 8.84087C38.4772 9.0076 38.3096 9.19626 38.1662 9.40297L38.1175 9.47609L38.0234 9.63404L37.9897 9.69498L37.9044 9.87439L37.8825 9.92314C37.8508 10.0002 37.823 10.0787 37.7982 10.1581L35.4226 17.9284C35.0267 19.112 34.0761 20.2269 32.9432 20.8373L32.793 20.9085C32.3148 21.1425 31.8385 21.2712 31.4065 21.2712C30.8971 21.2712 30.5018 21.0957 30.2624 20.7646C29.9133 20.2796 29.8768 19.5127 30.1639 18.6562L33.3814 8.06819L30.2848 8.06819L28.739 8.06868L28.7399 8.06765ZM29.1391 18.3159L31.9179 9.14989L31.9165 9.15046L28.7385 9.15386C28.0584 9.15483 27.3491 9.6594 27.0727 10.3214C26.6764 9.93629 26.221 9.61698 25.7243 9.37518C24.0624 8.56349 21.9856 8.60395 19.8777 9.49023C17.7878 10.3687 15.9002 11.9765 14.5625 14.0167C13.489 15.6547 12.8572 17.4355 12.7358 19.1686C11.6072 20.6813 9.64895 21.7362 7.96561 21.7362C7.0925 21.7362 6.39002 21.4359 5.98637 20.8909C5.59247 20.3585 5.50764 19.6322 5.74798 18.8458L8.68955 9.15482L5.513 9.15482C4.7837 9.15529 4.01101 9.74858 3.79115 10.4759L1.36389 18.4212C0.839341 20.1372 1.06164 21.7781 1.99032 23.0412C2.99506 24.4082 4.75981 25.1999 6.8312 25.2131L6.8858 25.2131C9.1283 25.2126 11.4854 24.3336 13.3769 22.7916C13.839 23.7276 14.5157 24.4638 15.3893 24.9815C16.2824 25.5109 17.3115 25.7678 18.4005 25.7678C20.4749 25.7678 22.7651 24.8352 24.7356 23.0827C25.5278 24.4087 26.8099 25.2311 28.4479 25.4617C30.2117 25.7098 32.3611 25.2501 34.6743 24.1318L34.4685 24.8075L38.9691 24.8031L41.6421 16.0237L41.6518 16.0495L41.7128 15.8204C42.0492 14.5587 43.3688 13.1664 44.7821 12.5824C45.8161 12.1549 46.8008 12.2343 47.4165 12.7955C48.0347 13.3585 48.1785 14.3023 47.8231 15.4528L44.9776 24.8075L49.4782 24.8031L52.1594 15.9964C52.5148 14.6636 53.8033 13.2376 55.1551 12.6789C56.2656 12.2197 57.3976 12.3099 58.0382 12.9081C58.6632 13.4921 58.7787 14.4958 58.3624 15.7375L57.5219 18.4329C56.9091 20.4906 57.1144 22.3514 58.0991 23.6725C59.0219 24.9098 60.5688 25.5913 62.4549 25.5913C65.417 25.5913 67.6907 24.3448 69.0942 23.2777C70.0862 24.7207 71.8749 25.5548 74.0179 25.5684L77.7887 25.5684L78.8281 22.0911L75.1523 22.0911C74.2797 22.0911 73.5772 21.7908 73.1736 21.2458C72.7792 20.7134 72.6944 19.9865 72.9352 19.2007L75.9879 9.1504L72.8114 9.1504C72.0825 9.15087 71.3103 9.74368 71.0895 10.4715L68.789 18.0887C68.1372 20.221 65.5598 22.0911 63.2734 22.0911C62.6938 22.0911 62.2165 21.8785 61.9318 21.4929C61.555 20.983 61.515 20.1932 61.8172 19.2085L62.6991 16.3254C63.6117 13.3146 63.0765 10.8171 61.2669 9.6452C59.0892 8.23439 55.6821 9.05143 52.564 11.7239C52.0858 10.4788 51.0484 9.57501 49.6302 9.17331C47.6169 8.60293 45.2076 9.15526 43.2888 10.6144L43.7354 9.14942L40.5579 9.15282C39.8286 9.15379 39.0559 9.74659 38.836 10.4739L36.4438 18.27C35.6901 20.5233 33.4301 22.3563 31.4065 22.3563C30.5456 22.3563 29.8265 22.016 29.3819 21.3983C28.8291 20.63 28.7404 19.5073 29.1391 18.3159ZM25.6452 14.9843C25.596 13.6461 24.9296 12.7101 23.8147 12.4156C23.5704 12.3518 23.3189 12.3206 23.0663 12.3215C21.051 12.3215 18.6179 14.193 17.4304 16.7958C16.7868 18.2057 16.6445 19.6214 17.0413 20.6797C17.2763 21.3071 17.6907 21.7712 18.2396 22.0199C19.8835 22.7657 22.476 21.5475 24.1413 19.2465C24.2714 19.0666 24.3953 18.8809 24.5196 18.6785L25.6452 14.9852L25.6452 14.9843ZM18.0573 20.2975C18.1908 20.6544 18.4029 20.9006 18.6876 21.0302L18.6876 21.0293C19.4476 21.3734 20.7025 20.9864 21.8413 20.0903C21.9553 20.0011 22.0694 19.9119 22.1806 19.812C22.6978 19.3459 23.1497 18.8111 23.5226 18.2232L24.5493 14.8536C24.4806 14.08 24.1491 13.6251 23.5377 13.4633C23.3925 13.4248 23.2331 13.4053 23.0654 13.4053C22.418 13.4053 21.6492 13.6958 20.9013 14.2233C20.7921 14.3003 20.6781 14.3866 20.5625 14.4802C20.4426 14.5767 20.3383 14.6664 20.2227 14.7727L20.1696 14.8273C19.4398 15.5132 18.8183 16.3673 18.418 17.2453C17.9008 18.3787 17.7658 19.52 18.0573 20.2975Z" transform="translate(46.89844 97.0578)" id="Shape" fill="#00A3E0" fill-rule="evenodd" stroke="none" />
      <path d="M76.8948 2.4414C76.8929 1.10272 75.7926 0.00145798 74.4539 0C73.1074 0 72.0125 1.09541 72.0125 2.4414C72.0125 3.78787 73.1079 4.88279 74.4539 4.88279C75.7926 4.88085 76.8933 3.78007 76.8948 2.4414ZM9.59789 2.44433C9.59643 3.783 8.49565 4.88377 7.15698 4.88572C5.81829 4.88426 4.71752 3.783 4.71557 2.44433C4.71557 1.09882 5.81098 0.00341214 7.15697 0.00341214C8.50247 0.00341214 9.59789 1.09834 9.59789 2.44433ZM27.6529 8.06665C26.9724 8.06763 26.2635 8.57218 25.9871 9.23421C25.5903 8.84908 25.1355 8.52977 24.6387 8.28796C22.9758 7.47676 20.8996 7.51772 18.7921 8.40301C16.7017 9.281 14.8146 10.8888 13.4769 12.9295C12.4034 14.5674 11.7716 16.3483 11.6502 18.0813C10.5217 19.5941 8.56337 20.649 6.88003 20.649C6.00692 20.649 5.30443 20.3487 4.90078 19.8037C4.50639 19.2708 4.42157 18.5445 4.6624 17.7586L7.60397 8.0676L4.42742 8.0676C3.69861 8.06858 2.92592 8.66137 2.70557 9.38872L0.278303 17.334C-0.246733 19.05 -0.023945 20.6909 0.904742 21.954C1.90948 23.321 3.67374 24.1127 5.74562 24.1258L5.80022 24.1258C8.04223 24.1258 10.3998 23.2459 12.2913 21.7044C12.7534 22.6404 13.4296 23.377 14.3037 23.8943C15.1973 24.4237 16.2259 24.6806 17.315 24.6806C19.3893 24.6806 21.6796 23.748 23.65 21.9955C24.4422 23.3224 25.7239 24.1444 27.3623 24.3745C29.1261 24.6226 31.276 24.1629 33.5887 23.0446L33.383 23.7202L37.8836 23.7158L40.5565 14.9365L40.5663 14.9623L40.6272 14.7332C40.9636 13.4715 42.2832 12.0797 43.6965 11.4952C44.7305 11.0677 45.7152 11.1471 46.3309 11.7082C46.9481 12.2713 47.0929 13.2146 46.7375 14.3656L43.892 23.7202L48.3926 23.7158L51.0738 14.9092C51.4292 13.5763 52.7177 12.1504 54.0695 11.5917C55.1805 11.1325 56.3115 11.2227 56.9526 11.8209C57.5781 12.4049 57.6931 13.4091 57.2768 14.6503L56.4363 17.3457C55.8236 19.4039 56.0283 21.2642 57.0135 22.5853C57.9364 23.8226 59.4832 24.5041 61.3693 24.5041C64.3314 24.5041 66.6051 23.2576 68.0086 22.1904C69.0007 23.6334 70.7893 24.4676 72.9324 24.4812L76.7032 24.4812L77.7425 21.0039L74.0667 21.0039C73.1946 21.0039 72.4912 20.7036 72.088 20.1585C71.6936 19.6262 71.6088 18.8993 71.8496 18.1135L74.9023 8.06318L71.7258 8.06318C70.9975 8.06367 70.2248 8.65648 70.0039 9.3843L67.7034 17.0015C67.0516 19.1338 64.4742 21.0039 62.1878 21.0039C61.6077 21.0039 61.1309 20.7913 60.8462 20.4057C60.4689 19.8958 60.4294 19.106 60.7317 18.1213L61.6136 15.2382C62.5262 12.2274 61.9909 9.73042 60.1813 8.55799C58.0041 7.14668 54.5965 7.96422 51.4784 10.6367C51.0002 9.39113 49.9623 8.4878 48.5447 8.08609C46.5313 7.51524 44.1221 8.06757 42.2033 9.52714L42.6498 8.0622L39.4723 8.06561C38.7435 8.06659 37.9708 8.65938 37.7504 9.38673L35.3583 17.1828C34.6046 19.4361 32.3445 21.269 30.3209 21.269C29.46 21.269 28.7414 20.9288 28.2963 20.3111C27.743 19.5433 27.6543 18.4201 28.0536 17.2287L30.8323 8.06268L27.6543 8.06608L27.6529 8.06665ZM23.0534 18.1594C23.1835 17.98 23.3073 17.7937 23.4317 17.5914L23.4317 17.5905L24.5573 13.8972C24.5076 12.559 23.8412 11.623 22.7267 11.3285C22.4869 11.2647 22.2358 11.2344 21.9784 11.2344C19.9636 11.2344 17.53 13.1064 16.3424 15.7087C15.6989 17.119 15.5575 18.5347 15.9534 19.5926C16.1884 20.2205 16.6028 20.6837 17.1517 20.9328C18.7955 21.6786 21.3876 20.4604 23.0534 18.1594Z" transform="translate(47.98694 98.14349)" id="Shape" fill="#000000" fill-rule="evenodd" stroke="none" />
      <path d="M26.2456 14.4071L26.1027 14.6001L25.7996 13.161L29.0643 8.82229L29.1111 8.76379C31.7958 5.57359 33.6395 3.79275 35.727 2.44091C36.0307 2.24348 36.3403 2.05579 36.6576 1.87395L36.6586 1.87346C37.8042 1.23679 39.0225 0.74002 40.2871 0.394874C41.4849 0.0740965 41.7544 0.0414333 41.7652 0.0404589L42.1259 0C40.7434 0.32565 39.413 0.841424 38.1733 1.53367C35.7914 2.89673 33.9013 4.62978 30.9349 8.15831L30.9051 8.19488C29.2569 10.3384 27.517 12.6901 26.2456 14.4071ZM26.1027 14.6001L26.1028 14.6006L26.1023 14.6006L26.1027 14.6001ZM6.5764 34.0992C9.21134 33.7248 11.2939 32.9326 12.5863 31.8503L12.5877 31.8514C12.9607 31.513 13.2083 31.2239 13.3648 31.0499C13.7363 30.6336 14.0717 30.186 14.3666 29.7127C14.1302 30.1329 13.7865 30.7121 13.609 30.9987C12.2835 33.2085 9.69783 34.5916 5.87729 35.1351C4.54398 35.3248 3.28282 35.376 2.31172 35.376C1.19291 35.376 0.459218 35.3082 0.446059 35.3072L0 35.2648L0.382198 35.0313C0.431926 35.0006 5.36347 31.9532 6.58027 28.1624L13.6763 5.34645C14.0112 4.08578 14.0619 3.08104 13.8406 2.31323C13.807 2.19525 13.7646 2.05973 13.7031 1.95345L13.6739 1.90177L14.7176 0.85511L14.7186 0.858524L14.7191 0.858033L14.7498 0.908244C14.8151 1.01111 14.8653 1.14371 14.9068 1.25827C15.0847 1.75504 15.1866 2.37513 15.1739 3.08055L15.1741 3.08964C15.1758 3.1641 15.1866 3.62389 15.0014 4.55133C14.9711 4.70148 14.9365 4.86041 14.8936 5.03689C14.8322 5.28795 14.761 5.54876 14.6762 5.83297L14.6504 5.91585C13.9825 8.08181 8.10763 27.1119 7.6879 28.3277C7.11216 29.9944 6.30973 31.1274 5.6599 31.8387C4.76777 32.8873 3.74938 33.7765 2.92405 34.4229C3.88589 34.4195 5.27867 34.2839 6.5764 34.0992ZM18.5455 17.7475L19.2012 15.6064L22.3762 30.636L21.4256 31.359L18.5455 17.7475ZM28.0737 31.7041L32.7015 16.771L30.7832 19.3469L30.4863 20.3039L30.4858 20.3044L26.6526 32.6586L26.5941 32.8453L35.9751 32.8453L37.07 31.7533L37.0252 31.7246L37.0086 31.7451L36.8204 31.7217L36.8394 31.7026L28.0742 31.7031L28.0737 31.7041Z" transform="translate(4.719727 92.40607)" id="Shape" fill="#EF3340" fill-rule="evenodd" stroke="none" />
      <path d="M46.3997 0.131136C45.4813 0.881883 45.0172 1.23922 44.1339 2.04945L44.1329 2.04945C42.3511 3.59483 40.9783 5.76371 40.0354 8.65751L39.9536 8.89786L34.068 27.8226C33.9051 28.3818 33.793 28.8088 33.7408 29.2003C33.6585 29.8189 33.6502 30.0753 33.7638 30.7335C33.8603 31.1805 33.9729 31.5895 34.145 32.1726L33.9144 32.1726L25.1491 32.1731L29.777 17.24L27.8587 19.8159L19.4522 31.1054L16.2771 16.0758L15.6219 18.2169L13.2541 25.954C13.0504 26.6546 12.5166 28.4812 11.4411 30.1816C11.1452 30.6545 10.8103 31.102 10.4393 31.5188C10.2828 31.6924 10.0352 31.981 9.66225 32.3193C8.36989 33.4011 6.28729 34.1933 3.65235 34.5682C2.35511 34.7524 0.961841 34.8884 0 34.8919C0.825334 34.2454 1.84421 33.3557 2.73585 32.3076C3.38617 31.5968 4.18861 30.4639 4.76385 28.7966C5.18261 27.5818 11.058 8.55077 11.7263 6.3848L11.7522 6.30193C11.837 6.01772 11.9082 5.75691 11.9696 5.50584C12.0091 5.34448 12.0447 5.18312 12.0773 5.02029C12.2625 4.09286 12.2518 3.63306 12.2501 3.5586L12.2499 3.54951C12.2626 2.8436 12.1612 2.22301 11.9827 1.72723C11.9413 1.61266 11.8911 1.48055 11.8258 1.3772L11.7951 1.32699L11.7946 1.32748L11.7936 1.32407L20.2858 1.32163L22.8764 13.6305L23.1796 15.0696L23.323 14.8761C24.5934 13.1591 26.3342 10.8069 27.9825 8.66385L28.0122 8.62728C30.9791 5.09876 32.8687 3.3657 35.2506 2.00265C36.4903 1.3104 37.8207 0.794144 39.2033 0.468978C40.7511 0.097015 42.137 0 43.132 0C45.415 0.00389786 46.3997 0.131136 46.3997 0.131136ZM33.0291 27.4994L38.9151 8.57267L38.9147 8.57364C39.9218 5.35419 41.3975 2.95033 43.4284 1.22214L43.5771 1.09588L43.3821 1.09051L43.133 1.08759C41.3005 1.08759 38.5403 1.40934 35.7932 2.94496C33.5346 4.23733 31.7157 5.90652 28.841 9.32536C27.2122 11.4426 22.6039 17.6504 22.6039 17.6504L19.4025 2.40724L13.1971 2.40919L13.221 2.50182C13.3599 3.04489 13.3784 3.67816 13.2775 4.43817C13.1815 5.15724 13.0416 5.78904 12.7944 6.61974C12.7286 6.83181 6.2351 27.8723 5.79439 29.1491C5.06996 31.2512 4.00429 32.5967 3.23794 33.3562L3.0873 33.5054L3.29839 33.4834C7.61082 33.0335 9.13133 31.3448 9.63101 30.79C11.2305 29.016 11.9691 26.4771 12.2114 25.643L16.4716 11.7214L20.0206 28.5202L32.6981 11.4957L26.6574 30.9874L26.6277 31.0844L32.7429 31.0844L32.719 30.9918C32.5781 30.4414 32.5606 29.8262 32.663 29.0555C32.7234 28.5977 32.8487 28.12 33.0291 27.4994Z" transform="translate(7.641785 91.93759)" id="Shape" fill="#00A3E0" fill-rule="evenodd" stroke="none" />
      <path d="M40.2948 0.00292339L40.0457 0C38.2137 0 35.4534 0.322235 32.7059 1.85737C30.4473 3.14974 28.6284 4.81893 25.7537 8.23778C24.1239 10.355 19.5166 16.5628 19.5166 16.5628L16.3152 1.31966L10.1098 1.32161L10.1337 1.41424C10.2731 1.95683 10.2911 2.59057 10.1902 3.35059C10.0937 4.06916 9.95426 4.70097 9.7071 5.53215C9.64177 5.74422 3.14779 26.7842 2.70709 28.0615C1.98218 30.1631 0.916502 31.5091 0.15064 32.2686L0 32.4178L0.211087 32.3958C4.52351 31.9454 6.04402 30.2572 6.54371 29.7024C8.1432 27.9284 8.88177 25.39 9.12405 24.5554L13.3843 10.6338L16.9333 27.4326L29.6108 10.4081L23.5701 29.8998L23.5404 29.9969L29.6556 29.9969L29.6317 29.9042C29.4903 29.3538 29.4723 28.7391 29.5756 27.9679C29.6366 27.5101 29.7614 27.0324 29.9418 26.4118L35.8278 7.48509C36.8345 4.26564 38.3107 1.86129 40.3401 0.135056L40.4888 0.0087925L40.2953 0.00245476L40.2948 0.00292339Z" transform="translate(10.72821 93.02521)" id="Shape" fill="#000000" fill-rule="evenodd" stroke="none" />
      <path d="M37.8746 0.0141409L38.5493 0C26.9512 1.47518 16.509 5.92605 9.58794 13.6403C8.4662 13.7865 7.32204 13.9557 6.15692 14.1516C7.1207 12.851 8.17955 11.6235 9.32517 10.4793C10.2704 9.57255 11.2679 8.72187 12.3131 7.9326C18.8655 2.98594 28.0062 0.321268 37.8746 0.0141409ZM1.09424 41.5355C0.497542 39.2155 0.142153 36.8404 0.0339277 34.4482C-0.185937 29.4967 0.663781 24.7684 2.55674 20.379C3.32602 20.3775 4.11138 20.3829 4.90795 20.395C1.90739 26.1719 0.455127 33.1963 1.09424 41.5355Z" transform="translate(38.23755 38.14294)" id="Shape" fill="#EF3340" fill-rule="evenodd" stroke="none" />
      <path d="M15.6858 3.07424C18.1628 2.97771 20.6422 2.94797 23.1211 2.98551C26.3518 3.03426 29.795 3.19952 33.3738 3.53979C35.0049 2.29764 36.7136 1.16079 38.4891 0.136552C27.8777 -0.326572 13.612 0.204801 0 4.63374C0.348561 4.56647 5.84366 3.55735 14.1151 3.14394C14.6382 3.11811 15.1617 3.09471 15.6853 3.07472L15.6858 3.07424Z" transform="translate(20.02435 55.55298)" id="Shape" fill="#41748D" fill-rule="evenodd" stroke="none" />
      <path d="M1.71118 0.788776L1.71702 0.788776L1.71751 0.788791L1.97979 1.48772e-05L2.36149 1.48772e-05L2.36149 1.2051L2.13969 1.2051L2.13969 0.245221L2.13433 0.245221L1.81892 1.2051L1.60686 1.2051L1.30266 0.245221L1.29632 0.245221L1.29632 1.20656L1.07499 1.20656L1.07499 0L1.45963 0L1.71118 0.788776ZM0.326632 0.215495L0 0.215495L1.48773e-05 2.84344e-05L0.87751 2.84344e-05L0.87751 0.215495L0.547962 0.215495L0.547962 1.20657L0.326632 1.20657L0.326632 0.215495Z" transform="translate(126.7068 123.3677)" id="Shape" fill="#000000" fill-rule="evenodd" stroke="none" />
    </g>
  </g>
</svg>