<?xml version="1.0" encoding="utf-8"?>
<svg width="120px" height="122px" viewBox="0 0 120 122" version="1.1" xmlns:xlink="http://www.w3.org/1999/xlink" xmlns="http://www.w3.org/2000/svg">
  <desc>Created with Lunacy</desc>
  <defs>
    <path d="M0 0L120 0L120 122L0 122L0 0Z" id="path_1" />
    <clipPath id="mask_1">
      <use href="#path_1" />
    </clipPath>
  </defs>
  <g id="new-york-mets-logo@logotyp.us">
    <path d="M0 0L120 0L120 122L0 122L0 0Z" id="Background" fill="none" stroke="none" />
    <g clip-path="url(#mask_1)">
      <g id="Group" transform="translate(-0.4375 1.963318)">
        <path d="M60.5375 121.073C93.9701 121.073 121.075 93.9684 121.075 60.5358C121.075 27.1028 93.9701 0 60.5375 0C27.1037 0 0 27.1041 0 60.5358C0 93.9684 27.1037 121.073 60.5375 121.073" id="Shape" fill="#FFFFFF" stroke="none" />
        <path d="M56.8009 4.77791e-06C25.4788 4.77791e-06 0 25.4809 0 56.8009C0 88.1209 25.48 113.601 56.8009 113.601C88.1188 113.601 113.602 88.1209 113.602 56.8009C113.602 25.4809 88.1188 0 56.8009 0" transform="translate(3.736633 3.740784)" id="Shape" fill="#FF5910" stroke="none" />
        <path d="M102.287 76.0464C102.154 76.3332 102.02 76.62 101.885 76.9052C101.118 78.4862 100.274 80.0251 99.3596 81.5169C98.5876 82.7807 97.7614 84.0077 96.8876 85.2005C95.9749 86.4509 95.0076 87.6604 93.9897 88.826C93.2499 89.6727 92.4829 90.4977 91.6922 91.2964C86.4338 96.6091 80.0765 100.83 72.9911 103.588C73.6662 103.254 74.0411 103.057 75.0761 101.937L74.3501 101.754C73.4508 102.655 72.4889 103.512 70.8022 104.185L71.815 104.029C71.0331 104.313 70.2456 104.579 69.4465 104.827L70.4644 103.848L69.6282 103.52C69.2261 104.121 68.6032 104.739 67.3407 105.429C62.9565 106.593 58.3532 107.216 53.6074 107.216C38.6722 107.216 25.1498 101.075 15.4195 91.1916C14.6325 90.3892 13.8639 89.5646 13.1275 88.7146C12.2027 87.6524 11.3239 86.5511 10.4838 85.4176C9.61169 84.2385 8.78713 83.0219 8.01183 81.7699C7.14635 80.375 6.34392 78.9363 5.60744 77.46C5.47176 77.1903 5.33774 76.9189 5.20706 76.6455C3.56127 73.2011 2.27162 69.5567 1.38777 65.7558C1.32181 65.4711 1.26044 65.1826 1.19948 64.8941C1.17735 64.8006 1.15522 64.7075 1.13686 64.6123C0.393706 61.0594 0 57.3774 0 53.6074C0 46.4419 1.4149 39.604 3.97544 33.3536C3.80718 34.1582 3.84643 34.842 4.0414 35.624C3.14211 36.5233 2.51127 37.5533 2.13092 38.9953L2.86572 39.445C3.09994 38.2693 4.0414 36.7471 4.8288 35.8499C4.26726 33.9394 5.11395 32.8568 5.45129 31.5079L4.84216 31.3517C8.45145 23.4739 13.9132 16.6173 20.6692 11.3406C20.3364 11.9276 19.9515 12.6745 19.7749 13.256L20.5623 12.7521C20.5623 12.7521 21.4783 11.2287 22.3625 10.073C24.0831 8.83472 25.8796 7.6962 27.7425 6.66455L26.2749 7.51124C24.8262 9.21966 24.6342 10.3177 24.1048 11.5714L25.7998 11.1422C26.1021 10.068 26.9145 7.86236 28.4418 6.28463C35.9497 2.27705 44.5168 0 53.6078 0C74.0278 0 91.8158 11.4762 100.863 28.3186C100.939 28.8497 101.172 30.1948 100.788 30.3869C100.919 31.444 100.32 32.623 99.9128 33.3203L100.362 34.8374C101.061 33.9941 101.587 32.4602 101.513 31.6118C102.002 31.2503 101.774 30.5735 101.771 30.0846C102.181 30.9213 102.571 31.768 102.938 32.6264C102.879 32.9336 102.683 33.8075 102.319 34.2605C102.525 35.2412 102.072 36.2423 101.657 36.9734L102.217 38.3783C102.47 38.2104 103.196 36.3288 103.184 35.29C103.454 34.9339 103.525 34.5469 103.586 34.2162C103.912 35.0579 104.219 35.9096 104.506 36.7713C104.455 37.1988 104.317 38.0221 103.983 38.3373C104.192 39.2792 103.737 39.951 103.454 40.5706L103.961 41.9754C103.961 41.9754 104.804 40.0938 104.782 39.4166C104.922 39.1026 105.051 38.9177 105.096 38.6718C105.388 39.6796 105.653 40.6996 105.888 41.7312C105.7 42.61 105.203 43.4396 104.804 44.3356L104.915 45.1806C104.915 45.1806 105.588 44.3389 106.187 43.1394C106.314 43.7757 106.428 44.417 106.532 45.0599C106.423 45.3856 105.944 46.7788 105.648 46.9771L105.758 47.595C105.758 47.595 106.354 46.7955 106.706 46.2323C107.041 48.6433 107.215 51.1053 107.215 53.6078C107.215 57.1896 106.861 60.6886 106.187 64.0754C105.356 68.2612 104.036 72.2722 102.286 76.0476" transform="translate(6.928345 6.93512)" id="Shape" fill="#FFFFFF" stroke="none" />
        <path d="M52.2316 2.63023L52.5631 0.000394974L52.5623 0L52.9363 0L53.2119 2.63025L53.8799 3.41473L53.8799 8.89192L55.6722 10.2388L55.6722 14.1758L56.8387 14.9607L56.8387 24.1336L59.8848 24.1336L59.8848 16.265L61.9105 16.265L61.9105 13.7942L67.5309 13.7942L67.5309 16.265L70.0016 16.265L70.0016 20.9865L73.8218 20.9865L73.8218 30.8779L78.3926 30.8779L78.3926 27.5032L79.2434 26.7688L79.2434 24.7431L81.0888 23.9081L81.0888 21.4453L84.1616 21.4453L84.1616 23.9081L86.0065 24.7431L86.0065 26.7688L86.8628 27.5032L86.8628 44.5894L91.5818 44.5894L91.5818 29.9769L97.8785 29.9769L97.8785 58.7527L100.124 58.7527L100.124 55.6031L102.823 55.6031L102.823 61.0005L105.296 61.0005L105.834 62.2492C105.003 66.4351 103.684 70.4469 101.935 74.2219L99.9702 72.3344L99.5485 71.9102L96.1497 71.9102L96.0252 72.0212C86.6849 80.1692 66.4445 85.5161 53.4006 85.3992C52.7401 85.3921 52.0429 85.375 51.3218 85.3462C52.0633 84.7592 52.9029 83.811 53.4189 82.9865L52.581 81.9736C52.4691 82.4232 51.0083 84.1521 49.8848 84.9379L50.7148 85.3169C39.0686 84.7554 20.6114 81.2188 10.667 72.9147L10.5396 72.8116L7.33448 72.8116L7.20213 72.9335C7.18836 72.9452 6.02144 74.0302 4.85578 74.821C3.20833 71.3762 1.9195 67.7331 1.03524 63.9326C0.969278 63.6474 0.908319 63.3564 0.847365 63.0684C0.82524 62.9748 0.802275 62.8822 0.783488 62.787C0.449486 61.17 0.188135 59.5275 0.00150982 57.8613C-0.0394082 57.5202 0.765115 56.838 0.765115 56.838L2.05895 56.838L2.05895 50.3772L2.67643 50.3772L3.74773 41.5542L4.25124 41.57L5.26409 50.3772L5.65654 50.3772L5.65654 58.4683L7.34241 58.4683L7.34241 50.3217L8.18534 49.8152L8.18534 45.4327L9.08422 44.9267L9.08422 39.1949L11.4439 37.6414L11.4439 27.9804C11.4439 26.7438 12.9043 26.8298 12.9043 26.8298L12.9043 25.0245L14.1426 24.6851L14.2541 23.9085L14.5931 23.7946L14.9271 23.9085L15.0386 24.6851L16.2769 25.0245L16.2769 26.8298C16.2769 26.8298 17.7402 26.8561 17.7402 27.8694L17.7402 34.6216L16.5525 33.9031C15.6548 35.8136 15.6469 37.6414 15.7145 39.2821L16.1095 39.5314C14.4403 40.6361 13.0146 41.0056 12.4564 42.6785L13.5778 43.577C14.0274 42.3403 16.0519 40.6566 17.2868 40.3188L16.8096 39.9769L16.9528 40.0695C16.5971 38.5719 17.1115 36.8103 17.5002 35.4789C17.5914 35.1665 17.6757 34.8777 17.7402 34.6216L17.7402 35.2817L23.6946 35.2817L23.6946 25.255L24.2595 24.6959L24.2595 19.863L24.8215 19.863L26.1733 14.855C26.1174 14.6054 26.0836 14.263 26.0836 13.8844C26.0836 13.1178 26.2243 12.8189 26.3988 12.8189C26.5737 12.8189 26.7198 13.1174 26.7198 13.8844C26.7198 14.2271 26.6885 14.5352 26.6426 14.7778L27.9682 19.863L28.5276 19.863L28.5276 24.6959L29.0896 25.255L29.0896 34.473L34.4874 34.473L34.4874 23.4576L36.0597 22.7842L36.0597 16.7158L43.4774 16.7158L43.4774 22.9462L48.5492 22.9462L48.5492 14.9607L49.7128 14.1762L49.7128 10.2392L51.5051 8.89231L51.5051 3.41513L52.2316 2.63023ZM96.4661 72.8111C95.3886 73.7342 94.1707 74.6218 92.8472 75.4702L92.8472 86.9999L93.6372 86.9999C94.6554 85.8342 95.6232 84.6247 96.5375 83.376L96.5375 72.8116L96.4661 72.8116L96.4661 72.8111ZM99.0083 79.6907L99.0083 72.8111L99.1782 72.8112L99.3319 72.9648L101.533 75.0807C100.766 76.6618 99.923 78.2011 99.0083 79.6907ZM10.1317 73.7108L10.1317 83.5935C10.9717 84.727 11.8501 85.8267 12.7749 86.8888L13.9493 86.8917L13.9493 76.3407C12.6242 75.5211 11.3775 74.649 10.2407 73.7108L10.1317 73.7108ZM5.25616 75.6347C6.3237 74.9287 7.34115 74.0206 7.65845 73.7338L7.65845 79.9454C6.79298 78.5505 5.99263 77.1105 5.25616 75.6347ZM91.9488 76.0322C90.8829 76.6789 89.7573 77.298 88.5762 77.8934L88.5762 86.9949L91.9488 86.9978L91.9488 76.0322ZM14.8482 86.8938L14.8482 76.883C15.9254 77.5109 17.0547 78.1 18.2204 78.6565L18.2204 86.8992L14.8482 86.8938ZM87.6773 78.3388C86.5897 78.8632 85.4637 79.3646 84.3052 79.8448L84.3052 86.9894L87.6773 86.9945L87.6773 78.3388ZM19.1217 86.8993L19.1217 79.0762C20.2177 79.5751 21.3424 80.0481 22.491 80.4894L22.491 86.9022L19.1217 86.8993ZM83.4059 80.2105C82.3045 80.6518 81.1756 81.0676 80.0337 81.4646L80.0337 86.984L83.4059 86.9894L83.4059 80.2105ZM23.3898 86.9047L23.3898 80.8254C24.4996 81.2342 25.6264 81.617 26.7649 81.9732L26.7649 86.9097L23.3898 86.9047ZM79.1323 81.7745C78.0226 82.1481 76.8979 82.498 75.7627 82.827L75.7627 86.9761L79.1323 86.9811L79.1323 81.7745ZM27.6633 86.9097L27.6633 82.2516C28.7797 82.5894 29.9028 82.9009 31.033 83.1927L31.033 86.9151L27.6633 86.9097ZM74.8642 83.0841C73.7441 83.3981 72.6185 83.6903 71.4921 83.9617L71.4921 86.9711L74.8642 86.9761L74.8642 83.0841ZM31.9348 86.9181L31.9348 83.4207C33.0595 83.7008 34.1851 83.9555 35.3069 84.1897L35.3069 86.9231L31.9348 86.9181ZM70.5936 84.1738C69.4655 84.4335 68.3395 84.6715 67.2215 84.8869L67.2215 86.9631L70.5936 86.9681L70.5936 84.1738ZM36.2029 86.9231L36.2029 84.378C37.3398 84.6068 38.4645 84.8122 39.578 84.9955L39.578 86.9285L36.2029 86.9231ZM66.3193 85.0539C61.6942 85.8922 57.2353 86.3331 53.3926 86.2976C49.8209 86.2667 45.3136 85.9035 40.4764 85.1416L40.4764 86.9285L66.3193 86.9656L66.3193 85.0539ZM53.2548 105.39C38.3217 105.39 24.7972 99.251 15.0678 89.3675L15.0669 89.3671L58.0578 89.4226C57.2758 90.5139 55.82 92.0771 54.6034 92.6386L55.5023 93.4235C56.7389 92.7497 58.5776 91.0204 59.365 89.7833L59.0201 89.4255L91.3405 89.4706C86.08 94.7846 79.7231 99.0021 72.639 101.761C73.3145 101.425 73.6898 101.232 74.7231 100.112L73.9967 99.929C73.0974 100.828 72.1342 101.685 70.4496 102.36L71.462 102.204C70.6817 102.487 69.8914 102.753 69.0919 102.999L70.1102 102.021L69.2752 101.695C68.871 102.295 68.2494 102.913 66.9873 103.603C62.6031 104.766 58.0006 105.39 53.2548 105.39Z" transform="translate(7.282166 8.761292)" id="Shape" fill="#002D72" fill-rule="evenodd" stroke="none" />
        <path d="M45.7921 20.8625C46.5456 20.4145 47.1514 20.5197 47.3431 20.7368C47.3973 20.7994 47.4245 20.8825 47.4245 20.9811C47.4245 21.1814 47.3088 21.4407 47.0867 21.7158C46.1774 22.8577 44.3888 23.567 43.1877 23.7942C43.6541 22.8151 44.5892 21.5768 45.7921 20.8625M47.9944 22.4419C48.4219 21.9091 48.5885 21.4086 48.5885 20.981C48.5885 20.569 48.434 20.2229 48.2186 19.9732C47.5752 19.2334 46.3336 19.1879 45.1984 19.863C43.4203 20.9184 42.0492 22.9729 41.7473 24.3507L41.6029 25.0107L42.2801 25.0533C43.6883 25.1431 46.6133 24.1712 47.9944 22.4419M70.4342 3.10577L62.6461 3.17049C62.6461 3.17049 60.0334 8.70862 59.755 9.29563C59.1258 9.30565 54.1951 9.38874 54.1951 9.38874L51.4275 15.0287C51.4275 15.0287 55.7795 14.8592 57.0897 14.8083C56.4534 16.1944 53.6232 22.3367 53.6232 22.3367C52.2304 25.0241 48.3906 30.0888 43.8975 29.8479C43.1376 29.807 42.7623 29.359 42.5452 28.6125C48.1021 27.9474 50.6184 25.7789 51.587 24.4826C52.5748 23.1575 53.0754 21.7835 53.0754 20.5126C53.0754 19.5624 52.7953 18.6698 52.2304 17.8961C50.7253 15.8395 47.5761 15.1999 44.3964 16.3046C39.2724 18.0844 35.363 23.4731 35.363 28.4806C35.363 28.747 35.3884 29.0117 35.4122 29.278C35.163 29.4763 34.8745 29.6563 34.7167 29.6412C34.705 29.6392 34.6812 29.6379 34.6386 29.5732C32.5432 26.0967 42.5657 7.80725 46.339 0.920174L46.8108 0.0597047L37.7335 0.0597047L37.5619 0.231295C34.5334 3.27696 30.7734 9.53111 27.7498 14.5549C27.7498 14.5549 27.0238 15.7427 26.3195 16.8962C26.6861 15.4149 27.0748 13.8489 27.0748 13.8489C28.1724 9.19837 29.5401 3.41014 30.9041 0.862139L31.3637 0L30.3847 0.00709679L22.9123 0.063457L22.7411 0.270117C20.9818 2.38935 18.8592 7.29831 16.6143 12.4954C13.5331 19.6183 9.31848 29.3745 6.75962 28.638C6.64439 28.6042 6.55421 28.5466 6.49493 28.375C6.11166 27.3012 7.44182 24.2517 8.87886 22.1872L9.91551 20.6938L3.59373 22.9642L3.49687 23.0727C1.391 25.3923 -0.499024 29.7377 0.118874 32.7153C0.410709 34.1168 1.22984 35.1568 2.48735 35.7255C4.17197 36.4874 5.92672 36.5246 7.70151 35.8357C12.3758 34.0237 16.0695 27.6794 18.053 23.5616C17.0723 28.1867 15.5163 33.0819 14.4032 34.8295L13.8333 35.7238L21.0189 35.7238L21.1939 35.4946C22.076 34.3406 23.3857 32.1776 24.9029 29.6713C25.9308 27.9763 27.0288 26.1981 28.1214 24.4931C27.5378 26.161 27.1391 27.8644 27.1391 29.4525C27.1391 30.7915 27.3595 32.0264 27.8196 33.0243C28.5577 34.6191 29.852 35.5898 31.5641 35.8257C34.1447 36.1175 36.3353 34.5089 37.3177 33.5415C37.7335 33.9828 38.1389 34.4258 38.7021 34.7769L38.7193 34.7869C40.8009 36.0052 46.6447 36.4586 50.9812 32.2456C51.5766 33.7879 52.8475 34.9264 54.5646 35.3218C56.7227 35.8169 59.2152 35.0316 61.1035 33.4163C62.1539 34.1457 63.3384 34.8721 64.5329 35.0859C71.2333 36.2803 74.5432 31.1038 75.0234 28.5587C75.1983 27.6306 75.2714 26.7906 75.2714 26.0203C75.2714 24.086 74.8201 22.608 74.433 21.351C74.155 20.4379 73.9241 19.6897 73.9241 18.9704C73.9241 18.3224 74.1124 17.6978 74.6163 17.0023L75.0167 16.4541C75.0167 16.4541 72.3714 15.0951 71.5435 14.6693C73.1776 14.6438 75.5665 14.6062 75.5665 14.6062L77.8486 9.04305C77.8486 9.04305 69.0782 9.17874 67.5276 9.20254C68.1284 7.9467 70.4342 3.1062 70.4342 3.1062M69.7604 14.696C68.5676 15.5648 66.4755 18.0423 62.0963 23.5837C60.9156 25.0801 59.6548 26.6699 58.8419 27.6235C58.9288 27.3809 59.0202 27.1296 59.1713 26.8344C59.1713 26.8344 64.8264 14.82 64.8485 14.7712C65.1862 14.7657 67.3055 14.7336 69.7604 14.6964M65.5069 26.6198C66.5368 25.0095 67.4361 23.8814 68.2912 22.8514C68.3116 23.0686 68.3438 23.3925 68.3438 23.3925C68.4544 24.2818 68.5613 25.1352 68.5613 26.0971C68.5613 26.5739 68.5342 27.0778 68.4695 27.626C68.383 28.352 67.8687 29.4279 67.0884 29.9878C66.5965 30.3406 66.045 30.4562 65.4526 30.3305C65.2643 30.2913 65.0339 30.1118 64.942 29.8012C64.9132 29.7076 64.8978 29.6079 64.8978 29.5043C64.8978 28.9987 65.2272 28.3896 65.8296 27.7855L66.2266 27.3867C66.2266 27.3867 65.6735 26.7981 65.5069 26.6198M63.8289 30.1339C64.0277 30.809 64.5721 31.3334 65.2117 31.469C66.1248 31.6607 67.0086 31.4774 67.7689 30.933C68.8786 30.1339 69.5078 28.7286 69.6234 27.7616C69.8355 25.9718 69.6622 24.5886 69.4994 23.2501L69.1667 19.9807L68.2762 21.0357L67.5009 21.9793C66.5164 23.1637 65.4985 24.387 64.2719 26.3722L64.0344 26.7505C64.0344 26.7505 64.5045 27.2527 64.6706 27.4289C64.0222 28.2401 63.7392 28.9732 63.7392 29.501C63.7392 29.7552 63.778 29.969 63.8289 30.1335" transform="translate(21.40039 46.43268)" id="Shape" fill="#FFFFFF" stroke="none" />
        <path d="M42.6405 0L40.6762 0.280976C40.2825 1.06838 39.2145 2.24698 38.7089 2.64069C39.2417 2.86447 39.6637 3.37089 39.5519 7.02569L41.3204 6.91422C41.2081 2.86572 40.4512 2.86572 40.1698 2.86572C40.7872 2.47243 42.6405 0 42.6405 0ZM43.3165 2.52922C43.8225 2.13551 45.9008 0.843352 46.1826 0.169507L47.8104 0.336505C47.8104 0.336505 45.9651 2.28164 44.7773 2.75174C44.9877 2.80769 45.4349 2.84359 45.6415 3.0728C45.9283 3.3066 46.659 4.24138 46.7421 7.16347L45.1723 7.05199C45.2215 4.50691 44.5172 3.34125 44.0166 2.93753C43.7398 2.71166 43.4133 2.60896 43.3165 2.52922ZM37.2456 0.225453L35.5622 0.392454C35.3907 1.29175 34.8855 2.41649 34.3795 2.8102C34.9414 3.82305 34.9423 5.28221 34.043 7.13675L35.7292 7.02528C36.6285 4.77746 36.4027 3.65146 35.8988 2.86573C36.5162 2.47202 37.2456 0.225457 37.2456 0.225453ZM30.8962 1.29383L32.752 0.784482C32.752 0.784482 31.9642 2.75299 31.3467 3.1467C32.1884 3.37089 31.3467 5.22459 30.2199 7.13674L28.534 7.25072C28.9582 6.37856 29.3452 5.80617 29.6475 5.053C29.9903 4.20297 30.2525 3.55209 29.7164 3.37215C30.2203 2.97844 30.672 2.30502 30.8962 1.29383ZM53.3724 0.842925C52.195 2.19187 51.1245 2.69746 50.6206 3.09116C51.5182 3.54081 52.2497 5.058 52.0259 7.36219L53.8258 7.81016C53.7122 4.8885 53.0371 3.76292 52.1954 3.53914C52.8129 3.14544 55.2282 1.00993 55.2282 1.00993L53.3724 0.842925ZM26.7684 2.1234L28.4518 1.80777C28.4484 1.81458 27.6759 3.37845 27.0123 3.78296C27.0133 3.82416 27.0148 3.86628 27.0163 3.90949C27.0397 4.58171 27.0723 5.51817 25.6232 7.38348L24.0405 7.58764C25.318 5.65127 25.6216 4.86721 25.4771 3.99004C26.0336 3.58423 26.4716 2.94128 26.7684 2.1234ZM58.2083 1.85579C57.5349 2.6432 56.2414 3.25859 55.7375 3.65062C55.8449 3.84544 55.9857 4.06308 56.1416 4.30395C56.7962 5.31542 57.7159 6.73658 57.5349 8.59758L59.1072 8.82303C58.6575 5.11396 57.9858 4.55243 57.1424 4.32656C57.7603 3.93286 60.0641 2.13427 60.0641 2.13427L58.2083 1.85579ZM61.5779 4.77745C62.0852 4.38375 63.0959 3.98963 63.4892 3.20264L65.234 3.48362C65.234 3.48362 63.7147 4.83423 63.0972 5.22793C63.9401 5.45213 64.3343 6.91213 64.672 10.2839L62.9302 9.77993C63.1443 7.5749 62.226 5.93497 61.653 4.91169C61.6272 4.8657 61.6021 4.82095 61.5779 4.77745ZM68.4366 4.94444C68.0429 5.73143 67.0305 6.12513 66.5249 6.51884C66.5842 6.62532 66.6472 6.7343 66.7123 6.84676C67.2652 7.80261 67.9634 9.00958 67.7632 11.0708L69.4465 11.7443C69.1088 8.25939 68.7744 7.36219 67.9327 7.13674C68.9439 6.5752 70.1809 5.39493 70.1809 5.39493L68.4366 4.94403L68.4366 4.94444ZM71.8087 8.26064C72.3127 7.86736 73.3239 7.69952 73.7176 6.91421L75.4063 7.47324C75.4063 7.47324 74.4486 8.54246 73.3251 9.04805C74.1684 9.27225 74.8419 11.1827 74.9554 13.9925L73.1581 13.0936C73.3618 10.9965 72.5404 9.55083 71.9691 8.54528C71.9128 8.44619 71.859 8.35138 71.8087 8.26064ZM78.1581 9.04806C77.7644 9.61001 76.7565 10.0041 76.2493 10.3978C76.3335 10.5495 76.4291 10.7075 76.5301 10.8743C77.1021 11.8195 77.8448 13.0469 77.6546 15.0054L79.4494 16.0153C79.3392 13.0936 78.6649 11.2391 77.8216 11.0153C78.6649 10.6216 79.6774 9.61043 79.6774 9.61043L78.1581 9.04806ZM80.9683 12.6456C81.4756 12.2524 81.9799 12.3062 82.3736 11.5192L82.3736 11.5188L83.72 12.3062C83.72 12.3062 83.1026 12.9813 82.4847 13.3746C83.328 13.6005 83.72 15.5652 83.9455 19.1624L82.3736 18.041C82.5974 15.7351 81.5315 13.6568 80.9683 12.6456ZM86.8726 14.3879C86.7026 15.0054 86.0242 15.2296 85.5203 15.6233C86.0818 16.6344 86.5319 18.881 86.3077 21.1852L87.88 22.312C87.9935 18.8267 87.4854 17.4219 86.9256 16.3547C87.5431 15.961 87.88 15.3978 87.88 15.3978L86.8726 14.3875L86.8726 14.3879ZM89.6798 19.0509C90.1871 18.6572 90.6902 18.4322 90.8597 17.8131L91.9836 19.0509C91.9836 19.0509 91.5899 19.668 91.1962 19.9498C91.534 21.017 91.7022 23.1525 91.4191 25.1753L90.1863 23.8839C90.4753 22.3368 90.0997 20.7907 89.8107 19.6012C89.7637 19.4079 89.719 19.2239 89.6798 19.0509ZM93.9509 21.7472C93.9509 21.7575 93.9509 21.7703 93.951 21.7854C93.9523 22.1181 93.9577 23.545 93.5292 23.7595C93.6615 24.8166 93.3438 25.9969 92.938 26.6945L94.0064 27.9884C94.5358 26.9191 94.7817 25.2709 94.704 24.4225C94.836 23.9795 94.9775 24.038 95.0167 23.5474L93.9509 21.7472ZM2.17893 33.6614C1.83992 32.3124 1.61656 30.5138 2.51586 28.6033L2.51585 28.6029L3.65061 28.924C3.58715 29.1775 3.50747 29.4475 3.42366 29.7316C3.06143 30.9592 2.62179 32.4493 3.07781 34.0008C1.95432 34.9001 1.00242 36.1167 0.890526 37.3521L0 36.7897C0.563207 35.1034 1.27796 34.5606 2.17893 33.6614ZM5.32605 29.3933C4.72192 31.4361 4.65178 33.3236 4.98912 34.6742C4.08816 35.5735 2.81228 36.2194 2.25074 37.9061L3.36421 38.476C3.81386 37.2406 4.98954 35.5739 6.22493 35.2362C5.70687 33.4786 6.19405 31.5765 6.53817 30.2329C6.56844 30.1147 6.59761 30.0008 6.62489 29.8918L5.32605 29.3933ZM8.61095 35.5648C8.41648 33.7656 8.27398 32.4472 8.86268 30.7823L10.159 31.4478C9.82293 32.7967 9.48434 35.1577 10.0475 37.0681L10.3845 37.2589C9.14909 37.595 7.23485 39.169 6.78687 40.4061L5.66255 39.5047C6.22075 37.8334 7.99345 37.3767 8.89984 36.4928L8.69819 36.3947C8.66943 36.1058 8.63962 35.8301 8.61095 35.5648ZM12.4574 32.6435C11.5597 34.5556 11.5518 36.3793 11.6199 38.0201L12.0148 38.2718C10.3452 39.3765 8.91823 39.7431 8.3617 41.416L9.48561 42.3174C9.93525 41.0807 11.9576 39.394 13.1947 39.0567L12.712 38.7173L12.8578 38.8075C12.5012 37.3116 13.0144 35.5558 13.4033 34.2253C13.4953 33.9107 13.5803 33.62 13.6452 33.362L12.4574 32.6435ZM15.1882 40.6895C14.5432 40.2942 15.554 37.1621 16.3414 35.3397L17.5237 36.3605C17.4502 36.5634 17.36 36.7965 17.2607 37.0527C16.7625 38.3393 16.0389 40.2079 16.0842 41.7475L16.4529 42.2034C14.3148 42.7649 12.348 43.7252 12.1392 44.5973L11.0763 43.6379C11.3919 42.3278 14.0447 41.6552 15.5143 41.0954L15.1882 40.6895ZM39.5389 37.5904C38.2493 37.6009 34.0079 37.6322 33.5211 37.6355C31.887 39.7159 29.8592 44.389 27.7045 49.3719C23.0518 60.1359 19.7569 67.1202 16.4641 66.1691C15.9635 66.0247 15.6028 65.6823 15.4245 65.1801C15.3331 64.9275 15.2947 64.6415 15.2947 64.3342C15.2947 62.8463 16.2299 60.841 17.0632 59.3768C15.8107 59.8248 14.4985 60.2987 14.3086 60.3684C12.6578 62.233 11.1857 65.4289 11.1857 67.8788C11.1857 68.2354 11.2149 68.5744 11.2808 68.8917C11.4996 69.9438 12.0603 70.6581 12.9884 71.0789C14.4 71.7169 15.8103 71.7465 17.3016 71.1666C22.5955 69.1134 26.8014 60.145 27.9621 57.4442L27.9638 57.4403C28.5954 55.9757 28.8335 55.4237 29.4388 55.6018C29.7748 55.6987 29.8842 55.9158 29.8842 56.2803C29.8842 56.5349 29.8312 56.8622 29.7648 57.2747C29.7648 57.2747 29.6776 57.8187 29.6776 57.8288C28.9411 62.1674 27.3262 68.0629 25.8892 70.9762L30.4541 70.9762C31.2975 69.8239 32.5199 67.8212 33.9352 65.4832C35.5877 62.7532 37.4619 59.6566 39.1369 57.3019C40.7029 55.0941 40.9037 54.8132 41.4619 55.1488C42.0137 55.4827 41.8607 55.7845 40.6382 58.196L40.6319 58.2083C38.4501 61.6138 37.6919 66.3353 38.898 68.9539C39.47 70.1888 40.4303 70.9078 41.735 71.0877C44.217 71.3679 46.4135 69.3564 46.8648 68.7998L47.3286 68.2274L47.7766 68.8132C48.1924 69.3559 48.6917 69.7968 49.338 70.2022C50.9671 71.1491 56.4656 71.7457 60.4548 67.6175L60.5183 67.5298L61.1996 67.1244L61.5311 66.9733L61.7804 67.6066C61.7804 67.6066 61.9056 67.9193 61.9632 68.0362C62.5945 69.7567 63.8825 70.3801 64.8477 70.6026C66.7803 71.0456 69.0858 70.3112 70.7278 68.7284L71.0752 68.3944L71.4676 68.6725C72.4855 69.3956 73.6745 70.1609 74.7604 70.3563C81.1962 71.5031 83.6457 66.1475 83.9066 64.7597C84.0694 63.9042 84.1346 63.136 84.1346 62.4317C84.1346 60.679 83.7225 59.333 83.3472 58.1077C83.0553 57.1541 82.7827 56.2677 82.7827 55.3664C82.7827 54.7101 83.0027 54.0312 83.3898 53.3252C82.5431 52.8872 80.947 52.0702 80.6485 51.9174C79.6256 52.3858 75.5165 57.577 73.0345 60.7191C68.6808 66.2318 68.632 66.2084 68.0399 65.9183L67.5494 65.3455C67.2981 64.5939 67.8249 63.3803 68.1589 62.7235C68.1589 62.7235 73.8145 50.7103 73.8165 50.7112L74.0925 50.0349C74.0925 50.0349 84.0983 49.8808 84.8109 49.8708C85.0046 49.3907 85.7311 47.6209 86.1315 46.6469C84.6552 46.6707 75.699 46.8084 75.699 46.8084C75.699 46.8084 78.0128 41.9467 78.6098 40.6979C77.3339 40.7096 73.9634 40.7376 73.4136 40.743C73.1318 41.3334 70.5211 46.859 70.5211 46.859C70.5211 46.859 65.5721 46.9441 64.9513 46.9546C64.7354 47.3888 63.8599 49.1765 63.3527 50.2048C64.6878 50.1522 68.9622 49.9873 68.9622 49.9873C68.9622 49.9873 64.7041 59.2374 64.6941 59.2608C63.0583 62.4204 58.9339 67.6951 53.8587 67.4238C52.8033 67.3661 51.4928 66.8384 51.2314 64.6428L51.1625 64.0491L51.7562 63.9961C57.4321 63.4972 59.7826 61.4034 60.6803 60.2023C62.1068 58.2897 62.3377 56.3926 61.3165 54.9981C60.1166 53.3557 57.4981 52.8835 54.8052 53.8183C49.8557 55.5355 46.0268 61.1759 46.6105 65.8857L46.6452 66.1667L46.446 66.3658C46.2899 66.522 45.4716 67.296 44.6249 67.2113C44.2429 67.1724 43.9201 66.9716 43.6809 66.6071C43.3941 66.1337 43.2597 65.4937 43.2597 64.7113C43.2597 59.733 48.7118 48.9327 54.8791 37.6381L48.2671 37.6381C45.3609 40.6366 41.7149 46.6765 38.7711 51.57C38.7711 51.57 36.2022 55.7709 36.1279 55.8862C35.4879 56.8564 35.2725 57.1825 34.7652 56.9516C34.5122 56.8381 34.4099 56.6857 34.4099 56.4243C34.4099 56.1513 34.5226 55.7601 34.6855 55.1731L35.9659 49.9977C37.0368 45.4624 38.2467 40.48 39.5397 37.5909L39.5389 37.5904ZM18.3642 43.8922C18.0285 42.4314 18.5362 40.8966 19.5494 37.975L20.7264 39.1707C20.7009 39.2407 20.6735 39.315 20.6447 39.3933C20.1682 40.6894 19.2887 43.0816 19.4856 45.0879L19.825 45.4645C18.2523 45.6899 15.8905 46.9262 15.1035 48.0492L14.223 46.8456C15.2258 45.2829 17.7617 44.5736 18.6798 44.2341L18.3642 43.8922ZM23.9925 42.861C22.7658 44.6324 21.5129 46.9257 21.6252 48.2747L21.9354 48.6166C19.648 49.1172 18.4234 49.0558 16.8557 50.2895L17.8606 51.7583C18.646 50.6348 21.5129 50.0708 23.0857 49.8466L22.7466 49.4754C22.6548 47.6839 24.0008 45.4486 25.0053 44.3322L23.9925 42.861ZM19.7135 54.5689C20.837 54.0074 22.0732 53.6688 22.8606 53.445L22.7467 54.8474C21.7488 55.0031 20.7001 55.3701 19.9657 55.8707L19.4697 54.6908L19.7135 54.5689ZM56.9169 55.8043C57.4497 55.8239 57.921 56.0206 58.2425 56.39C58.4579 56.6397 58.6111 56.9854 58.6111 57.3975C58.6111 57.8254 58.445 58.3256 58.017 58.8583C56.6359 60.5876 53.7122 61.5616 52.304 61.4698L51.628 61.4276L51.7712 60.7671C52.0731 59.3894 53.4446 57.334 55.2227 56.279C55.7905 55.9412 56.3842 55.7847 56.9169 55.8043ZM79.5233 59.6645L79.1889 56.3955L78.2984 57.4505L77.5243 58.3945C76.5403 59.5789 75.522 60.8022 74.295 62.7874L74.0566 63.1665C74.0566 63.1665 74.5267 63.6687 74.6928 63.8453C74.0444 64.6561 73.7622 65.388 73.7622 65.9157C73.7622 66.1704 73.8031 66.3846 73.8524 66.5495C74.0507 67.2246 74.5964 67.7498 75.2364 67.8855C76.1491 68.0771 77.0317 67.8918 77.7919 67.3473C78.9016 66.5482 79.5325 65.1438 79.6477 64.1764C79.8572 62.4084 79.6903 61.0367 79.5293 59.7134L79.5233 59.6645ZM36.459 69.7095C36.3913 69.8894 36.3236 70.0511 36.2605 70.202C36.0075 70.8068 35.8277 71.2367 36.0081 71.9578L36.5463 72.6287C35.2111 72.4078 34.3143 72.4638 32.9754 72.5757L32.074 73.758C32.22 73.758 32.4252 73.755 32.6713 73.7514C33.9413 73.7326 36.3014 73.6976 37.2439 73.9806L36.6072 72.708L36.907 73.0821C36.907 73.0821 36.9062 71.7323 37.2439 70.9453L36.459 69.7095ZM38.9352 77.0216C38.9214 76.2731 40.1835 74.6306 41.239 73.4716C41.239 73.4716 42.3829 73.7008 43.1106 73.5192C42.1383 74.6135 41.1559 75.6635 40.6081 76.3933C40.0804 77.0972 39.9284 77.8675 40.1389 78.4662L40.5843 79.0152C39.4608 78.7893 35.404 78.8503 34.2826 78.9622L33.4659 77.6658C35.5731 77.4433 38.3891 77.2847 39.3222 77.4988L38.9352 77.0216ZM45.3484 76.4434C45.2488 76.5925 45.0144 76.8604 44.7157 77.2019C43.6608 78.4075 41.8034 80.5304 42.241 81.5816L43.0338 81.8492C43.0338 81.8492 43.769 82.2922 42.9783 81.8492C42.1704 81.3979 38.0739 81.1745 35.9397 81.3987L37.0026 82.9201C38.1257 82.8082 42.8747 82.6362 44.0016 82.8621C43.939 82.8078 43.0789 82.0024 43.3148 81.6238C43.7118 80.9825 44.2546 79.8945 46.2791 77.8383L45.3484 76.4434ZM45.7855 83.6465C46.909 82.8612 48.3728 81.1324 48.4847 80.6827L49.3222 81.6926C48.8066 82.5159 47.9686 83.4678 47.2255 84.0549C47.0251 84.0465 46.8226 84.0361 46.621 84.026L45.7855 83.6465ZM53.9644 88.1351C53.1824 89.2243 51.7241 90.7841 50.5075 91.3457L51.4059 92.1331C52.643 91.4575 54.4816 89.7308 55.269 88.4958L54.9242 88.1351L53.9644 88.1351ZM42.061 89.4344C43.4079 89.6598 46.3492 89.5475 48.8212 89.2114L49.4971 90.0548C47.6973 90.5044 45.224 90.7286 43.0893 90.6167L42.061 89.4344ZM57.4376 90.471C56.9979 91.1782 55.0991 93.6423 53.6383 94.3174L54.6482 94.9909C55.8853 94.3174 57.4376 92.6762 58.225 91.3799L57.4376 90.4706L57.4376 90.471ZM44.794 92.756C49.6077 92.8069 50.563 92.5264 51.3504 92.1886L52.3048 93.09C50.5062 93.538 49.5284 93.768 45.9317 93.8803L44.794 92.756ZM60.163 93.0583C59.6027 94.0678 58.0367 95.6246 56.5758 96.2981L57.4747 96.86C58.7114 96.1866 60.277 95.0798 61.0644 93.8432L60.163 93.0583ZM47.8614 95.8367C49.66 96.0626 52.7361 95.6088 54.5343 94.9909L55.6586 95.7783C55.4391 95.8331 55.2089 95.8923 54.9703 95.9535C53.2533 96.3944 51.0981 96.9478 49.3222 96.8496L47.8614 95.8367ZM62.8513 95.089L62.8512 95.0892L62.8509 95.089L62.8513 95.089ZM62.8512 95.0892L63.7522 95.7119C62.9652 96.9473 61.633 97.7585 60.396 98.4323L60.1334 98.2862L60.396 98.4824C61.1834 98.5947 59.9329 100.275 56.451 100.948L55.1417 100.505C58.8015 99.7299 59.48 98.7375 59.9296 98.1722L59.3835 97.8649C60.8442 97.1911 62.2908 96.1003 62.8512 95.0892ZM61.9708 99.246C63.6558 98.5726 64.272 97.9651 65.3934 96.6162L66.1808 97.0642C64.9559 98.515 64.1171 98.9521 62.8989 99.6172L63.2066 99.7207C63.88 99.9445 61.8121 101.839 59.8845 102.064L58.3523 101.733C60.9972 101.131 61.9528 100.262 62.5331 99.4953L62.6204 99.5245L61.9708 99.246ZM57.1937 96.7406C55.7329 97.9776 54.0491 98.4874 51.8013 98.7133L53.1026 99.4952C55.4611 99.3817 58.4859 97.6966 57.9227 97.133L57.1937 96.7406ZM64.7843 100.15C66.2451 99.4748 66.9186 98.7964 67.706 97.7852L68.4934 98.0107C67.1428 99.4715 66.8033 99.808 65.5663 100.481L64.7843 100.15Z" transform="translate(11.37689 10.01959)" id="Shape" fill="#FF5910" fill-rule="evenodd" stroke="none" />
        <path d="M22.32 6.06842C23.3499 4.45855 24.25 3.32962 25.1034 2.30132C25.1256 2.51675 25.154 2.84198 25.154 2.84198C25.2658 3.73126 25.374 4.58421 25.374 5.54613C25.374 6.02459 25.3456 6.52976 25.2813 7.07585C25.1945 7.80231 24.683 8.8782 23.9027 9.43807C23.4105 9.79086 22.859 9.90567 22.267 9.78C22.0786 9.74284 21.8469 9.5629 21.7551 9.2527C21.7263 9.15751 21.71 9.05648 21.71 8.95294C21.71 8.44734 22.0411 7.84071 22.6431 7.23492L23.0385 6.83454C23.0385 6.83454 22.4861 6.24836 22.32 6.06842ZM2.60604 0.313182C2.98263 0.0881492 3.32289 0.0033955 3.59217 5.73349e-05L2.60604 0.313182Z" transform="translate(64.58813 66.97778)" id="Shape" fill="#002D72" fill-rule="evenodd" stroke="none" />
      </g>
    </g>
  </g>
</svg>