<?xml version="1.0" encoding="utf-8"?>
<svg width="153px" height="157px" viewBox="0 0 153 157" version="1.1" xmlns:xlink="http://www.w3.org/1999/xlink" xmlns="http://www.w3.org/2000/svg">
  <desc>Created with Lunacy</desc>
  <defs>
    <path d="M0 0L153 0L153 157L0 157L0 0Z" id="path_1" />
    <clipPath id="mask_1">
      <use href="#path_1" />
    </clipPath>
  </defs>
  <g id="washington-nationals-logo@logotyp.us">
    <path d="M0 0L153 0L153 157L0 157L0 0Z" id="Background" fill="none" stroke="none" />
    <g clip-path="url(#mask_1)">
      <path d="M58.8214 0C26.3363 0 0 26.334 0 58.8214C0 91.3065 26.3351 117.641 58.8214 117.641C91.3065 117.641 117.643 91.3066 117.643 58.8191C117.643 26.334 91.3065 5.98363e-06 58.8214 5.98363e-06" transform="translate(14.97858 14.74994)" id="Shape" fill="#AB0003" fill-rule="evenodd" stroke="none" />
      <path d="M55.558 0C24.8724 0 0 24.8736 0 55.5568C0 86.2412 24.8736 111.114 55.558 111.114C86.2404 111.114 111.115 86.2409 111.115 55.5557C111.115 24.8744 86.2401 0.000795822 55.558 0.000795822" transform="translate(18.2428 18.01807)" id="Shape" fill="#14264B" fill-rule="evenodd" stroke="none" />
      <path d="M39.968 0C17.8931 0 0 17.8943 0 39.9692C0 62.0441 17.8931 79.9383 39.968 79.9383C62.0429 79.9383 79.9371 62.0441 79.9371 39.968C79.9371 17.8943 62.0429 0 39.968 0" transform="translate(33.83203 33.60498)" id="Shape" fill="#AB0003" fill-rule="evenodd" stroke="none" />
      <path d="M37.6461 0C16.8559 0 0 16.8527 0 37.6422C0 58.4344 16.8559 75.2895 37.6461 75.2895C58.4364 75.2895 75.2914 58.4348 75.2914 37.6422C75.2914 16.8527 58.4367 0 37.6461 0" transform="translate(36.15387 35.93231)" id="Shape" fill="#14264B" fill-rule="evenodd" stroke="none" />
      <path d="M50.4272 9.92906L51.199 0L51.1994 2.99181e-06L51.6554 0.0352944L56.8164 6.35389L57.2611 0.605468L59.1187 0.748207L58.3501 10.6773L57.8921 10.642L52.7299 4.32024L52.286 10.0698L50.4272 9.92906ZM44.4067 0.686618L42.4706 0.966998L43.8753 10.6882L45.8156 10.4078L44.407 0.686618L44.4067 0.686618ZM35.8046 2.36621L33.9729 3.07246L35.8336 7.89857L32.1122 9.32989L30.2597 4.50065L28.428 5.20494L31.9569 14.3721L33.7854 13.6709L32.7604 11.0067L36.4787 9.57537L37.5037 12.2396L39.3303 11.5361L35.8046 2.36621ZM68.4956 3.45202C66.4125 3.45202 64.6396 4.69746 63.8651 6.69778C62.8362 9.37769 64.16 12.2066 66.9474 13.2799C67.7419 13.5838 68.4834 13.7352 69.2144 13.7352C69.7904 13.7352 70.3531 13.6391 70.9374 13.4466L71.0461 13.4113L72.4072 9.87924L68.3528 8.31655L67.7074 9.99296L70.0387 10.8898L69.6642 11.8568C69.0375 11.9674 68.3732 11.8776 67.605 11.5827C65.8043 10.8886 65.0553 9.21731 65.7443 7.42286C66.2541 6.10408 67.3442 5.28411 68.5897 5.28411C68.9536 5.28411 69.3242 5.35352 69.685 5.49194C70.9304 5.97193 71.2841 6.65661 71.5394 7.31423L71.6304 7.54795L73.3711 6.82915L73.2895 6.60798C72.7888 5.27077 71.8621 4.381 70.3739 3.80926C69.7626 3.57358 69.134 3.45241 68.4956 3.45241L68.4956 3.45202ZM79.003 8.15303L77.9482 9.60513L80.1897 11.2341L75.4628 17.7221L77.0431 18.8762L81.772 12.3882L84.0103 14.0214L85.0675 12.5725L79.0034 8.15303L79.003 8.15303ZM21.4283 9.69806C20.8844 9.76629 20.3515 9.98785 19.8366 10.3643C19.184 10.8368 18.7547 11.4792 18.6233 12.1693C18.4951 12.8634 18.6676 13.5822 19.1146 14.1975C19.6907 14.9877 20.4315 15.3571 21.4428 15.3571C21.8483 15.3571 22.2992 15.299 22.8596 15.1759L23.5486 15.0288C23.9074 14.9543 24.2478 14.883 24.5396 14.883C24.9305 14.883 25.1944 15.0112 25.4125 15.3124C25.5552 15.5069 25.6077 15.7198 25.5709 15.9433C25.518 16.2825 25.2646 16.6311 24.8552 16.928C24.158 17.437 23.4019 17.5072 22.6584 17.1327L22.4424 17.0252L21.5777 18.6875L21.802 18.7981C22.3616 19.0711 22.9427 19.2099 23.5314 19.2099C24.369 19.2099 25.1799 18.9326 25.9328 18.3836C27.5928 17.1723 27.9881 15.5457 26.961 14.1359C26.3571 13.3097 25.6144 12.9238 24.6215 12.9238C24.2172 12.9238 23.7588 12.9807 23.1341 13.114L22.442 13.263C22.0212 13.3528 21.6848 13.412 21.4138 13.412C21.0526 13.412 20.8389 13.3085 20.6338 13.0262C20.3236 12.5999 20.4248 12.1356 20.9048 11.787C21.3879 11.4345 21.8377 11.396 22.4271 11.6505L22.6639 11.7497L23.3094 10.0494L23.0933 9.9553C22.5275 9.71531 21.9722 9.6306 21.4283 9.69884L21.4283 9.69806ZM88.3478 18.0531C87.211 18.0531 86.1252 18.4409 85.1954 19.1836C84.1115 20.0502 83.4382 21.2635 83.3057 22.5925C83.1731 23.905 83.5735 25.2155 84.4299 26.2849C85.4134 27.5166 86.8522 28.2209 88.3686 28.2209C89.5054 28.2209 90.5944 27.83 91.5203 27.0872C92.6061 26.2182 93.2755 25.0104 93.41 23.6815C93.5433 22.3709 93.1453 21.0584 92.2889 19.9891C91.3054 18.7573 89.8666 18.0531 88.3482 18.0531L88.3478 18.0531ZM10.2722 19.262L10.0271 19.566L15.0422 29.2523L16.3104 27.7072L15.4892 26.1591L17.7739 23.3756L19.4503 23.8834L20.7616 22.2855L10.2706 19.262L10.2718 19.262L10.2722 19.262ZM88.5494 19.9746C89.4482 19.9746 90.2693 20.384 90.8661 21.1287C91.9708 22.5082 91.7163 24.3536 90.2642 25.5159C89.625 26.0257 88.8988 26.2991 88.1666 26.2991C87.2667 26.2991 86.4467 25.8897 85.8499 25.145C84.7483 23.7654 84.9985 21.92 86.4518 20.7577C87.089 20.2479 87.8141 19.9746 88.5494 19.9746L88.5494 19.9746ZM13.2921 22.0133L15.6234 22.7207L15.9418 22.8168L14.5889 24.4583L13.2921 22.0141L13.2921 22.0129L13.2921 22.0133ZM5.1006 26.3606L4.32377 28.181L8.68832 32.011L2.47756 32.0369L2.32031 32.4102L6.61153 36.8948L0.808992 36.4418L0 38.3492L10.5283 39.0182L10.6804 38.648L6.08489 33.7953L12.7427 33.8047L12.9093 33.4188L5.10061 26.3618L5.1006 26.3606ZM98.7208 29.8578L89.4513 33.5212L90.138 35.2537L95.5009 33.1322L92.1249 40.4499L92.0806 40.544L92.2441 40.9734L101.517 37.3101L100.827 35.5776L95.4672 37.6959L98.8843 30.2872L98.7208 29.8578ZM12.9881 72.7735L4.62178 78.1839L5.63233 79.7497L10.4792 76.6181L8.57183 84.5582L8.83143 84.9378L17.1915 79.5368L16.181 77.9709L11.3353 81.0998L13.2364 73.1656L12.9881 72.7735ZM90.1493 73.8895C88.9494 73.8895 88.0082 74.4314 87.3486 75.502C86.9255 76.1867 86.7706 76.9427 86.9134 77.6286C87.053 78.3227 87.4855 78.9234 88.1337 79.3238C88.6106 79.6164 89.0831 79.7583 89.5776 79.7583C90.2913 79.7583 91.0081 79.4748 91.9732 78.8097L92.5512 78.4093C93.0331 78.0835 93.4543 77.8011 93.8535 77.8011C94.0316 77.8011 94.206 77.856 94.386 77.9678C94.5931 78.0929 94.719 78.2678 94.7707 78.485C94.8492 78.8203 94.748 79.2422 94.4853 79.6744C94.028 80.4128 93.3672 80.7532 92.5273 80.6932L92.2853 80.6755L92.1155 82.5425L92.3669 82.557C92.4622 82.5641 92.5563 82.5696 92.6504 82.5696C94.0519 82.5696 95.2515 81.8723 96.0275 80.6116C96.6067 79.6712 96.8095 78.7438 96.6169 77.9297C96.4585 77.2627 96.0307 76.6968 95.3727 76.2914C94.8566 75.9737 94.359 75.8176 93.8562 75.8176C93.0453 75.8176 92.3049 76.2098 91.4465 76.7972L90.8591 77.1945C90.2705 77.5956 89.8909 77.814 89.565 77.814C89.414 77.814 89.2619 77.7666 89.0925 77.6619C88.6459 77.3866 88.5639 76.9215 88.8764 76.4145C89.1803 75.92 89.5768 75.7071 90.1878 75.7071L90.4917 75.7133L90.4442 73.8942L90.1493 73.891L90.1493 73.8899L90.1493 73.8895ZM80.6991 83.8982L79.3089 85.2801L86.2377 92.2442L90.5466 87.9561L89.2784 86.6848L86.3604 89.589L80.6987 83.8982L80.6991 83.8982ZM22.7713 84.9087L12.9301 89.6148L14.434 90.9324L16.0092 90.1607L18.7201 92.5304L18.1586 94.1896L19.7162 95.5538L23.0662 85.1632L22.7713 84.9087ZM20.2209 88.0953L19.4409 90.4026L19.3334 90.716L17.7386 89.3133L18.0335 89.1705L20.2209 88.0949L20.2209 88.0953ZM27.7029 89.0945L26.861 90.6779L29.306 91.9779L25.5493 99.0702L27.2786 99.9905L31.0381 92.8951L33.4863 94.1919L34.327 92.6085L27.7025 89.0941L27.7029 89.0945ZM72.7276 89.6756L72.3947 89.8803L73.7943 100.698L75.5122 99.678L75.2723 97.9423L78.369 96.1106L79.7717 97.1592L81.5536 96.1083L72.728 89.6752L72.7276 89.6756ZM74.6295 93.2955L76.5749 94.7589L76.8408 94.9574L75.0091 96.0381L74.9624 95.7103L74.6295 93.2951L74.6295 93.2955ZM65.5938 93.4767L63.7879 93.9378L65.2192 99.5262L58.3865 95.2641L58.2987 95.206L57.8521 95.3197L60.3273 104.969L62.1323 104.508L60.6978 98.9192L67.5337 103.181L67.6215 103.239L68.0682 103.126L65.5941 93.4767L65.5938 93.4767ZM38.1539 93.85L35.4203 103.283L37.3006 103.829L40.0354 94.3908L38.1539 93.85ZM49.0739 95.6381C46.2133 95.5087 43.9169 97.6177 43.7867 100.44C43.6596 103.262 45.7819 105.572 48.6191 105.699C48.703 105.704 48.7845 105.708 48.8673 105.708C51.6154 105.708 53.7781 103.641 53.9032 100.9C54.0302 98.078 51.908 95.7675 49.0739 95.6381L49.0739 95.6381ZM48.8473 97.4687L49.0057 97.4718C49.8672 97.511 50.6327 97.871 51.1582 98.4824C51.6817 99.0917 51.9472 99.925 51.906 100.822C51.8244 102.69 50.5025 103.972 48.7132 103.896C46.9509 103.815 45.7301 102.407 45.8129 100.545C45.8968 98.7337 47.1462 97.4687 48.8477 97.4687L48.8473 97.4687ZM51.0586 17.6511C31.553 17.6511 15.7394 33.4643 15.7394 52.9691C15.7394 72.477 31.5526 88.2902 51.0586 88.2902C70.5653 88.2902 86.3808 72.477 86.3808 52.9691C86.3808 33.4643 70.5653 17.6511 51.0585 17.6511" transform="translate(22.75592 20.61444)" id="Shape" fill="#FFFFFF" fill-rule="evenodd" stroke="none" />
      <path d="M30.3731 20.2589C32.3122 15.6583 36.1556 14.5332 36.1556 20.2538C36.1556 26.4873 33.0467 33.8796 30.3378 38.4429C27.7406 33.3078 28.1088 25.6383 30.3731 20.2589M49.3049 1.50818C44.2545 -2.53795 39.6633 2.52069 39.6633 5.41902C44.7219 6.49976 49.2355 11.5513 47.2124 24.6932C45.5615 35.4364 39.2288 42.1252 35.2376 42.2608C37.7395 38.6523 39.9672 34.6525 41.4205 30.1699C42.7797 26.0006 43.4208 22.5027 43.4208 19.5652C43.4251 15.5285 42.3193 12.5619 40.8021 10.5906C40.0429 9.60789 39.1845 8.87262 38.3116 8.37735C37.4457 7.8903 36.4383 7.62443 35.5944 7.61698C33.5196 7.61502 31.482 8.46323 29.8601 9.8169C27.4222 11.8533 25.5266 15.0132 24.1945 18.657C22.8686 22.302 22.1184 26.443 22.1157 30.4738C22.1157 33.6129 22.5718 36.6846 23.6 39.4049C24.2246 41.0578 25.0709 42.5832 26.1587 43.8906C25.4689 44.567 24.7623 45.1576 24.0541 45.6407C22.5376 46.6728 21.0236 47.2179 19.526 47.2179C18.8225 47.216 18.1119 47.0991 17.3818 46.8372C16.363 46.4607 15.6826 45.7937 15.1622 44.6898C14.6501 43.5914 14.3791 42.0546 14.3791 40.2123C14.3709 35.645 16.0277 29.2954 18.5743 22.9894C20.9863 17.0041 24.1862 11.0247 27.4359 6.49467C26.7297 6.47193 25.8152 6.45114 25.2525 6.45114C16.6182 6.45311 10.3557 8.44833 6.19548 11.3663C2.04073 14.283 1.79509e-05 18.1535 1.79509e-05 21.76C-0.00429624 24.107 0.869008 26.3128 2.53522 27.9472C3.45676 28.9154 4.68848 29.4574 5.95039 29.4574C6.97859 29.4574 7.93934 29.0821 8.65186 28.4013C9.47615 27.6214 9.89731 26.5375 9.84437 25.3462C9.79575 24.2137 9.3189 23.116 8.49893 22.2537C7.98992 21.7181 7.37661 21.3083 6.71703 21.0487C7.17505 20.2256 7.87856 19.397 8.88597 18.6366C10.3557 17.5186 12.4831 16.5606 15.345 16.0469C13.5576 19.1879 12.0506 22.322 10.849 25.3689C8.69892 30.8373 7.52484 36.0293 7.52171 40.5276C7.52171 43.5902 8.06678 46.3435 9.28086 48.6261C10.4879 50.9076 12.4043 52.6836 14.9438 53.6683C16.101 54.1212 17.299 54.3365 18.4997 54.3365L18.5029 54.3365C20.833 54.3365 23.1459 53.5452 25.3571 52.2236C27.1649 51.1417 28.9201 49.7053 30.5864 48.0007C34.0937 49.9037 42.244 50.6794 48.4257 39.6602C55.8435 26.4461 56.1117 6.97428 49.3037 1.50938" transform="translate(44.52417 46.95984)" id="Shape" fill="#14264B" stroke="none" />
      <path d="M68.2262 0.00116082C67.6211 -0.00903527 67.0223 0.124292 66.4412 0.4035C65.1381 1.02426 64.1585 2.27245 63.777 3.33987C66.8996 4.38454 71.6355 7.61658 71.6355 17.5664C71.6355 19.3683 71.4834 21.3953 71.1359 23.6686C69.5752 33.8058 63.9291 40.6879 59.4152 42.0169C58.1627 42.3883 57.0176 42.3138 56.0671 41.8503C58.9226 37.9873 61.3688 33.3545 63.0496 28.5699C68.2396 13.3815 61.701 7.5656 58.416 7.5656C47.6975 7.19542 41.1393 33.3145 50.4704 42.7055C47.2732 46.1827 43.5436 48.0932 39.7116 46.7187C31.0307 43.6023 38.8355 20.2055 47.9756 6.40603C25.5395 6.408 20.2377 20.1746 26.0846 25.9198C27.3794 27.2821 29.3923 27.4735 30.5746 26.3461C31.7609 25.2207 31.675 23.2031 30.3813 21.842C29.6637 21.0859 28.7327 20.693 27.8371 20.6816C28.7719 17.41 32.6526 14.0156 40.2735 13.3764C30.0021 30.2695 27.8535 47.3748 38.0912 51.3754C42.9318 53.2659 48.4403 50.4464 53.2436 45.2733C54.5934 46.0136 56.4788 46.7007 58.0956 46.6787C61.3131 46.6301 65.9985 45.1552 70.1018 37.85C73.5162 31.7538 75.5648 23.9552 75.7107 16.4414C75.8605 9.26751 74.1923 3.58615 71.2704 1.24231C70.2618 0.433316 69.2348 0.0168619 68.2266 0L68.2266 0.00117877L68.2262 0.00116082ZM53.0499 39.4201C59.6755 29.6232 62.7817 14.025 57.0081 14.025C50.7041 14.025 47.2901 31.7043 53.0499 39.4201ZM4.49592 25.9971L3.43282 29.2633L0 29.2633L2.77794 31.282L1.71798 34.5442L4.49592 32.5294L7.27111 34.5442L6.21115 31.282L8.98909 29.2633L5.55627 29.2633L4.49631 25.9971L4.49592 25.9971ZM98.4428 29.2633L99.5059 26.0002L100.564 29.2633L103.999 29.2633L101.221 31.282L102.282 34.5474L99.5059 32.5294L96.7279 34.5474L97.7859 31.282L95.008 29.2633L98.4428 29.2633Z" transform="translate(21.80188 48.16681)" id="Shape" fill="#AB0003" fill-rule="evenodd" stroke="none" />
    </g>
  </g>
</svg>