<?xml version="1.0" encoding="utf-8"?>
<svg width="123px" height="131px" viewBox="0 0 123 131" version="1.1" xmlns:xlink="http://www.w3.org/1999/xlink" xmlns="http://www.w3.org/2000/svg">
  <desc>Created with Lunacy</desc>
  <defs>
    <path d="M0 0L123 0L123 131L0 131L0 0Z" id="path_1" />
    <clipPath id="mask_1">
      <use href="#path_1" />
    </clipPath>
  </defs>
  <g id="oakland-athletics-logo@logotyp.us">
    <path d="M0 0L123 0L123 131L0 131L0 0Z" id="Background" fill="none" stroke="none" />
    <g clip-path="url(#mask_1)">
      <path d="M60.4286 120.858C93.8017 120.858 120.857 93.8021 120.857 60.4302C120.857 27.0555 93.8013 0 60.4286 0C27.0555 0 0 27.0559 0 60.4302C0 93.8017 27.0559 120.858 60.4286 120.858" transform="translate(2.371826 9.142456)" id="Shape" fill="#FFFFFF" fill-rule="evenodd" stroke="none" />
      <path d="M58.0868 0C26.0584 0 0 26.0584 0 58.0884C0 90.1151 26.0576 116.175 58.0868 116.175C90.1159 116.175 116.174 90.1151 116.174 58.0884C116.174 26.0576 90.1159 3.07356e-06 58.0868 0ZM90.9865 58.09C90.9865 39.9486 76.2298 25.1887 58.0868 25.1887C39.9445 25.1887 25.1854 39.9486 25.1854 58.09C25.1854 76.2315 39.9437 90.9914 58.0868 90.9914C76.2298 90.9914 90.9865 76.2315 90.9865 58.09ZM56.0608 32.6311C55.4453 32.6359 54.8349 32.7044 54.2464 32.8418C47.6629 34.3778 48.247 39.621 48.2543 39.6742L48.4803 41.4814L49.5523 40.0106C50.6464 38.5112 51.9875 38.7996 52.5443 39.1606C52.9617 39.4196 53.2654 39.6049 53.2654 40.0843C53.2654 40.2942 53.2066 40.5581 53.0753 40.9098C53.0753 40.9098 52.5814 42.209 52.3304 42.8656C51.6101 42.7424 50.8841 42.6868 50.1413 42.8125C48.4142 43.1074 47.169 43.8397 46.4438 44.9927C45.3566 46.7254 45.8949 48.7408 45.9336 48.8858L45.935 48.8912L46.3198 50.2214L47.1919 49.1486C48.1423 47.9775 48.9959 48.2627 49.4222 48.5379C49.7674 48.7615 49.9547 48.8847 49.6933 49.8697C49.6925 49.8695 43.642 70.1313 42.8209 72.8829C37.8658 74.7087 37.2861 78.06 37.2861 79.4443C37.2861 79.8282 37.3276 80.0558 37.3292 80.0723L37.5572 81.2652L38.5003 80.4885C38.5224 80.472 40.71 78.7002 44.3268 78.3417C45.0978 78.266 46.1934 78.5414 47.2618 78.8099L47.3156 78.8235C48.3876 79.101 49.4967 79.3786 50.4301 79.3544C51.743 79.3218 52.8219 78.8807 53.5486 78.0911C54.2858 77.2902 54.6363 76.1787 54.561 74.8795L54.5372 74.4843L50.4216 72.184L50.2468 73.1859C50.2238 73.3132 50.161 73.5404 49.9978 73.6326C49.939 73.6669 49.8572 73.6758 49.7666 73.6818C50.1014 72.5264 51.627 67.1982 51.8667 66.3611L60.5313 66.3611C60.7626 67.257 62.0977 72.4938 62.0977 72.4938C63.4787 78.1241 67.7812 79.9829 71.4246 79.3214C75.2276 78.6438 77.8691 74.7361 78.3119 69.1287L78.3739 68.3488L77.5907 68.3488C77.2117 68.3488 77.0388 68.5748 76.7242 68.9841C75.9991 69.928 74.7139 70.8368 73.7592 70.6632C73.1549 70.5528 72.6896 69.9723 72.3734 68.9377C72.3751 68.9373 65.7165 41.3557 65.7165 41.3557C65.2754 38.3947 63.7429 35.8608 61.418 34.2808C59.8167 33.1946 57.9092 32.6198 56.0613 32.6331L56.0604 32.6323L56.0608 32.6311ZM68.6622 43.5545C69.0264 43.1267 69.6138 42.864 70.2579 42.8165L70.2579 42.8161C70.4724 42.8008 70.6937 42.8089 70.9146 42.8431C71.7799 42.9764 72.4571 43.4824 72.773 44.2305C73.5537 46.0853 72.8008 47.8671 71.7026 48.8142C71.3827 49.0861 70.4255 49.6848 69.8817 49.8097L69.5175 49.8915L68.798 48.8476L68.5587 48.2434L69.1605 47.9722C69.509 47.8139 69.6383 47.7527 69.9509 46.9744L69.9852 46.8692L69.8667 46.8708C69.1839 46.9083 68.5961 46.5687 68.2956 45.9644C67.9242 45.2155 68.0716 44.2478 68.6622 43.5545ZM78.1489 44.0714C75.2228 44.072 73.1798 46.0684 73.1798 48.9242C73.1798 51.9758 75.236 52.5563 77.0472 53.0724C77.6866 53.2537 78.6623 53.5329 78.6623 54.0042C78.6623 54.7245 77.7152 54.7459 77.6048 54.7459C76.7753 54.7459 75.9257 54.3563 75.012 53.5546L74.4887 53.0974L72.5074 56.829L72.9083 57.1082C74.3404 58.1158 76.0522 58.6697 77.7244 58.6697C79.2835 58.6697 80.7044 58.1951 81.7167 57.3314C82.7291 56.4733 83.2363 55.1725 83.2363 53.4607C83.2363 50.7898 81.2095 49.881 79.6823 49.4318L78.8331 49.1772C78.4331 49.0458 77.7486 48.8275 77.7486 48.4822C77.7486 48.1612 78.2598 47.9638 78.6289 47.9638C79.2658 47.9638 79.9192 48.22 80.4824 48.6865L81.0049 49.1232L82.8919 45.4584L82.4338 45.1977C81.2253 44.5133 79.5429 44.0701 78.1482 44.0701L78.1489 44.0714ZM78.1489 44.0714L78.1491 44.0718L78.1503 44.0714L78.1489 44.0714ZM58.7644 59.5064C58.4941 58.3281 57.3794 53.462 56.678 50.3998C55.8002 53.4285 54.3974 58.2805 54.0421 59.5064L58.7644 59.5064Z" transform="translate(4.713257 11.48224)" id="Shape" fill="#EFB21E" fill-rule="evenodd" stroke="none" />
      <path d="M0 56.375C0 25.2914 25.2865 0.00161823 56.3702 0.00161823L56.3742 0C87.4603 0 112.742 25.2898 112.742 56.375C112.742 87.4595 87.4538 112.747 56.3702 112.747C25.2882 112.747 0 87.4595 0 56.375ZM90.8825 56.3799C90.8825 37.3477 75.4016 21.8659 56.3702 21.8659C37.338 21.8659 21.8562 37.3493 21.8562 56.3798C21.8562 75.4096 37.3396 90.8922 56.3702 90.8922C75.4024 90.8922 90.8825 75.4096 90.8825 56.3799Z" transform="translate(6.42981 13.19562)" id="Shape" fill="#003831" fill-rule="evenodd" stroke="none" />
      <path d="M40.2664 0.0716876L42.957 -2.15148e-05L43.2233 10.0754L46.0397 10.0029L46.1009 12.3008L40.5923 12.4463L40.2664 0.0716876ZM33.0609 1.02245L30.4355 1.82172L29.9029 7.76588L29.8662 7.77393L28.2584 2.48321L25.6846 3.26475L29.2841 15.1088L31.8563 14.3272L30.0221 8.29523L30.0588 8.28314L34.2586 13.5976L36.9698 12.773L32.3192 7.22081L33.0609 1.02285L33.0609 1.02245ZM48.9592 12.4104L55.0404 1.17592L55.0399 1.17592L55.0399 1.17511L57.7894 1.86601L57.9445 14.6668L55.1584 13.967L55.1757 11.8234L52.5318 11.1579L51.5528 13.0622L48.9592 12.4104ZM55.5254 4.58211L55.5572 4.59017L55.4037 6.48078L55.2615 9.84907L53.4225 9.38618L54.7878 6.32568L55.525 4.58211L55.5254 4.58211ZM61.0136 16.0446L67.5717 5.54735L67.5721 5.54775L67.5721 5.54694L69.7612 6.91545L68.6545 15.0298L68.7021 15.0225C68.8769 14.4348 69.171 13.8655 69.513 13.3193L72.4599 8.59939L74.7405 10.0251L68.184 20.5215L66.0207 19.174L67.1616 11.0782L67.1132 11.0878L66.5621 12.2122L66.3047 12.6542L63.2966 17.4703L61.0136 16.0446ZM16.5413 7.98585L14.1903 9.57149L18.4912 21.6016L20.7081 20.1074L19.9479 18.1052L22.2075 16.5824L23.7916 18.0279L26.1728 16.4217L16.5413 7.98625L16.5413 7.98585ZM17.0793 11.4651L17.0787 11.4645L17.0803 11.4645L17.0793 11.4651ZM17.0793 11.4651L18.3804 12.8463L20.7951 15.1982L19.2231 16.2573L17.857 13.1984L17.0493 11.4835L17.0793 11.4651ZM80.7539 15.3319L71.2727 23.2879L72.8152 25.1278C75.5425 28.3784 78.4693 27.8805 81.1705 25.6128C86.1813 21.4101 82.7791 17.6785 82.1455 16.9836C82.1095 16.9441 82.0825 16.9144 82.0664 16.895L80.7543 15.3319L80.7539 15.3319ZM4.30858 18.6148C5.06958 17.6846 6.16213 17.0324 7.51613 16.9816C8.86933 16.9309 10.484 17.4796 12.2819 18.9496C15.879 21.8909 15.7171 24.8369 14.1959 26.6973C12.6759 28.5569 9.81806 29.3006 6.22417 26.3593C2.62706 23.4197 2.78739 20.4716 4.30858 18.6148ZM80.7987 18.8054L80.7987 18.8074C82.2244 20.509 80.6621 22.5286 79.4555 23.5393C78.2739 24.5308 76.0047 25.6575 74.6857 23.9353L80.7987 18.8054ZM10.4646 21.173C9.82687 20.6504 8.30568 19.5007 7.10758 19.5414C6.70795 19.5547 6.34377 19.7009 6.06136 20.047C4.92852 21.4312 7.18896 23.4406 8.0406 24.1372C8.8028 24.7592 11.3106 26.6466 12.4422 25.2616C13.575 23.8789 11.2256 21.7946 10.4646 21.173ZM77.612 71.0902C76.8672 71.4773 76.2524 71.999 75.7649 72.7137C74.4625 74.6228 75.1582 76.6073 76.7685 77.7087C78.261 78.7255 79.5578 78.4552 81.2212 77.7087C81.336 77.6608 81.4496 77.6104 81.562 77.5604C82.2666 77.2472 82.9299 76.9524 83.6074 77.4154C84.2858 77.8775 84.3325 78.7392 83.8418 79.4551C83.3959 80.1126 82.8303 80.4727 82.1498 80.7704L84.0747 82.0834C84.7607 81.8074 85.4645 81.1532 85.8932 80.5279C87.3213 78.4383 86.7344 76.3567 84.9167 75.1163C83.3635 74.0551 81.9236 74.6383 80.6623 75.1491C79.679 75.5474 78.8043 75.9017 78.0689 75.3987C77.4408 74.9741 77.3587 74.2824 77.8264 73.5964C78.2437 72.9848 78.9213 72.6367 79.5788 72.4301L77.6125 71.0894L77.612 71.0902ZM0 77.2551L11.8911 72.5827L13.5489 74.8855L5.4148 84.7704L3.73851 82.4439L5.13401 80.8139L3.54071 78.6002L1.56309 79.4233L0 77.2551ZM10.067 75.501L10.0671 75.5012L8.37942 76.3607L5.36686 77.8183L6.47189 79.3592L8.74763 76.8728L10.0875 75.5313L10.0671 75.5012L10.0674 75.501L10.067 75.501ZM71.2026 78.4258C71.5514 78.1132 71.9458 77.8747 72.3817 77.6862L72.3813 77.6854L73.8707 79.3709C73.5597 79.5369 73.2829 79.715 73.0255 79.9402C71.2525 81.5097 71.7775 83.6557 73.0392 85.0806C74.257 86.4584 76.5312 87.4732 78.2868 85.9186C78.545 85.6889 78.7493 85.4009 78.9411 85.1004L80.4723 86.8355C80.2733 87.2089 80.0078 87.5312 79.6827 87.8196C76.7749 90.3927 73.0569 89.4303 70.9028 86.995C68.868 84.6955 68.4547 80.8534 71.2026 78.4258ZM16.3318 78.2824L14.84 80.0292L16.4478 81.4009L9.903 89.0669L11.9503 90.8153L18.4943 83.1465L20.1162 84.5315L21.6064 82.7831L16.3322 78.282L16.3318 78.2824ZM61.9393 85.8203L64.2919 84.5073L64.2924 84.5073L70.3251 95.3289L67.9757 96.6402L61.9393 85.8203ZM24.2886 84.5791L19.1538 95.8438L21.6012 96.9585L23.775 92.1927L26.2566 93.3235L24.0844 98.0893L26.5309 99.2056L31.6666 87.9441L29.2168 86.8278L27.2106 91.2351L24.729 90.1026L26.7384 85.697L24.2886 84.5791ZM62.3663 86.8278L61.6315 85.5125L61.6331 85.5125C61.6339 85.5165 62.2088 86.5446 62.3663 86.8278ZM58.5243 87.0788L51.8913 89.0975L52.5608 91.2959L54.5819 90.6836L57.5167 100.324L60.0906 99.542L57.1526 89.8972L59.1922 89.2764L58.5243 87.0788ZM35.4958 88.8856L35.4958 88.8759L35.4958 88.8751L38.1578 89.3086L38.1546 89.3166C38.1546 89.3166 36.5444 99.2563 36.5388 99.2563C36.5388 99.2563 39.2327 99.6946 39.3112 99.716L39.3233 99.716C39.3233 99.716 38.9925 101.768 38.9535 101.955L38.9486 101.985L38.947 101.99C38.947 101.99 33.5109 101.109 33.5036 101.1C33.5036 101.1 35.3254 89.8818 35.4813 88.9666L35.4925 88.8856L35.4958 88.8856ZM48.7985 89.5653L43.3889 89.8444L44.0315 102.207L49.4765 101.924L49.3565 99.629L46.5965 99.7728L46.4527 96.9835L48.8509 96.861L48.7348 94.5639L46.3326 94.6896L46.1936 92.0005L48.9177 91.8607L48.7985 89.5653ZM39.7136 99.7229L39.5122 99.7229L39.3108 100.126L39.7136 99.7229Z" transform="translate(18.6485 18.57697)" id="Shape" fill="#FFFFFF" fill-rule="evenodd" stroke="none" />
      <path d="M17.2898 0C16.773 0.00241581 16.2626 0.0588156 15.7703 0.174037C12.6916 0.891927 11.5524 2.49087 11.1269 3.74174C12.4181 3.09838 13.7777 3.38481 14.6358 3.94115C15.1853 4.27915 16.47 5.07198 15.6216 7.34328L14.4368 10.461L13.7991 10.2765C13.0844 10.0722 12.3359 10.0332 11.5789 10.1629C10.2781 10.3849 9.36846 10.8945 8.87093 11.6784C8.55831 12.1707 8.46364 12.7033 8.43745 13.1763C9.51953 12.5679 10.6161 12.7396 11.4017 13.2496C11.9584 13.6097 12.4471 14.0883 12.4471 15.0673C12.4471 15.3839 12.3947 15.7533 12.2779 16.1868L5.19283 39.9082L4.83993 40.0251C1.21824 41.2401 0.243327 43.2407 0 44.5197C1.10342 43.8901 2.88244 43.0791 5.37733 42.8285C6.41042 42.7277 7.65496 43.043 8.85706 43.3476L8.86769 43.3503L8.88393 43.3543C9.85619 43.5996 10.8586 43.8525 11.5886 43.8353C12.5131 43.8099 13.2177 43.5436 13.6782 43.0392C14.1592 42.5183 14.2873 41.8395 14.303 41.2655C13.8921 41.0358 13.1605 40.6277 12.4974 40.2563C12.3375 40.4875 12.1413 40.6809 11.9012 40.8159C11.5084 41.0403 10.8191 41.2224 9.79425 40.8239L9.1803 40.583L11.9745 30.8419L22.2856 30.8419L22.8432 30.8274L24.6951 38.0732C25.9355 43.119 29.6027 44.3268 32.3647 43.8296C34.9934 43.3567 36.8823 40.8026 37.6728 37.1023C36.7663 37.7542 35.7032 38.1941 34.6952 38.008C33.8843 37.8617 32.7917 37.2683 32.177 35.2419C32.177 35.2419 25.5077 7.61965 25.4956 7.55599C24.9908 4.19899 23.2082 2.3543 21.8006 1.39953C20.4474 0.480212 18.8404 -0.00684174 17.2898 0.000811419L17.2898 0ZM30.6985 10.1963C30.8693 9.99288 31.2081 9.86316 31.5731 9.84261L31.5727 9.84342C31.6936 9.83616 31.8185 9.8402 31.9409 9.85913C32.2217 9.90143 32.7265 10.0549 32.9517 10.5867C33.1193 10.9867 33.1894 11.3706 33.1894 11.7332C33.1894 12.6682 32.708 13.4458 32.1786 13.9022C32.067 13.9985 31.839 14.1399 31.6203 14.2712C31.8016 14.0464 31.9788 13.7902 32.1706 13.3173C32.2556 13.1074 32.3462 12.8387 32.3462 12.5732C32.3462 12.3883 32.3039 12.207 32.1879 12.0438C31.899 11.6418 31.3975 11.6712 31.0651 11.6909C30.7598 11.707 30.5817 11.6091 30.4806 11.3976C30.336 11.1092 30.3464 10.6129 30.6985 10.1963ZM18.0363 10.5645L18.0365 10.5653L17.2617 13.2431L13.3157 26.8778L21.7757 26.8778L18.0365 10.5653L18.0368 10.5645L18.0363 10.5645ZM35.4805 14.8493C35.4805 12.6078 37.0335 11.1027 39.3479 11.1027L39.3479 11.1023C40.3981 11.1023 41.5902 11.4266 42.5865 11.8887C42.3335 12.3911 42.0555 12.9309 41.8025 13.42C41.1736 13.0425 40.5041 12.7863 39.818 12.7863C38.8496 12.7863 37.8436 13.3922 37.8436 14.4082C37.8436 15.5563 39.0498 15.9451 39.6956 16.155L40.5613 16.4156C42.5051 16.9873 43.3297 17.8756 43.3297 19.3863C43.3297 20.758 42.9462 21.7788 42.2029 22.4166C41.3863 23.1099 40.2185 23.4922 38.9209 23.4922C37.6265 23.4922 36.3281 23.0535 35.1678 22.3465C35.4325 21.8489 35.7673 21.2136 36.0481 20.6879C36.9706 21.3599 37.8787 21.774 38.8008 21.774C40.0799 21.774 40.9698 21.0146 40.9698 19.9301C40.9698 18.6237 39.4647 18.1982 38.6522 17.9686C36.3647 17.3196 35.4805 16.8648 35.4805 14.8493Z" transform="translate(43.51886 45.55713)" id="Shape" fill="#003831" fill-rule="evenodd" stroke="none" />
    </g>
  </g>
</svg>