<?xml version="1.0" encoding="utf-8"?>
<svg width="157px" height="134px" viewBox="0 0 157 134" version="1.1" xmlns:xlink="http://www.w3.org/1999/xlink" xmlns="http://www.w3.org/2000/svg">
  <desc>Created with Lunacy</desc>
  <defs>
    <path d="M0 0L156.4 0L156.4 133.286L0 133.286L0 0Z" id="path_1" />
    <clipPath id="mask_1">
      <use href="#path_1" />
    </clipPath>
  </defs>
  <g id="baltimore-orioles-logo@logotyp.us">
    <path d="M0 0L156.4 0L156.4 133.286L0 133.286L0 0Z" id="Background" fill="none" stroke="none" />
    <g clip-path="url(#mask_1)">
      <path d="M46.729 104.462C34.2991 104.462 22.663 99.9665 14.8173 92.0323C7.76499 84.98 4.06258 75.4595 3.97457 64.5284L0.448611 65.1453L0.272168 64.5284C0.184155 64.0875 -2.28439 53.3328 9.52817 43.8123C6.35468 36.4075 3.35722 22.8317 15.6991 12.3415C17.0214 11.0192 17.9028 10.4903 18.5201 9.96136C18.8726 9.6969 19.1371 9.52046 19.4015 9.34443C20.1069 7.40521 21.5172 5.64203 22.2225 4.93667C26.1014 0.881384 31.038 0.264457 31.2141 0.176443C31.9194 0.0884297 32.6244 0 33.3297 0C37.1201 0 39.3242 1.58674 40.294 2.2921C40.382 2.38011 40.382 2.38011 40.4705 2.38011C40.9114 2.46813 41.4403 2.55656 42.1452 2.55656C42.8506 2.55656 43.82 2.64457 45.0543 2.733C52.0186 3.61439 57.9246 6.8763 62.6849 12.2535C64.2716 12.077 70.6186 11.1956 73.7921 10.4903L78.6407 9.43244C86.3984 7.75769 93.7152 6.17095 99.0043 6.17095C99.7977 6.17095 100.503 6.17095 101.12 6.25896L101.208 6.25896C104.998 6.96432 107.908 8.99154 109.142 11.989C111.786 18.336 110.112 23.2726 103.412 28.6502C95.3896 35.0856 83.9299 38.4351 77.4065 39.9339C77.4945 40.4628 77.6709 41.4326 78.1118 43.0193C79.6986 42.8429 81.3733 42.8429 82.9605 42.8429C96.0073 42.8429 104.382 47.6031 104.911 52.2753C104.999 53.8621 103.853 55.7133 101.12 56.5067C89.3959 59.5921 87.0158 65.3222 83.9303 78.7215C82.0791 86.6552 77.4069 93.267 70.1781 97.8508C63.7427 102.171 55.3681 104.462 46.729 104.462" transform="translate(28.61664 14.36795)" id="Shape" fill="#DF4601" fill-rule="evenodd" stroke="none" />
      <path d="M34.0302 1.32227C37.9091 1.32227 40.1128 3.17347 40.9061 3.70239C41.964 4.05486 43.1098 3.7904 45.6664 4.14329C50.0741 4.76021 57.038 6.61142 63.1209 13.7522C63.1209 13.7522 70.9666 12.6943 74.669 11.989C84.0135 10.0498 93.4459 7.75767 99.7049 7.75767C100.41 7.75767 101.115 7.75767 101.733 7.84569C105.699 8.55104 108.168 10.7547 109.137 13.2233C111.87 19.7467 109.666 24.2424 103.672 29.0911C96.1785 35.0856 85.2478 38.6116 77.4021 40.4628C77.4021 40.4628 77.4901 41.697 78.3719 44.7825C80.2231 44.6061 81.9863 44.518 83.661 44.518C96.3554 44.518 104.466 49.1022 104.906 53.3336C104.994 54.5678 104.025 56.1546 101.556 56.8595C89.4791 60.033 86.9225 66.1155 83.837 79.6032C80.0466 96.176 64.0023 104.639 47.3411 104.639C26.625 104.639 5.11557 91.5922 5.20359 64.6172L1.50118 65.2341C1.50118 65.2341 -1.14339 54.303 10.9336 44.8705C8.72996 39.9338 3.26437 25.1242 16.6637 13.7522C18.7793 11.7245 19.5727 11.4601 20.5425 10.6667C21.1594 8.8155 22.4817 7.05232 23.2751 6.34696C27.0655 2.46812 31.8262 1.85119 31.8262 1.85119C32.7075 1.41029 33.4129 1.32228 34.0298 1.32228M34.0298 0C33.3245 0 32.5311 0.0880136 31.8261 0.176443C31.3853 0.264457 26.4486 0.969814 22.4817 5.11311C21.7764 5.81847 20.3661 7.58124 19.5727 9.60888C19.3963 9.78533 19.1318 9.96135 18.8673 10.1378C18.162 10.5787 17.3686 11.1956 15.9583 12.5179C9.8758 17.631 6.79033 23.978 6.79033 31.4708C6.79033 35.5261 7.67171 39.8454 9.4349 44.2532C3.44039 49.1899 1.23672 54.391 0.443353 58.0934C-0.438031 62.2367 0.26691 65.2337 0.26691 65.3221L0.531367 66.5564L1.76564 66.38L3.96931 66.0275C4.23377 76.7822 8.0246 86.1267 15.0765 93.179C23.0987 101.201 34.9112 105.785 47.4291 105.785C56.1562 105.785 64.6193 103.493 71.2307 99.2615C78.5475 94.5893 83.3962 87.8014 85.2473 79.6913C88.3328 66.292 90.5365 60.9144 101.909 58.0054C105.082 57.124 106.404 54.9199 106.228 53.0687C105.964 50.4241 103.407 47.8676 99.3524 46.0164C96.4434 44.6941 91.2423 43.1073 83.573 43.1073C82.1627 43.1073 80.752 43.1954 79.2533 43.2838C79.0768 42.4904 78.9008 41.9615 78.8124 41.4326C85.5122 39.8459 96.5314 36.4079 104.377 30.149C111.341 24.5954 113.104 19.3942 110.284 12.6944C108.961 9.52089 105.876 7.22879 101.821 6.52343L101.645 6.52343C100.939 6.43542 100.234 6.43542 99.4409 6.43542C94.0633 6.43542 86.7465 8.02216 78.9892 9.69692L74.1406 10.7547C71.1435 11.3717 65.4135 12.165 63.4739 12.4295C58.8897 6.8759 52.8956 3.70242 45.8432 2.7326C44.609 2.55616 43.6396 2.55616 42.8462 2.55616C42.2293 2.55616 41.7884 2.55616 41.4359 2.46815C41.4359 2.46815 41.3479 2.46815 41.3479 2.38013C40.3781 1.67478 37.998 1.89154e-05 34.0311 1.89154e-05" transform="translate(27.91571 13.75101)" id="Shape" fill="#FFFFFF" stroke="none" />
      <path d="M80.4855 45.1971C67.4386 52.4259 68.32 61.7699 53.6869 65.6488C37.1141 69.9685 23.7144 58.8609 33.4113 56.6572C35.7034 56.2163 35.9678 54.806 33.4993 55.2469C27.6812 55.5994 20.188 58.5969 27.2403 70.233C27.2403 70.233 28.2101 70.6739 28.6506 70.233C28.6506 70.233 26.0061 64.3265 28.0337 62.6517C37.3781 71.5553 58.1822 73.142 71.229 55.7758C75.6368 49.9578 80.7495 46.6079 85.6862 44.5802C77.7525 42.641 68.7605 42.4646 63.8238 43.9633C63.2069 36.1176 62.766 33.9139 61.2673 30.564C60.5619 29.0653 60.4739 28.1839 63.9118 27.2141C66.0275 26.5971 74.843 24.5695 82.4243 21.1315C87.8018 18.6634 91.5042 15.9304 92.4736 14.9606C93.267 14.2552 96.088 11.0818 95.0302 8.5252C93.9724 5.96865 91.4158 5.79262 88.3303 6.05707C85.6858 6.32153 84.4515 6.40954 67.9667 10.0239C59.3276 11.7871 54.391 11.8751 51.3055 12.8449C51.3055 12.8449 47.2502 2.9716 33.7629 2.53112C31.9997 2.53112 29.1787 2.17865 27.7684 0.767933C26.2697 -0.377912 23.6251 -0.201881 21.4214 1.03239C19.7467 1.91378 18.336 3.32449 18.0715 4.64678C17.4546 6.93887 16.6612 6.76243 13.4873 9.407C9.52045 12.6685 0.440484 19.8973 10.4903 38.3217C1.32228 43.6108 0 49.7818 0 49.7818L4.23132 49.5173C3.61439 50.6631 3.08548 54.454 3.08548 56.1287C2.99746 65.7376 5.90649 73.6713 11.8126 79.6658C18.248 86.1892 28.0329 89.9796 38.4351 89.9796C45.7519 89.9796 52.8042 88.0404 58.2698 84.6021C60.738 83.0153 62.942 81.0761 64.6168 78.872C43.6363 91.9189 24.4185 80.8112 20.5396 69.704C16.7492 58.8613 23.5367 50.4867 32.1758 52.5139C44.2528 55.4229 50.5997 53.7482 52.4514 47.9297C53.9501 48.4586 57.388 48.3706 59.5037 47.3128C62.6772 45.9025 69.9939 43.2575 80.4842 45.1971" transform="translate(36.73035 21.7106)" id="Shape" fill="#000000" fill-rule="evenodd" stroke="none" />
      <path d="M42.9322 0.118549C43.2954 0.0197919 43.6648 -0.0161538 44.0367 0.00656997L44.0367 0.0069798L44.0375 0.0069798C46.6441 0.164413 49.3452 3.18129 50.425 7.34649C51.6592 12.1059 50.337 16.6025 47.4279 17.3959C44.5189 18.1892 41.169 14.9281 39.8467 10.1679C38.7008 5.40769 40.0231 0.91192 42.9322 0.118549ZM14.0166 2.76314C6.8763 6.11306 0 6.90561 0 6.90561L1.23427 9.46216L14.0166 2.76355L14.0166 2.76314ZM31.7035 4.87713L31.7039 4.87713C34.3483 4.88196 37.2125 7.75579 38.5231 11.8431C40.0219 16.5153 38.9632 21.0995 36.1422 21.9809C33.3216 22.9507 29.7072 19.8644 28.2085 15.1922C26.7098 10.52 27.7684 5.93578 30.5894 5.0544C30.9538 4.93378 31.3255 4.87634 31.7035 4.87713Z" transform="translate(45.90204 50.65686)" id="Shape" fill="#FFFFFF" fill-rule="evenodd" stroke="none" />
      <path d="M13.1293 0.166279C13.2942 0.0885936 13.4698 0.0402458 13.6512 0.0162799L13.6512 0.0166897C14.9214 -0.150252 16.511 0.948483 17.3598 2.72283C18.3292 4.75048 18.0656 6.95414 16.6553 7.6595C15.333 8.27643 13.3929 7.21777 12.4231 5.10212C11.4533 3.07448 11.719 0.871636 13.1293 0.166279ZM1.22954 4.48559C1.58201 4.28725 1.97706 4.20378 2.39316 4.22568L2.39315 4.22526C3.64148 4.29138 5.06252 5.30003 5.98812 6.95289C7.22198 9.06855 6.95752 11.5379 5.54722 12.3313C4.13692 13.1247 2.02292 11.9776 0.788648 9.86192C-0.445213 7.74627 -0.180756 5.27896 1.22954 4.48559Z" transform="translate(73.41281 57.66147)" id="Shape" fill="#000000" fill-rule="evenodd" stroke="none" />
      <path d="M0 3.60539C0.732627 0.867428 2.09004 0.0517432 3.38505 0.00256935C5.05031 -0.0627173 6.61143 1.13726 6.61143 1.13726L0 3.60539ZM16.4839 2.90001C15.6026 2.98802 14.8108 3.34091 14.3699 4.04585C13.841 4.75121 13.6638 5.80903 14.0166 6.69042C13.2233 8.62964 13.3105 10.9209 13.8394 12.6841C14.4563 14.5353 15.3398 15.8584 16.574 16.4757C17.2794 16.9166 18.1608 16.9158 18.7777 16.7394C19.6591 16.4749 20.2756 15.858 20.7161 14.8882C21.6859 12.8605 21.5086 9.86349 20.8033 7.83585C21.1557 7.5714 21.5967 6.95529 21.7731 6.42638L21.157 6.24993C20.9805 6.6024 20.8053 6.95529 20.5409 7.21975C19.4831 4.31072 17.9827 2.81199 16.4839 2.90001ZM19.1289 8.01271C18.5996 6.24993 17.6318 4.22229 16.574 4.22229L16.574 4.22188C16.1335 4.22188 15.691 4.39832 15.5145 4.66278C15.1621 5.19169 15.1629 5.89622 15.4273 6.51315C15.7798 7.21809 16.3967 7.83626 17.1021 8.10072C17.7194 8.36518 18.3355 8.36518 19.1289 8.01271ZM71.1328 6.82014C69.6758 6.69784 54.1228 17.5336 54.1228 17.5336C64.4333 14.0956 72.7199 8.89451 71.2212 6.86687C71.2043 6.83959 71.1708 6.82472 71.1241 6.82017L71.1328 6.82014ZM64.4393 7.13159L64.4404 7.13135L64.4404 7.13093L64.4393 7.13159ZM37.0244 12.156C47.5534 10.84 64.2823 7.1661 64.4393 7.13159C64.3303 7.19725 56.1868 12.1061 48.0436 17.7976C39.1401 23.0872 32.6175 25.29 22.3037 25.0256C21.3908 24.9055 20.5205 24.8018 19.7091 24.7051C14.5645 24.092 11.7838 23.7607 15.515 21.324C15.515 21.324 25.6528 13.4783 37.0244 12.156ZM22.8326 7.21935C22.7446 7.21935 22.6553 7.39579 22.5673 7.57182C22.3908 7.92429 22.3028 8.45238 22.4793 8.71684C22.4793 8.80485 22.6557 8.80485 22.9202 8.71684C23.0082 8.71684 23.0966 8.62965 23.0966 8.54122C23.2731 8.36478 23.2739 8.01148 23.1854 7.83504C23.0982 7.74784 23.0106 7.74784 22.8378 7.74785L22.833 7.74785L22.833 7.74293C22.833 7.56975 22.833 7.48092 22.9202 7.21894L22.833 7.21894L22.8326 7.21935ZM23.7082 8.62883L24.4185 8.10074L24.4193 8.09991L24.4115 8.09826L24.5003 8.09826L24.5003 8.18627C24.5003 8.36271 24.5875 8.53916 24.764 8.62717L24.9412 8.80279L25.559 9.33418C25.8234 9.59864 25.9118 9.77426 25.9999 10.0387L26.0879 10.3032L26.0879 10.3912C26.2639 11.0085 25.9123 11.6246 25.3834 11.8891C25.1189 12.0655 24.8536 12.0672 24.6772 11.9792C24.5892 11.8907 24.4127 11.7147 24.3247 11.5383C24.1483 11.2738 24.3247 10.6556 25.2061 10.3032L25.2933 10.3032L25.2061 10.216C24.9416 10.04 24.4127 9.59905 24.2363 9.3346L24.1483 9.24452L24.1483 9.3346L24.0611 9.86268L23.971 10.5672L23.971 10.7445L23.8838 11.449L23.7958 12.2432C23.5313 13.1246 23.1776 13.6535 22.6487 13.918L22.5615 13.918L22.7388 13.1246C23.1793 12.8601 23.354 12.1548 23.4421 11.2734L23.5301 9.8631C23.5301 9.4222 23.6202 8.89328 23.7082 8.62883ZM15.2451 8.62882C16.5674 9.42219 17.8009 9.42219 19.2992 8.62882C19.5636 9.59863 19.8281 10.9217 19.8281 11.9796C19.8281 12.861 19.7401 14.0064 19.2992 14.7113C19.0347 15.1522 18.7711 15.3274 18.3302 15.4159C16.9199 15.6803 15.6856 13.5663 15.2447 11.9796C14.9803 10.9217 14.9803 9.68665 15.2447 8.62882L15.2451 8.62882ZM25.4701 10.392L25.3829 10.392L25.3829 10.3916C24.9421 10.5681 24.6768 10.7441 24.5887 10.9205C24.5003 11.097 24.5003 11.2734 24.6768 11.3614C24.7652 11.4494 24.9412 11.5366 25.1177 11.4486C25.2937 11.3606 25.3821 11.2742 25.4701 11.0978C25.5582 11.0098 25.5582 10.7445 25.5582 10.48C25.4701 10.48 25.4701 10.392 25.4701 10.392Z" transform="translate(57.18573 24.51434)" id="Shape" fill="#DF4601" fill-rule="evenodd" stroke="none" />
    </g>
  </g>
</svg>