<?xml version="1.0" encoding="utf-8"?>
<svg width="128px" height="157px" viewBox="0 0 128 157" version="1.1" xmlns:xlink="http://www.w3.org/1999/xlink" xmlns="http://www.w3.org/2000/svg">
  <desc>Created with Lunacy</desc>
  <defs>
    <path d="M0 0L128 0L128 157L0 157L0 0Z" id="path_1" />
    <clipPath id="mask_1">
      <use href="#path_1" />
    </clipPath>
  </defs>
  <g id="san-diego-padres-logo@logotyp.us">
    <path d="M0 0L128 0L128 157L0 157L0 0Z" id="Background" fill="none" stroke="none" />
    <g clip-path="url(#mask_1)">
      <path d="M0.000215607 16.8469C-0.0453133 7.29815 7.08877 0 17.0818 0L17.0826 0.000392284L17.083 0.000392284L44.3304 0.00431812C54.4828 0.00431812 56.6513 7.95559 56.7593 11.2275L56.7652 15.6843L43.2514 15.6843C43.0971 15.6843 43.1266 15.4704 43.2647 15.3907C43.5834 15.238 45.4035 14.7423 45.4035 13.0224C45.4035 11.3126 44.1926 10.6293 42.7941 10.6293L18.613 10.6407C13.6098 10.6407 10.7328 13.3576 10.6268 18.6771C10.624 18.8608 10.6236 32.8613 10.6209 35.619C10.7155 36.6222 11.3266 37.9077 13.1195 37.9292C13.3386 37.9377 16.7392 37.9347 19.9466 37.9319C21.48 37.9306 22.9693 37.9292 24.0456 37.9292L24.044 26.1962C24.044 21.9521 19.4172 21.5718 19.1362 21.5329C18.8324 21.4913 18.8532 21.0455 19.1362 21.0455C19.4486 21.0455 55.0927 21.0356 55.0927 21.0356C70.0297 21.0356 78.5002 28.1599 78.5002 43.1754L78.5002 82.469C78.5002 97.3451 70.0639 104.688 54.9687 104.688L54.6574 104.69L19.1067 104.69L19.0836 104.678C18.8567 104.632 18.8583 104.314 19.1358 104.254C20.2234 104.018 22.6294 102.748 23.6103 100.157C23.8603 99.4218 24.0208 98.5901 24.0518 97.6391L24.0534 86.1742L11.3482 86.1742C4.60072 86.1742 -0.0311791 79.8883 0.00218601 74.2724C0.00218601 74.2591 0.00415043 63.8009 0.00415043 58.3962L14.8265 58.3962C14.894 58.3962 14.96 58.4405 14.9686 58.5383C14.9812 58.6603 14.9101 58.7184 14.8053 58.7447C13.9866 58.9523 10.6213 59.8421 10.6213 62.581C10.6213 65.157 10.6327 72.3193 10.6327 72.8806C10.6327 73.688 10.9639 75.4797 12.8629 75.5441L24.0491 75.5441L24.0436 52.6947L24.0475 52.6947L24.0475 52.6774L34.676 52.6774L34.676 75.5441L39.1152 75.5441C43.6352 75.5441 46.1802 72.1246 46.1676 67.7781C46.1676 67.7781 46.1928 51.4572 46.1928 51.1957C46.1928 50.4602 45.6276 48.5432 43.5269 48.5432L13.0532 48.5432C5.43124 48.5432 0.000215607 42.1584 0.000215607 35.6983L0.000215607 16.8469ZM56.0355 30.9247L34.6757 30.9247L34.6756 30.9243L34.6756 37.9281L43.7816 37.9281C53.4925 37.9281 56.8331 45.804 56.8331 49.8887C56.8331 51.0065 56.835 69.4482 56.835 69.4482C56.835 78.9423 50.2924 86.1745 40.2994 86.1745L34.676 86.1745L34.676 94.7962C38.3703 94.7927 49.2924 94.7844 55.5806 94.7844C62.4376 94.7844 67.8674 91.0906 67.8674 84.1853L67.8674 42.7664C67.8674 36.0884 63.2222 30.9247 56.0355 30.9247Z" transform="translate(25.65057 26.15503)" id="Shape" fill="#002D62" fill-rule="evenodd" stroke="none" />
    </g>
  </g>
</svg>