<?xml version="1.0" encoding="utf-8"?>
<svg width="122px" height="144px" viewBox="0 0 122 144" version="1.1" xmlns:xlink="http://www.w3.org/1999/xlink" xmlns="http://www.w3.org/2000/svg">
  <desc>Created with Lunacy</desc>
  <defs>
    <path d="M0 0L120 0L120 142L0 142L0 0Z" id="path_1" />
    <clipPath id="mask_1">
      <use href="#path_1" />
    </clipPath>
  </defs>
  <g id="philadelphia-phillies-logo@logotyp.us" transform="translate(0.7449951 0.7449951)">
    <path d="M0 0L120 0L120 142L0 142L0 0Z" id="Background" fill="none" stroke="none" />
    <g clip-path="url(#mask_1)">
      <path d="M0 0L121.545 0L121.545 121.545L0 121.545L0 0Z" transform="translate(-1.472534 12.72748)" id="Shape" fill="#E81828" fill-rule="evenodd" stroke="none" />
      <path d="M6.76667 46.5661C22.0375 53.3931 25.2123 33.9291 25.2123 33.9291C16.2289 34.1328 22.0376 22.9119 30.8917 19.2641L30.8917 88.5324C19.4044 100.628 19.6753 112.049 29.2711 113.74C38.2589 115.295 49.1381 107.995 49.1381 97.453L49.1381 62.786C67.9918 55.9612 81.7121 48.4576 82.8582 29.6717C84.954 -3.30674 32.2459 -8.37367 10.9583 12.3722C-3.37084 26.4291 -2.42476 42.4453 6.76667 46.5661ZM52.0676 16.0923C61.5824 15.4528 66.9377 19.67 67.9772 28.649C68.9072 37.3937 62.9285 44.2761 52.7311 46.1836L49.6118 46.7684L49.6118 16.2595L52.0676 16.0923Z" transform="translate(17.84082 16.52551)" id="Shape" fill="#FFFFFF" fill-rule="evenodd" stroke="none" />
      <path d="M6.76667 46.5661C22.0375 53.3931 25.2123 33.9291 25.2123 33.9291C16.2289 34.1328 22.0375 22.912 30.8917 19.2641L30.8917 88.5324C19.4044 100.628 19.6753 112.049 29.2711 113.74C38.2589 115.295 49.1381 107.995 49.1381 97.453L49.1381 62.786C67.9918 55.9612 81.7121 48.4576 82.8582 29.6717C84.954 -3.30674 32.2459 -8.37367 10.9583 12.3722C-3.37084 26.4291 -2.42476 42.4453 6.76667 46.5661ZM52.0676 16.0923C61.5824 15.4528 66.9377 19.67 67.9772 28.649C68.9072 37.3937 62.9285 44.2761 52.7311 46.1836L49.6118 46.7683L49.6118 16.2594L52.0676 16.0923Z" transform="translate(17.84082 16.52551)" id="Shape" fill="none" fill-rule="evenodd" stroke="#FFFFFF" stroke-width="1.49" />
    </g>
  </g>
</svg>