<?xml version="1.0" encoding="utf-8"?>
<svg width="138px" height="139px" viewBox="0 0 138 139" version="1.1" xmlns:xlink="http://www.w3.org/1999/xlink" xmlns="http://www.w3.org/2000/svg">
  <desc>Created with Lunacy</desc>
  <defs>
    <path d="M0 0L138 0L138 139L0 139L0 0Z" id="path_1" />
    <clipPath id="mask_1">
      <use href="#path_1" />
    </clipPath>
  </defs>
  <g id="pittsburgh-pirates-logo@logotyp.us">
    <path d="M0 0L138 0L138 139L0 139L0 0Z" id="Background" fill="none" stroke="none" />
    <g clip-path="url(#mask_1)">
      <path d="M61.297 0.00164134L61.297 0.00163389L61.297 0.00203615L61.297 0.00164134ZM47.1524 4.82383C53.3654 4.82383 57.2903 3.91468 61.297 0.00164134L61.297 0C63.7081 8.04637 71.1515 17.1468 80.8089 19.5445C77.1471 25.8332 76.3307 32.1679 76.3307 37.9974C76.3307 43.8273 77.768 49.4125 81.429 55.7041C71.7728 58.0972 63.9137 64.0977 61.2974 72.1457C57.2903 68.2323 53.3658 66.7014 47.1528 66.7014L21.4975 66.6888L21.4975 92.202C21.4975 96.0255 23.7368 99.3799 27.1507 100.793L21.4975 114.486L5.64911 114.486L0 100.793C3.41349 99.3229 5.64911 96.0869 5.64911 92.202L5.64911 27.4887C5.64911 23.6029 3.41349 20.3645 0 18.8931L5.64911 4.76561L47.1524 4.82383ZM54.4252 18.4066L21.5769 18.4066L21.5769 52.6465L54.4252 52.6465C60.3096 52.6465 62.8873 50.1568 62.8873 45.5931L62.8873 26.0315C62.8873 21.6861 59.6285 18.4066 54.4252 18.4066Z" transform="translate(28.28577 0.1859131)" id="Shape" fill="#FDB827" fill-rule="evenodd" stroke="none" />
    </g>
  </g>
</svg>