<?xml version="1.0" encoding="utf-8"?>
<svg width="125px" height="137px" viewBox="0 0 125 137" version="1.1" xmlns:xlink="http://www.w3.org/1999/xlink" xmlns="http://www.w3.org/2000/svg">
  <desc>Created with Lunacy</desc>
  <defs>
    <path d="M0 0L124.87 0L124.87 137L0 137L0 0Z" id="path_1" />
    <clipPath id="mask_1">
      <use href="#path_1" />
    </clipPath>
  </defs>
  <g id="texas-rangers-logo@logotyp.us">
    <path d="M0 0L124.87 0L124.87 137L0 137L0 0Z" id="Background" fill="none" stroke="none" />
    <g clip-path="url(#mask_1)">
      <g id="Group" transform="matrix(1.515 0 0 1.515 0.3295898 8.000305)">
        <path d="M0 39.9124C0 17.8694 17.8692 0 39.912 0C61.9547 0 79.8239 17.8694 79.8239 39.9124C79.8239 61.9554 61.9547 79.8247 39.912 79.8247C17.8692 79.8247 0 61.9554 0 39.9124Z" id="Ellipse" fill="#003278" stroke="none" />
        <path d="M12.0216 26.2815C12.0397 11.8609 23.7784 0.000405692 38.0421 0C52.1206 0.00725889 63.7708 11.5672 64.0454 25.8017L75.9383 25.8017L75.9383 26.974L64.0333 26.974C63.6825 41.1484 52.0629 52.6185 38.0421 52.6306C23.7786 52.6302 12.0397 40.7697 12.0216 26.3491L12.0216 26.9741L0 26.9741L0 25.8017L12.0216 25.8017L12.0216 26.2815Z" transform="translate(1.757329 13.26888)" id="Shape" fill="#FFFFFF" fill-rule="evenodd" stroke="none" />
        <path d="M2.7506e-05 37.4334C0.359238 16.7336 17.2956 0 38.0805 0L38.0809 0.000442915C59.0871 0.000442915 76.1758 17.092 76.1758 38.0986L76.1734 38.0962C76.1702 37.8588 76.1605 37.6225 76.1553 37.3863L64.2736 37.3863C64.22 35.5721 63.9604 33.7664 63.5338 31.9925L63.5866 32.0635C63.5217 31.7861 63.4512 31.5075 63.3746 31.2322L63.3153 31.1644C63.2395 30.887 63.1807 30.6052 63.0952 30.3291L63.148 30.4351C63.0138 29.9941 62.8642 29.5607 62.709 29.1301L62.63 29.0366C61.3689 25.63 59.4003 22.4245 56.6621 19.6879C50.9063 13.9305 43.1299 11.4274 35.6144 12.1708C35.4531 12.1853 35.287 12.2066 35.1262 12.2244L35.1568 12.2361C34.8387 12.2732 34.5219 12.3264 34.2058 12.3727L34.1651 12.3493C33.9333 12.3848 33.7051 12.4308 33.4749 12.4731L33.487 12.4772C32.9871 12.5683 32.4912 12.6916 31.9961 12.813L31.9465 12.7968C31.6349 12.8739 31.3277 12.9573 31.0165 13.046L31.0346 13.0476C30.6129 13.1682 30.2001 13.3161 29.7852 13.456L29.7445 13.4455C29.4764 13.535 29.212 13.6306 28.9447 13.7305L28.9805 13.739C28.554 13.8983 28.1331 14.0724 27.7151 14.2546L27.6643 14.2546L26.7427 14.6735L26.8281 14.6679C24.2673 15.906 21.8577 17.5609 19.7323 19.6867C14.813 24.6072 12.2897 31.0011 12.1171 37.4455L2.7506e-05 37.435L2.7506e-05 37.4334ZM24.1806 33.0515L24.1806 23.4001L50.3044 23.4001L50.3044 33.052L48.0665 33.052L48.0698 32.6387C48.0698 29.0027 45.4271 26.9196 40.8183 26.9196L40.5022 26.9196L40.1337 26.9172L40.1337 34.7065C40.1337 35.9389 41.2686 36.7593 42.041 37.1915C41.2585 37.5568 40.1337 38.2837 40.1337 39.608L40.1337 48.0451C40.1337 49.1441 40.8332 49.7013 42.2176 49.7013L43.6742 49.7013L43.6742 53.4586L31.2463 53.4586L31.2463 49.7013L32.7851 49.7013C34.0401 49.7013 34.7851 49.0518 34.7851 47.9677L34.7851 39.608C34.7851 38.2715 33.8224 37.5652 33.1201 37.2044C33.816 36.8057 34.7851 36.0445 34.7851 34.7065L34.7851 26.9007L34.0296 26.9007C29.2745 26.9007 27.1547 28.735 27.1547 32.852L27.2135 32.6581L27.1793 33.0515L24.1806 33.0515Z" transform="translate(1.685924 1.669476)" id="Shape" fill="#C0111F" fill-rule="evenodd" stroke="none" />
        <path d="M31.3349 0.00647148L33.6039 2.46064e-05L33.6176 0.1141C33.6176 0.1141 33.6651 0.55031 33.6651 0.633356L33.6635 0.64545L34.8419 2.45157C35.0217 2.2125 36.0941 0.790579 36.1711 0.686974L35.9522 0.176981L35.8764 0L38.0639 0.00644687L37.3588 0.820008C37.3588 0.820008 35.8345 2.86117 35.7204 3.01719L36.1304 3.47477L35.8216 3.96379C36.047 4.30042 37.4011 6.30771 37.4011 6.31094L38.2865 7.18054L35.8583 7.18296L35.8446 7.07049C35.8446 7.07049 35.7954 6.63508 35.7954 6.55364L35.7962 6.54235C35.7922 6.5359 34.6968 4.90314 34.5267 4.65238C34.3457 4.88661 33.1677 6.41133 33.1027 6.49438L33.2527 7.15192L31.0805 7.17652L31.3168 6.95155C31.3168 6.95155 31.9397 6.36295 31.9429 6.36295C31.9429 6.36295 33.5748 4.20611 33.6982 4.04041L33.2265 3.58444L33.5361 3.0817C33.3196 2.75354 32.0586 0.83455 32.0586 0.833738L31.3349 0.00647148ZM21.2658 2.51366L21.1525 2.57535L16.8126 4.85759L17.5943 5.34259C17.5943 5.37766 18.4296 6.99188 18.5582 7.24344L18.2341 8.08845L19.1299 8.34686C19.1787 8.44362 20.1079 10.3284 20.112 10.3356C20.0995 10.3364 20.0946 10.9585 20.0946 10.9585L20.0938 11.171L24.491 8.8605L23.8258 7.52607C23.8258 7.52607 23.0949 8.50654 23.0949 8.50976C23.0882 8.50013 21.9047 9.12554 21.4839 9.34792L21.4837 9.348L21.4834 9.34817L21.4833 9.34823C21.4464 9.36774 21.4154 9.38413 21.3916 9.3967C21.2896 9.19794 20.4224 7.50229 20.3244 7.31039L21.5274 6.68107C21.5274 6.68833 22.1543 6.60529 22.1543 6.60529L22.3305 6.5823L21.6822 5.2761L21.0957 5.89857C21.0934 5.89522 20.6524 6.12382 20.2923 6.3105L20.2918 6.31072L20.2917 6.31081C20.1317 6.3937 19.9879 6.46829 19.9056 6.51055L19.0376 4.83989C19.2363 4.73507 20.8151 3.91546 20.8175 3.91385C20.8191 3.92635 21.7794 3.9074 21.7794 3.9074L21.983 3.90337L21.2658 2.51366ZM49.7114 3.21354L49.7751 3.15428L50.6814 3.58924L50.6757 3.6739C50.6757 3.6739 50.5419 6.6048 50.5128 6.60723C50.5161 6.60925 51.151 7.41757 51.151 7.41757L51.0619 7.49578C51.0619 7.49578 50.437 8.05737 50.4173 8.03963C50.4125 8.0735 50.1069 10.2832 50.1012 10.2832L50.2822 11.2467L47.9754 10.1667L48.5801 9.65306C48.5894 9.56516 48.6886 8.68226 48.7059 8.53511C48.5567 8.46497 46.7276 7.60102 46.5825 7.53329L45.7726 8.34363C45.7682 8.43071 45.748 9.13663 45.748 9.13663L43.9987 8.31501L44.1955 8.19124C44.1955 8.19124 44.8007 7.81416 44.7948 7.82088C44.8205 7.7978 46.4626 6.32086 46.5434 6.24886C46.5418 6.1505 46.5378 5.3962 46.5378 5.3962L46.6462 5.37927C46.6462 5.37927 47.484 5.25067 47.4872 5.2676C47.4944 5.26195 49.7114 3.21354 49.7114 3.21354ZM49.0442 5.20392C48.9869 5.69577 48.8107 7.22814 48.7809 7.49745L47.3276 6.81209C47.5368 6.61616 48.6842 5.54257 49.0442 5.20392ZM9.71031 10.5751L9.78691 10.4804L11.002 11.4306L10.8097 11.5173C10.8097 11.5173 9.91471 11.9164 9.90906 11.9075C9.90745 11.9116 9.34385 12.5901 9.21766 12.7469C9.37972 12.884 10.54 13.8588 10.615 13.9209C10.7053 13.9132 11.456 13.8334 11.456 13.8334L11.4765 13.9499C11.4765 13.9499 11.5882 14.5719 11.5882 14.6828L11.5854 14.6973C11.6108 14.7211 13.2802 16.1261 13.2802 16.1507L14.1905 16.291L12.6142 18.1769L12.5295 17.9927C12.5295 17.9927 12.2498 17.3896 12.2498 17.3634L10.5521 15.937L9.6962 15.9753L9.59864 15.1206C9.5293 15.065 8.36339 14.1063 8.19809 13.9688L8.1654 14.0077C7.95859 14.2532 7.47892 14.8228 7.47282 14.8175C7.47121 14.8207 7.18739 15.9463 7.18739 15.9463L6.01704 14.9811L9.71031 10.5751ZM60.5194 11.7265C60.3062 11.7306 60.0893 11.7745 59.8736 11.8668C59.6954 11.9418 59.4499 12.0773 59.2991 12.2958C59.1169 12.5635 58.9959 12.9227 58.9593 13.3077L58.9431 13.577L58.9274 13.7145C58.9064 13.7024 58.538 14.0551 58.538 14.0551L58.4654 14.1237C58.4654 14.1237 58.921 14.9501 58.921 14.955L58.921 14.9812C58.921 15.1384 58.9609 15.9201 58.9609 15.9201C58.9512 16.2733 58.7903 16.6317 58.5851 16.7619C58.3215 16.932 57.9824 16.9804 57.6526 16.8966C57.3402 16.8192 56.8927 16.587 56.5355 15.9314C56.134 15.0647 56.3823 14.4232 56.6593 14.0398L56.7536 13.9108L56.082 13.6177L56.0203 13.6927C55.6361 14.164 55.5172 15.2424 56.061 16.3168C56.5395 17.2606 57.1713 17.8774 57.8877 18.0996C58.442 18.2737 59.0225 18.2117 59.5688 17.9162C59.8301 17.7795 60.0591 17.5223 60.159 17.3441C60.3586 17.0062 60.4118 16.5991 60.4126 16.4713L60.4231 15.8508L60.3953 15.5093L60.8315 15.0643L60.4017 14.3293L60.4062 14.2834L60.4046 14.1402C60.4046 13.5883 60.5525 13.219 60.8267 13.1009C61.158 12.9546 61.9135 12.9731 62.2393 13.6754C62.515 14.2737 62.5699 14.6663 62.4421 15.1279L62.4126 15.238L63.05 15.4872L63.094 15.3586C63.3097 14.6796 62.9601 13.7963 62.734 13.3291C62.3038 12.4526 61.4435 11.71 60.5194 11.7265ZM3.02404 25.5832L3.95733 22.7067L4.89224 25.5832L7.91588 25.5832L5.47076 27.3599L6.40728 30.2372L3.95733 28.4577L1.51303 30.2372L2.44672 27.3599L0 25.5832L3.02404 25.5832ZM65.4177 22.7067L64.4836 25.5824L61.4571 25.5824L63.9039 27.3615L62.9698 30.2372L65.4177 28.4585L67.8644 30.2372L66.9279 27.3615L69.3779 25.5824L66.3506 25.5824L65.4177 22.7067ZM7.14192 41.4088L7.14222 41.4085L7.14181 41.4085L7.14192 41.4088ZM7.14192 41.4088L7.00112 41.5439L6.49153 42.0346C6.48266 42.0289 5.87632 42.2483 5.87632 42.2483L4.64711 42.6897C4.64711 42.6607 3.91298 42.3515 3.91298 42.3515L3.79889 42.3051L3.39453 43.1985C3.30341 43.2328 1.357 43.9443 1.35297 43.9451C1.34974 43.9379 0.687767 43.9004 0.687767 43.9004L0.495465 43.8879L1.31951 46.189L1.96656 45.5097C1.97462 45.5174 3.32697 45.0146 3.91536 44.7959L3.9159 44.7957C3.97534 44.7736 4.02696 44.7544 4.06859 44.7389L4.22018 45.1707L1.88109 47.7521L2.53541 49.617C2.53541 49.617 3.11554 48.7301 3.13207 48.7079C3.17037 48.6664 5.03051 46.7184 5.16718 46.5745C5.74409 47.2392 6.5512 47.5424 7.23414 47.2981C7.68849 47.1288 8.00133 46.8099 8.18275 46.3434C8.43028 45.7004 8.38271 44.7889 8.05818 43.9028L7.14192 41.4088ZM63.1923 42.5458L63.025 42.632C62.5449 42.8836 62.1224 43.4964 61.8353 44.3559C61.4503 45.5134 61.6793 46.9929 62.8646 47.4602C63.05 47.5312 63.3286 47.6182 63.5971 47.5646C63.9244 47.4997 64.2667 47.3223 64.5654 47.0764L64.763 46.8962L64.8493 46.8276C64.8557 46.8498 65.3895 46.8587 65.3895 46.8587L65.4875 46.8595C65.4875 46.8595 65.7499 45.9286 65.7499 45.9254C65.7604 45.9286 66.3881 45.2215 66.3881 45.2215C66.628 44.9941 66.9662 44.8611 67.1827 44.9127C67.5463 45.0167 67.7991 45.2356 67.9487 45.5271C68.137 45.8939 68.1587 46.3548 68.0124 46.8611C67.7056 47.7142 67.1077 47.9835 66.6594 48.0561L66.5022 48.0823L66.4873 48.2427L66.74 48.885L66.8723 48.8728C67.402 48.82 68.3277 48.1899 68.7199 46.947C69.0235 46.002 69.0291 45.1522 68.7377 44.497C68.4764 43.9101 67.9789 43.4811 67.3335 43.2904C67.0485 43.2025 66.705 43.2215 66.4889 43.2759L66.4873 43.2759C66.1269 43.3751 65.8067 43.6077 65.6741 43.7307C65.6693 43.7331 65.2347 44.162 65.2347 44.162L65.0319 44.4047L64.3937 44.4136L64.1784 45.2687L64.1002 45.3428C63.6076 45.8629 63.2802 45.8653 63.1302 45.8198C62.8121 45.696 62.2699 45.2066 62.5312 44.4853C62.7444 43.8871 62.971 43.5811 63.3641 43.3605L63.4636 43.3053L63.4693 43.1698L63.1923 42.5458ZM7.18895 44.2043C7.18895 44.2043 7.06357 43.8463 7.00512 43.6915L4.98936 44.3712L5.20787 44.9646C5.29415 45.1964 5.44855 45.3762 5.65779 45.4871C5.92951 45.6367 6.27985 45.6565 6.61043 45.5383C6.9132 45.4255 7.12485 45.2332 7.22 44.9816C7.2583 44.8824 7.27805 44.7756 7.27805 44.6599C7.27805 44.52 7.24943 44.3672 7.18895 44.2043ZM58.6408 53.0083C58.5251 53.0026 58.4045 53.0091 58.2812 53.028C57.5998 53.1272 56.8286 53.6154 56.2207 54.3351L54.5012 56.3589C54.5012 56.3589 55.3845 56.6213 55.3886 56.6213L55.3886 56.6221C55.3886 56.6411 56.829 57.8977 56.8443 57.9114L56.8379 57.9549C56.8379 58.121 56.9064 58.7177 56.9064 58.7177L56.9209 58.8399C56.9209 58.8399 57.8022 58.7641 57.8958 58.7544C57.9764 58.8217 59.5511 60.1751 59.5511 60.1751C59.5511 60.1977 59.8345 60.7782 59.8345 60.7782L59.9188 60.9492L61.5136 59.1015L60.6146 58.8701C60.6146 58.8596 59.2749 57.7211 58.904 57.4095L59.2072 57.0632C59.3479 57.0967 62.5953 57.8449 62.5953 57.8449L63.8934 56.3557L62.8186 56.2807C62.7989 56.2767 60.1719 55.6042 59.9611 55.5506C60.0603 55.272 60.1344 54.991 60.1344 54.7266C60.1344 54.19 59.9426 53.7066 59.5753 53.3881C59.2987 53.1515 58.9875 53.0253 58.6408 53.0083ZM13.2331 53.7336L13.3508 53.6937L14.0563 54.504L14.0196 54.5798C14.0196 54.5798 12.7892 57.1144 12.767 57.1112C12.7687 57.1144 12.9138 58.0933 12.9138 58.0933L12.8174 58.1291C12.8174 58.1291 12.1079 58.4081 12.0994 58.3859L11.3637 59.6079C11.3637 59.6079 10.9013 60.3812 10.898 60.3626L10.6658 61.4164L8.86858 59.3616L9.68052 59.1157C9.71721 59.048 10.1272 58.3287 10.1974 58.2082C10.0986 58.0945 8.83108 56.6565 8.73029 56.5416L7.73572 56.9379C7.69984 57.0165 7.37812 57.6974 7.37812 57.6974L5.99894 56.1146L6.32106 56.0614C6.72704 55.9997 6.9137 55.9727 7.01529 55.9678L6.99916 55.9606L9.25681 55.2015C9.29753 55.1188 9.61763 54.4379 9.61763 54.4379L9.72043 54.4633C9.72043 54.4633 10.5255 54.6604 10.5263 54.6774C10.5364 54.675 13.2331 53.7336 13.2331 53.7336ZM57.7699 54.5327C57.9703 54.5505 58.167 54.6399 58.3509 54.7984C58.6185 55.0286 58.7722 55.3446 58.7786 55.6555L58.7786 55.6744C58.7786 55.9038 58.6972 56.1211 58.5415 56.3029L58.1372 56.7903C57.9703 56.638 56.7133 55.4975 56.5584 55.3567L56.9124 54.9443C57.1144 54.7081 57.3373 54.569 57.5683 54.5383C57.6357 54.5282 57.703 54.5266 57.7699 54.5327ZM10.7267 57.1959C10.8553 56.9713 11.4979 55.8538 11.7341 55.4446C11.2879 55.6042 10.0554 56.0437 9.79499 56.1348C9.96995 56.336 10.559 57.0064 10.7267 57.1959ZM25.2877 59.372L25.2881 59.372L25.2878 59.3721L25.2877 59.372ZM25.2878 59.3721C25.5711 59.6817 25.813 59.8558 26.0758 60.0078C25.5747 59.8264 25.0752 59.6393 24.583 59.426C24.8171 59.4398 25.0412 59.4237 25.2878 59.3721ZM20.2394 59.8905L20.2257 59.6728L21.9867 60.536C21.9867 60.536 22.7418 64.688 22.8599 65.3399C23.0381 64.9767 23.2997 64.4385 23.2997 64.4385C23.2997 64.4385 24.2068 62.5908 24.2217 62.6013L24.1334 61.6047L26.0758 62.5884L25.9194 62.7122C25.9194 62.7122 25.3945 63.1262 25.3808 63.1238L25.0433 63.8148C25.0433 63.8148 24.5354 64.8582 24.5059 64.8582L24.7156 65.7108L24.62 65.7556C24.62 65.7556 23.9411 66.0708 23.9282 66.0467C23.9234 66.0604 22.5841 68.7974 22.5841 68.7974L21.7593 68.3809L20.7627 62.6203C20.3067 63.5342 19.0501 66.0632 19.0332 66.0632C19.0356 66.0656 19.1553 67.0795 19.1553 67.0795L17.1472 66.0833L17.3149 65.9595C17.3149 65.9595 17.866 65.5544 17.8749 65.5649L18.2361 64.8372C18.2361 64.8372 18.8497 63.5959 18.8792 63.6007C18.8759 63.5927 18.632 62.669 18.632 62.669C18.632 62.669 19.3896 62.3796 19.4774 62.3473L19.8133 61.66C19.8133 61.66 20.2833 60.6992 20.2946 60.7154L20.2394 59.8905ZM49.4751 60.1595L49.3038 60.2344L44.772 62.203L45.5682 62.7864C45.5682 62.8198 46.3044 64.5365 46.3689 64.6889C46.3289 64.7783 45.9774 65.529 45.9774 65.529L46.87 65.8576L47.6807 67.8479C47.6702 67.8496 47.6158 68.5373 47.6158 68.5373L47.5985 68.7486L52.2359 66.728L51.6384 65.327L50.7894 66.3067C50.7846 66.295 49.7118 66.7647 49.7118 66.7647L49.1308 67.0207C49.08 66.8985 48.3302 65.1097 48.2455 64.9037C48.4342 64.8219 49.4014 64.4058 49.4038 64.405C49.4054 64.4095 50.1065 64.3692 50.1065 64.3692L50.2855 64.3611L49.6686 62.8747L48.9946 63.4995C48.993 63.4947 47.8738 63.9789 47.8738 63.9789L47.8537 63.987C47.7698 63.7935 47.1973 62.4659 47.1151 62.2716C47.2909 62.1966 48.7712 61.5608 48.8269 61.5346C48.895 61.5402 50.0835 61.6056 50.0835 61.6056L49.4747 60.1582L49.4751 60.1595ZM32.0255 66.4136C32.5637 64.8449 34.1731 63.7604 35.9405 63.7774L35.9405 63.7777C36.8601 63.7866 37.3766 63.9273 37.9756 64.3341L38.0603 64.3905L38.0196 65.7197L37.8027 65.4532L37.6999 65.3254C37.4044 64.973 36.7811 64.7686 35.9454 64.7505C34.7835 64.7231 34.0997 65.6556 33.849 66.5236L33.8115 66.7385L34.3795 67.4125L34.2981 67.4948C34.2981 67.4948 33.7567 68.0338 33.7462 68.0418C33.9179 69.1259 34.6404 70.2269 35.868 70.2358C36.2549 70.2395 36.441 70.1608 36.571 70.1058C36.6089 70.0898 36.642 70.0758 36.6739 70.0665L36.6771 68.8308C36.6771 68.8308 36.6803 68.1983 36.6944 68.1983L36.2526 67.348L38.8303 67.367L38.7247 67.5536C38.7247 67.5536 38.3864 68.1551 38.3683 68.1551L38.357 70.6498L38.0865 70.7853C37.6209 71.0171 37.2229 71.2147 35.8587 71.201C33.9175 71.184 32.2138 69.8423 31.9114 68.0729L31.3519 67.3368L31.4248 67.2578C31.4248 67.2578 31.9304 66.7328 31.9352 66.7457L32.0255 66.4136Z" transform="translate(4.952259 4.354416)" id="Shape" fill="#FFFFFF" fill-rule="evenodd" stroke="none" />
        <path d="M22.1128 0.0104823L22.2007 0C22.4652 0.186258 22.8365 0.486604 22.8365 0.486604L22.5341 0.532162C22.4494 0.389052 21.8564 0.153199 21.6552 0.0758L21.6246 0.0645057C21.7854 0.0463585 21.9515 0.0253938 22.1128 0.0104823ZM20.6636 0.189902C20.4309 0.225778 20.2036 0.270537 19.9742 0.31286L19.9863 0.317289C20.4096 0.430983 20.8035 0.679323 21.23 0.887751L21.6416 0.851063C21.6416 0.851063 21.2578 0.5229 20.7043 0.212872L20.6636 0.189902ZM17.5149 0.886117C17.8261 0.798235 18.1325 0.713971 18.4449 0.636571L18.4945 0.652688C18.5989 0.682118 18.688 0.736141 18.8287 0.803464C19.1593 0.811117 20.0604 1.25499 20.0604 1.25499L19.3661 1.47753C19.323 1.45539 19.2792 1.43148 19.2346 1.40707C18.9743 1.26477 18.6822 1.1051 18.2861 1.17598C18.1361 1.00504 17.7382 0.921599 17.533 0.887729L17.5149 0.886117ZM16.2426 1.28525C15.9749 1.37555 15.71 1.4703 15.4431 1.57068L15.479 1.57874C15.6076 1.60898 16.0402 1.71662 16.2615 1.90731C16.7465 1.82506 17.2246 2.06494 17.5722 2.28627L18.2728 2.03914C18.1958 1.91053 17.2912 1.51746 16.7848 1.50779C16.6163 1.37514 16.4405 1.32999 16.2837 1.29573L16.2426 1.28525ZM14.3953 2.08891C14.4662 2.08428 14.5395 2.0795 14.6102 2.08311C14.7444 2.08998 14.8694 2.12748 14.9517 2.25205C15.3734 2.22907 16.1071 2.51409 16.5094 2.87613L15.7644 3.06843C15.425 2.85274 14.863 2.53465 14.3413 2.58625C14.2617 2.40482 13.6721 2.46944 13.3846 2.50095C13.3635 2.50325 13.3441 2.50539 13.3266 2.50723L13.2411 2.51368L14.1627 2.0948L14.2135 2.0948C14.2698 2.09709 14.3315 2.09306 14.3953 2.08891ZM12.4872 3.1567L11.5906 3.64249C11.7051 3.64975 12.4626 3.66466 12.5622 3.88679C13.0798 3.84285 13.6515 4.02346 13.9817 4.22988L14.6332 3.73441C14.122 3.45945 13.3225 3.30586 12.9069 3.32601C12.6968 3.25385 12.7271 3.18693 12.4872 3.1567ZM9.61235 5.07936L10.2344 4.55285C10.2344 4.55284 10.5327 4.75521 10.6597 4.95235C11.1899 4.81287 12.2324 4.76409 13.2157 4.93744L12.5614 5.51798C11.8091 5.34914 11.0408 5.50527 10.4542 5.6245C10.3615 5.64334 10.2733 5.66126 10.1905 5.67683C10.0086 5.42123 9.90866 5.17209 9.61235 5.07936ZM8.37753 6.48349L7.8611 6.9588C8.15983 7.04992 8.25417 7.38856 8.44042 7.6377C8.94275 7.38855 10.0514 7.21077 11.1702 7.36316L11.7479 6.61814C10.0514 6.49759 9.35275 6.71207 8.82503 6.96928C8.64361 6.66249 8.37753 6.48349 8.37753 6.48349ZM6.37908 9.10075L6.78747 8.45611C6.78748 8.4561 7.10556 8.76935 7.28214 9.07695C7.40994 8.66937 8.3775 8.51617 10.1348 8.47828L9.56034 9.22048C8.43676 9.06527 7.40469 9.54865 6.89753 9.80263C6.71772 9.54865 6.7528 9.30595 6.37908 9.10075ZM5.39297 10.3787L5.08657 11.108C5.35829 11.3124 5.5252 11.8136 5.71307 12.0683C5.78445 12.0314 5.85879 11.9897 5.93701 11.9459C6.41014 11.6807 7.02515 11.336 7.98482 11.4757L8.51457 10.611C7.08943 10.611 6.17105 10.9016 6.04244 11.3128C5.86506 10.8871 5.39297 10.3787 5.39297 10.3787ZM37.504 21.5937L37.504 10.5828L39.3883 12.3442L39.3883 23.5631L35.9889 23.5631L33.9079 21.5937L37.504 21.5937ZM4.26496 12.4235L3.9618 13.2355C4.33955 13.4407 4.40042 13.941 4.58345 14.1881C4.63107 14.1644 4.68095 14.1387 4.73322 14.1118C5.23329 13.8547 5.95104 13.4855 6.97414 13.6217L7.43857 12.765C6.06786 12.765 5.11884 13.0609 4.99669 13.4709C4.77132 12.9077 4.26496 12.4235 4.26496 12.4235ZM2.9015 15.7729L3.15145 14.9316C3.15145 14.9316 3.70618 15.5589 3.96178 16.0628C4.08797 15.6576 4.53184 15.5133 6.23958 15.4085L5.87957 16.22C4.87587 16.0821 4.27459 16.4006 3.79725 16.6535C3.74044 16.6836 3.68537 16.7127 3.6316 16.7401C3.45018 16.4829 3.27481 15.9834 2.9015 15.7729ZM20.5281 15.4443C16.143 15.4443 14.3534 16.9642 14.3494 20.7349L14.3446 21.594L10.0119 21.594L11.9877 23.4457L16.1079 23.4457L16.112 22.7535C16.112 18.8929 16.4889 16.4591 20.5841 16.0515L20.5841 15.4443L20.5281 15.4443ZM27.3329 22.5471L27.3329 15.4645C29.7344 15.4718 31.4954 16.0688 32.5867 17.1598C31.9126 16.651 30.9656 16.3027 29.6502 16.1898L29.3111 16.1692L29.3111 23.3376C29.3111 24.0722 29.8243 24.6556 30.373 25.0821L29.4937 24.7382C29.47 24.7289 27.3329 23.8763 27.3329 22.5471ZM48.7724 16.499L48.6684 16.8542C49.0026 17.2182 49.3255 17.6056 49.5932 18.1696L49.6465 18.2757C49.5118 17.8346 49.3622 17.4004 49.2078 16.9698L49.1272 16.8771C49.0361 16.7703 48.928 16.6526 48.7724 16.499ZM1.95611 18.1535L2.12383 17.3113C2.12383 17.3113 2.75274 18.0798 2.93497 18.3857C3.06518 17.9737 3.78642 17.8125 5.4337 17.7133L5.1527 18.5502C4.07352 18.4062 3.25374 18.8277 2.74738 19.0881C2.72787 19.0981 2.70883 19.1079 2.69025 19.1174C2.504 18.861 2.33548 18.3619 1.95611 18.1535ZM48.341 17.5226L48.2132 17.9024C48.6886 18.3112 49.0083 18.6498 49.3086 19.3727L49.488 19.001C49.182 18.3777 49.0216 18.2112 48.341 17.5226ZM47.5952 19.0102L47.8303 18.6316C48.514 19.2569 48.7124 19.675 49.0143 20.2821L49.0684 20.1338C49.1945 19.8084 50.0742 20.8582 50.1464 21.804L49.9605 22.5491C49.7158 21.236 49.3082 20.7603 48.9482 20.4623L48.9664 20.4136L48.8164 20.732C48.5185 19.8971 48.2358 19.5814 47.5952 19.0102ZM49.619 18.786L49.4424 19.1868C49.6367 19.3258 49.8315 19.5319 50.0314 19.833L50.0846 19.9024C50.0201 19.6258 49.9492 19.3472 49.8726 19.0719L49.8133 19.0041L49.619 18.786ZM46.8054 20.218L47.1243 19.7939L47.1243 19.7943C47.7113 20.2003 48.0834 20.8683 48.3902 21.4835L48.3043 21.6214L48.416 21.4835C48.4805 21.1009 49.278 21.7452 49.5424 23.4553L49.3021 24.081C48.9913 22.283 48.516 21.9359 48.2507 21.7061L48.0943 21.9637C47.7883 21.236 47.2876 20.516 46.8054 20.218ZM1.37076 19.8056L1.19458 20.7039C1.5675 21.0497 1.84608 21.692 2.0283 21.9516C2.1305 21.8995 2.24439 21.8292 2.37031 21.7513C2.86632 21.4449 3.54892 21.0231 4.43793 21.1501L4.6129 20.3987C2.98256 20.5224 2.72252 20.7034 2.32502 21.1892C2.14682 20.88 1.37076 19.8056 1.37076 19.8056ZM45.7597 21.4944L46.1608 21.0695C46.7494 21.4775 47.259 22.2604 47.5626 22.8788L47.2752 23.311C46.9704 22.5817 46.2419 21.7895 45.7597 21.4944ZM44.9066 22.4031L44.4466 22.7756C44.7821 22.997 45.9451 23.9762 46.2471 24.7063L46.5987 24.2213C46.2939 23.6021 45.5178 22.8163 44.9066 22.4031ZM0.514032 23.4602L0.644249 22.5906C0.644249 22.5906 1.64164 23.6243 1.83677 23.9303C2.01335 23.5461 2.61525 23.3263 3.95251 23.2481L3.81261 24.0673C2.685 23.9738 1.86096 24.3802 1.64366 24.814C1.45095 24.5761 1.17681 24.0299 0.514032 23.4602ZM47.7686 22.6337L47.7093 22.6632L47.5045 23.0175C48.0786 23.7525 48.2987 24.5798 48.3644 25.6884L48.7712 25.0651C48.7591 23.9807 48.0887 22.587 47.7686 22.6337ZM46.5966 24.2761L47.0042 23.7456C47.0281 23.8613 47.0542 23.9829 47.0814 24.1093C47.2617 24.9493 47.4865 25.9964 47.4094 26.8595L46.882 27.5533C47.0276 26.6773 46.8631 25.1647 46.5966 24.2761ZM43.4415 23.7984L42.9557 24.2293C43.4411 24.5184 44.4422 25.4464 44.7417 26.1741L45.1412 25.7512C44.8356 25.1348 44.0318 24.2035 43.4415 23.7984ZM29.4607 25.4026L30.4303 25.1292C31.0511 25.5965 31.701 25.8541 31.701 25.8541C31.701 25.8541 29.3119 26.5157 29.3119 28.2395L29.3119 33.0221L29.3692 32.9983C29.8264 33.6188 30.8161 34.5319 31.73 34.6831L31.9586 34.5488C31.9078 35.3685 31.8873 36.8827 32.3783 37.3971L31.7204 37.6729L32.5452 38.4389L32.5452 44.0495L21.138 44.0495L20.6897 44.5067C20.4922 44.4515 20.3309 44.2757 20.191 44.0495L19.2529 44.0495L17.0864 42.0007L30.8754 42.0007L30.8754 36.8839L31.3817 37.3548C31.1939 36.8046 31.2011 36.3187 31.211 35.6591C31.214 35.458 31.2172 35.2406 31.2152 35.0004L31.0084 35.1225C30.5339 35.0685 29.9082 34.64 29.3123 34.1167L29.3123 36.671L29.3115 36.8388L28.7173 36.8388C27.5687 36.8388 27.3349 36.4574 27.3349 35.8853L27.3349 27.4474C27.3349 26.0178 29.4393 25.4082 29.4607 25.4026ZM42.0648 25.1579L41.5774 25.5892C42.0644 25.8795 43.0638 26.8083 43.3649 27.5344L43.6875 27.1897C43.7846 28.3488 43.7778 29.651 43.6451 30.2593L44.2442 29.7808C44.3422 28.7358 44.2777 27.5268 44.0902 26.6431L43.6681 26.9519C43.319 26.3447 42.6062 25.5324 42.0648 25.1579ZM45.1703 25.7808L45.6242 25.33C45.8137 26.2154 45.9088 26.6967 45.8923 28.4573L45.3194 28.9911C45.4375 26.6435 45.321 26.1698 45.1703 25.7808ZM0.197215 25.5425L0.139565 26.3786C0.469746 26.5278 1.08012 27.5502 1.26315 27.8009C1.30629 27.7546 1.36031 27.601 1.47279 27.4635C1.67315 27.2228 2.25046 26.8794 3.49096 26.9314L3.56191 26.1646C2.13073 26.1815 1.67315 26.5306 1.5518 26.6713C1.43771 26.7717 1.39377 26.9616 1.36272 27.0684C1.1422 26.4847 0.197215 25.5425 0.197215 25.5425ZM39.9486 26.8482L40.453 26.4709L40.4526 26.4648C40.861 26.743 41.3318 27.2066 42.0374 28.2427L42.5788 27.8924C42.7187 28.9285 42.7489 30.0625 42.6316 31.0374L42.0499 31.4905C42.1702 30.9828 42.1171 30.022 42.0576 28.9448C42.0455 28.7271 42.0332 28.5046 42.022 28.2802L41.5387 28.6789C40.7303 27.4767 40.1611 26.9075 39.9486 26.8482ZM38.3158 28.1057L37.6281 28.5249C37.6964 28.5762 37.8175 28.6946 37.972 28.8455C38.5201 29.3812 39.4872 30.3264 39.999 30.1351C39.999 30.1351 39.7023 32.1408 39.7555 33.1785L40.5086 32.6964C40.484 32.1509 40.5199 29.8493 40.6561 29.3131L40.6573 29.3118L40.6526 29.3163C40.6051 29.3621 40.2162 29.7373 40.047 29.6187C39.7515 29.4127 39.2463 29.1264 38.3158 28.1057ZM0.0189662 29.0922L0.000825179 28.1694C0.000825179 28.1694 1.13731 29.1422 1.30663 29.4554C1.3088 29.4467 1.31086 29.4381 1.3129 29.4296C1.36993 29.1911 1.40898 29.0278 3.31392 29.1204L3.30505 29.9195C1.63238 29.5659 1.36912 29.7683 1.13691 30.1589C0.967176 29.8977 0.389059 29.3143 0.0189662 29.0922ZM35.7551 29.4603L34.8185 29.9715C35.3608 30.5314 37.1371 31.9421 37.5011 31.9538L37.5507 31.9155C37.5521 32.1744 37.5461 32.4062 37.5406 32.6199C37.5208 33.3869 37.5071 33.9196 37.8627 34.6319L38.7122 34.2775C38.2228 33.7687 38.2453 32.2493 38.2933 31.4305L38.2639 31.3789C37.9611 31.4849 37.5765 31.3934 37.233 31.1003C36.8911 30.808 35.7551 29.4603 35.7551 29.4603ZM0.049991 31.7296L0 30.9031C0 30.9031 1.08287 31.2994 1.26428 31.6147C1.65977 31.3801 2.21532 31.2942 3.29294 31.7776L3.31672 32.5976C2.42697 32.1223 1.71259 32.0993 1.21066 32.3565C1.024 32.1033 0.487812 31.8328 0.049991 31.7296ZM32.502 31.4599L31.649 31.8126C32.4222 32.6193 33.447 33.5038 34.1413 33.5828L34.3497 33.4631C34.3522 33.7386 34.346 33.9831 34.3403 34.2076C34.321 34.9701 34.3076 35.4987 34.6605 36.2114L35.5136 35.8562C35.0221 35.3458 35.0435 33.8256 35.0923 33.0092L34.8673 33.1418C33.9494 32.9947 32.962 32.0823 32.502 31.4599ZM0.402765 34.0256L0.189901 33.1068L1.31308 33.8421C1.44168 33.4362 2.33063 33.8812 3.24054 34.4658L3.26191 35.2923C2.84505 35.0641 2.57615 34.873 2.21533 34.7061L2.20253 34.7004C1.79961 34.5217 1.49227 34.3855 1.39613 34.64C1.21229 34.3836 0.892592 34.1518 0.402765 34.0256ZM0.612008 35.2221L0.726501 36.0542C1.1228 36.2171 1.42758 36.4425 1.61384 36.7198C2.04279 36.6662 2.42296 36.8327 3.34416 37.4927L3.27562 36.711C2.38206 35.9629 1.92331 35.9659 1.59211 35.9681C1.57455 35.9682 1.55735 35.9684 1.54046 35.9684L0.612008 35.2221ZM16.7743 41.7766L17.1775 41.4883L17.1775 41.8991L16.7743 41.7766ZM15.8104 43.0928L15.4371 43.6536C16.3494 44.1329 17.2408 44.1688 18.0426 44.1688L18.0898 44.1011C18.4236 44.8384 18.7461 45.6036 19.5553 45.9088L20.0144 45.3766C19.4202 45.1372 18.6401 44.12 18.495 43.5084L18.4446 43.5826C17.7063 43.7227 16.8583 43.4388 16.2182 43.2245C16.0698 43.1748 15.9325 43.1288 15.8104 43.0928ZM14.388 45.3122L14.7231 44.72C15.375 44.9103 16.5215 45.1208 17.4649 44.8781L17.5641 44.72C17.7084 45.332 18.4345 46.2963 19.0327 46.5374L18.5723 47.0688C17.6217 46.5104 17.527 46.1085 17.1601 45.4332L17.1077 45.5259C16.0926 45.64 15.2996 45.594 14.388 45.3122ZM13.8982 46.4161L13.6253 47.0377C14.6134 47.3764 15.5306 47.4469 16.199 47.3074C16.5393 47.8694 16.9094 48.4 17.7249 48.7048L18.0233 48.1734C17.3492 47.8956 16.7195 47.5389 16.499 46.7136C15.6325 46.9326 14.7256 46.6623 14.0764 46.4688C14.0146 46.4503 13.9551 46.4326 13.8982 46.4161ZM13.1891 48.4015L13.3693 47.8488C13.4888 47.8841 13.6158 47.9273 13.7495 47.9727C14.3417 48.174 15.064 48.4194 15.833 48.2237C16.2236 48.8079 16.5631 49.2505 17.4282 49.3557L17.1372 49.7762C16.3256 49.4735 16.0168 49.1808 15.6495 48.6587C14.9831 48.8022 14.1031 48.8744 13.1891 48.4015Z" transform="translate(15.18751 13.82849)" id="Shape" fill="#003278" fill-rule="evenodd" stroke="none" />
      </g>
    </g>
  </g>
</svg>