<?xml version="1.0" encoding="utf-8"?>
<svg width="175px" height="126px" viewBox="0 0 175 126" version="1.1" xmlns:xlink="http://www.w3.org/1999/xlink" xmlns="http://www.w3.org/2000/svg">
  <desc>Created with Lunacy</desc>
  <defs>
    <path d="M0 0L175 0L175 125L0 125L0 0Z" id="path_1" />
    <clipPath id="mask_1">
      <use href="#path_1" />
    </clipPath>
  </defs>
  <g id="tampa-bay-rays-logo@logotyp.us">
    <path d="M0 0L175 0L175 125L0 125L0 0Z" id="Background" fill="none" stroke="none" />
    <g clip-path="url(#mask_1)">
      <path d="M46.3673 15.2769L48.297 15.5985C48.7794 14.0439 48.9936 12.3824 48.9936 10.6135C48.9936 5.5747 47.2248 2.1978 44.5446 0C46.3134 2.14433 47.4391 5.09229 47.4391 9.05894C47.4925 11.2567 47.064 13.3472 46.3669 15.2769L46.3673 15.2769ZM0 0.482003C1.82272 0.803615 4.71721 1.39336 5.95018 1.60764L5.95018 3.37649C3.53771 2.94755 0 2.25086 0 2.25086L0 0.482003ZM23.8542 2.037L22.9428 2.09047L22.9428 7.55785L21.3883 6.59302L21.3883 0.589364C21.7099 0.535894 22.0315 0.535894 22.2996 0.535894C26.052 0.535894 28.7322 1.60806 30.3403 3.85933C28.7322 2.62675 26.5879 2.037 23.8542 2.037ZM22.9424 19.1897L21.9776 19.6186L22.9424 19.4043L22.9424 20.4226L21.3879 20.4226L21.3879 7.45051L22.9424 9.05856L22.9424 19.1897ZM89.465 13.9896C90.6441 16.2409 93.2708 21.2797 94.8254 24.2281C95.0936 23.7991 95.3613 23.3167 95.6294 22.8343C94.1287 19.886 92.4133 16.4556 91.5555 14.7937C92.6276 14.5255 94.9324 13.9896 94.9324 13.9896L94.9324 9.64791L93.3778 9.64791L93.3778 13.1856C93.3243 13.1856 90.7516 13.7214 89.465 13.9896ZM69.5779 13.2934C72.6866 21.1728 79.8698 39.398 81.6921 44.1152C81.0489 43.901 80.3522 43.6863 80.0306 43.6328C79.5482 42.4537 69.3101 16.3486 66.6834 9.70178L68.1306 9.70178L68.9881 11.8461L68.9881 11.8996L69.5779 13.2934ZM132.723 22.7824L132.776 23.0506L133.044 24.337L138.887 24.337L138.351 11.2579L137.333 10.8829L136.851 10.722L137.333 22.7828L132.723 22.7828L132.723 22.7824ZM119.804 16.7253C119.804 14.581 122.324 13.4553 124.736 13.4553L124.736 13.4557C128.917 13.4557 131.436 16.0821 132.508 21.4425L132.669 22.3C131.329 16.1356 129.131 14.8491 126.076 14.8491C123.717 14.8491 121.144 15.9747 121.144 18.1191C121.144 18.8162 121.305 19.352 121.573 19.8345C120.287 18.9231 119.804 18.0652 119.804 16.7253ZM75.5281 15.705C75.0991 14.9545 74.7775 14.4721 74.7241 14.3113L70.5966 13.5072L70.5966 14.7402L70.596 14.7403C70.5941 14.75 73.8278 15.3759 75.4888 15.6974L75.5281 15.705ZM98.0415 14.7402L98.0415 13.5072C98.8994 13.6681 99.9716 13.8823 100.668 13.9897C100.454 14.3113 100.239 14.6864 100.025 15.1153C99.0064 14.901 98.0415 14.7402 98.0415 14.7402ZM99.2206 32.5385C99.5423 31.9487 106.35 20.5846 109.03 16.0821C108.548 17.5293 108.28 19.0839 108.28 20.7993C105.171 25.945 101.043 32.9135 100.775 33.3425L100.775 43.7952C100.132 43.7417 99.5957 43.6344 99.2206 43.5809L99.2206 32.5385ZM47.6003 17.5281L45.1343 17.7963C43.9014 19.8333 42.2398 21.6556 40.1494 22.9959L41.3823 24.7113C44.2234 22.9424 46.3138 20.423 47.6003 17.5285L47.6003 17.5281ZM45.6167 34.5204C45.6167 34.4669 42.1859 29.4816 42.1859 29.4816C42.1859 29.4816 40.6852 27.2838 39.6131 25.7292C39.6665 25.6757 39.8812 25.6219 39.8812 25.6219C40.0955 25.5145 40.3102 25.4076 40.5244 25.2468L38.7556 23.853L38.3266 24.0673C38.3266 24.0673 38.1658 24.1746 38.0585 24.1746C39.1306 25.7292 40.6314 27.927 40.6314 27.927L44.0621 32.9658C44.1156 33.0193 44.3303 33.3409 44.3303 33.3409L45.9383 35.4314L46.0457 35.1098L45.8849 34.8955C45.9383 34.8955 45.6706 34.5204 45.6167 34.5204ZM55.8553 32.9658L57.9456 32.9658C58.1064 32.5907 58.2138 32.2691 58.2138 32.2691L57.9995 32.2691C58.5354 30.7684 59.1251 29.2673 59.8757 27.1768C59.6076 26.3193 59.2859 25.408 58.9643 24.4431C57.6315 28.1222 55.8738 32.9154 55.8553 32.9658ZM55.8553 32.9658L55.8552 32.9658L55.8552 32.9662L55.8553 32.9658ZM24.5509 27.3376L24.2293 26.7479L24.1758 26.6944C23.4253 26.4263 21.8707 25.8904 21.3883 25.7296L21.3883 42.2929C21.7633 42.3464 22.2996 42.4537 22.9428 42.5611L22.9428 27.2303C23.2645 27.3376 24.122 27.6054 24.8725 27.8735L24.6582 27.4984L24.5509 27.3376ZM137.762 29.8566C139.101 31.8936 139.799 34.3057 139.799 37.3075C139.799 45.509 133.527 50.6547 123.342 50.6547C118.679 50.6547 114.551 49.7973 110.746 48.028L110.746 48.832L111.603 49.261C115.623 51.2445 119.804 52.2093 124.575 52.2093C134.706 52.2093 141.032 47.117 141.032 38.8621C141.032 35.0563 139.959 32.1079 137.762 29.8566ZM126.505 38.1666C125.165 37.0945 123.45 36.3443 121.627 35.5399L118.839 34.2534C116.266 32.967 114.229 31.6806 112.675 30.3403C114.39 32.3238 116.91 34.0926 120.394 35.8076L123.181 37.0941C124.736 37.7908 126.237 38.434 127.47 39.2919C127.202 38.8629 126.88 38.4878 126.505 38.1662L126.505 38.1666ZM117.767 42.8832C116.749 41.4895 116.052 39.6135 115.677 37.2018L115.463 35.8619L114.176 35.8619C114.712 39.1848 115.891 41.5432 117.767 42.8832ZM117.767 42.8832L117.767 42.8838L117.768 42.8838L117.767 42.8832ZM54.9438 40.7383L64.4317 40.7383L63.8958 39.1838L53.6574 39.1838C53.2823 40.1486 52.746 41.7032 52.2636 42.9896C53.0676 43.8471 53.9251 44.7585 54.8904 45.6698C54.4614 45.2409 54.0329 44.7585 53.6574 44.3299C54.0863 43.0435 54.6757 41.4889 54.9438 40.7383ZM0.000364895 51.2984L0.000364895 49.6899L28.9999 49.6899L28.9999 44.9192C29.9113 45.08 30.5545 45.1874 30.5545 45.1874L30.5545 51.2984L0.000364895 51.2984ZM104.957 51.5138L103.448 49.745L105.975 49.745L105.975 45.9391C106.886 46.0461 107.529 46.1534 107.529 46.1534L107.529 51.2457L104.957 51.2457L106.296 52.8003L105.278 53.8186C103.295 55.8017 85.7665 68.238 65.9867 65.772C56.767 64.6464 48.6728 60.4116 41.8117 53.2288C48.3512 59.5006 56.0168 63.2526 64.6468 64.3248C84.2658 66.7372 102.116 54.4083 103.938 52.5321L104.957 51.5138ZM103.448 49.745L103.402 49.745L103.402 49.6915L103.448 49.745ZM62.127 49.6895L98.5774 49.6895C97.3983 50.2793 96.2188 50.7617 95.0932 51.2441L62.127 51.2441L62.127 49.6895Z" transform="translate(18.36084 32.06174)" id="Shape" fill="#8FBCE6" fill-rule="evenodd" stroke="none" />
      <path d="M139.261 35.5926C140.601 37.6296 141.298 40.0951 141.298 43.0435L141.3 43.0447C141.3 51.2996 135.028 56.3919 124.843 56.3384C120.18 56.3384 116.053 55.4805 112.247 53.7117L110.746 52.9611L110.371 40.0963L115.463 40.0963L115.677 41.4362C115.731 41.5431 115.731 41.597 115.731 41.6505C116.267 44.9739 117.446 47.3325 119.322 48.6724C120.662 49.6907 122.378 50.1731 124.415 50.1731C127.47 50.1731 129.346 48.8332 129.346 46.6354C129.346 46.0996 129.239 45.6171 128.971 45.1347C128.703 44.7058 128.435 44.3307 128.006 44.0091C126.666 42.9369 124.951 42.1864 123.128 41.3823L120.341 40.0959C117.768 38.8629 115.784 37.5765 114.176 36.1827C111.121 33.556 109.781 30.5541 109.781 26.6948L109.781 26.6414C109.781 24.8725 110.049 23.3179 110.585 21.8707C107.905 26.3197 101.15 37.7373 100.829 38.327L100.829 49.3695C101.204 49.423 101.794 49.4765 102.383 49.5838C104.527 49.9054 107.636 50.3878 107.636 50.3878L107.636 55.4266L105.01 55.4266L106.564 57.249L105.546 58.2673C103.67 60.1431 85.8734 72.5258 66.2544 70.0599C57.6779 68.9877 50.0127 65.2892 43.4193 58.9639C39.8282 55.4797 36.5047 51.2449 33.5564 46.26C31.734 43.4189 30.1256 40.4706 28.6249 37.5761L26.4805 33.6094L26.2663 33.2344L26.1589 33.0735C26.1589 33.0735 25.8373 32.5373 25.8373 32.4838L25.7839 32.4303C25.0868 32.1622 23.4787 31.6263 22.9963 31.4655L22.9963 48.0288C23.3718 48.0827 23.9077 48.1896 24.5509 48.2969C26.963 48.7259 30.608 49.3691 30.608 49.3691L30.608 55.4262L0.0538694 55.4262L0.0538694 49.3691C0.0538694 49.3691 5.73591 48.3508 7.50476 48.0292L7.50476 7.34396C6.27179 7.12968 3.37691 6.53993 1.55458 6.21832C0.64322 6.05752 0 5.95018 0 5.95018L0 0L27.5523 0C34.0384 0 41.9717 0.750557 46.1526 5.89632C47.9215 8.04025 49.0471 10.9351 49.0471 14.9553C49.0471 17.0996 48.672 19.1901 47.9215 21.1197L46.3134 20.8516C47.064 18.9754 47.4391 16.9919 47.4391 14.9014C47.4391 5.41351 41.0603 1.60766 27.5523 1.60766L1.60805 1.60766L1.60805 4.66295L9.05895 6.05672L9.05895 49.4218L1.60805 50.7617L1.60805 53.8709L28.9457 53.8709L28.9457 50.7617L21.334 49.4218L21.334 11.6314L22.942 13.2929L22.942 26.2651L24.9256 26.2651C27.5519 26.2651 29.5889 25.7288 30.9827 24.7105L31.4116 24.657C31.4116 22.8343 31.8406 19.779 34.5743 17.2596L33.8237 15.8658C33.7164 13.2391 33.0731 11.1486 31.9475 9.59403C30.3395 7.39623 27.6593 6.2706 23.9069 6.2706L22.9955 6.32407L22.9955 12.3277L21.3875 11.3094L21.3875 4.87682C22.2454 4.76949 23.0494 4.71602 23.8534 4.71602C31.3043 4.71602 35.164 8.73654 35.3783 16.4017L35.3783 17.1523C35.3783 17.6347 35.3783 18.224 35.3248 18.8138L37.8977 17.0984L36.6113 20.4218L45.4021 22.3515L36.6113 23.2629L38.8091 26.8006L35.4322 24.3346L33.7168 34.6265L32.5911 25.3533C32.2157 25.7288 31.8941 25.9965 31.519 26.2647C30.7684 26.7471 30.1252 26.9614 30.1252 26.9614C28.678 27.5511 26.9626 27.8727 24.8721 27.8727L23.0498 27.8727L23.0498 29.9097L26.8022 31.1427C26.9095 31.3035 27.0164 31.5182 27.1238 31.7325C27.4454 32.2683 27.5527 32.5365 27.5527 32.5365C29.4289 35.806 31.2512 39.6119 33.3956 43.2035L33.5564 44.9189L33.7172 43.9006L34.8428 45.6694C59.7684 87.8019 101.043 60.732 104.366 57.4086L103.133 55.9613C76.1174 69.6301 62.3947 60.732 52.2102 49.5826L51.942 49.261L54.0863 43.5255L66.5761 43.5255L69.0955 50.8156L63.7889 51.8877L63.7889 54.0321L106.028 54.0321L106.028 51.8877L99.2207 50.8156L99.2207 37.9508L110.692 18.7607L115.141 18.1175C112.729 20.1545 111.442 23.1025 111.442 26.694C111.442 32.1618 114.658 35.4852 121.144 38.7013C123.985 40.0951 126.88 41.0065 129.078 42.7753C130.257 43.6863 130.954 45.0801 130.954 46.6346C130.954 49.6361 128.542 51.7804 124.468 51.7804C118.732 51.7804 115.194 48.4035 114.176 41.7566L112.085 41.7566L112.354 52.0485C116.159 53.9786 120.287 54.8361 124.897 54.8361C134.545 54.8361 139.745 50.1728 139.745 43.0969C139.745 39.5592 138.726 36.8255 136.475 34.7885C133.527 32.1087 129.882 30.8219 126.987 29.482C122.592 27.445 119.751 26.212 119.751 22.567C119.751 19.6186 122.699 17.689 126.29 17.689C131.168 17.689 134.384 20.7442 135.617 26.9622L137.279 26.9622L136.85 16.6168C133.258 15.3303 129.935 14.5798 126.451 14.5798C123.931 14.5798 121.733 14.9549 119.804 15.5446L99.6488 15.5446L99.6488 17.689L104.741 18.7073L96.3254 33.3948L88.6602 18.7073L93.3236 17.689L93.3236 15.5446L72.15 15.5446L72.15 17.689L77.2423 18.7073L88.6598 37.8973L88.6598 50.7621L83.6749 51.7269L80.4049 50.7621L66.5753 15.5446L59.8211 15.5446L47.9746 44.4369C46.7416 42.8288 45.5086 41.2204 44.383 39.7196C42.2921 36.7178 39.9874 33.2336 37.3072 29.3204L37.5753 29.1596C38.0042 28.9988 38.4867 28.7841 38.9691 28.5698L40.3629 29.642L39.9339 29.8563C39.9339 29.8563 39.7192 29.9636 39.6658 29.9636C40.7379 31.5182 42.2387 33.716 42.2387 33.716C42.2387 33.716 45.616 38.7013 45.6694 38.7548C45.7233 38.8083 45.9376 39.1299 45.9376 39.1299L47.5456 41.2204L47.6529 40.8988L55.0504 22.8343L56.6584 22.6735L55.2112 22.4054L58.642 13.9897L67.5401 13.9897C67.5401 13.9897 67.7548 14.5794 68.1299 15.5442C70.7562 22.1911 80.9947 48.2423 81.4771 49.4753C81.7987 49.5826 82.4419 49.7434 83.1386 49.9577L83.621 50.1185C84.8001 49.9042 86.1939 49.6361 86.9444 49.4753L86.9444 38.3793C86.6228 37.7896 79.4935 25.7827 76.9741 21.5479C76.5452 20.7973 76.2774 20.3149 76.1701 20.1541L72.0426 19.3501C71.6676 19.2966 71.3459 19.2427 71.0778 19.1893L70.4881 19.0819L70.4881 13.9897L94.8239 13.9897L94.8239 19.0285L90.9646 19.8325C92.1441 22.0842 94.7704 27.1226 96.325 30.071C96.5931 29.642 96.8609 29.1596 97.129 28.6772C98.5762 26.2112 100.345 23.1025 101.578 20.9581C101.846 20.5292 102.06 20.1541 102.221 19.8325C101.524 19.6717 100.452 19.4574 99.5946 19.2966C98.7367 19.0823 98.04 18.975 98.04 18.975L98.04 13.8827L119.535 13.8827C121.572 13.2395 123.877 12.9179 126.45 12.9179C129.774 12.9179 133.151 13.5615 137.385 15.0622L138.404 15.4373L138.457 16.4556L138.886 28.5164L134.276 28.5164L134.169 28.0874L134.008 27.2299C132.936 21.8699 130.416 19.2432 126.236 19.2432C123.877 19.2432 121.304 20.3688 121.304 22.5131C121.304 23.8534 121.786 24.7648 123.073 25.6223C123.984 26.2655 125.378 26.9622 127.361 27.8736L127.629 27.9809L129.237 28.6776C131.918 29.8571 134.919 31.1435 137.492 33.5556C138.189 34.1454 138.779 34.842 139.261 35.5926ZM44.7046 23.7465L46.6877 23.5322C45.4552 25.6227 43.7932 27.3915 41.7028 28.7853L40.7914 27.4989C42.3995 26.4267 43.6863 25.1937 44.7046 23.7465ZM55.9614 38.112L60.6786 25.408L65.5566 40.3098L55.1039 40.3633L55.9614 38.112ZM61.4826 32.9663C62.2331 35.2714 62.8764 37.2545 63.3588 38.7556L57.4086 38.7556C57.4086 38.7556 59.2309 33.9315 60.5712 30.2326C60.8928 31.1974 61.161 32.1088 61.4826 32.9663ZM71.7206 60.4112C65.2346 58.8566 60.2496 55.2116 56.3899 51.5131C55.4251 50.6017 54.5676 49.6908 53.7632 48.8329C54.2456 47.5464 54.7815 46.0453 55.1569 45.027L65.3954 45.027L65.9313 46.5816C66.2529 47.493 66.628 48.5651 66.9496 49.53C65.395 49.8516 62.1789 50.4948 62.1789 50.4948L62.1789 55.5336L100.13 55.5336C98.951 56.0695 97.7715 56.6058 96.6458 57.0882C87.1044 61.0014 78.903 62.0731 71.7202 60.4116L71.7206 60.4112Z" transform="translate(16.80786 26.27198)" id="Shape" fill="#FFFFFF" fill-rule="evenodd" stroke="none" />
      <path d="M40.524 8.46959L37.1471 17.9575L44.7054 19.2439C45.4559 17.4216 45.831 15.3846 45.831 13.2937C45.831 3.80585 39.4523 0 25.9443 0L0 0L0 3.05529L7.45089 4.44907L7.45089 47.8141L0 49.154L0 52.2632L27.3376 52.2632L27.3376 49.154L19.7259 47.8141L19.7259 10.0238L18.9754 9.21975L19.7259 9.70217L19.7259 3.26957C20.5834 3.2161 21.4413 3.10877 22.1919 3.10877C29.6428 3.10877 33.5021 7.12889 33.7168 14.7945L33.7168 15.545L40.524 8.46959ZM34.7885 24.8727L32.1083 42.1863L33.234 43.9552C58.2134 86.0877 99.4341 59.0178 102.758 55.6944L101.525 54.2471C74.4547 67.9698 60.7324 59.0713 50.6013 47.8684L50.3331 47.5468L52.4775 41.8113L64.9672 41.8113L67.4866 49.1014L62.18 50.1735L62.18 52.3179L104.366 52.3179L104.366 50.1735L97.5583 49.1014L97.5583 36.2366L109.029 17.0465L113.478 16.4033C111.066 18.4938 109.78 21.3882 109.78 24.9798C109.78 30.4472 112.942 33.7706 119.482 36.9871C122.377 38.4344 125.218 39.2923 127.415 41.0611C128.648 42.0259 129.292 43.3662 129.292 44.9204C129.292 47.9222 126.879 50.0662 122.805 50.0662C117.016 50.0662 113.532 46.6893 112.514 40.0424L110.423 40.0424L110.691 50.3343C114.497 52.2105 118.625 53.1219 123.234 53.1219C132.883 53.1219 138.083 48.4585 138.083 41.3827C138.083 37.845 137.064 35.1109 134.813 33.0743C131.864 30.3406 128.219 29.1077 125.325 27.7678C120.876 25.7308 118.088 24.4978 118.088 20.8528C118.088 17.9044 121.037 15.9747 124.628 15.9747C129.506 15.9747 132.775 19.0839 133.955 25.248L135.616 25.248L135.241 15.0095C131.596 13.7231 128.273 12.9725 124.842 12.9725C122.323 12.9725 120.125 13.2941 118.195 13.9373L98.0403 13.9373L98.0403 16.0817L103.133 17.1L94.7169 31.7875L87.0517 17.1L91.7151 16.0817L91.7151 13.9373L70.5415 13.9373L70.5415 16.0817L75.6338 17.1L87.0513 36.29L87.0513 49.1548L82.0663 50.1197L78.7964 49.1548L64.9668 13.9373L58.2126 13.9373L46.3126 42.7761C45.0796 41.168 43.8467 39.6135 42.721 38.0589C40.6306 35.0571 38.3254 31.5728 35.6452 27.6596L35.9133 27.4988C36.3423 27.338 36.8247 27.1237 37.3071 26.9091L34.7885 24.8727ZM34.7885 24.8727L34.7885 24.8725L34.7877 24.8721L34.7885 24.8727ZM36.9325 22.7286L43.0969 22.1388L43.0969 22.1392C42.0782 23.5864 40.7383 24.8194 39.1837 25.8377L36.9325 22.7286ZM63.9489 38.7021L53.4962 38.7556L54.3537 36.5043L59.0709 23.8003L63.9489 38.7021ZM28.5702 25.4084C28.5702 25.4084 29.2134 25.1937 29.964 24.6578L29.9648 24.6582L31.7871 41.597C29.6428 38.0054 27.8201 34.1996 25.9977 30.9835C25.9977 30.9835 25.8904 30.6619 25.5688 30.1795C25.4615 29.9648 25.3545 29.7505 25.2472 29.5897L21.4948 28.3567L21.4948 26.3197L23.3171 26.3197C25.3541 26.3197 27.123 25.9981 28.5702 25.4084Z" transform="translate(18.41553 27.87965)" id="Shape" fill="#092C5C" fill-rule="evenodd" stroke="none" />
      <path d="M25.7296 10.7209L27.3376 10.989L27.3384 10.9882L29.1607 11.2564L34.6281 12.1677L36.0754 12.4359L34.4673 12.5967L28.5171 13.1864L26.0512 13.4545L24.0677 13.6688L17.9567 14.2586L20.2618 17.3139L21.1732 18.6003L22.4061 20.3157L24.3897 23.1032L21.5487 20.852L19.7798 19.4582L18.386 18.386L15.8131 16.349L13.1329 33.6629L12.9721 34.6812L12.8113 33.1266L10.9351 16.1344C11.3106 15.9197 11.6857 15.5981 12.0073 15.223L13.1329 24.4962L14.8483 14.2043L18.2252 16.6702L16.0274 13.186L24.8182 12.2747L16.0274 10.345L17.3673 6.96809L14.7944 8.68347C14.8479 8.09411 14.8479 7.50436 14.8479 7.02195L21.5482 0L18.1713 9.48789L25.7296 10.7209ZM0.00113462 0.751774L6.04357e-06 0.750565L0 0.750964L0.00113462 0.751774ZM0.00113462 0.751774L0.750563 1.55459L2.35861 3.21611L3.91319 4.82416L10.8282 11.9534L3.91319 14.9018L2.94836 15.3307L3.91319 15.2234L10.3993 14.6875L10.8282 14.6341C10.8282 12.8117 11.2571 9.8099 13.9908 7.23663L13.2403 5.84286L11.2033 2.14434L12.5971 8.79121L3.91319 3.26998L2.35861 2.30515L0.750557 1.28685L0.00113462 0.751774Z" transform="translate(37.39081 36.34922)" id="Shape" fill="#F5D130" fill-rule="evenodd" stroke="none" />
    </g>
  </g>
</svg>