<?xml version="1.0" encoding="utf-8"?>
<svg width="136px" height="113px" viewBox="0 0 136 113" version="1.1" xmlns:xlink="http://www.w3.org/1999/xlink" xmlns="http://www.w3.org/2000/svg">
  <desc>Created with Lunacy</desc>
  <defs>
    <path d="M0 0L136 0L136 112.286L0 112.286L0 0Z" id="path_1" />
    <clipPath id="mask_1">
      <use href="#path_1" />
    </clipPath>
  </defs>
  <g id="cincinnati-reds-logo@logotyp.us">
    <path d="M0 0L136 0L136 112.286L0 112.286L0 0Z" id="Background" fill="none" stroke="none" />
    <g clip-path="url(#mask_1)">
      <path d="M65.5047 79.6429C97.9599 79.6429 116.543 58.4702 116.543 39.2229C116.543 16.195 90.8606 0 63.3826 0C41.3498 0 26.085 13.0073 17.7189 22.8973C6.30533 36.5031 0 38.2274 0 38.2274C8.82881 45.9953 13.0073 49.9078 17.1248 54.357C28.6694 66.8315 38.2274 79.6425 65.5043 79.6425" transform="translate(0.2280884 19.82141)" id="Shape" fill="#C6011F" fill-rule="evenodd" stroke="none" />
      <path d="M58.2739 36.1053C34.7127 36.1053 25.4212 26.0145 14.536 14.3998C10.0864 9.62325 7.23555 5.3747 0 0L1.45826 3.44893C8.42701 9.15614 11.2826 13.2737 15.7976 18.0503C26.7485 29.5997 35.8393 38.6905 59.4 38.6905C80.0399 38.6905 96.0338 28.4731 103.535 15.929L102.409 13.2741C94.9072 25.8843 78.9133 36.1057 58.2735 36.1057" transform="translate(6.865173 57.91858)" id="Shape" fill="#000000" fill-rule="evenodd" stroke="none" />
      <path d="M32.0535 0.000401034C9.02513 0.000401034 0 15.2652 0 22.6313C0 26.8799 1.26154 30.5956 3.31832 33.7829C1.92536 31.1937 1.59325 27.2769 1.59325 24.753C1.59325 17.3868 10.2871 2.6549 32.8523 2.6549C46.3924 2.6549 56.6094 8.89412 60.0635 14.3349L77.1186 14.3349C76.7869 13.7364 76.0577 11.68 76.0577 11.68L59.7318 11.68C56.3477 6.23962 45.5932 0 32.0531 0" transform="translate(33.67926 35.02045)" id="Shape" fill="#000000" fill-rule="evenodd" stroke="none" />
      <path d="M14.5364 49.5104C25.4216 61.1251 34.7131 71.2159 58.2743 71.2159C78.9145 71.2159 94.908 60.9945 102.41 48.4495L86.2803 48.4495C78.713 54.1563 69.4872 58.8019 57.7415 58.8019C46.9216 58.8019 35.5733 54.2917 30.1329 45.9953C28.0064 42.808 26.8146 39.0923 26.8146 34.8438C26.8146 27.478 35.8397 12.2128 58.9377 12.2128C72.4734 12.2128 83.228 18.4521 86.6116 23.8929L102.872 23.8929C95.305 8.95982 75.7917 0 56.2828 0C37.1016 0 22.5003 11.0819 14.0685 21.0373C2.9213 34.1799 0 35.1101 0 35.1101C7.23516 40.4848 10.0864 44.7338 14.536 49.51" transform="translate(6.864746 22.80804)" id="Shape" fill="#FFFFFF" fill-rule="evenodd" stroke="none" />
      <path d="M9.02552 4.77698L5.37509 4.77698L5.37509 3.05191L0 3.05191L0 6.57173L1.79475 6.57173L1.79475 4.84667L5.30938 4.84667L7.16984 6.57173L10.8203 6.57173L10.8203 1.79037L9.02552 0L9.02552 4.77698Z" transform="translate(66.33093 51.3465)" id="Shape" fill="#000000" fill-rule="evenodd" stroke="none" />
      <path d="M0 4.71565L1.72466 6.50602L16.8588 6.50602L16.8588 1.79475L15.0641 0L15.0641 4.71565L0 4.71565Z" transform="translate(60.29236 62.76044)" id="Shape" fill="#000000" fill-rule="evenodd" stroke="none" />
      <path d="M0.000413187 3.05191L0.000413187 6.57133L1.79516 6.57133L1.79516 4.84228L6.24003 4.84228L6.24003 1.78997L4.44965 0L4.44965 3.05192L0 3.05192L0.000413187 3.05191Z" transform="translate(66.33051 57.91815)" id="Shape" fill="#000000" fill-rule="evenodd" stroke="none" />
      <path d="M0 0L1.72466 1.79475L2.38848 1.79475L2.38848 0L0.000388881 0L0 0Z" transform="translate(60.29236 54.39874)" id="Shape" fill="#000000" fill-rule="evenodd" stroke="none" />
      <path d="M0 0L1.79037 1.79475L2.38889 1.79475L2.38889 0L0.000401034 0L0 0Z" transform="translate(39.58722 54.39874)" id="Shape" fill="#000000" fill-rule="evenodd" stroke="none" />
      <path d="M0 2.98661L1.79037 4.77698L10.2174 4.77698L10.2174 1.79037L8.42701 0L8.42701 2.98661L0 2.98661Z" transform="translate(39.58722 64.48956)" id="Shape" fill="#000000" fill-rule="evenodd" stroke="none" />
      <path d="M0.000401033 5.7769L1.92139 10.0908L2.91692 10.0908L1.79037 7.56687L4.51057 5.30939L4.51057 1.79475L2.7206 0L2.7206 3.51982L0 5.77689L0.000401033 5.7769Z" transform="translate(52.52875 54.39874)" id="Shape" fill="#000000" fill-rule="evenodd" stroke="none" />
      <path d="M0 0L0 3.51942L1.78997 3.51942L1.78997 1.72466L4.17847 1.72466L3.38363 0L0 0Z" transform="translate(45.62622 60.97009)" id="Shape" fill="#000000" fill-rule="evenodd" stroke="none" />
      <path d="M4.57588 2.98661L0 2.98661L1.72507 4.77698L6.37103 4.77698L6.37103 1.79037L4.57628 0L4.57628 2.98661L4.57588 2.98661Z" transform="translate(51.86542 64.48956)" id="Shape" fill="#000000" fill-rule="evenodd" stroke="none" />
      <path d="M5.97321 1.79475L5.97321 0.799218L5.04299 0L0 0L0 3.58513L1.78997 3.58513L1.78997 1.79475L5.97321 1.79475Z" transform="translate(45.62622 54.39874)" id="Shape" fill="#000000" fill-rule="evenodd" stroke="none" />
      <path d="M6.03853 3.05192L11.4136 3.05192L11.4136 4.77698L15.064 4.77698L15.064 0L0 0L0 3.05192L2.38809 3.05192L2.38809 13.1427L0 13.1427L0 16.1293L15.064 16.1293L15.064 11.4136L11.4136 11.4136L11.4136 13.1427L6.03853 13.1427L6.03853 9.62325L10.4882 9.62325L10.4882 6.57133L6.03853 6.57133L6.03853 3.05151L6.03853 3.05192Z" transform="translate(60.29236 51.3468)" id="Shape" fill="#FFFFFF" fill-rule="evenodd" stroke="none" />
      <path d="M14.8634 13.1431L16.8544 13.1431L16.8544 16.195L12.2785 16.195L10.2174 11.4136L9.42254 9.62324L5.97322 9.62324L5.97322 13.1427L8.42701 13.1427L8.42701 16.1293L0 16.1293L0 13.1427L2.38849 13.1427L2.38849 3.05191L0 3.05191L0 0L12.0121 0L15.6626 3.05191L15.6626 6.57173L13.0077 8.75912L14.8634 13.1431ZM6.03896 6.63706L7.82893 6.63706L7.82893 6.70237L11.1473 6.70237L12.0122 5.97324L12.0122 3.91686L11.0819 3.11765L6.03896 3.11765L6.03896 6.63706Z" transform="translate(39.58679 51.3465)" id="Shape" fill="#FFFFFF" fill-rule="evenodd" stroke="none" />
      <path d="M0 0L1.72466 1.79475L2.38847 1.79475L2.38847 0L0.00038888 0L0 0Z" transform="translate(79.20752 54.39874)" id="Shape" fill="#000000" fill-rule="evenodd" stroke="none" />
      <path d="M5.44041 1.79475L5.44041 0.799217L4.51496 0L0 0L0 10.0907L1.79037 10.0907L1.79037 1.79475L5.4408 1.79475L5.44041 1.79475Z" transform="translate(85.18073 54.39874)" id="Shape" fill="#000000" fill-rule="evenodd" stroke="none" />
      <path d="M14.9983 10.0907L11.4136 13.0774L0 13.0774L1.72466 14.8677L12.0121 14.8677L16.7935 10.9509L16.7935 1.79475L14.9987 0L14.9987 10.0907L14.9983 10.0907Z" transform="translate(79.20795 54.39874)" id="Shape" fill="#000000" fill-rule="evenodd" stroke="none" />
      <path d="M8.16062 3.05191L3.58035 3.05191L0 0L5.70681 4.84229L9.09083 4.84229L9.09083 3.84675L8.16062 3.05191Z" transform="translate(97.99213 57.91815)" id="Shape" fill="#000000" fill-rule="evenodd" stroke="none" />
      <path d="M14.4659 1.79037L12.6756 0L12.6756 3.44933L9.09083 6.57133L4.51057 6.57133L3.58034 5.70641L3.58034 6.57133L0 6.57133L1.72466 8.36131L5.37509 8.36131L5.37509 7.50116L6.30531 8.296L9.82035 8.296L14.4663 4.44486L14.4663 1.78997L14.4659 1.79037Z" transform="translate(97.9917 60.97009)" id="Shape" fill="#000000" fill-rule="evenodd" stroke="none" />
      <path d="M5.44041 4.77658L5.44041 3.85113L4.51018 3.05191L0.925452 3.05191L0 3.85113L0 5.8422L0.925452 6.57173L1.78997 6.57173L1.78997 5.6415L2.7202 4.84667L5.37509 4.84667L7.23077 6.57173L10.8155 6.57173L10.8155 1.79037L9.02513 0L9.02513 4.77698L5.4404 4.77698L5.44041 4.77658Z" transform="translate(101.6421 51.3468)" id="Shape" fill="#000000" fill-rule="evenodd" stroke="none" />
      <path d="M0.864522 1.72904L1.86006 1.72904L0 0L0 0.995534L0.864522 1.72904Z" transform="translate(101.5721 62.76044)" id="Shape" fill="#000000" fill-rule="evenodd" stroke="none" />
      <path d="M14.9987 3.05192L14.9987 13.1427L14.9983 13.1427L11.4136 16.1293L0 16.1293L0 13.1427L2.3881 13.1427L2.3881 3.05192L0 3.05192L0 0L11.3483 0L14.9987 3.05192ZM7.76319 13.1426L10.5535 13.1426L11.4136 12.4091L11.4136 3.85111L10.4882 3.05189L5.9732 3.05189L5.9732 13.1426L7.76319 13.1426Z" transform="translate(79.20752 51.3468)" id="Shape" fill="#FFFFFF" fill-rule="evenodd" stroke="none" />
      <path d="M3.58072 15.3305L4.51095 16.1954L9.09121 16.1954L12.6759 13.0734L12.6759 9.62404L9.02551 6.57213L4.57626 6.57213L3.65081 5.8426L3.65081 3.85153L4.57626 3.05231L8.16099 3.05231L9.09122 3.85153L9.09122 4.77698L12.6759 4.77698L12.6759 0L9.09122 0L9.09122 0.794837L8.16099 0L3.65042 0L0 3.05191L0 6.57173L3.58034 9.62365L8.1606 9.62365L9.09083 10.4185L9.09083 12.4096L8.22631 13.1431L4.44487 13.1431L3.58035 12.4096L3.58035 11.414L1.21525e-05 11.414L1.21525e-05 16.1954L3.58035 16.1954L3.58035 15.3305L3.58072 15.3305Z" transform="translate(97.99133 51.3465)" id="Shape" fill="#FFFFFF" fill-rule="evenodd" stroke="none" />
      <path d="M1.92577 0.663819L3.11763 0.663819L3.11763 0L0 0L0 0.663819L1.12655 0.663819L1.12655 3.78144L1.92577 3.78144L1.92577 0.663819ZM7.49717 3.85112L8.23069 3.85112L8.23069 0L6.90343 0L5.97321 2.52388L5.10869 0L3.78143 0L3.78143 3.85112L4.58065 3.85112L4.58065 0.794835L5.64149 3.85112L6.37062 3.85112L7.49717 0.794835L7.49717 3.85112Z" transform="translate(104.0302 88.18127)" id="Shape" fill="#000000" fill-rule="evenodd" stroke="none" />
    </g>
  </g>
</svg>