<?xml version="1.0" encoding="utf-8"?>
<svg width="133px" height="133px" viewBox="0 0 133 133" version="1.1" xmlns:xlink="http://www.w3.org/1999/xlink" xmlns="http://www.w3.org/2000/svg">
  <desc>Created with Lunacy</desc>
  <defs>
    <path d="M0 0L133 0L133 133L0 133L0 0Z" id="path_1" />
    <clipPath id="mask_1">
      <use xlink:href="#path_1" />
    </clipPath>
  </defs>
  <g id="boston-red-sox-logo@logotyp.us">
    <path d="M0 0L133 0L133 133L0 133L0 0Z" id="Background" fill="none" stroke="none" />
    <g clip-path="url(#mask_1)">
      <path d="M114.187 73.4112C109.686 70.2214 104.264 69.5127 99.0186 68.804C88.9893 67.4928 81.0862 66.4652 79.952 50.0563C78.2862 26.2051 77.7193 20.7121 71.6947 16.3529C71.482 14.6871 70.2769 5.15378 70.2769 5.15378C69.8871 1.92921 66.91 -0.374859 63.6854 0.0506398L45.3628 2.35424C43.8036 2.53129 42.4214 3.34659 41.4291 4.58692C40.7908 5.43744 40.3658 6.3941 40.2597 7.42215C37.7081 7.28032 35.227 8.80431 34.3412 11.3207C34.3412 11.3207 31.1871 20.2162 30.5845 21.8815C26.9345 23.5116 23.9931 28.6857 20.7324 39.1052L18.8895 45.1298C15.3099 56.9667 12.439 66.3229 7.08785 72.0995C2.48065 77.0256 0 82.4124 0 87.3385C0 88.8272 0.212277 90.2798 0.672998 91.6268C2.05563 95.738 6.16594 101.09 18.0742 103.251C24.5947 104.385 32.179 109.063 39.4796 113.599C44.5123 116.718 49.8991 120.05 54.7543 122.069C57.8731 123.381 63.2247 125.684 78.1448 121.928C78.9244 121.75 80.555 121.077 81.0862 118.49C81.1923 117.958 81.2633 117.32 81.2633 116.647C81.2633 111.614 77.755 102.861 68.257 94.7452C75.0259 95.4182 82.6454 97.0488 88.2454 98.9978C97.5307 102.258 114.967 104.491 124.996 97.2254C125.812 96.6938 126.733 95.4887 126.804 93.2917C126.804 88.7197 122.976 79.6119 114.187 73.4098" transform="translate(6.098206 4.08197)" id="Shape" fill="#FFFFFF" fill-rule="evenodd" stroke="none" />
      <path d="M110.681 73.0057C106.644 70.1361 101.567 69.4708 96.5311 68.8109C86.5779 67.5066 76.783 66.2231 75.4888 47.9855C73.7521 23.0357 73.1143 19.2086 67.3734 15.381L65.8137 3.18956C65.5653 1.20485 63.7229 -0.248229 61.7382 0.0354332L43.416 2.33903C41.644 2.55131 40.3328 4.00485 40.2262 5.7059C40.8644 5.95434 42.0338 6.34368 43.4512 6.84009L43.3094 5.67068C43.2742 5.35179 43.4864 5.06813 43.8053 5.03243C44.1242 4.99721 44.4074 5.20996 44.4431 5.52884L44.6558 7.26558C45.4354 7.54878 46.286 7.83244 47.1365 8.15133L46.7819 5.42224C46.7467 4.99674 47.0299 4.64263 47.4197 4.60694C47.8095 4.57171 48.1993 4.85538 48.235 5.24518L48.6605 8.71819C49.4049 8.96663 50.1136 9.24983 50.8223 9.4978L50.2906 5.17427C50.2197 4.67832 50.5743 4.21713 51.0702 4.18191C51.5662 4.11099 52.0269 4.46557 52.0978 4.96152L52.7361 10.1713C53.4447 10.4192 54.1182 10.6672 54.6855 10.88L53.9059 4.74924C53.835 4.2533 54.1891 3.79211 54.6855 3.75689C55.1815 3.68597 55.6422 4.04055 55.6779 4.5365L56.5636 11.5891C56.8121 11.6953 56.9891 11.731 56.9891 11.731C57.6626 11.9794 58.2652 12.3335 58.7611 12.759L57.6983 4.1467C57.6631 3.75689 57.9463 3.36709 58.3361 3.3314C58.7259 3.29617 59.1157 3.57984 59.1514 3.96964L60.5692 15.4167C60.7815 16.0188 60.8881 16.657 60.8881 17.2948C60.8881 17.9331 60.782 18.6065 60.5335 19.2795C60.5335 19.2795 57.3442 28.2812 56.7416 29.9113C57.4503 31.3292 57.7697 32.7822 57.7697 34.3062C57.7697 38.8068 55.112 43.6624 52.6665 48.1273C51.6385 50.0059 50.6466 51.8131 49.9022 53.4789C46.1456 62.6581 44.3384 68.3281 44.3384 72.1909C44.3384 74.2465 44.8343 75.7705 45.8624 77.0818C45.8976 74.6363 46.3583 72.7582 46.6063 71.8368C49.0165 72.6159 56.1752 74.8491 59.7549 75.6287C59.7549 75.6287 59.4712 83.0002 60.357 88.2809C60.7825 88.5997 61.1366 88.9191 61.3845 89.1314C61.8457 89.4503 62.3064 89.7696 62.7672 90.1237C70.8474 90.5845 80.4516 92.6044 86.6532 94.7662C96.2931 98.133 112.56 99.7279 121.42 93.2422C124.007 91.6473 120.853 80.2359 110.682 73.0062L110.681 73.0057ZM63.1555 16.2672C63.1912 16.5861 63.4744 16.7984 63.7933 16.7632L63.7933 16.7627C64.1122 16.727 64.3245 16.4081 64.2892 16.1249L62.6948 3.29568C62.6586 2.97726 62.3754 2.76451 62.0565 2.79973C61.7377 2.83543 61.5254 3.11909 61.5606 3.43798L63.1555 16.2672ZM60.4274 91.0447C59.5416 90.336 54.3671 85.8707 47.0308 80.9089C39.695 75.9471 41.396 68.5404 47.9879 52.4509C48.765 50.7 49.7829 48.8443 50.822 46.95C54.0946 40.9836 57.5766 34.6354 54.4023 29.9818L58.5136 18.3933C59.1866 16.4795 58.1947 14.3887 56.2804 13.7152L38.8797 7.54833C36.9664 6.87533 34.875 7.86722 34.2016 9.78148L30.126 21.4056C26.9367 22.1143 24.0305 26.7924 20.6636 37.5308C16.0917 52.2029 13.1503 64.2168 6.52317 71.3756C-2.93967 81.5471 -4.00247 95.1912 16.2335 98.8413C27.8576 100.861 41.5731 112.876 53.1972 117.731C53.317 117.781 53.44 117.833 53.5668 117.887C56.4042 119.092 61.1683 121.116 75.3827 117.554C78.6073 116.915 77.3669 102.811 60.4269 91.0447L60.4274 91.0447ZM33.3154 23.426C33.0317 23.3199 32.8547 23.0005 32.9608 22.6816L37.2844 10.5258C37.391 10.2427 37.7099 10.0651 38.0288 10.1717C38.3124 10.2779 38.4895 10.5972 38.3833 10.9157L34.0246 23.0714C33.918 23.3903 33.5991 23.5321 33.3159 23.426L33.3154 23.426ZM36.3277 23.7097C36.1863 24.0995 36.3986 24.5245 36.7884 24.6663C37.143 24.8077 37.568 24.5954 37.7098 24.2408L41.9625 12.3687C42.0691 11.9789 41.8915 11.5534 41.5017 11.4116C41.1119 11.2702 40.6869 11.483 40.5451 11.8728L36.3277 23.7097ZM40.2262 25.9066C39.7654 25.7291 39.5175 25.2332 39.6945 24.7372L43.8058 13.184C43.9828 12.7233 44.4788 12.4753 44.9752 12.6519C45.4359 12.8294 45.6839 13.3254 45.5068 13.8213L41.3956 25.375C41.2185 25.8357 40.7226 26.0837 40.2262 25.9066ZM48.9446 15.0617C49.1217 14.5657 48.8737 14.0698 48.413 13.8922L48.4135 13.8922C47.9527 13.7152 47.4206 13.9636 47.2084 14.4596L43.0971 26.0128C42.92 26.5087 43.168 27.0047 43.6287 27.1822C44.1252 27.3236 44.6211 27.0761 44.7982 26.6149L48.9446 15.0617ZM51.886 15.1326C52.2758 15.2744 52.4881 15.6999 52.3467 16.0897L48.0941 27.9266C47.9523 28.3159 47.5272 28.5286 47.1374 28.3873C46.7476 28.2455 46.5701 27.82 46.6767 27.4302L50.9293 15.5581C51.0712 15.2035 51.4962 14.9912 51.886 15.1326ZM55.7136 17.1173C55.8197 16.7984 55.6427 16.479 55.359 16.3729C55.0401 16.2668 54.7212 16.4086 54.6146 16.7275L50.2559 28.8833C50.1497 29.2021 50.3268 29.521 50.6105 29.6276C50.9293 29.7338 51.2482 29.5563 51.3548 29.2731L55.7136 17.1173ZM3.61706 87.6779C4.82216 91.257 8.75588 93.8443 15.0641 95.2973C15.5249 89.5917 16.8713 84.3819 18.8208 80.2354C16.0565 78.3573 12.335 76.3017 7.90537 74.6006C4.00686 79.2431 2.41196 84.0273 3.61706 87.6779ZM119.115 90.9029C116.032 92.9585 111.886 93.9861 107.491 94.3049C106.534 94.3402 105.932 93.9861 105.719 93.2417L102.529 84.5946C102.211 83.8859 102.175 83.212 103.167 82.716C103.167 82.716 109.688 79.8813 110.433 79.4915C110.53 79.4407 110.629 79.3845 110.73 79.327C111.407 78.9439 112.178 78.508 112.949 79.2787C117.308 83.8859 119.115 88.9186 119.115 90.8676L119.115 90.9029ZM107.917 100.542L107.917 100.826L107.349 100.826L107.349 102.35L106.995 102.35L106.995 100.826L106.463 100.826L106.463 100.542L107.917 100.542ZM109.759 100.542L109.263 101.818L109.263 101.818L108.767 100.542L108.27 100.542L108.27 102.35L108.589 102.35L108.589 100.932L108.624 100.932L109.157 102.35L109.405 102.35L109.936 100.932L109.936 102.35L110.255 102.35L110.255 100.542L109.759 100.542ZM61.4554 116.313C64.2549 116.349 68.0825 115.959 73.5755 114.648L73.5759 114.647C73.5759 114.577 73.6111 114.506 73.6111 114.399C73.6111 112.451 72.5127 108.268 68.8621 103.377C68.6851 103.13 68.2953 102.952 66.8065 103.448C65.8141 103.767 62.5891 104.051 59.8957 104.016C58.7615 104.051 58.4783 104.831 58.4426 105.752L59.4707 114.789C59.6477 115.959 60.463 116.455 61.4554 116.313Z" transform="translate(8.328278 6.294617)" id="Shape" fill="#C62033" fill-rule="evenodd" stroke="none" />
    </g>
  </g>
</svg>