<?xml version="1.0" encoding="utf-8"?>
<svg width="129px" height="157px" viewBox="0 0 129 157" version="1.1" xmlns:xlink="http://www.w3.org/1999/xlink" xmlns="http://www.w3.org/2000/svg">
  <desc>Created with Lunacy</desc>
  <defs>
    <path d="M0 0L129 0L129 156.143L0 156.143L0 0Z" id="path_1" />
    <clipPath id="mask_1">
      <use href="#path_1" />
    </clipPath>
  </defs>
  <g id="colorado-rockies-logo@logotyp.us">
    <path d="M0 0L129 0L129 156.143L0 156.143L0 0Z" id="Background" fill="none" stroke="none" />
    <g clip-path="url(#mask_1)">
      <path d="M10.4146 11.1217C16.9419 4.02296 26.3133 0.000847108 37.2904 0.000847108L37.29 0.000430121L37.2904 0C47.418 0 52.9989 3.54959 55.3616 3.54959C56.2184 3.54959 56.6914 3.07705 57.0671 1.89228L60.5749 1.89228L61.4219 26.6189L56.975 26.6189C55.9326 20.5844 53.5687 15.6151 50.2528 12.1864C46.9391 8.75648 42.7779 6.8642 38.0436 6.8642C25.4604 6.8642 16.8455 19.7573 16.8455 38.0931C16.8455 55.4115 24.1164 67.733 35.1881 70.0712L35.1881 59.6174C35.1881 50.851 33.5037 48.9815 25.469 48.9815L25.469 43.4867C31.166 43.0198 35.0005 42.669 42.4793 42.2008C48.3713 41.8514 54.1682 41.6164 57.3477 41.6164C72.312 41.6164 87.2726 46.8513 87.3341 63.0064C87.2726 77.9493 73.4521 81.1684 71.2564 82.2718C77.2474 83.6227 84.4985 104.144 88.4707 108.051C92.3047 111.393 96.4284 110.716 96.4284 110.716L96.4284 116.182C96.4284 116.182 75.9077 116.192 74.6149 116.196C74.1174 116.198 55.8517 85.3325 55.8517 85.3325L50.8958 85.3325L50.8958 100.996C50.8958 109.645 53.6083 110.696 60.9011 110.696L60.9011 116.192L25.4685 116.192L25.4685 110.696C33.3187 110.696 35.1881 108.943 35.1881 100.41L35.1881 77.3459C34.9708 77.3498 34.7621 77.3674 34.543 77.3674C21.8664 77.3674 13.156 72.0426 7.76407 64.7094C2.36524 57.3739 0 48.1501 0 39.9866C0 28.157 3.78843 18.3371 10.4146 11.1217ZM55.4761 47.2282L50.8953 47.2282L50.8962 47.2282L50.8966 47.2282L50.8966 65.9173L50.8966 65.9173C54.2586 62.8876 57.0809 58.3482 59.342 52.2858L59.342 52.2858L63.7901 52.2858L63.7901 52.2858C63.0349 59.0316 60.7609 67.7864 58.0199 75.8298L58.0199 75.8298L57.7311 76.656L57.7311 76.656C56.8825 76.3014 55.9335 76.066 54.9872 75.949L54.9872 75.949C54.1355 75.7106 53.0988 75.7101 51.9575 75.7101L51.9575 75.7101C51.611 75.7101 51.2517 75.7316 50.8962 75.7446L50.8962 75.7446L50.8962 79.6049L50.8962 79.6049C64.4593 79.8394 69.3189 74.5787 69.3189 62.5373L69.3189 62.5373C69.3189 53.3057 64.545 47.2282 55.4761 47.2282Z" transform="translate(16.28583 11.97279)" id="Shape" fill="#333366" fill-rule="evenodd" stroke="none" />
      <path d="M19.2301 0.000426837L19.2286 0.00100037L19.2297 0L19.2297 0.000430121L19.2301 0.000426837ZM19.2286 0.00100037C19.1116 0.115134 9.03646 9.99708 9.00224 30.5962C8.97297 49.8401 18.5209 61.8286 18.5209 61.8286C18.5209 61.8286 -0.0240736 57.0912 2.62669e-05 32.0104C0.0180069 7.65276 19.0372 0.0766553 19.2286 0.00100037ZM35.1009 40.6309L43.1752 40.0714L43.1752 103.275L35.1009 103.275L35.1009 40.6309ZM63.8848 40.6214C63.9056 40.6347 69.2117 44.0473 69.2048 56.0549C69.2048 67.9715 63.6403 71.3231 63.6403 71.3231C63.6403 71.3231 78.6934 68.2219 78.6529 55.9171C78.6126 41.9955 63.9813 40.6303 63.8848 40.6214ZM61.1749 76.9974C62.737 76.5541 63.8732 76.1048 63.8732 76.1048L63.8736 76.0988C67.95 78.1503 73.7779 87.2554 76.8915 94.707C80.247 101.426 82.6488 103.336 82.6488 103.336L71.1363 103.309C71.1363 103.309 60.7342 84.7089 55.9542 78.0466C55.9542 78.0466 59.4625 77.4906 61.1749 76.9974Z" transform="translate(20.20209 19.37793)" id="Shape" fill="#C4CED4" fill-rule="evenodd" stroke="none" />
    </g>
  </g>
</svg>