<?xml version="1.0" encoding="utf-8"?>
<svg width="109px" height="137px" viewBox="0 0 109 137" version="1.1" xmlns:xlink="http://www.w3.org/1999/xlink" xmlns="http://www.w3.org/2000/svg">
  <desc>Created with Lunacy</desc>
  <defs>
    <path d="M0 0L108.867 0L108.867 137L0 137L0 0Z" id="path_1" />
    <clipPath id="mask_1">
      <use href="#path_1" />
    </clipPath>
  </defs>
  <g id="kansas-city-royals-logo@logotyp.us">
    <path d="M0 0L108.867 0L108.867 137L0 137L0 0Z" id="Background" fill="none" stroke="none" />
    <g clip-path="url(#mask_1)">
      <path d="M27.1886 0L27.1886 41.0117L48.8475 53.6888L70.5055 41.0117L70.5055 0L27.1886 0ZM75.0021 44.6038C74.9736 41.8239 76.4888 40.2277 78.0827 40.1757L78.0836 40.1748C78.1902 40.1717 78.2946 40.1757 78.4021 40.1858C85.2858 40.8495 86.6369 53.8893 78.785 63.2694C78.874 64.4844 79.7922 65.2942 80.741 64.9709C82.8674 64.2448 84.1928 61.1549 85.6804 57.6865C88.1132 52.0148 90.9799 45.3311 98.4936 46.3172C97.4667 47.2375 96.346 49.1154 97.8409 54.5459C98.2778 56.1365 98.3335 57.759 97.9909 59.2254C103.194 61.2709 104.429 68.2678 98.5586 70.3001C87.2378 74.2133 70.9244 78.7336 54.5693 84.025L54.5684 84.4611C54.607 92.2383 52.451 94.1908 49.523 94.6882C45.7234 95.3361 43.9153 91.2049 43.9262 87.2136C40.8074 88.3023 37.7434 89.409 34.8115 90.5351C29.9749 92.3906 27.9795 95.265 27.5952 96.098C26.0012 95.1391 20.3627 93.0481 15.5578 98.429C16.1929 93.714 20.1325 89.9205 33.9083 86.8302C36.1766 86.3223 39.8955 85.3572 44.3162 84.1615C44.3697 83.9627 44.4276 83.7662 44.4925 83.5767C45.505 80.6338 47.9697 77.8212 50.5907 75.2954C50.5907 74.7449 50.5946 74.2089 50.5968 73.697C49.065 75.4393 47.2289 76.8329 45.3203 76.8298C42.809 76.8228 42.5213 73.5987 42.509 71.3976L42.584 68.1037C41.9076 69.1376 40.7605 69.9404 39.3801 70.3873C39.6678 75.4428 37.0065 81.2045 31.5203 80.6715C30.5877 80.5812 28.8801 80.1039 27.5676 77.9146C25.3349 74.3146 26.3504 65.6613 31.6085 63.9536C32.3279 63.3667 33.3302 63.0557 34.5071 63.2421C36.8942 63.6255 38.3953 65.6249 39.0397 68.1406C41.0386 67.4199 42.7998 65.5051 42.7077 61.062L46.5126 60.0953L46.5095 71.2164C46.4902 71.8932 46.7345 73.3465 47.5837 73.4724C48.4181 73.597 50.002 72.5227 50.531 70.5444C50.5359 69.993 50.5429 69.5956 50.5481 69.4122L50.5846 59.0013L54.5921 57.8862L54.578 71.6445C55.8817 70.4803 57.0402 69.4148 57.857 68.4805C56.591 62.5285 60.1555 54.7393 64.8267 54.624C65.6 54.6029 66.6177 54.7191 67.1397 55.2109C67.1327 54.7196 67.159 54.3485 67.159 54.3485L71.1117 53.3378L71.1038 64.9397C71.328 66.7948 71.7324 67.5181 74.1748 65.4608C74.5174 65.1731 74.8429 64.8722 75.1662 64.5699C75.1227 64.3721 75.0762 64.1765 75.0477 63.9598C75.0119 63.6999 75.0104 63.3151 75.007 62.4345C75.0061 62.1927 75.005 61.9135 75.003 61.5893C74.9929 60.0882 75.0021 44.6038 75.0021 44.6038ZM79.7808 43.4362C80.466 43.4879 81.3647 44.3657 81.8688 46.1505C83.004 50.1804 81.8547 55.4736 78.8565 60.1198C78.8618 55.6381 78.8719 45.951 78.8565 44.7762C78.8443 43.8551 79.2487 43.3967 79.7808 43.4362ZM93.6247 54.515C93.2379 52.1448 92.8761 49.9284 93.886 48.9509C91.1069 49.4057 88.6151 55.2822 86.9966 59.3281C87.641 58.7311 88.6069 58.2701 89.9548 58.1069C91.6362 57.9012 92.8837 57.9126 94.0483 58.0867L94.0431 57.7704C93.9851 56.7229 93.8023 55.6028 93.6247 54.515ZM15.6477 55.1635L15.6473 55.1635L15.6477 55.1622L15.6477 55.1635ZM15.6473 55.1635L15.6469 55.1653C21.4625 55.2297 25.8144 58.7122 26.0841 63.2478C26.3184 67.2383 23.318 70.9892 18.9236 72.5854C20.6444 73.9527 22.0319 76.1622 23.4478 78.9424C26.1872 84.3163 30.4176 83.8895 32.5744 81.8787C32.9534 81.4563 33.2907 81.4887 33.1793 82.0511C32.8894 83.5491 32.3178 85.0238 30.2724 86.0433C22.5884 89.8802 18.7527 81.1556 16.8755 76.8858C16.5779 76.2088 16.3295 75.6438 16.1228 75.2586C14.791 72.7745 12.9623 72.7135 11.8516 72.9701C11.9288 75.4726 12.103 78.3379 12.3635 81.6379C12.8298 87.5408 10.3264 89.9802 8.59728 90.8996C4.95691 92.8384 0.328259 89.4178 3.08694 85.3353C4.33973 87.5062 7.03042 86.2113 7.4603 83.7614C7.76151 82.318 7.83248 79.9694 7.91356 77.2865C8.08787 71.5183 8.30887 64.205 10.9651 61.0221C12.0688 59.7369 13.3742 59.0122 14.566 58.6069C12.5079 60.8155 11.7244 64.6353 11.8205 71.4726C13.6255 70.9813 15.138 70.955 16.4544 71.3147C19.5013 70.0531 21.588 67.0418 21.4349 63.7804C21.2546 60.0729 18.2059 56.8287 14.4568 57.0954C9.08813 57.5007 4.86085 60.7204 4.5516 63.2259C4.22305 65.857 6.06363 65.2894 6.88566 64.5222C6.62028 66.7509 4.96393 69.8483 1.68633 69.0618C-2.61904 68.0178 1.20688 56.0676 14.4638 55.196C14.8642 55.1697 15.2593 55.1596 15.6473 55.1635ZM67.3433 58.0011C67.1406 57.1409 66.2335 56.4939 65.229 56.5711C64.4486 56.6312 63.6086 57.1295 62.9993 58.3034C61.0249 62.106 61.1855 68.9692 63.8305 69.1214C65.6343 69.2258 67.3069 66.475 67.2915 64.2067C67.2893 63.8953 67.2977 63.3571 67.3084 62.665L67.3084 62.6644L67.3085 62.6633L67.3085 62.6612L67.3085 62.6607C67.3274 61.4484 67.3536 59.7651 67.3433 58.0011ZM92.6193 59.8044C92.8066 59.7952 92.9952 59.7952 93.1838 59.8066L93.2092 59.8066C93.4009 59.8137 93.5966 59.8369 93.801 59.8676L93.8212 59.8707L93.8962 59.883C93.5939 61.2713 92.8136 62.3144 91.2651 62.6307C87.8274 63.333 87.9511 60.3655 90.5922 60.029C91.1182 59.9624 91.5621 59.8983 91.9718 59.8549L92.0113 59.8518C92.2109 59.8303 92.4004 59.8145 92.5912 59.8071L92.6197 59.8049L92.6193 59.8044ZM97.3074 61.0576L97.3067 61.0573L97.3076 61.0572L97.3074 61.0576ZM97.3074 61.0576L97.9077 61.3301C102.014 63.2194 101.044 67.7103 97.9612 68.6323C89.7404 71.0892 70.9126 76.5408 54.5728 81.0821L54.5799 74.0462C56.016 72.7763 57.4622 71.566 58.7453 70.4189C59.2239 71.7731 64.1745 74.4344 67.3087 68.6867C68.5634 72.5792 72.5516 69.055 74.3509 67.4651C74.6243 67.2235 74.8471 67.0266 75.0022 66.9071C75.293 66.683 75.5667 66.4491 75.8422 66.218C77.4924 68.6292 81.1227 67.9875 83.1984 65.989C84.281 64.9459 85.3583 63.1847 86.0807 61.5731C86.254 63.293 88.1758 64.9217 91.6349 64.5445C94.4443 64.2353 96.2998 62.8888 97.3074 61.0576ZM33.9237 65.4569C34.1053 65.4631 34.2957 65.5017 34.4892 65.5754C35.4722 65.9504 36.1951 67.0944 36.6184 68.5205C35.1923 68.5051 33.9843 68.1322 33.6395 67.9335C31.8292 66.8988 32.6525 65.4139 33.9233 65.4565L33.9237 65.4569ZM32.5525 69.6136C31.9415 69.2605 31.4892 68.849 31.1519 68.4073C30.0329 70.6159 29.978 77.068 33.7465 77.0588C36.2569 77.0518 37.236 73.8277 37.0202 70.783C35.5656 70.8054 34.0119 70.4519 32.5525 69.6136ZM50.5851 77.8532C50.5789 79.4161 50.5772 80.9365 50.575 82.188C49.309 82.5367 48.0624 82.8771 46.8473 83.2096L46.9061 83.0556C47.6966 81.2607 49.0235 79.5205 50.5851 77.8532ZM49.0182 92.0226C50.3662 91.6677 50.5666 90.2145 50.5719 85.3397C49.1244 85.82 47.6821 86.3052 46.242 86.8C46.2657 89.6771 47.3105 92.4696 49.0182 92.0226Z" transform="translate(3.205688 30.03714)" id="Shape" fill="#004687" fill-rule="evenodd" stroke="none" />
      <path d="M0 2.57225C0 1.15015 1.15014 0 2.57225 0C3.99349 0 5.14363 1.15015 5.14363 2.57225C5.14363 3.99129 3.99305 5.14363 2.57225 5.14363C1.15014 5.14363 0 3.99129 0 2.57225ZM16.5608 0C15.14 0 13.9886 1.15015 13.9886 2.57225C13.9886 3.99129 15.14 5.14363 16.5608 5.14363C17.9816 5.14363 19.1322 3.99129 19.1322 2.57225C19.1322 1.15015 17.9821 0 16.5608 0ZM27.8171 2.57225C27.8171 1.15015 28.9704 0 30.3903 0C31.8102 0 32.9625 1.15015 32.9625 2.57225C32.9625 3.99129 31.8102 5.14363 30.3903 5.14363C28.9704 5.14363 27.8171 3.99129 27.8171 2.57225ZM44.1963 0C42.7773 0 41.6249 1.15015 41.6249 2.57225C41.6249 3.99129 42.7773 5.14363 44.1963 5.14363C45.6184 5.14363 46.7686 3.99129 46.7686 2.57225C46.7686 1.15015 45.6184 0 44.1963 0ZM1.659 18.8462L1.659 6.79778L3.43248 6.81927C3.43248 10.2013 6.1609 12.963 9.54509 12.963C12.9302 12.963 15.6709 10.2122 15.6709 6.82804L17.3158 6.81181C17.3158 10.196 20.0372 12.963 23.4192 12.963C26.8052 12.963 29.5467 10.2092 29.5467 6.82497L31.1776 6.82497C31.1776 10.2092 33.8999 12.963 37.2841 12.963C40.6661 12.963 43.4099 10.2105 43.4099 6.82716L45.0263 6.82716L45.0263 18.8462L1.659 18.8462Z" transform="translate(28.7019 10.03024)" id="Shape" fill="#C09A5B" fill-rule="evenodd" stroke="none" />
      <path d="M18.2677 0.362766L18.2677 0.000880168L18.2681 0.000876821L18.2681 0L19.1327 0L19.1327 1.22647L18.5559 1.22647C17.6658 1.22647 16.5644 1.22735 15.0958 3.04161C13.5956 4.89535 10.9198 8.84936 9.90038 10.3684C9.49288 10.2517 9.0722 10.1574 8.62215 10.125C8.62215 10.125 12.352 4.49881 14.2329 2.17791C15.6965 0.362765 16.8011 0.362766 17.6896 0.362766L18.2677 0.362766ZM8.36157 0.00745792L8.36157 0.382068C7.03991 0.481202 5.69194 1.28525 5.69194 3.45614L5.68886 10.7614L6.32841 10.3987L6.55257 10.0846L6.55651 4.3216C6.55651 2.14983 7.90537 1.34579 9.22703 1.24884L9.22703 0.00745792L8.36157 0.00745792ZM10.9571 1.22647L10.9571 0.385141C11.6598 0.437784 12.1888 0.634299 12.134 1.2892C11.7809 1.23437 11.3716 1.22647 10.9571 1.22647ZM0 0.396119L0 1.22429L0.467165 1.23745C1.03873 1.23219 1.63178 1.35896 2.1415 1.65987C1.65197 0.846177 0.833001 0.474197 0 0.396119ZM34.6206 15.3502L34.6206 6.98684L35.4852 6.98684L35.4852 16.2148L34.2355 16.2148C34.2193 15.9906 34.1881 15.6919 34.1372 15.3502L34.6206 15.3502ZM27.3526 8.31068C22.144 8.15277 21.1693 14.175 21.0961 18.2847C20.9926 24.3465 22.6164 27.9101 24.7255 29.698C23.0542 27.7188 21.8734 24.3526 21.9606 19.1484C22.0335 15.0396 23.0095 9.01516 28.2163 9.17438C29.6739 9.21781 30.7732 9.68805 31.6136 10.3614C30.7179 9.24062 29.3769 8.37472 27.353 8.31199L27.353 8.31112L27.3526 8.31068ZM5.70291 13.11C6.18323 12.6415 7.10045 11.9638 8.30148 12.0204L8.30149 12.0208C9.23581 12.0642 10.3403 12.5529 11.5466 13.9272C9.19414 11.9537 7.33031 13.2337 6.56925 13.9767L6.52977 16.3757L6.55127 20.6416C6.55127 21.4049 6.72848 21.9856 7.00308 22.4396C6.2521 21.9988 5.68668 21.1759 5.68668 19.777L5.66431 15.5111L5.70291 13.11ZM13.585 12.8604C15.8077 15.3699 17.0197 18.7791 17.9523 19.4564L17.922 19.137C16.96 17.5092 15.6537 14.722 13.585 12.8604ZM9.14896 24.092L9.14896 23.7025L9.17023 23.7043C9.29615 23.7152 9.42264 23.7261 9.54638 23.724L10.0127 23.7402L10.0127 24.9566L0 24.9566L0 24.092L9.14896 24.092ZM35.0211 25.4857L35.0597 25.5392C35.7365 26.7371 34.5184 32.4221 28.1737 32.4221C25.3786 32.4221 23.1437 31.3101 21.2939 29.6217C23.3038 31.7856 25.7919 33.2836 29.0383 33.2836C35.3821 33.2836 36.6002 27.6 35.9212 26.4029C35.6484 25.9225 35.3356 25.6335 35.0211 25.4857ZM33.68 27.4951C33.4749 27.356 33.3287 27.2083 33.2414 27.0565C33.5207 27.1485 33.675 27.2753 33.68 27.4951Z" transform="translate(34.93872 37.60825)" id="Shape" fill="#000000" fill-rule="evenodd" stroke="none" />
      <path d="M35.923 26.4038L35.8883 26.3511C34.3965 23.8425 31.7847 26.7858 34.0701 27.8969L34.1074 27.9211C34.2745 28.0114 34.3688 28.1338 34.3719 28.3466C34.3759 28.4966 34.3425 28.6821 34.2311 28.9646C33.0647 31.9141 28.7743 33.2577 25.5918 30.5639C23.4828 28.776 21.8589 25.2124 21.9616 19.1507C22.0357 15.0409 23.0095 9.0165 28.2181 9.17572C30.2411 9.23845 31.5821 10.1061 32.4778 11.226C33.849 12.9398 34.1706 15.2497 34.2342 16.2174L35.4856 16.2174L35.4856 6.98948L34.0372 6.98948C33.7766 8.05452 33.6025 9.01649 31.6623 8.48046C29.7204 7.94838 28.8791 8.0326 28.2014 8.00189C22.2357 7.74045 18.1484 14.4571 18.787 19.9999L18.8186 20.3232C17.8852 19.6441 16.6732 16.2345 14.4483 13.7272C13.4499 12.599 12.2419 11.6646 10.7654 11.2339C10.3579 11.1163 9.93722 11.022 9.48717 10.9895C9.48717 10.9895 13.2179 5.36164 15.098 3.04161C16.5635 1.22735 17.668 1.22735 18.5572 1.22735L19.134 1.22735L19.134 0L10.9571 0L10.9571 1.22735C11.254 1.22735 11.5488 1.23042 11.8234 1.24971C12.5248 1.30235 13.0538 1.50018 13.0003 2.15465C12.981 2.37749 12.9143 2.64112 12.7367 2.98897C12.0515 4.34615 8.87743 8.88576 7.4176 10.9492L7.19477 11.2633L6.55302 11.626L6.55697 4.32159C6.55697 2.15071 7.90495 1.34578 9.2266 1.24665L9.2266 0.00702126L0.000441757 0.00702126L0.000441757 1.2234L0.468484 1.23744C0.599204 1.23524 0.732112 1.24753 0.864586 1.26069C1.69671 1.34096 2.51743 1.71074 3.00827 2.52444C3.28287 2.97844 3.46008 3.55834 3.46008 4.32028L3.46008 20.6429C3.46008 22.9893 1.88225 23.7411 0.468042 23.7262L0 23.7416L0 24.958L10.0135 24.958L10.0135 23.7416L9.5455 23.7262C8.97481 23.7332 8.38088 23.6034 7.86897 23.3038C7.11712 22.8638 6.55257 22.0401 6.55257 20.6434L6.52845 16.3753L6.56705 13.9754C7.42242 13.1442 9.65735 11.6493 12.4108 14.7922C12.4858 14.8764 12.5599 14.9514 12.6349 15.0436C15.262 18.2514 17.4864 26.2217 22.1589 30.4863C24.0096 32.1769 26.2423 33.2858 29.0396 33.2858C35.3834 33.2858 36.6015 27.6022 35.9225 26.4029" transform="translate(34.07233 36.74588)" id="Shape" fill="#FFFFFF" fill-rule="evenodd" stroke="none" />
    </g>
  </g>
</svg>