<?xml version="1.0" encoding="utf-8"?>
<svg width="118px" height="138px" viewBox="0 0 118 138" version="1.1" xmlns:xlink="http://www.w3.org/1999/xlink" xmlns="http://www.w3.org/2000/svg">
  <desc>Created with Lunacy</desc>
  <defs>
    <path d="M0 0L117.711 0L117.711 138L0 138L0 0Z" id="path_1" />
    <clipPath id="mask_1">
      <use href="#path_1" />
    </clipPath>
  </defs>
  <g id="detroit-tigers-logo@logotyp.us">
    <path d="M0 0L117.711 0L117.711 138L0 138L0 0Z" id="Background" fill="none" stroke="none" />
    <g clip-path="url(#mask_1)">
      <path d="M0.455732 0.00069112C-0.0675693 -0.0215512 -0.218814 0.490829 0.424595 1.89168C5.1905 12.2525 15.0915 18.6983 26.2252 21.5595C19.8178 27.1152 16.0403 30.3884 15.1999 37.421C9.71901 37.8278 3.85596 41.8387 1.99813 45.5604C-0.117311 49.7982 3.01601 49.8827 5.14277 48.4232C7.86441 46.5617 11.722 45.8459 15.0207 45.9891L15.0147 51.3094C9.53581 51.7175 4.13985 55.7263 2.28404 59.4485C0.168602 63.683 3.30273 63.7703 5.42788 62.3145C8.15113 60.4506 11.7228 59.4485 15.0203 59.5904L15.0203 75.6295C15.0203 81.9261 11.8733 85.0743 10.0065 86.7979C8.15114 88.5146 9.17468 90.3065 11.8733 89.2239C17.5321 86.9597 23.4117 81.5965 24.7515 73.4206C26.9175 73.6944 29.5158 73.7195 31.3429 73.4267L31.3429 75.6291C31.3429 81.9257 28.1926 85.0739 26.3323 86.7975L26.2559 86.8784C20.2331 87.4009 14.8448 89.435 10.5549 92.7701C0.788963 100.392 -0.712995 114.715 0.788963 117.882C0.797819 117.902 0.855732 117.754 0.967431 117.47C2.01862 114.795 7.83344 99.9976 22.3542 98.2765C31.6612 97.1814 43.0864 99.9625 52.8196 108.412C58.8311 98.3885 69.0042 92.6642 80.8812 90.6422C76.8687 86.0821 75.873 84.0787 75.7238 78.9205L75.7238 31.9591C76.0162 27.9498 77.0179 26.661 79.93 23.9402C73.4345 21.5069 65.9866 13.9211 61.9798 5.90134C41.9371 16.2104 19.599 16.2104 2.71314 1.32025C1.8744 0.580599 0.979866 0.0237341 0.456565 0.000683407L0.455732 0.00069112ZM62.8383 26.2307L57.1103 20.5072L57.1103 20.5068C53.5952 21.7475 49.7922 22.5676 45.8792 22.9846C41.7818 26.9655 41.3644 33.2771 41.3644 38.2589L41.3644 40.0933C47.1466 42.1671 56.4135 42.2383 62.8383 40.2999L62.8383 26.2307ZM32.7021 22.8305C35.4529 23.1876 38.2279 23.34 40.9815 23.2915C37.9626 25.9258 35.3837 28.3737 33.6508 31.2194C31.3554 30.458 29.2501 30.0079 27.203 29.8946C28.5262 27.2349 30.4205 24.7522 32.7021 22.8301L32.7021 22.8305ZM32.1113 34.6415C30.6608 34.1231 29.0227 33.8627 27.3393 33.8732L27.3389 33.8732C26.7785 33.8768 26.2125 33.9112 25.6469 33.9751C25.2542 35.4423 25.0378 36.8912 25.0378 38.2589L25.0378 69.3576C27.2503 69.5691 29.7322 69.5258 31.3474 69.1772L31.3753 39.4256C31.3664 37.656 31.6563 36.097 32.1113 34.6415ZM41.3645 44.9627C47.1466 47.0341 56.4135 47.1048 62.8383 45.1682L62.8383 58.8382C56.4135 56.9011 47.1466 56.9723 41.3645 59.0449L41.3645 44.9627ZM62.8383 63.7085C59.6265 62.7379 55.7038 62.2712 51.8603 62.3084L51.8603 62.308C48.0177 62.3392 44.2559 62.8807 41.3644 63.9196L41.3644 69.1833C41.3644 77.2722 36.7397 83.3573 31.6045 86.8096C37.3236 87.1332 43.4503 88.7261 49.6668 91.8061C53.9632 88.0791 58.8282 85.2171 62.8383 84.0791L62.8383 63.7085Z" transform="translate(18.27814 8.235474)" id="Shape" fill="#0C2C56" fill-rule="evenodd" stroke="none" />
    </g>
  </g>
</svg>