<?xml version="1.0" encoding="utf-8"?>
<svg width="133px" height="122px" viewBox="0 0 133 122" version="1.1" xmlns="http://www.w3.org/2000/svg">
  <desc>Created with Lunacy</desc>
  <defs>
    <path d="M0 0L132.99 0L132.99 121.836L0 121.836L0 0Z" id="path_1" />
    <clipPath id="mask_1">
      <use href="#path_1" />
    </clipPath>
  </defs>
  <g id="minnesota-twins-logo@logotyp.us">
    <path d="M0 0L132.99 0L132.99 121.836L0 121.836L0 0Z" id="Background" fill="none" stroke="none" />
    <g clip-path="url(#mask_1)">
      <path d="M60.4898 0.00121373C27.137 0.00524565 0.00201827 27.1434 0 60.495C0.00201827 93.8479 27.1374 120.983 60.4898 120.985C93.8406 120.983 120.976 93.8475 120.978 60.4971C120.976 27.1422 93.8402 0.00524258 60.4898 0" transform="translate(4.203796 0.4249268)" id="Shape" fill="#FFFFFF" fill-rule="evenodd" stroke="none" />
      <path d="M57.4992 0C25.7417 0 0 25.7465 0 57.5033C0 89.2608 25.7417 115 57.4992 115.003C89.2567 115 114.996 89.2608 114.998 57.5033C114.996 25.7457 89.2567 1.53831e-06 57.4992 1.53831e-06" transform="translate(7.378235 3.68573)" id="Shape" fill="#002B5C" fill-rule="evenodd" stroke="none" />
      <path d="M55.7313 0C24.9525 0 0.00281819 24.957 0 55.7358C0.00201827 86.5146 24.9517 111.462 55.7313 111.464C86.5102 111.462 111.46 86.5146 111.46 55.7358C111.46 24.9569 86.5102 0 55.7313 0" transform="translate(9.146179 5.453186)" id="Shape" fill="#FFFFFF" fill-rule="evenodd" stroke="none" />
      <path d="M92.4486 15.863C82.6457 6.061 69.1123 0 54.1558 0C39.1969 0 25.6627 6.061 15.863 15.863C6.06019 25.6679 0 39.2025 0 54.161C0 69.1176 6.06019 82.651 15.861 92.4538C25.6639 102.255 39.1973 108.315 54.1562 108.315C69.1127 108.315 82.6461 102.255 92.449 92.4538C102.252 82.6518 108.31 69.1176 108.312 54.161C108.31 39.2021 102.252 25.6679 92.449 15.863" transform="translate(10.72485 7.031982)" id="Shape" fill="#002B5C" fill-rule="evenodd" stroke="none" />
      <path d="M40.9692 0.225422L40.9757 0L40.9765 0.00082146L44.668 0.122607L44.9265 0.129865C45.0051 0.129865 45.0656 0.123413 45.1039 0.107685L45.1422 0.0911513L45.1837 0.0911513L45.41 0.10083L45.3652 1.54934L45.1708 1.54611L45.0555 1.5445L44.9999 1.48562C44.7373 1.21181 44.3591 1.15656 43.8578 1.14084C43.7147 1.13519 43.5711 1.13116 43.432 1.13116C43.2614 1.13116 43.0977 1.13801 42.94 1.1485L42.8977 2.46111L43.9986 2.49942L44.1603 2.50103C44.2655 2.50345 44.3579 2.49296 44.4071 2.47079L44.4454 2.45949L44.4853 2.45949L44.7115 2.46756L44.6692 3.81646L44.472 3.81162L44.3345 3.8084L44.2788 3.71928C44.2248 3.58459 43.8207 3.52571 43.4759 3.52813L42.863 3.50837L42.8065 5.27062L44.009 5.40611C44.1171 5.41498 44.2264 5.42063 44.3361 5.42063C44.9083 5.42063 45.4854 5.26296 45.9136 4.96857L45.9685 4.93188L46.0338 4.93349L46.3576 4.94801L45.6523 6.50096L40.77 6.34329L40.7781 6.14367L40.7846 5.97269L40.9269 5.93599C41.3032 5.86663 41.3023 5.3436 41.3112 4.89638L41.4201 1.48763C41.4241 1.36907 41.4314 1.24083 41.4314 1.1126C41.4241 0.758534 41.3741 0.510124 41.1003 0.418585L40.9612 0.36858L40.9692 0.225422ZM35.4216 0.333561L33.1613 0.817472L33.2036 1.03644L33.2298 1.15903L33.354 1.18605C33.8835 1.33002 33.8698 1.5139 33.9972 2.0337L34.6102 4.90774L30.2328 1.92765L30.0554 1.79013C29.963 1.72884 29.9449 1.72239 29.9114 1.6748L29.8779 1.5139L27.9318 1.92925L27.9786 2.14581L28.0024 2.26759L28.125 2.29945C28.6456 2.44261 28.6464 2.62891 28.7698 3.1471L29.5235 6.67845C29.5642 6.86718 29.5953 7.02687 29.5953 7.15914C29.588 7.36117 29.5461 7.5015 29.2682 7.72572L29.1694 7.80274L29.2029 7.94832L29.2428 8.14107L31.5208 7.65716L31.4708 7.439L31.4454 7.31883L31.3269 7.28859C30.7905 7.13656 30.8038 6.94944 30.6752 6.43126L30.0497 3.48625L34.1287 6.28165C34.7058 6.68773 35.1651 6.94299 36.0047 6.99017L36.2611 7.00913L35.1518 1.78772C35.1094 1.59496 35.0768 1.43607 35.0768 1.30381C35.0808 1.10419 35.1268 0.968697 35.3965 0.751339L35.4953 0.674316L35.4635 0.527933L35.4203 0.334367L35.4216 0.333561ZM51.0725 2.46029C51.2938 1.58092 52.1586 1.27521 53.0452 1.28237L53.0456 1.28237C53.4714 1.2824 53.92 1.34531 54.3506 1.45335C54.8942 1.59005 55.4345 1.79087 55.9281 2.05824L56.0636 2.13324L55.7769 3.27285L55.6733 3.68498L55.4273 3.3402C55.1418 2.93653 54.5647 2.58247 54.0106 2.44778C53.8251 2.40101 53.6167 2.36834 53.4239 2.36834C53.0154 2.37479 52.748 2.48448 52.6827 2.76071L52.6722 2.85467C52.6339 3.19785 53.3198 3.71926 54.0848 4.231C54.8252 4.76048 55.6442 5.32222 55.6672 6.18197C55.6672 6.27835 55.6535 6.37916 55.6289 6.48038C55.4027 7.34175 54.4167 7.87082 53.2053 7.87244C52.8529 7.87244 52.4794 7.82969 52.096 7.73331C51.4338 7.56757 50.7874 7.31997 50.2087 6.97155L50.1163 6.9159L50.0647 5.07664L50.4261 5.50006C50.9108 6.07229 51.679 6.55297 52.4645 6.74815C52.6166 6.78646 52.8037 6.80864 52.994 6.80864C53.4852 6.81106 53.9159 6.64008 53.9699 6.35578C53.9816 6.31102 53.9856 6.26747 53.9856 6.22432C54.0175 5.81904 53.3489 5.33029 52.5904 4.82743C51.8544 4.31408 51.0382 3.74104 51.0225 2.82565C51.0225 2.70709 51.039 2.58369 51.0725 2.46029ZM22.5612 3.84154L20.5054 4.90935L20.609 5.10897L20.6663 5.22269L20.7977 5.21462L20.8534 5.21139C21.3381 5.22712 21.3897 5.40657 21.6389 5.85782L22.9959 8.4653L17.981 6.76032L17.7733 6.67523C17.668 6.64418 17.6499 6.63934 17.6023 6.60345L17.5281 6.45707L15.7618 7.3765L15.8671 7.57773L15.9268 7.69064L16.0558 7.68015L16.0982 7.67854C16.5877 7.69427 16.6474 7.87654 16.8966 8.32496L18.5649 11.526C18.6996 11.7837 18.7911 11.9733 18.7871 12.139C18.7871 12.264 18.7464 12.4007 18.5984 12.6048L18.5233 12.7036L18.5935 12.8358L18.6834 13.01L20.7489 11.9362L20.6469 11.739L20.5913 11.6325L20.4203 11.6325C19.911 11.616 19.8638 11.4353 19.6117 10.9829L18.2213 8.31005L22.8995 9.91462C23.3459 10.0715 23.7153 10.1844 24.1641 10.1844C24.3855 10.1844 24.6218 10.1542 24.8932 10.0985L25.1489 10.0437L22.6838 5.31342C22.5471 5.05332 22.4563 4.86459 22.4592 4.69885C22.4608 4.57787 22.4999 4.44117 22.6455 4.24841L22.7189 4.15123L22.6503 4.01573L22.5612 3.84154ZM60.4693 6.81067C61.0097 5.8126 62.1295 5.27304 63.3727 5.27465L63.3727 5.27425C64.1656 5.27425 65.016 5.4908 65.8169 5.9485C67.3699 6.77841 68.2038 8.15554 68.2038 9.45686C68.2038 9.91738 68.0974 10.3686 67.8768 10.7747C67.2965 11.8409 66.1685 12.3648 64.9422 12.3648C64.1575 12.3648 63.332 12.1547 62.5553 11.7377C61.0854 10.9384 60.12 9.57662 60.116 8.18538C60.116 7.71639 60.2289 7.2478 60.4693 6.81067ZM63.7897 6.42474C64.2474 6.42474 64.7462 6.55137 65.2527 6.83002C66.2173 7.35466 66.6343 8.19021 66.6423 9.01407C66.6423 9.41048 66.5443 9.80365 66.3479 10.1537C65.9721 10.8517 65.318 11.236 64.5252 11.236C64.0836 11.236 63.6013 11.1167 63.1029 10.8453C62.1254 10.313 61.6879 9.42136 61.6854 8.57935C61.6854 8.19989 61.777 7.83534 61.9472 7.5208L61.9472 7.51918C62.3347 6.81308 62.9884 6.42877 63.7897 6.42474ZM9.57421 12.0805L11.4804 10.5142L11.4808 10.5146L11.6066 10.665L11.7171 10.7973L11.6361 10.9207C11.5841 11.0005 11.5675 11.0703 11.5675 11.1421C11.5541 11.3779 11.8245 11.695 12.0355 11.9423L12.0474 11.9563L14.2129 14.594C14.4327 14.8835 14.7263 15.2424 14.9819 15.2243C15.0291 15.2243 15.0823 15.2154 15.1452 15.1908L15.2775 15.1368L15.3699 15.2465L15.5106 15.4191L13.606 16.9853L13.481 16.8405L13.3681 16.703L13.4507 16.5796C13.5044 16.4998 13.5225 16.4284 13.5225 16.3566C13.5337 16.123 13.2595 15.8016 13.0516 15.5579L13.0467 15.5521L10.8804 12.916C10.6533 12.62 10.3662 12.2555 10.1105 12.276C10.0618 12.276 10.0077 12.2825 9.94964 12.3095L9.81213 12.3684L9.71817 12.2547L9.57421 12.0805ZM42.0629 10.5356C31.2462 10.5316 20.453 15.0279 12.7531 23.7956C10.013 26.9148 7.86681 30.3522 6.29168 33.969L6.48524 33.942C7.0123 33.8791 7.52726 33.8243 8.03658 33.7819C9.5113 30.5966 11.4558 27.5641 13.8875 24.7953C16.2082 22.1527 18.8157 19.9179 21.6244 18.0919C27.8104 14.0532 34.9703 12.0015 42.1479 12.0015C50.9382 11.999 59.776 15.0775 66.8956 21.3329C69.9934 24.0541 72.5356 27.1765 74.514 30.5506C74.9471 30.3804 75.4133 30.2587 75.9036 30.2022L75.9202 30.2022C73.8276 26.5434 71.1137 23.1625 67.7787 20.2324C60.383 13.7323 51.1902 10.5332 42.0633 10.5356L42.0629 10.5356ZM72.1355 11.876L73.5086 11.1405L73.509 11.1409L73.6155 11.2348L73.6562 11.2796L73.6728 11.3066C73.722 11.3917 73.8119 11.48 73.9018 11.5828L77.1142 14.5141C77.2448 14.6335 77.3759 14.7299 77.4739 14.7682L77.5066 14.7819L77.5312 14.8057L77.7517 15.0118L76.4113 15.7751L76.3048 15.6796L76.1903 15.5707L76.231 15.4497L76.2391 15.3662C76.2552 15.2045 76.0508 14.9517 75.8302 14.7565L75.2499 14.2242L72.6098 17.1301C72.3484 17.4128 72.2013 17.5765 72.2093 17.8011C72.2093 17.8926 72.2255 18.0047 72.2827 18.1552L72.3319 18.2705L72.2501 18.3628L72.1029 18.5286L70.2063 16.803L70.3455 16.6575L70.46 16.5349L70.5826 16.5937C70.656 16.6232 70.7132 16.6353 70.7705 16.6353C71.0157 16.6534 71.3181 16.3143 71.5472 16.0493L74.1385 13.2104L73.5744 12.6946C73.2393 12.395 72.8388 12.1635 72.4791 12.1365L72.4138 12.1284L72.3646 12.0837L72.1355 11.876ZM42.9189 13.5125C29.2682 13.2213 16.1292 20.7627 9.80888 33.6509C11.7324 33.5412 13.3705 33.538 14.3952 33.5363C21.7551 33.5226 26.6643 31.6898 26.7381 28.073L28.7734 28.74C28.7774 28.9597 28.7686 29.1723 28.7597 29.3848L29.8453 29.7477C29.6989 39.9292 16.6066 41.9794 11.8542 42.2016L11.8526 42.2016L11.8526 43.9183C13.9754 43.2315 18.4729 41.8266 20.3618 41.2503L20.3618 42.746L21.184 42.4968L21.184 41.0075C23.0911 40.4535 28.0935 39.0582 30.0433 38.5283L30.0433 40.0325L30.8655 39.8103L30.8655 38.313C32.9613 37.7702 37.5951 36.629 39.6977 36.1305L39.6977 37.6379C39.9937 37.5686 40.2659 37.5032 40.5208 37.4452L40.5208 35.9426L41.5587 35.7063C43.6545 35.2345 45.774 34.78 47.852 34.3582L49.4501 34.0328L49.4501 35.545L50.2708 35.3833L50.2708 33.8719C52.3976 33.4698 55.7499 32.8565 57.8146 32.5133L61.6778 31.9019C63.8635 31.5741 65.5636 32.2959 66.7081 33.2359C67.0597 33.5279 67.3537 33.8481 67.6073 34.1888C67.7872 34.3082 67.959 34.434 68.1142 34.5639C69.8962 36.0362 70.264 38.2698 70.2559 39.8853L70.2559 51.2169C70.2559 51.242 70.2559 51.2671 70.2558 51.2923C70.2551 51.5215 70.2543 51.752 70.3132 51.9867L70.5338 52.092L70.5338 52.4428C70.689 52.6702 70.9342 52.8924 71.3105 53.1122L71.3105 44.5082C73.5748 44.7575 75.0785 45.7866 76.0024 47.0504C76.1742 47.1665 76.3214 47.2972 76.4766 47.4254C77.0735 47.9436 77.5311 48.5396 77.8743 49.1699C78.3566 48.8921 78.8309 48.3876 78.7897 47.4206C78.7817 47.2226 78.7079 46.9693 78.4546 46.6189C78.1441 46.1906 77.5553 45.6071 76.4766 44.7813C75.9451 44.3752 75.2914 43.9138 74.4986 43.3795C74.3107 43.2561 74.1389 43.1263 73.9671 42.9936C71.9807 41.4584 70.8774 39.3437 70.7628 36.8261L70.7628 36.5229C70.7628 34.5643 71.621 32.5274 73.1905 31.3023C69.4712 24.9485 63.7739 19.6715 56.5072 16.5071C52.0762 14.5779 47.4697 13.6093 42.9193 13.5121L42.9189 13.5125ZM5.07536 16.2491L5.07543 16.249L5.07421 16.2482L5.07536 16.2491ZM5.07536 16.2491L3.69306 18.0661L3.85235 18.1919C3.96445 18.2753 4.05115 18.4149 4.14753 18.5988L5.91784 22.0091L1.8921 21.2954C1.73684 21.2724 1.60699 21.2506 1.55941 21.207L1.55054 21.1982L1.39205 21.0861L0 22.9136L0.177435 23.0511L0.277844 23.1298L0.393175 23.0677C0.502863 23.0088 0.577865 22.9907 0.638358 22.9907C0.775012 22.9867 0.88013 23.1051 1.01681 23.259L1.0267 23.2701L3.67006 26.0623C4.00436 26.4276 4.25116 26.6869 4.25278 27.1511L4.25278 27.2785L4.35157 27.3519L4.51006 27.4721L5.8267 25.7457L5.64926 25.6082L5.54038 25.5239L5.42425 25.5973C5.31617 25.6643 5.24036 25.6824 5.17987 25.6848C5.03591 25.6977 4.83145 25.5179 4.55118 25.2158L2.24857 22.8019L6.15979 23.5141C6.409 23.5564 6.61265 23.5903 6.82597 23.5903C7.09495 23.5903 7.36634 23.5363 7.71677 23.404L7.92526 23.3254L5.47948 18.6237L8.75557 20.4505C8.90114 20.565 8.97937 20.6687 8.97776 20.7921C8.97776 20.8389 8.96889 20.8941 8.93784 20.9703L8.88138 21.1111L9.02212 21.2199L9.1806 21.3385L10.6936 19.3472L10.5162 19.2133L10.4271 19.1448L10.3218 19.1879C10.165 19.2524 10.0504 19.2754 9.95647 19.2754C9.7996 19.2754 9.65645 19.2109 9.41852 19.0811L5.4444 16.9623C5.36818 16.9043 5.28995 16.7865 5.29479 16.7038L5.31213 16.6236L5.37423 16.4812L5.23108 16.3707L5.07536 16.2491ZM81.8465 20.0263L81.6666 20.1586L81.544 20.2453L81.5932 20.3876C81.6178 20.4546 81.6259 20.5078 81.6259 20.5389C81.6178 20.6042 81.6178 20.6026 81.5359 20.6526C81.446 20.6925 81.2988 20.7171 81.1516 20.7417L77.0154 21.4167C76.9629 21.426 76.9114 21.4354 76.8609 21.4446C76.6283 21.4872 76.416 21.526 76.2145 21.524C75.9694 21.5224 75.7403 21.4756 75.4871 21.3163L75.3725 21.2413L75.2419 21.3393L75.0947 21.4522L76.4678 23.4197L76.6557 23.2883L76.7702 23.204L76.7295 23.0665C76.6968 22.9725 76.6888 22.9048 76.6888 22.8572C76.6722 22.7427 76.746 22.7011 77.2118 22.6064L78.4623 22.3628L79.9011 24.4081L79.2555 25.5175C79.141 25.7147 79.0595 25.8574 79.0023 25.9345L78.945 26.0014C78.945 26.0054 78.847 25.9736 78.6918 25.8639L78.5772 25.7853L78.4381 25.8792L78.2829 25.9929L79.7951 28.1467L79.9749 28.0201L80.0895 27.9439L80.0568 27.8157C80.0322 27.7104 80.0241 27.6161 80.0241 27.5237C80.0241 27.1043 80.2367 26.7612 80.4738 26.3393L83.024 21.7015L81.8469 20.0267L81.8465 20.0263ZM80.4814 23.3866L81.3722 21.8321L79.5987 22.1353L80.4814 23.3866ZM50.8567 35.9184L50.8567 35.9185L50.8563 35.9184L50.8567 35.9184ZM50.8567 35.9185C52.4653 36.5577 52.4839 37.5319 52.4766 38.1311L52.4766 56.6282C52.006 56.5112 51.656 56.3374 51.4027 56.0725L51.4027 55.4579C51.2612 55.4333 51.1329 55.4055 51.0095 55.3712C50.9067 55.0276 50.8567 54.6082 50.8567 54.0828L50.8567 35.9185ZM60.7596 57.1895C60.7596 57.1895 60.7709 39.9123 60.7709 37.8032L60.7713 37.8024C61.0298 37.8089 61.3052 37.8431 61.579 37.9242C61.8327 38.5093 61.9657 39.2783 61.9657 40.2324L61.9657 55.495L63.3731 55.2841L63.3731 56.8004C65.6455 56.4645 69.7733 55.8866 71.9396 55.6846L71.9396 54.1731L72.7163 54.0897L72.7163 55.5954C73.5421 55.5079 75.7572 55.3063 77.7272 55.1305C77.261 58.088 76.4109 61.033 75.1604 63.9054C67.2234 82.1481 45.9991 90.502 27.7604 82.557C21.1353 79.6717 15.8219 75.0285 12.1135 69.4212C13.0902 69.0498 13.785 68.7877 13.925 68.7377L13.925 67.1347C13.8826 67.1283 13.1084 67.0295 12.5208 66.6141L12.5208 66.1048C12.4978 66.1024 12.2724 66.0737 11.9805 65.9886C11.9046 65.8201 11.8546 65.633 11.8546 65.4148L11.8546 46.0309C13.4233 46.5584 13.4757 47.1967 13.4757 47.7484L13.4709 58.0827C13.4636 60.6088 14.3609 62.7231 15.9518 63.8586C16.1715 64.0139 16.4078 64.1506 16.6522 64.274C16.872 64.5071 17.1011 64.7252 17.3567 64.9043C18.9423 66.0447 21.1845 66.3225 23.1391 65.7415C29.5489 63.8526 36.5846 61.9919 43.0714 60.5289L43.0714 58.613C42.4137 58.4832 41.9673 58.3275 41.6664 58.0719L41.6664 57.4222C41.5043 57.3936 41.3592 57.3593 41.2225 57.3234C41.1374 57.0028 41.1039 56.5992 41.1039 56.0826L41.1039 37.9355C42.531 38.5976 42.571 39.505 42.5621 40.0925L42.5605 51.1293C42.5605 52.8997 42.7823 55.4208 44.6965 56.8814C44.8893 57.027 45.0825 57.1512 45.2776 57.2682C45.5103 57.5642 45.7793 57.842 46.1031 58.0888C47.3427 59.0421 48.64 59.3216 50.4466 59.0159L52.8065 58.5417L52.8065 57.0407L53.8804 56.8577L53.8804 58.3485L60.7596 57.1895ZM31.4515 40.3627L31.4515 55.1547C31.4515 55.9305 31.5543 56.5572 31.7612 57.0355C32.093 57.0976 32.452 57.1048 32.8068 57.073C32.8068 55.1438 32.81 42.3056 32.81 42.2451C32.81 41.7128 32.6717 40.9527 31.4515 40.3627ZM21.7668 57.8347L21.7668 43.0242L21.7668 43.0238C23.0209 43.5537 23.1556 44.305 23.1556 44.828C23.1556 44.8856 23.1524 57.7952 23.1524 59.7357C22.7911 59.7651 22.4257 59.7587 22.0898 59.6958C21.8765 59.2252 21.7668 58.6045 21.7668 57.8347ZM80.6694 54.8684C80.3262 54.8994 79.8193 54.9478 79.2636 54.9974C79.2485 55.1005 79.233 55.2035 79.2171 55.3064L79.1244 55.399L79.2152 55.3183C78.1583 62.1288 75.2144 68.737 70.3294 74.2938L70.2967 74.3346C62.8828 82.7538 52.5271 87.0614 42.1274 87.0614L42.1209 87.0614C33.8783 87.0614 25.5873 84.356 18.7153 78.8547C18.2435 78.4789 17.7761 78.0945 17.3168 77.6856C17.0406 77.4405 16.7732 77.1872 16.5043 76.9416L16.376 76.819C16.0776 76.5412 15.7869 76.2549 15.4997 75.969L15.4247 75.8956C13.6076 74.0563 12.0128 72.0783 10.6469 69.9858C10.1892 70.1657 9.7061 70.3455 9.21493 70.5415C10.7558 72.9445 12.5777 75.2169 14.6892 77.2933C15.2187 77.8163 15.7558 78.3313 16.3192 78.8216C23.7141 85.3202 32.9069 88.5241 42.0338 88.516L42.0504 88.516C52.8622 88.516 63.6437 84.0285 71.344 75.2576C76.5755 69.3019 79.6653 62.1815 80.6706 54.8672L80.6694 54.8684ZM79.2152 55.3183L79.5277 55.0406L79.5277 54.9958L79.2171 55.3064L79.2152 55.3183ZM79.2309 73.7627L79.2305 73.7627C78.683 73.7629 78.1029 74.1799 77.5715 74.9318L76.1984 76.861L76.3129 76.9343L76.3863 76.9836L76.4516 76.9343C76.5416 76.869 76.615 76.8444 76.7049 76.8444C76.9026 76.8375 77.1366 77.0068 77.3388 77.1532C77.3709 77.1764 77.4022 77.199 77.4324 77.2203L79.8439 78.945L79.861 78.9566C80.1363 79.1427 80.4811 79.3757 80.4653 79.6479C80.4653 79.6886 80.4653 79.7378 80.4488 79.787L80.4161 79.8689L80.506 79.9342L80.604 79.9995L81.5767 78.6264C81.9936 78.0542 82.4594 77.4493 82.6312 76.7218C82.6804 76.5339 82.6965 76.3375 82.6965 76.1496C82.6965 75.6427 82.5247 75.1524 82.1243 74.8664C81.8952 74.7031 81.6339 74.6293 81.3803 74.6293C80.9798 74.6293 80.5794 74.8092 80.2112 75.087C80.2278 74.9971 80.2358 74.9072 80.2358 74.8253C80.2358 74.4902 80.1132 74.1632 79.8108 73.9506C79.6311 73.8201 79.4352 73.7628 79.2309 73.7627ZM5.25611 74.0164L5.36822 73.9345L5.36862 73.9346L6.8006 75.8146C7.24176 76.4029 7.47162 76.9425 7.47404 77.4002C7.47565 77.7434 7.33531 78.0458 7.07037 78.2503C6.88407 78.3894 6.67962 78.4547 6.47274 78.4547C6.26668 78.4466 6.06101 78.3974 5.8614 78.2994C5.96262 78.5608 6.01908 78.8386 6.01908 79.1003C6.02392 79.5173 5.86382 79.9177 5.50734 80.1875C5.267 80.3674 4.97867 80.4492 4.68026 80.4492C4.31248 80.4492 3.92737 80.3266 3.59146 80.1222C2.94745 79.7379 2.5083 79.1169 2.07762 78.5527L1.05898 77.2123L1.15455 77.1389L1.24287 77.0816L1.31142 77.1223C1.39409 77.1877 1.46828 77.2042 1.54934 77.2042C1.77226 77.2123 2.04663 76.995 2.26044 76.8257L2.28811 76.8037L4.65122 75.0056L4.67231 74.9902C4.92742 74.8044 5.2558 74.5652 5.24482 74.3027C5.24482 74.262 5.23918 74.2128 5.21619 74.1555L5.18917 74.0737L5.25611 74.0164ZM78.8542 74.9564L78.8627 74.9564C78.9692 74.9564 79.0752 74.989 79.1817 75.0544C79.3289 75.1689 79.3861 75.3161 79.3861 75.504C79.3942 75.831 79.1656 76.2807 78.9446 76.5912L78.8381 76.7464L77.759 75.9863L78.0288 75.5286C78.2247 75.2015 78.5603 74.9564 78.8542 74.9564ZM5.73857 75.6921L5.7384 75.6919L5.73882 75.6919L5.73857 75.6921ZM5.73857 75.6921L6.09247 76.0843C6.29289 76.3048 6.42032 76.5992 6.41871 76.8444C6.41871 77.0404 6.35338 77.196 6.19813 77.3186C6.10175 77.392 6.00537 77.4166 5.90455 77.4166C5.55049 77.4247 5.0815 77.0162 4.80769 76.6399L4.69074 76.4847L5.73857 75.6921ZM80.9964 75.8145L81.0045 75.8145C81.1517 75.8145 81.2989 75.8552 81.4376 75.9617C81.6666 76.125 81.7566 76.3375 81.7566 76.5831C81.7566 76.9182 81.5767 77.3025 81.3069 77.6296L80.8492 78.1772L79.4435 77.1799L79.7459 76.7222C80.0649 76.2153 80.5633 75.8149 80.9964 75.8149L80.9964 75.8145ZM4.44713 77.3594L4.09226 76.9424L4.09186 76.9424L2.72037 77.9804L3.11032 78.5853C3.39744 79.0349 3.83054 79.37 4.21646 79.362C4.3693 79.362 4.51971 79.3212 4.67013 79.2067C4.88104 79.043 4.96693 78.8304 4.96855 78.5772C4.96855 78.1933 4.75603 77.7271 4.44713 77.3594ZM74.9475 78.3893L73.5332 79.7951L73.6312 79.9015L73.6966 79.9588L73.7784 79.9181C73.8357 79.8854 73.901 79.8689 73.9664 79.8689C74.1922 79.8614 74.4389 80.1103 74.6426 80.3158C74.66 80.3333 74.6771 80.3506 74.6938 80.3673L76.3694 82.0428C76.5738 82.2554 76.6718 82.3372 76.6964 82.6151L76.6964 82.705C76.6964 83.122 76.4758 83.5631 76.1407 83.8902C75.8056 84.2253 75.4786 84.3805 75.16 84.3805C74.841 84.3805 74.5144 84.2253 74.1547 83.8736L72.667 82.386C72.4545 82.1816 72.1686 81.9037 72.1767 81.6585C72.1767 81.5932 72.1847 81.5359 72.2259 81.4626L72.2666 81.3892L72.1029 81.2254L70.656 82.6643L70.7625 82.7623L70.8197 82.8276L70.9016 82.7868C70.975 82.7461 71.0322 82.7296 71.0976 82.7296C71.3314 82.7219 71.5877 82.989 71.7883 83.1981C71.798 83.2083 71.8075 83.2182 71.817 83.228L73.3046 84.7156C73.6804 85.0999 74.0647 85.5084 74.7434 85.5084L74.8253 85.5084C75.4467 85.4838 76.0516 85.108 76.5093 84.6584C76.9263 84.2333 77.3102 83.6611 77.392 83.0728L77.5719 83.2526L77.6538 83.3425L78.8143 82.182L78.7079 82.084L78.6506 82.0267L78.5687 82.0674C78.4953 82.1082 78.4296 82.1166 78.3728 82.1166C78.1244 82.1245 77.8601 81.8497 77.6572 81.6386L77.6453 81.6263L75.5528 79.5257C75.5423 79.5156 75.5317 79.5054 75.521 79.4951C75.305 79.2877 75.0386 79.0318 75.0544 78.7982C75.0544 78.7329 75.0624 78.6675 75.1035 78.5938L75.1608 78.4792L75.0217 78.422L74.9483 78.3893L74.9475 78.3893ZM11.0433 80.8746L11.1389 80.7681L11.1393 80.7689L12.3785 81.9134L11.055 86.2863C10.9602 86.5973 10.8614 86.8751 10.8614 87.1529C10.8614 87.3163 10.8909 87.4796 10.9719 87.6514L11.0005 87.7248L10.9497 87.782L10.8542 87.8885L9.25684 86.4009L9.33709 86.319L9.40887 86.2371L9.48388 86.2698C9.61131 86.3186 9.6972 86.3432 9.73713 86.3432C9.79116 86.3593 9.83834 86.2694 9.97505 85.8363L10.3331 84.7491L8.69187 83.2288L7.64622 83.6785C7.31877 83.8095 7.19376 83.8994 7.20747 83.9974C7.20505 84.0466 7.22643 84.12 7.29175 84.2265L7.3349 84.3083L7.27441 84.3737L7.17804 84.4717L5.72872 83.1228L5.80897 83.0409L5.87914 82.9675L5.95011 82.9921C6.10294 83.049 6.23723 83.0655 6.36708 83.0655C6.6792 83.0655 6.96955 82.9348 7.30143 82.7957L10.6904 81.4714C10.9304 81.3895 11.1179 81.2835 11.0973 81.1936C11.0973 81.1528 11.0844 81.0956 11.0304 81.0137L10.9828 80.9318L11.0433 80.8746ZM11.1388 82.215L10.6057 83.8825L9.51046 82.8691L11.1388 82.215ZM65.6531 86.3508L67.3126 85.1656L67.3126 85.1648L67.3779 85.2547L67.4432 85.3447L67.394 85.4181C67.3287 85.508 67.3041 85.5814 67.3041 85.6632C67.2966 85.8821 67.4912 86.1429 67.6497 86.3553C67.6629 86.3729 67.6758 86.3903 67.6884 86.4072L69.6176 89.1047L70.6148 88.4671C71.1379 88.132 71.4649 87.6824 71.6528 87.1593L71.6609 87.1267L71.6936 87.1021L71.8653 86.9795L72.1271 88.3691L68.8002 90.756L68.7348 90.658L68.6695 90.5681L68.7187 90.4947C68.7921 90.4132 68.8087 90.3314 68.8167 90.2415C68.8167 90.0124 68.5961 89.7265 68.4409 89.514L66.7081 87.1025C66.5282 86.8327 66.283 86.473 66.0133 86.4895C65.9641 86.4895 65.9153 86.4976 65.8661 86.5141L65.7842 86.5387L65.735 86.4653L65.6531 86.3508ZM16.0929 85.3701L16.0921 85.3701C15.6706 85.3703 15.2786 85.5256 15.0295 85.9016C14.888 86.1141 14.8218 86.3431 14.8218 86.5718C14.8365 87.2074 15.3011 87.8381 15.7166 88.4023C16.0654 88.8757 16.3796 89.3023 16.3643 89.6454C16.3643 89.7519 16.3381 89.8414 16.2776 89.9314C16.1812 90.0785 16.0183 90.1439 15.8001 90.1439C15.4904 90.1439 15.1069 89.9967 14.8601 89.8334C14.2649 89.441 13.7673 88.82 13.5318 88.2066L13.4132 87.8961L12.9777 89.245L13.0209 89.2942C13.3886 89.7439 13.8407 90.1282 14.3294 90.4467C14.9581 90.8637 15.6094 91.0597 16.1768 91.0597C16.7514 91.0597 17.2466 90.8552 17.5116 90.4548C17.6285 90.2749 17.6809 90.079 17.6809 89.8906C17.6675 89.2804 17.1923 88.6242 16.768 88.0381C16.4135 87.5486 16.0946 87.1081 16.1098 86.7843C16.1098 86.7025 16.1304 86.6291 16.1768 86.5553C16.2731 86.4081 16.403 86.3593 16.5804 86.3508C16.8389 86.3508 17.1716 86.498 17.4265 86.6613C17.8491 86.9392 18.2241 87.4054 18.3475 87.8304L18.4177 88.0756L18.56 87.863L19.0996 87.0456L19.0375 86.9803C18.7169 86.6206 18.3354 86.302 17.9313 86.0403C17.3521 85.6562 16.6847 85.3704 16.0929 85.3701ZM63.7732 87.5852L63.8712 87.5606L64.3204 88.4591L64.4103 88.6389L64.2143 88.6309L64.1325 88.6309C63.5849 88.6309 63.0126 88.7454 62.4977 88.9986C61.6847 89.4156 61.2447 90.0858 61.2447 90.7726C61.2447 91.0339 61.3081 91.3037 61.4427 91.5735C61.7819 92.2437 62.4735 92.6768 63.2828 92.6768C63.6425 92.6768 64.0268 92.5868 64.4192 92.3909C65.0322 92.0803 65.5637 91.59 65.956 91.075L65.9726 91.0504L66.0052 91.0424L66.2012 90.9444L66.1685 92.2195L66.1439 92.2521C65.8088 92.6199 65.3838 92.9062 64.9342 93.1268C64.1494 93.5276 63.3973 93.7236 62.719 93.7236L62.711 93.7236C61.6605 93.7236 60.7975 93.2167 60.3192 92.2687C60.1237 91.8763 60.0273 91.4759 60.0273 91.0835C60.0289 89.931 60.8112 88.8603 62.1279 88.1982C62.6533 87.9284 63.2255 87.7405 63.7732 87.5852ZM21.4168 88.2962L21.3563 88.4188L21.3163 88.5006L21.3833 88.5579C21.4914 88.6559 21.5248 88.7623 21.5272 88.8849C21.5293 89.0675 21.4233 89.2924 21.3292 89.4921C21.3138 89.5248 21.2987 89.5568 21.2845 89.5878L20.0332 92.2772L20.022 92.3024C19.882 92.6185 19.7002 93.0288 19.3884 93.0127L19.3166 93.0046L19.2307 92.9966L19.1823 93.0946L19.1323 93.201L22.8939 94.9504L23.9025 94.0265L23.7194 93.9366L23.6827 93.9201L23.6444 93.9281C23.5097 93.9527 23.3706 93.9689 23.229 93.9689C22.7943 93.9689 22.3338 93.8463 21.939 93.6257L20.9841 93.0861L21.674 91.5985L22.2019 91.8437C22.4757 91.9663 22.7987 92.1381 22.8076 92.3094L22.8165 92.3748L22.9 92.4074L23.0052 92.4647L23.4565 91.492L23.3258 91.4267L23.3036 91.4187L23.2815 91.4187C23.1939 91.4187 23.0633 91.3614 22.9282 91.2961L22.0104 90.871L22.535 89.7431C22.7907 89.825 23.0564 89.9391 23.3206 90.0621C23.7162 90.25 24.0162 90.4299 24.1412 90.7569L24.1577 90.7976L24.2279 90.8384L24.3352 90.8876L24.8247 89.8331L24.6892 89.7758L24.6671 89.7593L24.6433 89.7593C24.5669 89.7663 24.4551 89.7113 24.3267 89.648C24.3081 89.6389 24.2891 89.6295 24.2698 89.6201L21.4164 88.2958L21.4168 88.2962ZM27.3042 90.8796L27.3044 90.879L27.3036 90.8794L27.3042 90.8796ZM27.3042 90.8796L27.2669 91.0181L27.2423 91.1L27.314 91.1492C27.4669 91.2472 27.5068 91.3698 27.5084 91.5335C27.5104 91.7048 27.4504 91.8991 27.3968 92.0729C27.3864 92.1065 27.3763 92.1393 27.3669 92.1711L26.5462 95.0156C26.5406 95.0359 26.535 95.0564 26.5294 95.0772C26.43 95.442 26.3125 95.8733 25.9534 95.8657L25.8691 95.8657L25.8357 95.9637L25.8022 96.0782L27.4189 96.5525C28.0117 96.7158 28.6367 96.9202 29.2799 96.9202C29.3763 96.9202 29.4771 96.9202 29.5711 96.9037C30.282 96.8384 30.9575 96.4621 31.1486 95.8165C31.1837 95.6939 31.1995 95.5713 31.1995 95.4568C31.1978 94.8927 30.8268 94.4188 30.3034 94.0837C30.7413 94.0018 31.1119 93.7813 31.2442 93.3316C31.2712 93.2336 31.2841 93.1357 31.2841 93.0457C31.2769 92.3755 30.6401 91.844 29.5743 91.5335L27.3042 90.8796ZM28.6488 92.0723L29.1662 92.1703C29.6239 92.2602 30.0219 92.5953 30.0106 92.9385C30.0106 92.9877 30.0034 93.045 29.9901 93.0938C29.9042 93.3962 29.615 93.4942 29.2267 93.5027C28.9735 93.5027 28.6972 93.4535 28.4682 93.3881L28.2835 93.3309L28.6488 92.0723ZM48.7308 92.7917L50.7318 92.3747L50.7322 92.3756L50.7592 92.4901L50.7798 92.6046L50.7027 92.6454C50.5281 92.7434 50.4822 92.8825 50.4797 93.0785C50.4797 93.2664 50.5378 93.4789 50.5753 93.6588L51.252 96.9118L52.4178 96.7401C53.0299 96.6421 53.5171 96.3558 53.8965 95.9553L53.9236 95.9307L53.9586 95.9227L54.1679 95.8819L53.8369 97.255L49.8333 98.089L49.8111 97.9744L49.7897 97.868L49.8668 97.8272C50.0462 97.7288 50.0914 97.5816 50.093 97.3857C50.095 97.2298 50.057 97.0569 50.0236 96.9045C50.0167 96.8732 50.01 96.8427 50.0039 96.8134L49.4006 93.9116C49.3236 93.5277 49.2518 93.0454 48.8634 93.0208L48.7759 93.0208L48.7586 92.9308L48.7308 92.7917ZM35.9922 92.9063L35.9785 93.0454L35.9672 93.1353L36.0522 93.168C36.2224 93.2414 36.2329 93.2905 36.2369 93.3478C36.241 93.4297 36.151 93.593 36.0563 93.7402L34.1295 96.83C33.867 97.2715 33.6823 97.6393 33.1617 97.7946L33.0875 97.8192L33.0746 97.9172L33.0633 98.0397L35.0324 98.2523L35.0481 98.1131L35.0594 98.0232L34.9776 97.9906C34.7691 97.8926 34.7421 97.8353 34.7396 97.7615C34.738 97.6881 34.8082 97.5325 34.9316 97.3284L35.5014 96.3392L37.7238 96.5844L38.0907 97.6635C38.1782 97.9167 38.2339 98.0885 38.2299 98.1539C38.2299 98.2111 38.229 98.2273 37.9536 98.3091L37.875 98.3257L37.8637 98.4321L37.85 98.5466L40.0179 98.7838L40.0344 98.6446L40.0409 98.5628L39.974 98.5301C39.5074 98.2684 39.3961 97.8599 39.2235 97.3776L37.673 93.0861L35.9934 92.9063L35.9922 92.9063ZM42.2367 93.3313L44.2784 93.2087L44.2848 93.3232L44.2897 93.4377L44.211 93.4704C43.9642 93.5603 43.9134 93.7729 43.9094 94.0507C43.9094 94.1898 43.9251 94.337 43.9316 94.4596L44.1288 97.7784L45.3051 97.7704C45.9245 97.7623 46.4431 97.5579 46.881 97.2147L46.908 97.1901L46.9463 97.1901L47.1572 97.1736L46.6318 98.4979L42.5512 98.735L42.5431 98.6124L42.5399 98.5059L42.6202 98.4733C42.871 98.3833 42.921 98.1624 42.925 97.8764C42.925 97.7454 42.9109 97.6067 42.9069 97.4921L42.7343 94.525C42.7149 94.141 42.7141 93.6587 42.3322 93.5769L42.248 93.5523L42.2431 93.4704L42.2367 93.3313ZM28.0745 94.0589L28.6105 94.1814C29.3085 94.3447 29.934 94.7943 29.9231 95.3177C29.9231 95.3831 29.9118 95.4484 29.8896 95.5303C29.7703 95.9307 29.4368 96.0944 28.9972 96.1025C28.7657 96.1025 28.5117 96.0533 28.2689 95.9553L27.5987 95.7101L28.0745 94.0589ZM37.4294 95.7263L36.8596 94.0668L36.8596 94.0672L35.9434 95.5629L37.4294 95.7263Z" transform="translate(23.10828 12.08569)" id="Shape" fill="#FFFFFF" fill-rule="evenodd" stroke="none" />
      <path d="M53.6747 2.32963C53.6747 1.42714 53.3191 0.605696 52.742 0C53.9921 0.504875 54.8789 1.73441 54.8789 3.15913C54.8789 5.02825 53.3562 6.54208 51.4891 6.53079C50.5362 6.52676 49.6768 6.12551 49.0574 5.48877C49.4389 5.63677 49.851 5.72185 50.2825 5.72185C52.1512 5.72185 53.6747 4.20076 53.6747 2.32963ZM33.4839 2.13289C33.1262 11.9309 19.8218 13.4217 15.1699 13.6645L15.1699 37.1455C15.1699 38.1306 16.0877 38.5597 16.7027 38.7396C16.6264 38.571 16.5768 38.3855 16.5768 38.1673L16.5768 18.7818C16.4672 18.7435 16.3514 18.7076 16.2252 18.6713L16.2252 16.7825L16.5768 16.6663L16.5768 14.9496C21.3293 14.7275 34.4231 12.6773 34.5695 2.49577L33.4839 2.13289ZM89.1193 3.86201C89.6012 3.83257 90.0755 3.80475 90.5251 3.78015L90.5255 3.78015L90.5255 13.487C88.1467 13.1104 86.6671 12.0591 85.7763 10.7936C86.6179 11.3905 87.7136 11.8441 89.1193 12.0599L89.1193 3.86201ZM72.3295 6.93604C73.3349 8.30914 73.58 10.0004 73.572 11.2929L73.572 22.6253C73.5639 23.298 73.5555 23.996 74.9043 24.667L75.0435 24.7323C74.9767 24.4971 74.9773 24.2642 74.978 24.0328C74.9781 24.0099 74.9781 23.987 74.9781 23.9641L74.9781 12.6341C74.9862 11.019 74.6184 8.78499 72.8364 7.31269C72.6812 7.18284 72.5094 7.05783 72.3295 6.93604ZM82.5127 8.88161C82.4982 8.65035 82.4133 7.29628 83.3317 7.00626C83.4785 7.67083 83.7241 8.34911 84.0999 8.98586C83.8708 9.48385 83.909 10.1165 83.9184 10.2714C83.9194 10.2877 83.9201 10.2987 83.9201 10.3037C83.9281 10.3658 83.9281 10.434 83.9447 10.5033L83.9447 10.509C84.01 10.738 84.0757 10.9707 84.1491 11.2038L84.1491 11.207C84.1902 11.3074 84.2475 11.4119 84.3209 11.5199C82.7841 10.3936 82.5389 9.54115 82.5143 8.91247C82.5143 8.9078 82.5136 8.89729 82.5127 8.88161ZM54.9962 8.13012L54.1755 8.29183L54.1755 25.5957C54.1755 27.1668 54.5901 27.8173 55.7317 28.1197C55.6289 27.7766 55.5789 27.3572 55.5789 26.8313L55.5789 8.66687C55.4039 8.5967 55.2135 8.52774 54.9962 8.46645L54.9962 8.13012ZM64.0784 28.6504C64.0784 28.6504 64.0897 11.3747 64.0897 9.26568C64.5861 9.27455 65.1591 9.38504 65.6257 9.75121C65.906 9.97542 66.1306 10.2843 66.3008 10.6775C66.027 10.5968 65.7515 10.5605 65.4931 10.5509C65.4931 12.6619 65.4818 29.9388 65.4818 29.9388L58.6026 31.101L58.6026 29.6069L64.0784 28.6504ZM45.2446 10.192L44.4215 10.3848L44.4215 27.6524C44.4215 29.2388 44.7191 29.759 45.9442 30.0727C45.8567 29.7521 45.8257 29.3485 45.8257 28.8319L45.8257 10.6848C45.6531 10.6037 45.4627 10.5295 45.2446 10.4549L45.2446 10.192ZM34.7686 12.7797L35.5892 12.5591L35.5896 12.5591L35.5896 12.8704C35.8094 12.9467 36.0022 13.0265 36.1756 13.1116L36.1756 27.9036C36.1756 28.679 36.2784 29.3061 36.4853 29.7844C36.1728 29.7227 35.8828 29.6134 35.6513 29.436C35.0638 28.9847 34.7686 28.0887 34.7686 26.7744L34.7686 12.7797ZM8.2176 14.5186C5.1008 14.992 2.01102 16.0715 2.00699 17.8652L2.00699 17.8741C2.00699 19.3101 3.24378 19.9118 3.79303 20.0445C3.56922 19.7283 3.41356 19.3259 3.41356 18.821L3.41356 18.8105C3.41759 17.2624 5.3476 16.4058 8.21921 15.9865C8.21921 15.4787 8.21921 14.986 8.2176 14.5194L8.2176 14.5186ZM25.084 15.4953L25.9062 15.2461L25.9062 15.5654C26.1236 15.6308 26.318 15.6973 26.4906 15.7715L26.4906 30.582C26.4906 31.3539 26.6011 31.9733 26.812 32.4467C26.491 32.3846 26.1901 32.2717 25.9498 32.0878C25.3752 31.6458 25.084 30.7768 25.084 29.5098L25.084 15.4953ZM89.0536 15.4968C90.3041 17.0244 90.5577 18.3318 90.5577 19.8775C90.5577 22.6535 88.4979 25.8594 85.3343 26.1046C83.1027 26.2772 80.1601 26.551 77.4381 26.8401L77.4381 28.3459C78.2635 28.2584 80.4787 28.0564 82.449 27.881C82.9313 27.837 83.4136 27.7943 83.8467 27.7584L85.3916 27.6192L85.9557 27.5717C89.3645 27.2503 91.7675 24.0879 91.7675 21.3143C91.7675 19.3133 91.4485 17.7047 89.0536 15.4968ZM81.8195 22.2152C81.6396 21.4026 81.2884 20.5582 80.7242 19.7981C80.896 19.9138 81.0513 20.0449 81.1985 20.1731C81.7953 20.6889 82.2611 21.2873 82.5962 21.9176C82.3018 22.0845 82.0074 22.1676 81.8195 22.2152ZM3.92856 20.219L3.92856 21.4599C3.59668 21.599 2.6216 21.8547 1.90782 21.8482C1.18276 21.8458 0.551658 21.7115 0 21.4869C0.769016 22.2676 1.86548 22.7769 3.31278 22.7947C4.02575 22.8035 5.00164 22.5543 5.33352 22.418L5.33352 21.0292C5.06454 20.9933 4.39997 20.7602 3.92856 20.219ZM75.2556 25.1926L75.2556 25.192L75.2552 25.192L75.2556 25.1926ZM75.2556 25.1926L75.2556 27.0894C73.4817 27.2644 70.4003 27.6934 68.0949 28.0326L68.0949 29.5488C70.3673 29.2129 74.4951 28.6383 76.6614 28.4362L76.6614 26.9232C76.4489 26.9494 76.2363 26.9716 76.0319 26.9918L76.0319 25.8614C75.6564 25.6418 75.4109 25.4194 75.2556 25.1926ZM56.1249 28.823L56.1249 30.0457L53.7586 30.5328C52.2335 30.7994 51.0701 30.6433 49.9978 30.017C50.2309 30.313 50.5015 30.5909 50.8249 30.8377C52.0649 31.7906 53.363 32.0704 55.1668 31.7648L57.5299 31.2905L57.5299 29.7912L57.1972 29.8509L57.1972 29.3767C56.729 29.2573 56.3758 29.0871 56.1249 28.8226L56.1249 28.823ZM46.3895 32.0878L46.3895 30.8219C46.6903 31.0804 47.1347 31.2349 47.7928 31.3647L47.7928 33.279C41.306 34.7436 34.2707 36.6043 27.8605 38.4931C25.9059 39.0718 23.6637 38.7964 22.0781 37.656C21.8224 37.4745 21.5934 37.2588 21.3736 37.0257C22.8794 37.7907 24.7723 37.9209 26.4555 37.414C32.8629 35.4864 39.901 33.5887 46.3895 32.0878ZM76.6614 30.847C76.1956 30.8893 75.7294 30.9328 75.2556 30.9792L75.2556 33.4044C61.6048 34.9771 43.0561 40.3941 35.5829 48.6694L36.881 49.6502C44.3546 41.4124 63.0086 36.051 76.6618 34.5525L76.6618 30.8466L76.6614 30.847ZM17.2422 40.4595L17.2422 39.3626C17.8313 39.778 18.6048 39.8792 18.6447 39.8832L18.6447 41.4894C18.508 41.5386 17.8124 41.802 16.8349 42.1713C16.3953 42.3431 15.8993 42.531 15.3678 42.7355C14.9101 42.9154 14.4286 43.0952 13.9375 43.2912C11.3747 44.2804 8.57854 45.3756 7.80025 45.7434L7.80025 44.1413C10.6001 42.9315 14.794 41.3438 17.2422 40.4595Z" transform="translate(18.38556 39.33679)" id="Shape" fill="#B3B5B7" fill-rule="evenodd" stroke="none" />
      <path d="M34.0569 0L34.0573 0C35.0242 0.000114389 35.895 0.406576 36.5164 1.05695C37.0934 1.66507 37.4491 2.48569 37.4491 3.38819C37.4491 5.25932 35.9256 6.78042 34.0569 6.78042C33.6254 6.78042 33.2137 6.69533 32.8318 6.54733C31.5692 6.05616 30.6691 4.82582 30.6691 3.38819C30.6691 1.51882 32.1876 0.000221055 34.0569 0ZM50.9712 5.63437L50.9704 5.6344C50.7174 5.6441 50.4503 5.66788 50.1768 5.70938L46.3135 6.31911C44.2489 6.66228 40.899 7.27564 38.7698 7.6793L38.7698 9.52583C38.9871 9.58874 39.1787 9.65568 39.3557 9.72624C40.9619 10.3654 40.9816 11.3381 40.9724 11.9373L40.9724 30.9103L41.3051 30.8522L42.3773 30.6659L47.8516 29.7094C47.8516 29.7094 47.8629 12.4333 47.8629 10.3247C48.3589 10.3336 48.9335 10.4424 49.4005 10.8086C49.6832 11.0324 49.9058 11.3433 50.0756 11.7365C50.3288 12.3192 50.4623 13.0894 50.4623 14.0431L50.4623 29.3041L51.8697 29.0932C54.1747 28.7525 57.2645 28.3218 59.0304 28.1468L59.0304 25.8986L58.8178 25.7913L58.6787 25.7244C57.3299 25.0534 57.3383 24.3562 57.3464 23.6859L57.3464 12.3519C57.3544 11.0578 57.1173 9.36816 56.1039 7.99506C55.8587 7.6543 55.5643 7.3329 55.2046 7.04377C54.2075 6.22003 52.7774 5.56601 50.9712 5.63437ZM36.3527 8.1644L37.9492 7.83896L37.9492 26.6559C37.9492 28.2242 38.365 28.8774 39.507 29.1799C39.6304 29.2142 39.7578 29.2436 39.9018 29.2682L39.9018 31.1054L37.5338 31.5942C36.0087 31.8583 34.8469 31.7039 33.7746 31.0784C33.5795 30.9615 33.3863 30.8381 33.1935 30.6901C31.2773 29.2295 31.0575 26.7099 31.0575 24.9396L31.0591 13.8996C31.068 13.312 31.028 12.4087 29.6009 11.7441C29.4287 11.6655 29.238 11.5869 29.0198 11.5127L29.0198 9.74881L30.0594 9.51411C32.1551 9.0423 34.2731 8.58621 36.3527 8.1644ZM28.1968 9.93632C26.0946 10.4347 21.4603 11.5776 19.3645 12.1204L19.3645 13.9294C19.5819 14.0064 19.7783 14.0863 19.9489 14.1689C21.1716 14.7617 21.3058 15.5211 21.3058 16.053L21.3058 30.8824C20.951 30.9119 20.5921 30.9054 20.2602 30.8449C19.9481 30.782 19.6593 30.674 19.4283 30.4965C18.8407 30.0453 18.5423 29.1476 18.5423 27.835L18.5423 12.3329C16.5929 12.8652 11.5925 14.2589 9.68308 14.8154L9.68308 16.626C9.90044 16.6889 10.092 16.7558 10.2642 16.8305C11.5179 17.3628 11.653 18.1128 11.653 18.6362C11.653 18.6943 11.6514 31.6051 11.6514 33.5456C11.2901 33.575 10.9247 33.5669 10.5888 33.504C10.265 33.4436 9.96657 33.3306 9.72663 33.1468C9.14957 32.7044 8.85922 31.8357 8.85922 30.5687L8.85922 15.0549C6.97035 15.6336 2.4744 17.0369 0.35164 17.7261L0 17.839L0 19.7315C0.125816 19.7674 0.241959 19.8033 0.35164 19.842C1.92032 20.369 1.97275 21.0086 1.97275 21.5579L1.96791 31.8938C1.96065 34.4178 2.85952 36.5341 4.45038 37.6697C4.67016 37.8242 4.90486 37.9617 5.14923 38.0851C6.655 38.85 8.54791 38.9803 10.2311 38.4734C16.6413 36.5434 23.6782 34.6481 30.1651 33.1471L30.1651 31.2329C30.0034 31.2018 29.8562 31.17 29.7195 31.1341C28.4944 30.8179 28.1968 30.2977 28.1968 28.7137L28.1968 9.93632ZM4.83192 43.0799C11.8273 40.3022 38.4078 32.7306 59.0309 30.7518L59.0309 34.4638C45.3789 36.0365 26.8326 41.4535 19.3565 49.7288C18.4637 49.0582 17.5548 48.4698 16.6442 47.9549C12.0781 45.3639 7.5015 44.6445 4.83192 44.7098L4.83192 43.0799Z" transform="translate(34.61078 38.2782)" id="Shape" fill="#002B5C" fill-rule="evenodd" stroke="none" />
      <path d="M46.5919 0.0145186L46.6475 0L46.6472 0.000809153L47.4138 0.0121004C47.4613 0.0121004 47.5029 0.0415376 47.521 0.0838812C47.5368 0.131061 47.5267 0.181066 47.4908 0.214536C47.0061 0.654091 46.4068 1.34891 46.1241 2.25302C46.362 2.25544 46.6016 2.25544 46.8395 2.26269C46.9024 2.26511 46.954 2.31512 46.954 2.37722C46.9722 3.16922 47.0686 4.79113 47.5263 6.43724C47.5367 6.47555 47.5279 6.51386 47.5033 6.54249C47.4811 6.5691 47.4492 6.58564 47.4158 6.58564L47.4028 6.58402C47.1198 6.557 46.8209 6.5316 46.5314 6.507C46.4891 6.50458 46.4516 6.48079 46.4358 6.44006C45.9693 5.4436 45.4688 4.01243 45.4281 2.41674C45.281 2.41867 45.1355 2.41854 44.9891 2.41841C44.9524 2.41838 44.9157 2.41835 44.8788 2.41835C44.8438 2.41835 44.8095 2.40303 44.7865 2.37439C44.7643 2.34254 44.7579 2.30665 44.7692 2.27076C44.9349 1.68442 45.3829 0.651267 46.5919 0.0145186ZM43.3795 0.0685741C43.117 0.0867201 42.8597 0.106884 42.5988 0.129064L42.5431 0.152049C41.2483 1.08318 40.9608 2.01229 40.9228 2.51918C40.9188 2.55508 40.9317 2.58854 40.9563 2.61395C40.9761 2.63371 41.0087 2.64581 41.0374 2.64581L41.0487 2.64581C41.2172 2.62766 41.387 2.61314 41.558 2.59742C41.4999 2.86477 41.4689 3.12891 41.4689 3.38942C41.4689 4.4258 41.7386 5.26458 42.0588 5.93077C42.077 5.97149 42.1161 6.0344 42.1609 6.0344C42.4323 6.03682 42.8238 6.11707 43.1158 6.12352L43.1174 6.12352C43.1533 6.12352 43.1843 6.10618 43.2073 6.07957C43.2295 6.05255 43.2384 6.01505 43.2295 5.97916C42.967 4.93351 42.8847 4.13747 42.8847 3.53581C42.8847 3.01359 42.9476 2.63573 43.0121 2.3595C43.021 2.32361 43.0097 2.2861 42.9867 2.25908C42.9621 2.22965 42.927 2.21513 42.8912 2.21916C42.6843 2.23287 42.4774 2.25022 42.2734 2.26594C42.4189 1.35457 43.0033 0.673467 43.4658 0.271416C43.5041 0.237946 43.5142 0.186329 43.4961 0.139146C43.4755 0.0923688 43.4291 0.0649468 43.3791 0.0689772L43.3795 0.0685741ZM50.6358 0.168994L50.5737 0.185528C49.1824 0.966238 48.7384 1.84091 48.6086 2.37281C48.5997 2.40386 48.6062 2.44298 48.6259 2.47C48.6465 2.49701 48.6808 2.51395 48.7142 2.51597C48.9792 2.5325 49.249 2.54782 49.5151 2.56597C49.6567 4.1903 50.1575 5.90899 50.443 6.77721C50.4567 6.82197 50.4954 6.85141 50.5402 6.85585C50.8499 6.89174 51.1556 6.93449 51.458 6.97683L51.4725 6.97683C51.5012 6.97683 51.529 6.96634 51.5536 6.94336C51.579 6.91634 51.5919 6.88287 51.5871 6.84456L51.0443 2.53613C51.0354 2.48451 50.9927 2.44137 50.939 2.43733C50.6572 2.41032 50.3781 2.39136 50.0978 2.37201C50.4116 1.39612 51.0729 0.773887 51.5552 0.441196C51.596 0.412565 51.6165 0.364173 51.6036 0.316993C51.5899 0.269409 51.5488 0.232711 51.5 0.231099C51.2149 0.208114 50.9253 0.187949 50.6358 0.169804L50.6358 0.168994ZM39.5066 0.384698C39.1501 0.451639 38.8029 0.526241 38.4545 0.600443L38.4045 0.624235C37.4359 1.41866 37.1532 2.43084 37.077 2.88692C37.0697 2.92443 37.0866 2.96193 37.1129 2.98895C37.1358 3.00871 37.162 3.02081 37.1915 3.02081L37.2185 3.01919C37.3133 2.9962 37.4492 2.97524 37.5919 2.95548C37.5339 3.13936 37.5028 3.33414 37.5028 3.53174C37.5068 4.38423 37.8528 5.25971 38.1561 5.79362C38.1767 5.82951 38.2142 5.85007 38.2565 5.85007L38.2662 5.85007C38.4658 5.83354 38.8202 5.85895 39.0223 5.85007C39.0582 5.84765 39.0916 5.82951 39.1122 5.79845C39.132 5.76902 39.1392 5.73151 39.1279 5.69804C38.944 5.13066 38.8376 4.61973 38.8376 4.17372C38.8376 3.45995 39.0118 2.91232 39.1662 2.5627C39.1844 2.52278 39.1775 2.47842 39.1505 2.44495C39.1235 2.41067 39.0803 2.39495 39.04 2.4018L38.467 2.50705C38.5364 1.68803 39.0416 0.989987 39.5957 0.592776C39.6381 0.561724 39.6546 0.503655 39.6316 0.452039C39.6119 0.402841 39.5574 0.375822 39.5058 0.385098L39.5066 0.384698ZM54.664 0.391125L54.5986 0.403223C53.205 1.18635 52.7642 2.06264 52.6319 2.59373C52.6231 2.62559 52.6295 2.66067 52.6493 2.68931C52.6698 2.71632 52.7017 2.73528 52.7376 2.73769C53.063 2.75342 53.3909 2.77278 53.7207 2.79496L53.7062 2.8381C53.8344 4.48663 54.1123 6.0654 54.4091 6.96506C54.422 7.0074 54.4607 7.03846 54.5031 7.04289C54.8128 7.07878 55.12 7.12233 55.4209 7.16467L55.4366 7.16467C55.466 7.16467 55.4963 7.15258 55.5169 7.13282C55.5415 7.10822 55.556 7.07233 55.5536 7.03886L55.1834 2.98045C55.1793 2.924 55.1342 2.87923 55.0781 2.8752C54.7325 2.84335 54.4111 2.78044 54.0663 2.74293L54.0768 2.72317C54.3688 1.66865 55.0757 1.00972 55.5826 0.662515C55.6233 0.633078 55.6407 0.583073 55.6294 0.536699C55.6136 0.486695 55.5729 0.45403 55.5241 0.451612C55.2414 0.427014 54.9503 0.409268 54.6652 0.391122L54.664 0.391125ZM36.0426 0.954537C35.7147 1.01744 35.3961 1.08842 35.0796 1.15576L35.0348 1.17875C34.1464 1.90784 33.8863 2.83897 33.817 3.25433C33.8097 3.2878 33.8242 3.32611 33.8504 3.34829C33.8686 3.36644 33.8936 3.3737 33.9206 3.3737L33.9444 3.37208C34.0432 3.34991 34.1856 3.33055 34.336 3.30998C34.246 3.51846 34.2053 3.74147 34.2053 3.9681C34.2069 4.75123 34.4392 5.62832 34.7178 6.11546C34.736 6.14893 34.7687 6.16788 34.8086 6.16788L34.8183 6.16788C35.0021 6.15216 35.3792 6.10336 35.5607 6.09449C35.5941 6.09288 35.6236 6.07392 35.6441 6.04691C35.6623 6.01989 35.6671 5.98642 35.6578 5.95295C35.4893 5.43395 35.428 4.96617 35.428 4.56009C35.428 3.9052 35.5873 3.3995 35.7264 3.07891C35.7445 3.04302 35.7377 3.00109 35.7151 2.97164C35.6905 2.94059 35.6538 2.92325 35.6131 2.93011L35.0465 3.03214C35.0622 2.22441 35.5941 1.53403 36.1256 1.15052C36.1663 1.12109 36.1805 1.06382 36.1623 1.01906C36.1426 0.975107 36.0922 0.946476 36.0429 0.955349L36.0426 0.954537ZM58.5114 1.06818L58.4311 1.09036C57.4847 1.75252 56.9379 2.59775 56.6419 3.19618C56.6261 3.23046 56.6273 3.27119 56.6451 3.30507C56.6632 3.33853 56.6951 3.3583 56.7326 3.36313L56.7342 3.36475C57.0939 3.40467 57.4488 3.45145 57.8057 3.49863C57.7875 3.52323 57.7811 3.55186 57.7875 3.58291C58.2299 5.36653 58.4005 7.17313 58.4634 7.96675C58.4674 8.02079 58.5073 8.06555 58.559 8.072C58.9356 8.13088 59.3264 8.19621 59.7083 8.26395L59.7304 8.26556L59.7958 8.24419C59.8228 8.22363 59.8381 8.20105 59.8405 8.16919C59.8881 7.87077 59.9107 7.56671 59.9107 7.25943C59.9107 5.94521 59.5437 4.56928 59.3058 3.7551C59.2945 3.71034 59.2558 3.67646 59.2118 3.67163C58.8594 3.62001 58.5227 3.5442 58.1706 3.48371L58.1928 3.45991C58.7005 2.22311 59.1344 1.81058 59.6526 1.41135C59.6885 1.38433 59.7058 1.33352 59.6917 1.29118C59.6828 1.2444 59.6433 1.21013 59.5961 1.20367C59.2308 1.15609 58.8767 1.1081 58.5106 1.06818L58.5114 1.06818ZM32.5431 1.76389C32.2628 1.84979 31.9882 1.94052 31.7192 2.0369L31.7192 2.03851L31.6777 2.06473C30.8792 2.84785 30.6917 3.79511 30.6445 4.23749C30.6405 4.27741 30.6582 4.31531 30.6893 4.33952C30.7074 4.35524 30.734 4.36492 30.7611 4.36492L30.7978 4.35686L30.9808 4.31088C30.9139 4.54639 30.8728 4.77746 30.8728 4.99603C30.8728 5.76504 31.2228 6.3171 31.5252 6.72319C31.5458 6.75263 31.5825 6.76997 31.6184 6.76997L31.6389 6.76835C31.8946 6.71835 32.1523 6.6385 32.4104 6.59576C32.4455 6.5885 32.4773 6.56552 32.493 6.53204C32.5112 6.50019 32.5112 6.46349 32.4947 6.43002C32.2797 5.9828 32.2067 5.67471 32.2067 5.29121C32.2067 4.68067 32.3963 4.17136 32.5092 3.82415C32.5197 3.78423 32.5116 3.73826 32.4797 3.70882C32.4511 3.67777 32.4047 3.66567 32.362 3.67858C32.2245 3.7193 32.0414 3.75802 31.8511 3.80036C31.9656 3.05715 32.1926 2.35508 32.6519 1.96271C32.6951 1.92682 32.7068 1.86794 32.6797 1.81874C32.6527 1.77116 32.5963 1.74615 32.5422 1.7639L32.5431 1.76389ZM62.1545 1.77515L62.0493 1.80862C61.4484 2.38972 61.0415 3.48175 60.7161 4.05801C60.6963 4.0939 60.6963 4.14229 60.7161 4.17818C60.7342 4.21327 60.7717 4.24028 60.8125 4.24512C61.3218 4.29674 61.5908 4.354 62.1073 4.41933L62.1073 4.42014L62.121 4.42014C62.171 4.42014 62.2142 4.39393 62.2348 4.34917C62.7735 3.18939 62.8764 3.03413 63.1643 2.08002C63.1732 2.04413 63.1659 2.00824 63.1478 1.97638C63.1296 1.94533 63.0994 1.92477 63.0619 1.92073L62.1545 1.77515ZM65.4894 2.4788C65.456 2.46993 65.4193 2.48041 65.3923 2.49856C65.3652 2.52073 65.3499 2.55098 65.3475 2.58445C65.3076 3.61438 64.7555 4.33299 64.6567 4.83061C64.6454 4.89191 64.6837 4.95079 64.7442 4.96611C65.0926 5.05361 65.3507 5.09434 65.6403 5.15483C65.6157 5.19314 65.6108 5.23992 65.6306 5.27743C66.519 7.11508 66.2855 8.72207 66.3573 9.56166C66.3613 9.61731 66.4073 9.66368 66.4661 9.67296L67.5755 9.83305L67.5945 9.83467C67.6533 9.83467 67.7049 9.79394 67.7162 9.73506C67.8013 9.35156 67.8356 8.96242 67.8356 8.5761C67.8356 6.87999 67.163 5.33429 67.1605 5.32783C67.14 5.28549 67.1033 5.25767 67.0585 5.25081C66.5649 5.19436 66.4258 5.18065 66.1568 5.14717L66.1657 5.13508C66.1754 4.40356 66.4306 3.61801 66.4331 3.00345C66.4331 2.90061 66.425 2.80141 66.4069 2.70987C66.398 2.66511 66.3653 2.63043 66.3226 2.61672C65.9834 2.52921 65.8052 2.54978 65.4906 2.47921L65.4894 2.4788ZM29.6723 2.79175C29.646 2.78529 29.6182 2.78772 29.592 2.79981C29.3835 2.90104 29.1815 2.99781 28.9726 3.10307L28.9391 3.13008C28.085 4.07008 27.7709 5.01492 27.6427 5.49319C27.6298 5.53795 27.6435 5.58312 27.681 5.61417C27.7015 5.6307 27.7277 5.63877 27.7544 5.63877L27.806 5.62748L27.8649 5.59885C27.8512 5.71579 27.8427 5.83193 27.8427 5.94202C27.8427 6.70459 28.1532 7.29576 28.454 7.6841C28.4762 7.71515 28.5097 7.73008 28.548 7.73008L28.5847 7.72443C28.8448 7.6345 29.0686 7.54135 29.34 7.45545C29.371 7.44496 29.3981 7.42521 29.4118 7.39335C29.4247 7.3623 29.4247 7.33043 29.4118 7.29939C29.1714 6.77475 29.092 6.32591 29.092 5.94887C29.092 5.43955 29.167 5.06048 29.288 4.81853C29.3085 4.77377 29.3025 4.71974 29.269 4.68626C29.2355 4.65037 29.1831 4.63868 29.1384 4.65924C28.9766 4.72618 28.9275 4.73949 28.7214 4.83103C28.8871 4.13379 29.2299 3.48817 29.7251 2.98773C29.7634 2.947 29.7674 2.88409 29.7364 2.83892C29.719 2.81513 29.6965 2.79981 29.6711 2.79215L29.6723 2.79175ZM68.6308 3.31721C68.5982 3.30995 68.5655 3.31721 68.5328 3.33939C68.5082 3.35995 68.4921 3.39181 68.4921 3.4277C68.4513 4.48384 68.336 5.23188 68.255 5.67386C68.2461 5.73435 68.2844 5.78919 68.3433 5.80452C68.5328 5.8513 68.68 5.88316 68.8272 5.91501L68.8191 5.92389C68.8437 6.02752 68.8764 6.01704 68.8845 6.02752L68.8845 6.03075C69.7672 6.88566 70.0043 7.77283 70.0043 8.5483C70.0043 9.09834 69.8817 9.5871 69.7837 9.96012C69.7757 9.99358 69.7837 10.0311 69.8003 10.0605C69.8168 10.0916 69.8495 10.1113 69.8902 10.1178L71.2145 10.3138L71.231 10.317C71.2883 10.317 71.3375 10.2771 71.3536 10.2182C71.4516 9.80767 71.4927 9.42619 71.4927 9.07374C71.4847 7.23367 70.3894 6.20778 70.3809 6.19649L70.3237 6.16624C70.3237 6.16624 70.0132 6.08761 69.6861 6.00051L69.7027 5.96865L69.7027 5.83799C69.7027 4.98792 69.572 4.11406 69.4575 3.54829C69.4494 3.50353 69.4167 3.46723 69.3756 3.45594C69.0405 3.37004 68.9506 3.389 68.6316 3.31681L68.6308 3.31721ZM26.5905 4.17291C26.5611 4.17049 26.5301 4.17936 26.503 4.19832C26.4091 4.26526 26.3224 4.33663 26.2349 4.40599L26.2167 4.42495C25.2049 5.60771 24.788 6.64892 24.6234 7.22357C24.6077 7.27761 24.6275 7.33648 24.6734 7.36753L24.7468 7.39133C24.7739 7.39133 24.863 7.33568 24.8807 7.31955C24.867 7.4119 24.8896 7.50101 24.8965 7.58691C24.9456 8.20148 25.1521 8.56925 25.4505 8.98622C25.4687 9.01163 25.5078 9.01969 25.5364 9.01969L25.605 8.99912C25.8606 8.88056 26.0857 8.73499 26.3135 8.60514C26.3454 8.5886 26.3692 8.56038 26.378 8.5265C26.3869 8.49545 26.3813 8.45794 26.3635 8.42931C26.0474 7.87766 26.0699 7.42721 26.0699 6.94894C26.0699 6.74288 26.0873 6.55093 26.1091 6.3872C26.1163 6.33558 26.0953 6.28598 26.0502 6.25897C26.0078 6.23195 25.9506 6.23275 25.9094 6.2638C25.7844 6.3497 25.6993 6.40535 25.576 6.49769C25.7377 5.70973 26.2308 4.9399 26.6793 4.37897C26.7168 4.32897 26.7136 4.25799 26.6712 4.21121C26.649 4.18822 26.6196 4.17532 26.5893 4.1729L26.5905 4.17291ZM62.3169 4.36086C62.2746 4.35683 62.2327 4.37295 62.2056 4.404C62.1786 4.43505 62.1665 4.47821 62.1794 4.51933C62.5033 5.65209 62.5645 7.01834 62.5645 7.86155C62.5645 8.34627 62.544 8.65275 62.544 8.65517C62.5399 8.7205 62.5871 8.77856 62.6529 8.78744C63.0835 8.84792 63.4545 8.91406 63.8993 8.98544L63.9167 8.98705C63.978 8.98705 64.0304 8.9431 64.0417 8.8818C64.1179 8.45837 64.1489 8.0285 64.1489 7.60185C64.1489 6.46909 63.9191 5.38433 63.6683 4.63225C63.6525 4.58749 63.6142 4.55603 63.5679 4.54958C63.0601 4.48183 62.8267 4.42134 62.3173 4.36085L62.3169 4.36086ZM71.4588 4.95005C71.4342 4.94844 71.4096 4.9557 71.3855 4.97222C71.3447 5.00408 71.3282 5.06215 71.3447 5.11135C71.5 5.46864 71.5492 5.75213 71.5492 5.96545C71.5492 6.10297 71.5246 6.21225 71.5 6.29169C71.4919 6.32274 71.5 6.35541 71.5165 6.38243C71.533 6.40945 71.5572 6.4284 71.5818 6.43485L72.1214 6.57237C73.5844 7.88094 73.8953 9.02056 73.8953 9.78312C73.8953 10.061 73.8546 10.29 73.8054 10.4582C73.7973 10.4916 73.8054 10.5267 73.8219 10.5554C73.8465 10.5824 73.8711 10.5985 73.9038 10.6038C74.247 10.6421 74.5905 10.6969 74.9256 10.7392L74.9422 10.7409C74.9914 10.7409 75.0402 10.7082 75.0486 10.6558C75.122 10.3868 75.1551 10.1227 75.1551 9.86781C75.147 8.26565 73.8554 7.0095 73.0134 6.29573L72.9561 6.26871L72.5638 6.21145C72.5472 6.10337 72.523 5.9949 72.4984 5.88683L72.4658 5.83763C72.1633 5.54567 71.8528 5.25895 71.5338 4.97868L71.4604 4.95005L71.4588 4.95005ZM23.9807 6.06588C23.9504 6.06991 23.9202 6.08483 23.8988 6.10903C23.852 6.1671 23.7992 6.22275 23.7428 6.28324C23.231 7.17162 22.9205 7.76038 22.7661 8.21808C22.6673 8.31849 22.564 8.41406 22.4717 8.51488L22.4543 8.5419C22.3979 8.64554 22.3644 8.74474 22.3374 8.83466L22.2934 9.2605L22.2902 9.36576C22.2902 9.89524 22.5148 10.2517 22.7592 10.5731C22.7798 10.6042 22.8157 10.6223 22.8516 10.6239L22.8629 10.6239C22.8963 10.6239 22.9282 10.6134 22.9504 10.5888C23.1326 10.4138 23.4294 10.2691 23.6069 10.1098C23.6468 10.0747 23.6641 10.0158 23.6436 9.96662C23.4685 9.51295 23.2552 9.14517 23.2552 8.79756C23.2552 8.56206 23.2887 8.36527 23.327 8.18784L23.4407 8.07573L23.4839 7.98823C23.519 7.3301 23.8404 6.79417 24.1142 6.25138C24.1436 6.19493 24.1238 6.12315 24.0694 6.08565C24.0424 6.06831 24.0105 6.06185 23.9803 6.06589L23.9807 6.06588ZM21.7107 8.12729C21.6829 8.13132 21.6559 8.14625 21.6373 8.16802L21.4966 8.32005C21.0167 9.15037 20.7292 9.72662 20.5941 10.1508L20.3743 10.3763L20.3562 10.3984C20.3046 10.4924 20.2775 10.584 20.2525 10.6602C20.2525 10.6602 20.2134 11.1138 20.2134 11.1409C20.2134 11.6167 20.4171 12.0042 20.6344 12.2934C20.655 12.3204 20.6877 12.3357 20.7211 12.3381L20.7276 12.3381C20.7562 12.3381 20.7881 12.3285 20.8102 12.3079C20.972 12.1526 21.1381 11.9865 21.2974 11.8437C21.3333 11.8119 21.3466 11.7603 21.326 11.7155C21.1716 11.3078 21.08 10.942 21.08 10.6283C21.08 10.3993 21.1119 10.2121 21.1518 10.044L21.2187 9.97866L21.2538 9.90083C21.2897 9.31086 21.5857 8.77855 21.8301 8.29626C21.8571 8.24222 21.8398 8.1777 21.7902 8.14584C21.7672 8.12931 21.7377 8.12205 21.7107 8.12689L21.7107 8.12729ZM51.7907 10.0891C50.6551 10.0891 49.7341 11.0078 49.7341 12.1458C49.7341 13.283 50.6551 14.2032 51.7907 14.2032C52.9279 14.2032 53.8481 13.283 53.8481 12.1458C53.8481 11.0078 52.9279 10.0891 51.7907 10.0891L51.7907 10.0891ZM19.3895 11.3054C19.3617 11.3134 19.3363 11.3316 19.321 11.3586L18.6261 12.5797C18.483 12.9809 18.4382 13.2705 18.4382 13.4927C18.431 14.0266 18.731 14.1794 18.762 14.1859L18.8036 14.1939C18.8419 14.1939 18.8754 14.175 18.8975 14.1455L19.348 13.5193C19.3726 13.4882 19.3774 13.4406 19.3593 13.4031C19.2693 13.2193 19.2326 13.0035 19.2326 12.7785C19.2326 12.1369 19.5311 11.4667 19.5286 11.4651C19.5532 11.4086 19.5302 11.3417 19.4738 11.3147L19.4738 11.3131C19.4468 11.3001 19.4165 11.2973 19.3895 11.305L19.3895 11.3054ZM33.619 12.7172C32.7794 15.6788 27.7858 17.4212 20.6263 17.4346C15.6501 17.4418 0 17.5842 0 26.5636C0 27.5306 0.350834 30.3139 3.42489 30.3316C2.87726 29.9163 2.18406 28.925 2.18406 27.6907L2.18406 27.6749C2.19535 24.0359 8.5346 23.0641 11.0586 22.8261C11.0586 22.8261 11.0659 48.9283 11.0586 48.8796C11.061 48.882 10.8356 51.5003 9.29636 52.5113C11.5941 51.5229 14.2702 50.4676 17.2841 49.3772C16.7454 49.3574 15.3477 48.8122 15.3477 46.9633L15.3477 22.1958C18.2862 22.1483 32.529 21.4587 33.6194 12.7172L33.619 12.7172ZM89.295 13.5871C86.7122 13.7424 84.8402 13.8799 82.2981 14.0908C79.5434 14.3686 78.2276 17.0947 78.3255 19.3319C78.3989 21.0216 79.0365 23.2057 81.4726 24.8348C85.6415 27.6278 86.3036 28.8255 86.3524 29.9232C86.475 32.5387 84.1781 33.5352 82.192 33.515C82.1513 32.575 81.8815 29.8022 78.8732 28.7142C78.8897 29.1074 78.8486 34.78 78.8732 35.3369C81.677 35.0248 83.9821 34.8006 86.8267 34.5897C89.2708 34.3199 90.9302 31.6951 90.7177 29.315C90.5625 27.5806 90.4153 26.0938 85.3717 22.6492C83.2385 21.1934 82.7396 19.8905 82.6904 18.7912C82.5759 16.1772 83.9901 15.2884 85.9681 15.3376C86.0173 16.2776 86.2786 19.0577 89.295 20.1905C89.2785 19.8005 89.3196 14.2404 89.295 13.5875L89.295 13.5871ZM68.6066 15.7425C68.4187 15.7498 68.2231 15.7671 68.032 15.7949C66.7666 15.9861 65.5096 16.1841 64.2619 16.3926C62.1351 16.7474 60.0426 17.1225 57.9836 17.5132C60.2717 18.6012 60.0273 20.2239 60.0378 20.9119L60.0378 38.0807C61.4355 37.8299 62.8449 37.5823 64.2623 37.3468L64.2623 17.885C65.4386 17.6072 69.5305 17.187 69.5305 22.8008L69.5305 36.5209C71.6069 36.2176 73.7075 35.9325 75.8165 35.6765C73.5196 34.5385 73.7567 32.9161 73.7486 32.2229L73.7486 21.1071C73.7567 19.765 73.4542 17.9471 72.0973 16.8297C71.2553 16.1429 69.9475 15.6917 68.6071 15.7425L68.6066 15.7425ZM54.3494 18.2265C52.2117 18.6621 50.12 19.1133 48.0847 19.571C50.3531 20.5602 50.1127 22.1874 50.1216 22.8741L50.1216 33.6948C50.1216 35.9543 50.5631 37.4907 51.7358 38.3883C52.6915 39.1174 53.6239 39.2844 55.0373 39.0348L56.2798 38.7904C54.5518 38.4093 54.349 36.8221 54.349 35.4111L54.349 18.2257L54.3494 18.2265ZM44.5969 20.382C42.4201 20.8953 40.3155 21.42 38.2988 21.945C40.6006 22.8737 40.3619 24.5206 40.3708 25.2114L40.3708 40.7627C40.3103 40.77 34.9425 42.4947 34.9425 36.5914L34.9425 22.8346C32.7217 23.4338 30.6215 24.0246 28.6649 24.5968C30.947 25.4558 30.7058 27.1015 30.7151 27.7894L30.7151 43.4291C30.657 43.4331 25.259 45.1357 25.259 39.3247L25.259 25.6118C22.883 26.3321 20.7788 27.0031 18.9798 27.5931C21.2663 28.3738 21.026 30.0287 21.0348 30.7171L21.0348 40.651C21.0276 42.7395 21.724 44.4538 22.96 45.3446C24.2254 46.2551 25.9288 46.4007 27.5749 45.9543C33.2903 44.2001 39.6929 42.454 46.583 40.8619C44.8018 40.5046 44.5973 38.896 44.5973 37.4689L44.5973 20.382L44.5969 20.382ZM81.5625 39.2985L81.5134 39.332C81.2928 39.586 81.0718 39.8437 80.8351 40.1086C80.8185 40.1356 80.8105 40.1699 80.8105 40.201C80.8185 40.2344 80.8431 40.259 80.8758 40.2744C81.7259 40.6716 81.7585 40.6151 82.6413 40.7655L82.6578 40.7672C82.707 40.7672 82.7477 40.7409 82.7642 40.6986C82.8868 40.3849 82.9933 40.0699 83.0993 39.7602L83.1074 39.7332C83.1074 39.7062 83.0993 39.6767 83.0828 39.6546L83.0336 39.6195L83.009 39.6146C82.1182 39.5094 82.494 39.6441 81.6274 39.3033L81.5621 39.2985L81.5625 39.2985ZM75.4318 40.9913C55.4837 43.0863 30.3182 50.2845 24.9134 52.3314C25.909 52.2088 31.0155 52.8056 36.9031 56.7535C44.2819 49.0722 61.481 43.85 75.4318 42.0483L75.4318 40.9913ZM79.8294 42.3721C79.7886 42.3515 79.7394 42.3576 79.7068 42.3866C79.3797 42.6491 79.3144 42.9476 79.0285 43.1556C78.9958 43.1802 78.9793 43.2185 78.9793 43.256C78.9793 43.2944 79.0039 43.3302 79.0365 43.35C79.9765 43.8847 80.3935 44.1747 81.3988 44.4283L81.4315 44.4299C81.4722 44.4299 81.5134 44.4045 81.538 44.3646C81.7013 44.019 81.8569 43.6762 81.9957 43.3379C82.0122 43.306 82.0037 43.2693 81.9957 43.2407C81.9711 43.2089 81.9465 43.1867 81.9138 43.1794C80.9573 42.9867 80.794 42.8613 79.8294 42.3717L79.8294 42.3721ZM76.4617 45.4389C76.421 45.4183 76.3718 45.4231 76.3311 45.4502C75.996 45.7119 75.6443 45.9857 75.2766 46.2611C75.2439 46.2833 75.2273 46.3216 75.2273 46.3615C75.2273 46.3998 75.2519 46.4357 75.2846 46.4555C76.3879 47.0817 76.9275 47.2531 78.1127 47.554L78.3333 47.5955C78.3659 47.5955 78.3905 47.5874 78.4151 47.5653C78.6196 47.3814 78.8156 47.2326 79.02 47.0797C79.3305 47.243 79.7967 47.3717 80.1479 47.5334L80.1971 47.5439C80.2298 47.5439 80.2705 47.5233 80.2871 47.4898C80.4177 47.2878 80.6387 46.8866 80.7774 46.6644C80.8101 46.6196 80.802 46.568 80.7694 46.5252C80.6629 46.3595 80.0911 46.1768 79.6822 46.0292C79.6249 46.0087 79.5676 45.9917 79.5269 46.0373C79.3716 46.1893 79.2325 46.3285 79.0773 46.4744C78.1373 46.2381 77.4259 45.9252 76.4617 45.4381L76.4617 45.4389ZM73.1675 47.9359C73.1429 47.9384 73.1183 47.9472 73.1022 47.9646C72.7344 48.2678 72.3582 48.5711 71.9743 48.8759C71.9496 48.9005 71.925 48.9364 71.9335 48.9715C71.9335 49.0074 71.95 49.0441 71.9827 49.0647C73.4457 50.0498 74.2632 50.5696 75.2278 50.7471L75.3177 50.7249C75.4483 50.6285 75.6854 50.4958 75.808 50.3986C76.6174 51.108 77.3283 51.2003 77.582 51.2003L77.6312 51.2116C77.6638 51.2116 77.6884 51.2003 77.713 51.1782C77.9256 50.9648 78.3671 50.4317 78.5631 50.2168C78.5877 50.1938 78.6365 50.0599 78.6284 50.0281C78.6284 49.9946 78.6204 49.9478 78.5877 49.9454C78.3179 49.9224 77.2307 49.6651 76.7484 49.2744L76.6666 49.2203C76.6339 49.2163 76.6012 49.2244 76.5766 49.2473L76.2089 49.5401C74.6394 48.9876 74.1244 48.44 73.2336 47.9476L73.1683 47.9355L73.1675 47.9359ZM70.1269 50.8523L70.0616 50.8777C69.6938 51.1834 69.3176 51.4858 68.9337 51.7915C68.9091 51.8161 68.8929 51.8488 68.8929 51.8871C68.8929 51.9222 68.9175 51.9548 68.9421 51.9794C70.3971 52.9602 70.7814 53.2299 71.7295 53.3937L71.8194 53.3771L72.1871 53.0912C73.0537 54.0558 74.3942 53.9332 74.6559 54.0151L74.7051 54.0232C74.7378 54.0232 74.7704 54.0151 74.787 53.9905C74.983 53.7945 75.4979 53.3122 75.7189 53.0832C75.7516 53.0505 75.7597 53.0098 75.7435 52.9686C75.727 52.9194 75.6943 52.8952 75.6455 52.8868C75.6455 52.8868 73.8881 52.944 73.3566 52.0448C73.332 51.9956 73.2667 51.9794 73.2175 51.9956L73.201 52.0036L73.1602 52.0444L73.1437 52.077C73.1437 52.077 72.9146 52.3303 72.8659 52.3222C71.1576 51.9544 71.1084 51.3665 70.1931 50.8664L70.1277 50.8519L70.1269 50.8523ZM66.4689 53.3856C66.433 53.369 66.3887 53.361 66.3504 53.3856C66.0096 53.6061 65.5829 54.015 65.2599 54.211C65.2265 54.2276 65.2059 54.2683 65.2043 54.301C65.2043 54.3417 65.2216 54.3828 65.2503 54.399C66.8843 55.5922 67.3533 55.6906 68.3489 55.7559L68.4183 55.7394C68.5163 55.6741 68.7127 55.5595 68.8272 55.4777C69.4728 56.3443 70.6172 56.7855 71.2875 57.0226L71.3855 57.006C71.6799 56.8101 72.3747 56.3193 72.3989 56.3032L72.4069 56.2951L72.415 56.287L72.4315 56.2544L72.4396 56.2463C72.4561 56.189 72.4315 56.1318 72.3743 56.1072L72.3662 56.0991L72.3581 56.0991C70.4701 55.4535 70.339 54.9059 70.2902 54.3663C70.2822 54.301 70.2003 54.2683 70.135 54.2929C70.0777 54.3175 69.5381 54.7672 69.4893 54.7587C67.4875 54.4482 67.3952 53.9167 66.4689 53.3856L66.4689 53.3856ZM62.3802 55.8705C62.0641 56.0423 61.1729 56.508 61.1346 56.5653C61.1188 56.5818 61.1124 56.606 61.1124 56.6306C61.1124 56.6633 61.1305 56.704 61.1616 56.7205C62.5306 57.7097 63.2573 58.1102 64.334 58.1755L64.3889 58.1674C64.5256 58.1021 64.6945 58.0202 64.8679 57.9303C65.3926 58.9356 67.0601 59.3853 67.6456 59.5571L67.7174 59.549C68.0093 59.4264 69.0235 58.805 69.0401 58.7397C69.0566 58.6824 69.0155 58.6171 68.9582 58.6005L68.9501 58.6005C67.0847 58.1182 66.3665 57.2601 66.389 56.9576C66.3931 56.9169 66.3733 56.8758 66.3374 56.8512C66.3039 56.8266 66.2588 56.8266 66.2229 56.8431C65.9761 56.9657 65.7366 57.1702 65.4341 57.3254C63.4771 56.8839 63.0775 56.3689 62.5077 55.8785C62.4718 55.8539 62.4202 55.8459 62.3802 55.8705L62.3802 55.8705ZM58.9062 58.0203C58.5784 58.2001 58.0618 58.4534 57.7275 58.6171C57.6916 58.6336 57.6654 58.6663 57.6605 58.707C57.6565 58.7477 57.6734 58.7889 57.7053 58.8135C58.9256 59.7535 59.8002 60.1051 60.6015 60.293L60.4128 60.3664C60.3571 60.3829 60.3237 60.4398 60.335 60.4971C60.5656 61.4943 62.3819 61.9601 63.1779 62.1565L63.2352 62.1565C63.5695 62.0666 64.1099 61.7722 64.4172 61.6742C64.4688 61.6661 64.499 61.6169 64.4966 61.5677C64.4966 61.5105 64.4615 61.4697 64.4123 61.4532C62.8283 61.0528 61.929 60.5213 61.7992 60.1616C62.0282 60.0551 62.3279 59.9164 62.4916 59.8426C62.5416 59.818 62.5694 59.7692 62.5601 59.72C62.5513 59.6627 62.5109 59.622 62.4597 59.6135C60.418 59.3518 59.7059 58.5755 59.0373 58.036C58.999 58.0033 58.949 58.0033 58.9066 58.0195L58.9062 58.0203ZM25.3965 58.5843L25.3312 58.6009C25.2912 58.6335 25.6409 59.5247 25.6409 59.5247L25.6743 59.582C25.6784 59.582 26.0292 59.999 26.7091 60.4159L26.7696 60.4325C26.803 60.4325 26.8373 60.4159 26.8619 60.3833C26.8978 60.3425 26.893 60.2768 26.8531 60.2361C26.6357 60.0235 26.4345 59.288 26.4312 59.288L26.3829 59.2227L25.4634 58.6013L25.3965 58.5847L25.3965 58.5843ZM55.2034 59.8595L55.1365 59.8675C54.8252 60.0393 54.3413 60.1781 53.9888 60.3418C53.9529 60.3583 53.9259 60.391 53.9219 60.4317C53.9195 60.4724 53.9348 60.5136 53.9666 60.5382C55.2075 61.4862 56.2652 61.8625 57.1399 62.0504C57.0754 62.075 57.0133 62.0996 56.9504 62.1157C56.8939 62.1403 56.8628 62.1976 56.8733 62.2548C57.0891 63.2356 58.3976 63.6364 59.1901 63.8243L59.2465 63.8243C59.5671 63.7425 59.8873 63.6445 60.2055 63.5465C60.2531 63.53 60.2897 63.4892 60.2873 63.432C60.2873 63.3828 60.2514 63.342 60.1998 63.3255C58.5594 62.8924 58.2529 62.3121 58.2053 61.9685C58.4972 61.8379 58.8126 61.6907 59.0275 61.5927C59.0751 61.5762 59.1046 61.5193 59.0977 61.4701C59.0888 61.4209 59.0485 61.3802 58.9973 61.3721C56.9487 61.1104 55.9164 60.4075 55.2659 59.8845L55.2038 59.8599L55.2034 59.8595ZM28.0858 60.2192C28.0451 60.1946 27.9983 60.1946 27.9576 60.2192C27.9217 60.2438 27.9027 60.2926 27.9116 60.3417C27.9491 60.5216 28.1036 61.0039 28.2499 61.2656C28.2499 61.2656 29.6468 62.2709 29.717 62.3121L29.7823 62.3286C29.8158 62.3286 29.8493 62.3205 29.8714 62.2879C29.9098 62.2387 29.9065 62.1733 29.8618 62.1326C29.5412 61.8221 29.3722 61.2906 29.3101 60.9555L29.3117 60.9555L29.2569 60.8736C28.7633 60.5792 28.6887 60.6119 28.2064 60.3014L28.1999 60.2933L28.0854 60.2199L28.0858 60.2192ZM51.6895 61.2656C51.3551 61.3555 50.8878 61.5435 50.5752 61.6088C50.5329 61.6169 50.4982 61.6495 50.4893 61.6987C50.4781 61.7395 50.4974 61.7886 50.5301 61.8132C51.6499 62.696 52.5423 63.1537 53.2114 63.3747C53.1085 63.3993 53.0004 63.4239 52.89 63.44C52.8541 63.44 52.8254 63.4646 52.8073 63.4973C52.7892 63.5299 52.7851 63.5626 52.8008 63.5952C53.1081 64.3554 53.9094 64.7397 54.5107 64.9276L54.5498 64.9276C54.9095 64.9111 55.3466 64.805 55.7015 64.7804C55.7555 64.7724 55.7987 64.7312 55.8035 64.674C55.8124 64.6248 55.7821 64.5675 55.7285 64.5514C54.7296 64.1997 54.2514 63.7912 54.1368 63.4642L54.8659 63.2763C54.92 63.2682 54.9599 63.219 54.9599 63.1617C54.9599 63.1045 54.9232 63.0553 54.8692 63.0472C53.3727 62.7528 52.3165 61.8374 51.8024 61.2898C51.7737 61.2652 51.7273 61.2491 51.6886 61.2652L51.6895 61.2656ZM30.8651 61.5189C30.8268 61.5435 30.8046 61.5762 30.8046 61.6169L30.8046 61.625C30.8445 61.821 31.0736 62.3851 31.2192 62.6468L31.2304 62.6634C31.7015 63.2602 32.5547 63.5872 32.6152 63.6199L32.6773 63.6364C32.7108 63.6364 32.7475 63.6199 32.7697 63.5957C32.8056 63.5465 32.8007 63.4812 32.7584 63.4404C32.4378 63.1299 32.2688 62.5984 32.2067 62.2633L32.1519 62.1815C31.6583 61.8871 31.5845 61.9197 31.1046 61.6092L31.0998 61.6092L30.9812 61.5193C30.9461 61.5028 30.901 61.4947 30.8651 61.5193L30.8651 61.5189ZM48.5989 62.377C48.2 62.4589 47.798 62.5569 47.4048 62.6061C47.3601 62.6141 47.3213 62.6468 47.3076 62.6879C47.2947 62.7371 47.3092 62.7859 47.3476 62.8105C48.2787 63.5953 49.2425 64.0856 50.0123 64.3147C49.799 64.3312 49.5961 64.3554 49.3828 64.3639C49.3336 64.3639 49.2913 64.4046 49.2776 64.4458L49.2727 64.4865C49.2864 65.018 49.951 65.4265 50.4131 65.6471L50.4599 65.6636C50.7442 65.6717 50.9112 65.5902 51.189 65.5902L51.4701 65.5575C51.5217 65.5575 51.5689 65.5168 51.5806 65.4676C51.5963 65.4184 51.5725 65.3612 51.5274 65.337C50.9551 65.0019 50.7559 64.7813 50.7583 64.626L50.8188 64.3482L51.2725 64.2909C51.3265 64.2909 51.3689 64.2417 51.3713 64.1929C51.3753 64.1356 51.341 64.0864 51.2894 64.0703C50.0845 63.7026 49.1493 62.8279 48.7033 62.4109L48.5997 62.3783L48.5989 62.377ZM29.5384 62.4343L29.9416 62.8375L29.5384 62.4343ZM34.1166 62.6303C34.0743 62.6057 34.0251 62.6222 33.9892 62.6468C33.9582 62.6794 33.9453 62.7286 33.9606 62.7694C34.1828 63.3989 34.5743 63.8727 34.976 64.2082C35.4184 64.3961 35.818 64.5514 36.2201 64.6986L36.2584 64.7066C36.2983 64.7066 36.3402 64.6901 36.3604 64.6494C36.3874 64.6002 36.3733 64.5348 36.3269 64.4941C35.5438 63.9219 35.3216 63.4396 35.2635 63.1617C35.2563 63.1291 35.2284 63.0964 35.195 63.0799C34.8377 62.9407 34.4764 62.7855 34.1167 62.6302L34.1166 62.6303ZM45.1426 63.0634C44.7454 63.1368 44.3433 63.1614 43.9485 63.2106C43.9009 63.2186 43.8658 63.2513 43.8529 63.2924C43.8392 63.3332 43.8537 63.3823 43.888 63.415C44.7603 64.1425 45.5418 64.5921 46.2822 64.8373L45.7846 64.87C45.7329 64.87 45.6922 64.9107 45.6793 64.9599L45.6745 65.0006C45.7414 65.3684 46.2386 65.818 46.7028 66.0471L46.7496 66.0551C47.0298 66.0551 47.7255 66.0632 47.7952 66.0632C47.8468 66.0632 47.8916 66.0305 47.9057 65.9813C47.9186 65.9241 47.8968 65.8749 47.8541 65.8422C47.2819 65.5071 47.1593 65.2865 47.1609 65.1313L47.1593 65.1313C47.1593 65.0579 47.1839 65.0006 47.2173 64.9434C47.2214 64.9353 47.5452 64.878 47.7029 64.8615C47.7561 64.8534 47.8001 64.8123 47.8049 64.755C47.8089 64.7058 47.7722 64.657 47.723 64.6405C46.5157 64.2727 45.6934 63.5126 45.247 63.0875L45.1434 63.0629L45.1426 63.0634ZM37.1451 63.2025C37.0983 63.1945 37.0503 63.2191 37.0257 63.2598C37.0011 63.3005 37.0043 63.3497 37.0338 63.3904C37.3657 63.832 37.7794 64.2486 38.156 64.5676L38.1363 64.5595C38.0895 64.5514 38.0423 64.576 38.0153 64.6168C37.9907 64.6575 37.9915 64.7067 38.0201 64.7474C38.0218 64.7474 38.1395 64.9926 38.3282 65.1644L38.3722 65.189L39.04 65.3523L39.0735 65.3604C39.1045 65.3604 39.138 65.3438 39.1578 65.3196C39.1896 65.287 39.1993 65.2462 39.184 65.2051L39.0606 65.0745L39.0719 65.0337C39.2916 65.0583 39.5296 65.0829 39.6913 65.1071L39.7086 65.1071C39.7586 65.1071 39.801 65.0745 39.8191 65.0337C39.8373 64.9845 39.8191 64.9192 39.7743 64.8946C39.059 64.4288 38.5686 63.7828 38.3283 63.4231L38.2448 63.3658C37.8859 63.3251 37.5173 63.2678 37.1447 63.2025L37.1451 63.2025ZM41.8314 63.4315C41.5729 63.4396 41.3197 63.4481 41.068 63.4481L40.6241 63.44C40.5773 63.44 40.5309 63.4646 40.5111 63.5134C40.493 63.5541 40.5047 63.6033 40.5365 63.636C41.1241 64.2243 41.7258 64.6252 42.2621 64.895L41.8983 64.8704C41.8491 64.8623 41.8044 64.8869 41.7862 64.9276C41.7641 64.9768 41.7741 65.0256 41.806 65.0583C41.81 65.0663 42.0669 65.3688 42.5113 65.6551L42.5528 65.6716C42.7432 65.7043 43.2347 65.7696 43.4162 65.7942L43.4327 65.8023C43.4727 65.8023 43.5114 65.7777 43.5331 65.745C43.5577 65.7043 43.5569 65.6551 43.5299 65.6144C43.4718 65.5244 43.1884 65.4264 43.1884 65.3611C43.1867 65.3039 43.2065 65.2547 43.2267 65.222L44.0933 65.2301L44.2852 65.2301C44.3409 65.2301 44.3917 65.1809 44.3997 65.1321C44.4094 65.0667 44.376 65.0175 44.3203 65.0014C43.0884 64.6171 42.3052 63.9061 41.9237 63.4646L41.9221 63.4646L41.8314 63.4319L41.8314 63.4315Z" transform="translate(16.87738 29.51935)" id="Shape" fill="#D31145" fill-rule="evenodd" stroke="none" />
    </g>
  </g>
</svg>