<?xml version="1.0" encoding="utf-8"?>
<svg width="102px" height="122px" viewBox="0 0 102 122" version="1.1" xmlns="http://www.w3.org/2000/svg">
  <desc>Created with Lunacy</desc>
  <defs>
    <path d="M0 0L102 0L102 122L0 122L0 0Z" id="path_1" />
    <clipPath id="mask_1">
      <use href="#path_1" />
    </clipPath>
  </defs>
  <g id="chicago-white-sox-logo@logotyp.us">
    <path d="M0 0L102 0L102 122L0 122L0 0Z" id="Background" fill="none" stroke="none" />
    <g clip-path="url(#mask_1)">
      <path d="M13.2216 10.0929C10.0938 13.4155 7.0805 20.0097 6.64806 24.4805C6.50765 25.9096 6.44003 27.2358 6.44003 28.4793C6.44003 32.9604 7.35745 36.3915 9.3551 39.7351C11.8644 43.9195 15.8356 47.3609 20.8405 49.6833C25.5625 51.8735 32.3617 54.9255 33.1732 55.2572C33.4514 55.3683 33.8119 55.538 34.1966 55.7262C32.6374 56.856 31.7204 57.5189 30.9804 58.0594C26.7723 57.0994 21.4797 57.8367 20.2496 58.1283C15.2503 59.3106 10.6658 61.5646 7.33807 64.4706C3.94791 67.4352 1.40799 70.8391 0.546135 73.5815C-0.415217 76.6288 -0.106397 78.7944 1.46485 80.0142C3.77563 81.8146 6.76134 79.972 7.73691 79.3617C9.74964 78.0889 13.4525 75.7613 18.1176 75.0722C22.177 74.4675 27.6204 75.0214 30.1216 76.6555L30.1216 81.0781C29.5194 81.6298 28.8777 82.2156 28.8777 82.2156C28.2471 82.847 27.9124 83.708 27.9124 84.6018C27.9124 85.0183 27.9839 85.4425 28.1351 85.8508C28.5594 86.9879 29.5138 87.4682 29.5138 87.4682C37.585 92.3839 37.5824 92.3839 43.0128 95.6961L42.7135 95.7568C41.9977 96.0725 40.3381 97.1114 40.3381 100.013L40.3381 111.825L47.3592 118.533C48.9132 120.093 50.4246 120.347 51.4135 120.281C52.6436 120.207 53.7574 119.607 54.5452 118.592C54.5452 118.592 59.2197 112.594 62.115 108.88C64.2604 112.199 67.6437 117.428 67.6437 117.428C67.6071 117.37 67.7233 117.611 67.7233 117.611C68.1153 118.454 68.9349 120.204 70.8495 120.7C71.6984 120.92 73.0448 120.947 74.607 119.811C76.7067 118.284 81.5885 114.477 82.4258 113.638L82.58 113.482C83.158 112.915 84.0384 112.045 84.0384 110.616L84.0384 99.3391C84.0384 98.1275 83.3884 96.5946 81.896 95.995C80.8084 95.5574 79.5624 95.5574 78.0721 96.7694C77.4118 97.3104 76.2773 98.1296 74.6247 99.3791C73.6676 97.8518 73.159 97.0352 72.4345 95.8813C73.8533 94.0917 77.2309 89.8358 79.1162 87.4552C79.36 87.6486 79.8531 88.0359 79.8531 88.0359L79.9358 88.0914C81.9214 89.4146 83.4354 88.924 84.1598 88.5131C86.1321 87.3988 86.1721 84.917 86.1377 84.1853L86.1433 74.7143L80.1749 68.5413C79.3104 67.5657 78.1044 67.0644 76.8635 67.1673C75.5955 67.2711 74.4236 67.987 73.74 69.0823C73.4187 69.5435 70.582 73.1095 67.6364 76.7796L67.6364 64.3862L68.3789 63.6415C68.9121 63.1772 70.1237 61.6796 70.1237 59.9292C70.1237 59.5096 70.0518 59.0781 69.8877 58.6405C69.5405 57.723 68.7183 56.6863 66.8912 56.2569C67.427 54.1834 67.642 52.1789 67.663 50.6326L67.6686 50.1976C67.6686 46.061 66.7116 42.5744 64.8341 39.8247C62.591 36.5551 60.8591 35.4577 58.4626 33.9351L57.8423 33.5432C55.05 31.7613 40.4053 24.064 39.7821 23.7345C39.7291 23.7078 34.166 20.953 34.166 20.953C30.4937 19.0944 30.2314 17.7924 30.2314 17.0873L30.2366 16.9624C30.3193 16.5355 31.3185 14.9919 33.4157 14.9919C35.5662 14.9919 37.075 15.0608 39.9065 16.0096C44.3898 17.5128 44.5173 19.3404 44.5203 20.0162C44.5074 20.1803 44.3717 22.0737 44.3717 22.0737L53.6967 28.4452L67.673 10.4995L56.3245 2.90818L54.8239 4.41439C54.3174 4.9179 54.0017 5.20432 53.8165 5.34517L53.008 5.20734L50.5047 4.25804C46.5649 2.66784 39.9703 0 33.9678 0C23.4752 0 17.9655 4.98767 13.2233 10.0921" transform="translate(6.128571 0.4468994)" id="Shape" fill="#FFFFFF" fill-rule="evenodd" stroke="none" />
      <path d="M6.65657 22.6594C7.04637 18.6318 9.87142 12.4588 12.6991 9.45201L12.6982 9.44987C17.3249 4.47038 22.2833 0 31.967 0C37.5797 0 43.9542 2.57696 47.7613 4.11504C49.0948 4.65301 50.1449 5.07985 50.6329 5.17805L50.6398 5.17942C52.4998 5.54893 52.5711 5.5631 54.3138 3.81785L54.6265 3.50774L62.7459 8.93819L51.2992 23.6333L44.5349 19.0113C44.5349 19.0113 44.6012 18.0538 44.6038 18.0512C44.6038 15.352 42.6315 13.3797 38.572 12.0165C35.4481 10.972 33.714 10.8923 31.4179 10.8923C28.1143 10.8923 26.2153 13.4745 26.1705 14.8006L26.1649 15.0181C26.1649 16.6277 26.8652 18.5526 31.2533 20.7746C31.2533 20.7746 36.8216 23.5321 36.8345 23.5403C37.4548 23.8642 52.0491 31.5352 54.7747 33.2718L55.4031 33.672C57.7604 35.167 59.1791 36.071 61.1811 38.9934C62.8307 41.399 63.6659 44.501 63.6659 48.221C63.6659 48.3563 63.6629 48.4889 63.6577 48.6242C63.628 50.6662 63.2834 53.5481 62.1011 56.2289C62.5882 56.1811 63.0922 56.1363 63.1189 56.1363C64.7259 56.1363 65.7014 56.5605 66.0197 57.4009C66.0912 57.5917 66.1179 57.7851 66.1179 57.9789C66.1179 58.9889 65.2828 59.9546 65.0791 60.1342C65.0791 60.1342 63.8278 61.4044 63.6314 61.6008L63.6314 76.3988C64.2224 76.5944 65.3151 77.0371 66.0865 77.6526C69.0511 73.9614 73.267 68.6929 73.556 68.2342C73.8954 67.6928 74.4919 67.3219 75.11 67.2715C75.7087 67.2207 76.2764 67.4679 76.7165 67.9637L82.1681 73.6091L82.1681 82.362C82.1789 82.5524 82.2271 84.2443 81.2322 84.8068C80.6752 85.1216 79.9805 85.0053 79.1268 84.4381C79.1268 84.4381 77.4509 83.1231 76.857 82.6536C76.2548 83.4095 68.4115 93.3 67.9769 93.841C68.3185 94.3876 71.6307 99.666 72.1445 100.488C73.4667 99.4888 77.3481 96.5561 77.35 96.5586L77.3497 96.5588C78.1482 95.7904 78.7844 95.827 79.1742 95.9942C79.757 96.2405 80.0572 96.9111 80.0572 97.4444L80.0572 108.742C80.0572 109.313 79.6829 109.684 79.2108 110.15L79.0523 110.308C78.3683 110.995 73.5555 114.763 71.4666 116.287C70.7322 116.82 70.0508 117.008 69.4327 116.849C68.455 116.594 67.9747 115.565 67.6539 114.882L67.4389 114.452C67.4389 114.452 61.0536 104.575 60.3223 103.446C58.384 105.93 50.9568 115.468 50.9568 115.468C50.5326 116.009 49.952 116.327 49.3184 116.367C48.7485 116.403 47.86 116.232 46.8422 115.216L40.4146 109.072L40.4146 98.1184C40.4146 96.931 40.8307 96.0665 41.5573 95.7478C41.9583 95.5729 42.7935 95.4269 43.8647 96.4133C43.8647 96.4133 47.4706 99.6298 48.1653 100.245C48.7727 99.5049 53.7018 93.4814 54.1183 92.9693C53.9003 92.6062 53.5028 91.9459 53.1927 91.4239C52.3976 92.0312 47.8234 95.5208 47.8234 95.5208L28.5816 83.7929C28.5816 83.7929 28.2078 83.5991 28.0674 83.217C28.0062 83.0585 27.9692 82.8729 27.9692 82.6821C27.9692 82.353 28.0755 82.0084 28.3327 81.7539C28.3327 81.7539 29.8807 80.336 30.183 80.065L30.183 73.5268C28.4408 72.3548 26.2398 71.6756 26.2398 71.6756C23.3894 70.9675 19.5819 70.5303 15.8006 71.095C10.6919 71.8556 6.58808 74.4334 4.61153 75.6821C2.76032 76.8278 1.47291 77.0793 0.678676 76.4617C-0.146139 75.8225 -0.217638 74.4119 0.455997 72.2644C1.20027 69.9019 3.57308 66.7624 6.65312 64.0709C9.73703 61.3776 14.0162 59.2831 18.7041 58.1744C20.29 57.798 25.8824 57.1536 29.4379 58.3075C29.7829 58.0581 35.1897 54.1369 35.8973 53.6248C35.3568 53.0468 33.3066 51.9304 31.9546 51.3816C31.2305 51.084 24.6251 48.125 19.6908 45.837C15.0533 43.6835 11.3875 40.5173 9.08752 36.6809C7.28455 33.6711 6.45715 30.545 6.45715 26.4325C6.45715 25.2631 6.52778 24.0089 6.65657 22.6594ZM37.1533 54.027L29.8751 59.3115L29.8756 59.3128L29.6499 59.4747L29.3794 59.3796C26.2558 58.242 20.7306 58.7912 18.9539 59.2124C14.4301 60.2806 10.3151 62.2908 7.35738 64.8733C4.46771 67.4033 2.16081 70.4287 1.48329 72.5814C0.897089 74.4481 1.03923 75.3789 1.3347 75.6123C1.47683 75.7209 2.08759 75.9832 4.04604 74.7716C6.07988 73.4855 10.3233 70.8801 15.6478 70.0311C18.5564 69.5668 22.7326 69.7236 26.2752 70.6195C28.3754 71.1501 29.5525 71.8341 31.0083 72.7675L31.2577 72.9238L31.2577 80.2976L31.2495 80.5388L29.0908 82.5063C29.0615 82.5386 29.043 82.6071 29.043 82.679C29.043 82.7424 29.0615 82.7953 29.08 82.838C29.1089 82.8561 47.1554 93.8548 47.7627 94.2235C48.2826 93.8225 53.4955 89.8427 53.4955 89.8427L55.4285 93.0618L48.2877 101.786C48.2877 101.786 43.1571 97.2118 43.1489 97.2036C42.6949 96.7871 42.2603 96.607 41.9898 96.7238C41.7486 96.8327 41.4863 97.254 41.4863 98.1158L41.4863 108.614C41.8072 108.916 47.6033 114.458 47.6033 114.458C48.1839 115.036 48.7542 115.327 49.2525 115.295C49.669 115.272 49.9473 115.017 50.1114 114.81L60.4076 101.595L68.3409 113.869L68.6273 114.425C68.8733 114.956 69.2131 115.682 69.6985 115.81C69.9927 115.884 70.3743 115.751 70.836 115.417C73.0284 113.824 77.6978 110.151 78.2969 109.552L78.464 109.388C78.7453 109.107 78.9916 108.866 78.9916 108.741L78.9916 97.4426C78.9916 97.2785 78.8887 97.0317 78.7612 96.9762C78.6634 96.9361 78.43 97.0024 78.0453 97.3711L71.8594 102.046L66.6697 93.7699L76.6826 81.1513C76.6826 81.1513 79.7604 83.5671 79.7604 83.5697C80.1821 83.8536 80.54 83.9673 80.7097 83.8721C80.9772 83.7209 81.1047 83.0369 81.1047 82.5149L81.1021 82.3874L81.1021 74.0402C80.3514 73.2688 75.918 68.6735 75.918 68.6735C75.7005 68.4297 75.4593 68.3181 75.1996 68.3367C74.9153 68.3629 74.6263 68.5434 74.4622 68.8031C74.0302 69.488 67.3378 77.8059 66.5737 78.7522L66.1361 79.2957L65.7252 78.7311C65.3113 78.1608 63.8025 77.5514 62.9462 77.302L62.5616 77.1852L62.5616 61.3849L62.5245 61.2126L64.3758 59.3274C64.5984 59.131 65.1954 58.2485 65.0171 57.7764C64.8814 57.4129 64.1893 57.2066 63.1715 57.201L60.3374 57.4663L60.7961 56.5941C62.2174 53.8733 62.559 50.7497 62.5909 48.6048C62.652 44.9325 61.8776 41.9016 60.3055 39.5973C58.4229 36.8527 57.1449 36.0464 54.8324 34.5751L54.1988 34.1724C51.5155 32.4564 36.4917 24.5658 36.3513 24.4917C36.3513 24.4917 30.7831 21.7317 30.7749 21.7317C26.752 19.6931 24.9964 17.5425 25.1028 14.761C25.1609 13.0403 27.386 9.82112 31.4188 9.82112C33.7438 9.82112 35.6428 9.90597 38.9119 11.0034C43.3978 12.5071 45.6733 14.8794 45.6733 18.0882L45.6466 18.4755C46.0786 18.7727 50.3823 21.7131 51.0744 22.1852C51.6361 21.4582 60.5536 10.0115 61.1949 9.18711C60.402 8.65948 55.351 5.27838 54.7519 4.87824C53.0225 6.56233 52.479 6.63642 50.4296 6.22552C49.8409 6.10879 48.799 5.69014 47.3642 5.10652C43.6256 3.59773 37.3708 1.07073 31.9671 1.07073C22.7127 1.07073 17.9456 5.37959 13.4804 10.1816C10.8315 12.9972 8.0874 18.9927 7.72388 22.7576C7.02526 29.9936 8.40915 33.4566 10.0054 36.1266C12.1925 39.7777 15.6998 42.8 20.1409 44.8606C24.9593 47.0986 31.6647 50.0864 32.3569 50.3836C33.5848 50.9143 37.0689 52.5286 37.1533 53.7566L37.1533 54.027Z" transform="translate(8.05481 2.445435)" id="Shape" fill="#C4CDD3" fill-rule="evenodd" stroke="none" />
      <path d="M78.0752 112.941L77.2689 112.941L77.2689 115.14L76.7201 115.14L76.7201 112.941L75.919 112.941L75.919 112.464L78.0747 112.464M81.7315 115.14L81.1884 115.14L81.1884 113.013L81.1755 113.013L80.4037 115.14L79.8735 115.14L79.1257 113.013L79.1128 113.013L79.1128 115.14L78.5667 115.14L78.5667 112.464L79.5129 112.464L80.1362 114.212L80.1491 114.212L80.7904 112.464L81.7311 112.464L81.7311 115.14L81.7315 115.14ZM78.0067 80.1999L78.0067 72.1739L72.9867 67.6609L59.085 84.9196L57.1334 81.8047C58.8248 80.5397 61.0103 78.9172 61.2545 78.7949C61.652 78.5933 62.6543 77.9938 63.1578 77.9938C63.6114 77.9938 62.4532 75.9866 59.1436 75.9866L59.1436 58.227L61.0499 56.1191C61.0499 56.1191 58.7296 56.4852 57.6348 56.1509C57.4039 56.0794 57.0167 55.8938 56.5395 55.6474C57.1627 54.6533 57.7226 53.5262 58.1413 52.2112C60.4167 45.0148 58.926 38.3728 53.5249 34.2788C49.7359 31.4073 34.1634 23.5269 34.1634 23.5269C34.1634 23.5269 24.7424 18.9105 23.7272 17.8949C23.0006 17.1683 21.5237 16.0389 21.5237 12.4778C21.5237 10.3539 23.8862 8.01257 24.9039 7.53275C26.5376 6.75833 27.07 6.39265 30.3714 6.34484C32.2407 6.31857 33.9778 6.76651 34.2108 6.79278C36.2658 7.01029 41.1311 8.61471 43.6448 12.0113C44.6018 12.9714 44.793 15.787 44.793 15.787L48.7091 18.2954L57.2394 7.15846L52.62 4.04827C51.3158 5.45369 48.8103 5.55146 47.8072 5.05313C46.8023 4.54962 38.1902 1.4123 36.9678 1.02293C34.6605 0.285979 29.6444 -0.265766 26.9369 0.134365C24.2269 0.537512 19.7806 1.35975 16.2987 5.05312C12.2392 9.36414 12.1862 12.8271 12.1862 14.6835C12.1862 17.5947 12.9391 21.4422 16.1979 24.701C20.8991 29.3993 28.0369 32.3428 29.6439 33.2309C32.4991 34.8086 41.4881 39.5124 42.785 40.2679C48.3081 43.4793 50.4134 46.8919 49.8143 51.2055C49.7824 51.4174 49.7161 51.6164 49.6683 51.8179C47.2498 50.397 43.8511 48.2542 42.4853 46.8914C42.4853 46.8914 41.6609 47.7688 41.1307 48.2938L37.1272 51.2925C37.5992 49.3461 37.6548 46.0188 37.5725 45.6871C37.4687 45.2844 37.1698 42.073 34.362 40.0685C32.4556 38.7057 28.1916 36.155 24.5301 34.349C22.9575 33.5724 17.8428 30.4803 15.3981 28.4439C15.3981 28.4439 11.1861 24.5175 10.5336 22.1068C9.27676 19.3468 9.22637 12.8266 9.88019 12.1741C9.88019 12.1741 8.27578 13.9797 7.17186 17.5938C6.6339 19.3571 6.26909 21.6559 6.26909 23.2125C6.26909 25.8191 6.71876 30.3851 9.58257 34.2482C10.8415 35.9508 12.8185 37.8865 14.9084 39.2704C17.4672 40.9566 20.0416 41.9485 20.2143 42.073C20.9172 42.5744 27.5403 45.3688 28.1425 45.6712C28.7416 45.9731 31.7777 47.3837 32.4221 47.7287C34.71 48.9511 35.8876 49.7359 36.609 51.6827L29.7434 56.8241C29.7434 56.8241 30.0454 57.3728 30.0454 58.2265L30.0454 58.876C29.1202 58.5715 28.1787 58.3032 27.2375 58.1417C22.7245 57.3728 19.9779 57.4202 16.4038 58.3032C12.4395 59.2818 8.27664 60.8806 4.36403 64.7945C-0.0542336 69.2114 3.28609e-05 72.1735 3.28609e-05 72.1735L4.41227 69.5698C8.10436 67.4933 12.9624 66.2555 16.4042 66.2555C24.6054 66.2555 28.8609 68.6231 30.0462 69.9411L30.0462 77.8929C30.0462 79.4737 29.572 79.6718 29.2192 79.9746C29.084 80.0909 28.9699 80.0991 28.4926 80.4255C28.4926 80.4255 29.0974 80.6504 29.2455 80.802C29.6456 81.1013 45.2659 90.5361 45.2659 90.5361L51.314 86.1049L54.3002 90.8617L46.0007 101.169L40.2813 95.9502L40.2813 105.684L46.804 111.706L58.317 97.2497L67.7695 112.305L75.3979 106.188L75.3979 96.5549L69.2783 101.169L63.0764 91.2787L74.2922 77.1913M39.0258 58.5293L42.5891 55.92C43.5573 56.7259 44.6974 57.4581 45.8319 58.1102L45.6967 58.2265C45.6967 58.2265 41.5894 61.7424 39.0253 62.1029L39.0253 58.5293L39.0258 58.5293ZM45.2651 81.4036L39.0258 77.594L39.0258 68.1411C41.6398 67.6776 48.0165 64.6389 51.3154 61.3375C51.3576 61.9603 51.3447 68.2763 51.3339 72.5559L47.5023 66.4544L41.6687 70.6013L41.6687 78.0255L44.8956 75.8858L47.314 79.7385L45.2647 81.4036L45.2651 81.4036Z" transform="translate(10.27979 4.802734)" id="Shape" fill="#231F20" stroke="none" />
    </g>
  </g>
</svg>