<?xml version="1.0" encoding="utf-8"?>
<svg width="126px" height="144px" viewBox="0 0 126 144" version="1.1" xmlns:xlink="http://www.w3.org/1999/xlink" xmlns="http://www.w3.org/2000/svg">
  <defs>
    <path d="M0 0L122.212 0L122.212 140.38L0 140.38L0 0Z" id="path_1" />
    <clipPath id="mask_1">
      <use xlink:href="#path_1" />
    </clipPath>
  </defs>
  <g id="Yankees_logo" transform="translate(1.565704 1.565704)">
    <path d="M0 0L122.212 0L122.212 140.38L0 140.38L0 0Z" id="Background" fill="none" stroke="none" />
    <g clip-path="url(#mask_1)">
      <g id="Capa_x0020_1" transform="translate(0.4830017 0.5936203)">
        <path d="M0.000153343 37.1095C1.93668 37.1819 12.157 26.155 13.6562 25.0276C24.5835 39.9863 24.8864 45.1641 50.0752 67.889C48.5589 57.5331 30.5722 26.805 21.2442 17.2598C25.7972 12.6576 35.2921 3.41984 37.9344 0.288081C40.7333 8.34126 50.6806 39.6976 61.0002 58.6833L61.0002 58.6833C68.8902 43.7246 82.6735 5.75181 82.5467 0C87.0572 4.17571 93.9609 13.2222 98.9356 17.5481C89.2224 25.0272 72.5316 59.2587 66.4607 75.3683C64.7016 80.0409 66.1584 82.8474 66.1584 82.8474C71.5993 87.0231 89.8301 104.134 93.169 107.299C86.494 64.15 100.454 35.3834 110.165 25.0273C111.721 26.6681 116.42 30.6001 121.394 35.6709C116.236 42.5745 106.033 60.6064 105.613 79.3958C105.006 106.436 109.557 118.23 116.841 128.874C113.583 132.867 111.143 132.605 106.524 138.079C99.2154 131.369 71.3596 106.233 66.4617 101.833L66.4617 101.833L67.3741 122.257C67.6067 123.45 67.8681 134.161 72.5325 139.231C62.286 139.244 60.3175 139.245 50.0747 139.518C53.495 134.894 54.549 124.815 54.6276 121.683L54.3229 89.1765C50.2797 85.299 30.3043 67.1612 28.5279 65.3001L28.5279 65.3001C30.6509 76.2317 30.9563 110.176 15.7829 135.779C14.5376 133.988 1.86794 118.921 2.12397 118.519C6.78784 111.21 15.0173 94.7578 15.1733 79.3965C15.4579 51.3448 4.5086 43.9692 0 37.1089L0.000153343 37.1095Z" id="Shape" fill="#0F1C43" fill-rule="evenodd" stroke="#0F1C43" stroke-width="3.13141" />
      </g>
    </g>
  </g>
</svg>